#define avg_width 12
#define avg_height 12
static unsigned char avg_bits[] = {
   0x00, 0x00, 0x00, 0x00, 0xfc, 0x03, 0x24, 0x02, 0x24, 0x02, 0x24, 0x02,
   0xfc, 0x02, 0x94, 0x03, 0x14, 0x02, 0x04, 0x02, 0xfc, 0x03, 0x00, 0x00 };
