#define sd_width 12
#define sd_height 12
static unsigned char sd_bits[] = {
   0x00, 0x00, 0x00, 0x00, 0xfe, 0x07, 0xfe, 0x07, 0xfe, 0x07, 0x00, 0x07,
   0x7e, 0x07, 0x7e, 0x07, 0x7e, 0x07, 0x7e, 0x07, 0x00, 0x00, 0x00, 0x00 };
