#define float_width 12
#define float_height 12
static unsigned char float_bits[] = {
   0x00, 0x00, 0x00, 0x00, 0xfc, 0x03, 0x04, 0x02, 0xf4, 0x02, 0x94, 0x02,
   0x94, 0x02, 0x94, 0x02, 0xf4, 0x02, 0x04, 0x02, 0xfc, 0x03, 0x00, 0x00 };
