<?xml version="1.0" encoding="utf-8"?>
<!-- Generator: Adobe Illustrator 10.0, SVG Export Plug-In . SVG Version: 3.0.0 Build 76)  -->
<!DOCTYPE svg PUBLIC "-//W3C//DTD SVG 1.0//EN"    "http://www.w3.org/TR/2001/REC-SVG-20010904/DTD/svg10.dtd" [
	<!ENTITY ns_flows "http://ns.adobe.com/Flows/1.0/">
	<!ENTITY ns_extend "http://ns.adobe.com/Extensibility/1.0/">
	<!ENTITY ns_ai "http://ns.adobe.com/AdobeIllustrator/10.0/">
	<!ENTITY ns_graphs "http://ns.adobe.com/Graphs/1.0/">
	<!ENTITY ns_vars "http://ns.adobe.com/Variables/1.0/">
	<!ENTITY ns_imrep "http://ns.adobe.com/ImageReplacement/1.0/">
	<!ENTITY ns_sfw "http://ns.adobe.com/SaveForWeb/1.0/">
	<!ENTITY ns_custom "http://ns.adobe.com/GenericCustomNamespace/1.0/">
	<!ENTITY ns_adobe_xpath "http://ns.adobe.com/XPath/1.0/">
	<!ENTITY ns_svg "http://www.w3.org/2000/svg">
	<!ENTITY ns_xlink "http://www.w3.org/1999/xlink">
]>
<svg 
	 xmlns:x="&ns_extend;" xmlns:i="&ns_ai;" xmlns:graph="&ns_graphs;" i:viewOrigin="5.8428 38.8374" i:rulerOrigin="0 0" i:pageBounds="0 48 48 0"
	 xmlns="&ns_svg;" xmlns:xlink="&ns_xlink;" xmlns:a="http://ns.adobe.com/AdobeSVGViewerExtensions/3.0/"
	 width="37.011" height="32.724" viewBox="0 0 37.011 32.724" overflow="visible" enable-background="new 0 0 37.011 32.724"
	 xml:space="preserve">
	<metadata>
		<variableSets  xmlns="http://ns.adobe.com/Variables/1.0/">
			<variableSet  varSetName="binding1" locked="none">
				<variables></variables>
				<v:sampleDataSets  xmlns="http://ns.adobe.com/GenericCustomNamespace/1.0/" xmlns:v="http://ns.adobe.com/Variables/1.0/">
					</v:sampleDataSets>
			</variableSet>
		</variableSets>
		<sfw  xmlns="&ns_sfw;">
			<slices></slices>
			<sliceSourceBounds  y="6.113" x="5.843" width="37.011" height="32.724" bottomLeftOrigin="true"></sliceSourceBounds>
		</sfw>
	</metadata>
	<g id="Layer_1" i:layer="yes" i:dimmedPercent="50" i:rgbTrio="#4F008000FFFF">
		<g i:knockout="Off">
			<g i:knockout="Off">
				<path i:knockout="Off" fill="#353535" d="M34.393,6.677H3.567c-1.445,0-2.62,1.179-2.62,2.629v20.791
					c0,1.45,1.175,2.627,2.62,2.627h30.823c1.445,0,2.62-1.177,2.62-2.627V9.306C37.012,7.856,35.838,6.677,34.393,6.677z
					 M3.567,7.428h30.823c1.031,0,1.872,0.844,1.872,1.878v16.045c-1.191-0.185-5.518-0.89-7.551-1.642
					c-2.37-0.878-4.804-4.696-7.611-4.57c-2.811,0.125-6.616,3.006-6.616,3.006c3.556,2.38,4.931,2.442,4.931,2.442
					s2.12,0.313-0.438,0.124c-2.557-0.188-9.109-5.823-10.981-5.886c-1.582-0.053-5.216,2.759-6.301,3.629V9.306
					C1.696,8.271,2.535,7.428,3.567,7.428z"/>
				<path i:knockout="Off" fill="#353535" d="M32.952,14.692c0,1.626-1.4,2.944-3.126,2.944c-1.727,0-3.13-1.318-3.13-2.944
					c0-1.625,1.403-2.943,3.13-2.943C31.554,11.749,32.952,13.066,32.952,14.692z"/>
			</g>
			<g i:knockout="Off">
				
					<linearGradient id="XMLID_1_" gradientUnits="userSpaceOnUse" x1="-2.7432" y1="766.4897" x2="33.3203" y2="766.4897" gradientTransform="matrix(1 0 0 -1 2.7432 785.3506)">
					<stop  offset="0" style="stop-color:#33ABC4"/>
					<stop  offset="0.3596" style="stop-color:#1B9045"/>
					<stop  offset="0.6011" style="stop-color:#F3B718"/>
					<stop  offset="1" style="stop-color:#A2C020"/>
					<a:midPointStop  offset="0" style="stop-color:#33ABC4"/>
					<a:midPointStop  offset="0.5" style="stop-color:#33ABC4"/>
					<a:midPointStop  offset="0.3596" style="stop-color:#1B9045"/>
					<a:midPointStop  offset="0.5" style="stop-color:#1B9045"/>
					<a:midPointStop  offset="0.6011" style="stop-color:#F3B718"/>
					<a:midPointStop  offset="0.5" style="stop-color:#F3B718"/>
					<a:midPointStop  offset="1" style="stop-color:#A2C020"/>
				</linearGradient>
				<path i:knockout="Off" fill="url(#XMLID_1_)" d="M33.444,5.837H2.619C1.174,5.837,0,7.017,0,8.468v20.79
					c0,1.45,1.174,2.627,2.619,2.627h30.825c1.445,0,2.619-1.177,2.619-2.627V8.468C36.063,7.017,34.89,5.837,33.444,5.837z
					 M2.619,6.589h30.825c1.03,0,1.87,0.842,1.87,1.878v16.044c-1.19-0.186-5.516-0.892-7.55-1.642
					c-2.372-0.878-4.803-4.697-7.612-4.57c-2.809,0.125-6.615,3.007-6.615,3.007c3.557,2.379,4.93,2.44,4.93,2.44
					s2.121,0.313-0.437,0.124c-2.558-0.187-9.109-5.824-10.981-5.885c-1.584-0.053-5.216,2.759-6.302,3.63V8.468
					C0.747,7.432,1.587,6.589,2.619,6.589z"/>
				
					<linearGradient id="XMLID_2_" gradientUnits="userSpaceOnUse" x1="23.0068" y1="771.4976" x2="29.2627" y2="771.4976" gradientTransform="matrix(1 0 0 -1 2.7432 785.3506)">
					<stop  offset="0" style="stop-color:#33ABC4"/>
					<stop  offset="0.3596" style="stop-color:#1B9045"/>
					<stop  offset="0.6011" style="stop-color:#F3B718"/>
					<stop  offset="1" style="stop-color:#A2C020"/>
					<a:midPointStop  offset="0" style="stop-color:#33ABC4"/>
					<a:midPointStop  offset="0.5" style="stop-color:#33ABC4"/>
					<a:midPointStop  offset="0.3596" style="stop-color:#1B9045"/>
					<a:midPointStop  offset="0.5" style="stop-color:#1B9045"/>
					<a:midPointStop  offset="0.6011" style="stop-color:#F3B718"/>
					<a:midPointStop  offset="0.5" style="stop-color:#F3B718"/>
					<a:midPointStop  offset="1" style="stop-color:#A2C020"/>
				</linearGradient>
				<path i:knockout="Off" fill="url(#XMLID_2_)" d="M32.006,13.852c0,1.627-1.4,2.945-3.128,2.945
					c-1.727,0-3.128-1.318-3.128-2.945c0-1.625,1.401-2.942,3.128-2.942C30.605,10.91,32.006,12.227,32.006,13.852z"/>
			</g>
		</g>
		<path i:knockout="Off" fill="#666666" d="M13.821,17.972c-0.57,0.729-0.573,1.677-0.008,2.119
			c0.565,0.443,1.486,0.213,2.056-0.514L28.538,2.47c0.57-0.727,1.028-1.319,0.463-1.762C28.436,0.265,27.97,0.852,27.4,1.579
			L13.821,17.972z"/>
		<path i:knockout="Off" fill="#666666" d="M13.848,20.751c0,0-1.301-1.864-2.819-0.768c-1.519,1.098-0.792,1.378-0.868,2.853
			c-0.108,2.084-0.976,2.084-0.976,2.084s0.799,0.418,4.229-1.316C15.149,22.727,13.848,20.751,13.848,20.751z"/>
		<path i:knockout="Off" d="M13.53,17.264c-0.57,0.729-0.573,1.677-0.008,2.119c0.565,0.443,1.486,0.213,2.056-0.514L28.247,1.762
			C28.817,1.035,29.274,0.443,28.71,0c-0.566-0.443-1.031,0.144-1.602,0.871L13.53,17.264z"/>
		<path i:knockout="Off" d="M13.528,20.018c0,0-1.301-1.864-2.819-0.768c-1.519,1.098-0.791,1.377-0.868,2.853
			c-0.109,2.084-0.976,2.084-0.976,2.084s0.799,0.418,4.229-1.316C14.83,21.993,13.528,20.018,13.528,20.018z"/>
	</g>
</svg>
