<?xml version="1.0" encoding="utf-8"?>
<!-- Generator: Adobe Illustrator 10.0, SVG Export Plug-In . SVG Version: 3.0.0 Build 76)  -->
<!DOCTYPE svg PUBLIC "-//W3C//DTD SVG 1.0//EN"    "http://www.w3.org/TR/2001/REC-SVG-20010904/DTD/svg10.dtd" [
	<!ENTITY ns_flows "http://ns.adobe.com/Flows/1.0/">
	<!ENTITY ns_extend "http://ns.adobe.com/Extensibility/1.0/">
	<!ENTITY ns_ai "http://ns.adobe.com/AdobeIllustrator/10.0/">
	<!ENTITY ns_graphs "http://ns.adobe.com/Graphs/1.0/">
	<!ENTITY ns_vars "http://ns.adobe.com/Variables/1.0/">
	<!ENTITY ns_imrep "http://ns.adobe.com/ImageReplacement/1.0/">
	<!ENTITY ns_sfw "http://ns.adobe.com/SaveForWeb/1.0/">
	<!ENTITY ns_custom "http://ns.adobe.com/GenericCustomNamespace/1.0/">
	<!ENTITY ns_adobe_xpath "http://ns.adobe.com/XPath/1.0/">
	<!ENTITY ns_svg "http://www.w3.org/2000/svg">
	<!ENTITY ns_xlink "http://www.w3.org/1999/xlink">
]>
<svg 
	 xmlns:x="&ns_extend;" xmlns:i="&ns_ai;" xmlns:graph="&ns_graphs;" i:viewOrigin="6.8916 39.02" i:rulerOrigin="0 0" i:pageBounds="0 48 48 0"
	 xmlns="&ns_svg;" xmlns:xlink="&ns_xlink;" xmlns:a="http://ns.adobe.com/AdobeSVGViewerExtensions/3.0/"
	 width="33.775" height="34.336" viewBox="0 0 33.775 34.336" overflow="visible" enable-background="new 0 0 33.775 34.336"
	 xml:space="preserve">
	<metadata>
		<variableSets  xmlns="http://ns.adobe.com/Variables/1.0/">
			<variableSet  varSetName="binding1" locked="none">
				<variables></variables>
				<v:sampleDataSets  xmlns="http://ns.adobe.com/GenericCustomNamespace/1.0/" xmlns:v="http://ns.adobe.com/Variables/1.0/">
					</v:sampleDataSets>
			</variableSet>
		</variableSets>
		<sfw  xmlns="&ns_sfw;">
			<slices></slices>
			<sliceSourceBounds  y="4.684" x="6.892" width="33.775" height="34.336" bottomLeftOrigin="true"></sliceSourceBounds>
		</sfw>
	</metadata>
	<g id="Layer_1" i:layer="yes" i:dimmedPercent="50" i:rgbTrio="#4F008000FFFF">
		<g i:knockout="Off">
			<g i:knockout="Off">
				<path i:knockout="Off" fill="#1E3842" d="M23.167,17.128c0,3.374-2.744,6.119-6.118,6.119c-3.375,0-6.12-2.745-6.12-6.119
					s2.746-6.119,6.12-6.119C20.423,11.009,23.167,13.754,23.167,17.128z M17.049,10.009c-3.926,0-7.12,3.194-7.12,7.119
					c0,3.926,3.194,7.119,7.12,7.119c3.925,0,7.118-3.193,7.118-7.119C24.167,13.203,20.974,10.009,17.049,10.009z"/>
			</g>
			<g i:knockout="Off">
				<path i:knockout="Off" fill="#1E3842" d="M31.038,17.579c0-1.35,0.973-2.487,2.313-2.704l0.41-0.592
					c-0.414-2.057-1.188-3.994-2.302-5.758l-0.736-0.123c-0.503,0.405-1.096,0.619-1.716,0.619c-1.517,0-2.75-1.233-2.75-2.75
					c0-0.67,0.254-1.321,0.715-1.832L26.89,3.696c-1.979-1.401-4.177-2.347-6.536-2.811l-0.592,0.421
					c-0.19,1.349-1.354,2.367-2.709,2.367s-2.519-1.018-2.708-2.367l-0.591-0.421C11.61,1.305,9.585,2.133,7.735,3.345L7.609,4.063
					C7.975,4.55,8.168,5.117,8.168,5.705c0,1.517-1.234,2.75-2.75,2.75c-0.605,0-1.188-0.206-1.686-0.595L3.012,7.97
					c-1.289,1.876-2.175,3.938-2.635,6.129l0.441,0.6c1.418,0.136,2.488,1.306,2.488,2.72c0,1.424-1.12,2.622-2.549,2.728
					l-0.455,0.591c0.419,2.238,1.262,4.331,2.506,6.221l0.744,0.104c0.514-0.443,1.131-0.678,1.786-0.678
					c1.516,0,2.75,1.233,2.75,2.75c0,0.663-0.25,1.309-0.703,1.816l0.092,0.746c1.903,1.295,3.988,2.177,6.197,2.621l0.593-0.416
					c0.205-1.355,1.342-2.339,2.705-2.339c1.371,0,2.51,0.99,2.708,2.354l0.59,0.419c2.259-0.437,4.361-1.301,6.251-2.57
					l0.085-0.757c-0.482-0.516-0.749-1.182-0.749-1.876c0-1.517,1.233-2.75,2.75-2.75c0.688,0,1.351,0.264,1.864,0.741l0.757-0.089
					c1.265-1.899,2.122-3.973,2.548-6.163l-0.414-0.59C32.015,20.073,31.038,18.936,31.038,17.579z M32.793,20.681
					c-0.4,2.061-1.207,4.012-2.397,5.8l0.757-0.089c-0.7-0.65-1.604-1.009-2.546-1.009c-2.067,0-3.75,1.683-3.75,3.75
					c0,0.949,0.362,1.858,1.021,2.56l0.085-0.757c-1.776,1.194-3.756,2.008-5.882,2.418l0.59,0.419
					c-0.267-1.83-1.856-3.21-3.698-3.21c-1.861,0-3.415,1.342-3.694,3.19l0.593-0.416c-2.078-0.418-4.04-1.248-5.832-2.467
					l0.092,0.746c0.617-0.692,0.957-1.573,0.957-2.482c0-2.067-1.682-3.75-3.75-3.75c-0.885,0-1.752,0.327-2.439,0.922l0.744,0.104
					c-1.17-1.778-1.963-3.749-2.358-5.855L0.83,21.145c1.949-0.145,3.476-1.78,3.476-3.726c0-1.933-1.458-3.53-3.392-3.715
					l0.441,0.601c0.433-2.061,1.268-4.001,2.481-5.768l-0.72,0.111c0.676,0.528,1.472,0.807,2.302,0.807
					c2.068,0,3.75-1.682,3.75-3.75c0-0.806-0.263-1.581-0.76-2.242L8.283,4.182c1.742-1.141,3.647-1.92,5.663-2.316l-0.591-0.421
					c0.258,1.841,1.849,3.229,3.699,3.229c1.85,0,3.439-1.387,3.699-3.227L20.16,1.866c2.22,0.437,4.289,1.327,6.151,2.646
					l-0.082-0.743c-0.627,0.696-0.973,1.584-0.973,2.502c0,2.068,1.683,3.75,3.75,3.75c0.851,0,1.661-0.291,2.343-0.84l-0.736-0.122
					c1.048,1.661,1.777,3.485,2.167,5.421l0.41-0.592c-1.826,0.295-3.152,1.848-3.152,3.691c0,1.854,1.333,3.406,3.169,3.692
					L32.793,20.681z"/>
			</g>
		</g>
		<g i:knockout="Off">
			<g i:knockout="Off">
				<path i:knockout="Off" fill="#4F849F" d="M22.866,16.246c0,3.374-2.745,6.119-6.12,6.119c-3.375,0-6.12-2.745-6.12-6.119
					c0-3.375,2.746-6.12,6.12-6.12C20.121,10.126,22.866,12.872,22.866,16.246z M16.746,9.125c-3.926,0-7.12,3.194-7.12,7.12
					c0,3.926,3.194,7.119,7.12,7.119c3.926,0,7.12-3.193,7.12-7.119C23.866,12.321,20.672,9.126,16.746,9.125z"/>
			</g>
			<g i:knockout="Off">
				<path i:knockout="Off" fill="#4F849F" d="M30.735,16.696c0-1.351,0.973-2.488,2.312-2.704l0.411-0.592
					c-0.411-2.052-1.185-3.99-2.3-5.758l-0.736-0.123c-0.504,0.405-1.098,0.619-1.717,0.619c-1.517,0-2.75-1.233-2.75-2.75
					c0-0.669,0.254-1.32,0.716-1.832l-0.082-0.743c-1.979-1.401-4.178-2.346-6.536-2.811l-0.592,0.421
					c-0.19,1.349-1.355,2.366-2.71,2.366s-2.519-1.018-2.709-2.368L13.45,0c-2.145,0.422-4.168,1.251-6.016,2.462L7.309,3.18
					c0.365,0.486,0.557,1.054,0.557,1.642c0,1.517-1.234,2.75-2.75,2.75c-0.605,0-1.188-0.206-1.684-0.595l-0.721,0.11
					c-1.289,1.875-2.175,3.937-2.635,6.128l0.441,0.6c1.418,0.137,2.488,1.308,2.488,2.722c0,1.425-1.12,2.622-2.55,2.727L0,19.855
					c0.42,2.24,1.263,4.333,2.507,6.222l0.744,0.104c0.514-0.443,1.131-0.678,1.786-0.678c1.516,0,2.75,1.233,2.75,2.75
					c0,0.662-0.25,1.308-0.703,1.815l0.092,0.746c1.904,1.296,3.989,2.179,6.196,2.622l0.593-0.415
					c0.206-1.355,1.344-2.34,2.706-2.34c1.35,0,2.514,1.012,2.708,2.354l0.59,0.42c2.262-0.438,4.365-1.303,6.252-2.57l0.086-0.757
					c-0.483-0.517-0.75-1.183-0.75-1.876c0-1.517,1.233-2.75,2.75-2.75c0.688,0,1.35,0.263,1.863,0.741l0.757-0.089
					c1.267-1.903,2.123-3.978,2.547-6.164l-0.414-0.589C31.713,19.19,30.735,18.052,30.735,16.696z M32.492,19.8
					c-0.397,2.056-1.204,4.007-2.396,5.799l0.757-0.089c-0.699-0.65-1.603-1.009-2.545-1.009c-2.067,0-3.75,1.683-3.75,3.75
					c0,0.948,0.362,1.857,1.02,2.56l0.086-0.757c-1.774,1.192-3.754,2.006-5.883,2.418l0.59,0.42
					c-0.266-1.831-1.854-3.211-3.698-3.211c-1.86,0-3.414,1.342-3.694,3.189l0.593-0.415c-2.076-0.417-4.038-1.248-5.831-2.468
					l0.092,0.746c0.616-0.692,0.956-1.573,0.956-2.481c0-2.067-1.682-3.75-3.75-3.75c-0.885,0-1.751,0.327-2.439,0.92l0.744,0.104
					c-1.17-1.776-1.964-3.746-2.359-5.854l-0.455,0.591c1.949-0.143,3.477-1.778,3.477-3.725c0-1.933-1.458-3.53-3.392-3.717
					l0.441,0.601C1.487,11.36,2.322,9.42,3.535,7.654l-0.721,0.11c0.674,0.528,1.47,0.808,2.301,0.808c2.068,0,3.75-1.682,3.75-3.75
					c0-0.806-0.262-1.581-0.756-2.241L7.983,3.298c1.738-1.14,3.643-1.92,5.66-2.317l-0.592-0.421
					c0.259,1.84,1.85,3.228,3.699,3.228s3.44-1.387,3.7-3.226l-0.592,0.421c2.22,0.437,4.289,1.327,6.151,2.646l-0.082-0.743
					c-0.628,0.696-0.974,1.585-0.974,2.502c0,2.068,1.683,3.75,3.75,3.75c0.849,0,1.659-0.291,2.344-0.839l-0.736-0.124
					c1.05,1.665,1.778,3.489,2.165,5.421l0.411-0.592c-1.827,0.294-3.153,1.847-3.153,3.691c0,1.853,1.333,3.405,3.171,3.693
					L32.492,19.8z"/>
			</g>
		</g>
	</g>
</svg>
