<?xml version="1.0" encoding="utf-8"?>
<!-- Generator: Adobe Illustrator 10.0, SVG Export Plug-In . SVG Version: 3.0.0 Build 76)  -->
<!DOCTYPE svg PUBLIC "-//W3C//DTD SVG 1.0//EN"    "http://www.w3.org/TR/2001/REC-SVG-20010904/DTD/svg10.dtd" [
	<!ENTITY ns_flows "http://ns.adobe.com/Flows/1.0/">
	<!ENTITY ns_extend "http://ns.adobe.com/Extensibility/1.0/">
	<!ENTITY ns_ai "http://ns.adobe.com/AdobeIllustrator/10.0/">
	<!ENTITY ns_graphs "http://ns.adobe.com/Graphs/1.0/">
	<!ENTITY ns_vars "http://ns.adobe.com/Variables/1.0/">
	<!ENTITY ns_imrep "http://ns.adobe.com/ImageReplacement/1.0/">
	<!ENTITY ns_sfw "http://ns.adobe.com/SaveForWeb/1.0/">
	<!ENTITY ns_custom "http://ns.adobe.com/GenericCustomNamespace/1.0/">
	<!ENTITY ns_adobe_xpath "http://ns.adobe.com/XPath/1.0/">
	<!ENTITY ns_svg "http://www.w3.org/2000/svg">
	<!ENTITY ns_xlink "http://www.w3.org/1999/xlink">
]>
<svg 
	 xmlns:x="&ns_extend;" xmlns:i="&ns_ai;" xmlns:graph="&ns_graphs;" i:viewOrigin="6.6914 39.9951" i:rulerOrigin="0 0" i:pageBounds="0 48 48 0"
	 xmlns="&ns_svg;" xmlns:xlink="&ns_xlink;" xmlns:a="http://ns.adobe.com/AdobeSVGViewerExtensions/3.0/"
	 width="36.251" height="34.517" viewBox="0 0 36.251 34.517" overflow="visible" enable-background="new 0 0 36.251 34.517"
	 xml:space="preserve">
	<metadata>
		<variableSets  xmlns="http://ns.adobe.com/Variables/1.0/">
			<variableSet  varSetName="binding1" locked="none">
				<variables></variables>
				<v:sampleDataSets  xmlns="http://ns.adobe.com/GenericCustomNamespace/1.0/" xmlns:v="http://ns.adobe.com/Variables/1.0/">
					</v:sampleDataSets>
			</variableSet>
		</variableSets>
		<sfw  xmlns="&ns_sfw;">
			<slices></slices>
			<sliceSourceBounds  y="5.479" x="6.691" width="36.251" height="34.517" bottomLeftOrigin="true"></sliceSourceBounds>
		</sfw>
	</metadata>
	<g id="Layer_1" i:layer="yes" i:dimmedPercent="50" i:rgbTrio="#4F008000FFFF">
		<g i:knockout="Off">
			<g i:knockout="Off">
				<path i:knockout="Off" fill="#1E3842" d="M29.675,24.035c-0.09,2.07-1.847,3.683-3.917,3.593s-3.681-1.848-3.591-3.918
					c0.09-2.068,1.847-3.681,3.917-3.591S29.765,21.967,29.675,24.035z M26.11,19.506c-2.409-0.104-4.454,1.77-4.559,4.177
					c-0.104,2.409,1.771,4.453,4.18,4.558s4.453-1.77,4.558-4.179C30.394,21.654,28.52,19.61,26.11,19.506z"/>
			</g>
			<g i:knockout="Off">
				<path i:knockout="Off" fill="#1E3842" d="M34.491,24.521c0.036-0.828,0.664-1.501,1.491-1.597l0.269-0.353
					c-0.2-1.273-0.624-2.481-1.26-3.595l-0.448-0.094c-0.32,0.234-0.688,0.35-1.069,0.333c-0.931-0.04-1.655-0.83-1.615-1.76
					c0.019-0.411,0.192-0.804,0.488-1.105l-0.03-0.458c-1.176-0.912-2.5-1.551-3.936-1.898l-0.374,0.242
					c-0.153,0.823-0.895,1.417-1.725,1.38c-0.831-0.036-1.519-0.691-1.6-1.525l-0.351-0.274c-1.327,0.202-2.592,0.656-3.759,1.35
					l-0.097,0.438c0.212,0.308,0.315,0.661,0.3,1.021c-0.04,0.93-0.83,1.654-1.761,1.614c-0.371-0.017-0.723-0.158-1.018-0.41
					l-0.445,0.049c-0.841,1.116-1.439,2.358-1.78,3.69l0.255,0.379c0.867,0.122,1.492,0.868,1.454,1.736
					c-0.038,0.873-0.757,1.579-1.636,1.605l-0.295,0.351c0.198,1.384,0.659,2.69,1.372,3.883l0.454,0.083
					c0.327-0.258,0.712-0.386,1.114-0.368c0.931,0.04,1.655,0.83,1.614,1.761c-0.018,0.407-0.188,0.797-0.48,1.096l0.037,0.46
					c1.134,0.845,2.389,1.441,3.732,1.772l0.374-0.238c0.162-0.827,0.887-1.399,1.724-1.363c0.841,0.036,1.513,0.675,1.599,1.516
					l0.351,0.273c1.397-0.207,2.711-0.682,3.903-1.41l0.072-0.462c-0.282-0.329-0.428-0.745-0.409-1.172
					c0.04-0.931,0.829-1.653,1.76-1.613c0.422,0.019,0.822,0.198,1.124,0.504l0.468-0.034c0.826-1.132,1.407-2.381,1.726-3.714
					l-0.238-0.373C35.025,26.078,34.455,25.355,34.491,24.521z M35.486,26.471c-0.301,1.255-0.848,2.431-1.625,3.496l0.466-0.034
					c-0.412-0.418-0.957-0.662-1.535-0.687c-1.269-0.056-2.345,0.932-2.4,2.2c-0.025,0.583,0.173,1.15,0.558,1.598l0.072-0.463
					c-1.121,0.687-2.357,1.133-3.672,1.327l0.351,0.273c-0.115-1.13-1.054-2.019-2.184-2.068c-1.143-0.049-2.132,0.733-2.352,1.86
					l0.375-0.24c-1.264-0.312-2.445-0.873-3.513-1.668l0.037,0.46c0.396-0.409,0.629-0.94,0.652-1.498
					c0.056-1.268-0.932-2.346-2.201-2.401c-0.542-0.023-1.083,0.154-1.521,0.501l0.454,0.084c-0.671-1.122-1.105-2.354-1.292-3.655
					l-0.295,0.351c1.2-0.037,2.18-1,2.232-2.193c0.052-1.187-0.801-2.205-1.982-2.37l0.254,0.38
					c0.321-1.252,0.884-2.421,1.676-3.473l-0.445,0.05c0.4,0.341,0.882,0.532,1.391,0.555c1.269,0.055,2.346-0.931,2.4-2.2
					c0.021-0.494-0.119-0.978-0.406-1.396l-0.096,0.438c1.099-0.653,2.288-1.081,3.535-1.27l-0.351-0.274
					c0.108,1.136,1.049,2.03,2.184,2.079c1.134,0.049,2.146-0.759,2.354-1.881l-0.374,0.243c1.35,0.327,2.596,0.928,3.703,1.787
					l-0.03-0.458c-0.403,0.41-0.639,0.946-0.663,1.51c-0.055,1.268,0.933,2.345,2.201,2.4c0.521,0.022,1.026-0.134,1.46-0.453
					l-0.449-0.095c0.599,1.046,0.998,2.185,1.186,3.384l0.267-0.354c-1.128,0.133-1.982,1.05-2.031,2.182
					c-0.05,1.138,0.727,2.126,1.847,2.349L35.486,26.471z"/>
			</g>
		</g>
		<g i:knockout="Off">
			<g i:knockout="Off">
				<path i:knockout="Off" fill="#4F849F" d="M29.514,23.485c-0.09,2.07-1.847,3.682-3.918,3.592
					c-2.07-0.09-3.683-1.847-3.593-3.917c0.09-2.069,1.849-3.682,3.919-3.592C27.993,19.659,29.604,21.416,29.514,23.485z
					 M25.948,18.955c-2.408-0.104-4.454,1.77-4.559,4.179c-0.104,2.408,1.771,4.452,4.18,4.558c2.408,0.104,4.454-1.771,4.559-4.179
					C30.232,21.105,28.356,19.061,25.948,18.955z"/>
			</g>
			<g i:knockout="Off">
				<path i:knockout="Off" fill="#4F849F" d="M34.33,23.973c0.036-0.829,0.663-1.501,1.49-1.598l0.268-0.353
					c-0.197-1.27-0.62-2.479-1.258-3.594l-0.448-0.095c-0.32,0.234-0.69,0.35-1.07,0.333c-0.931-0.04-1.654-0.829-1.613-1.76
					c0.018-0.41,0.191-0.802,0.487-1.105l-0.029-0.458c-1.178-0.912-2.502-1.551-3.936-1.898l-0.375,0.242
					c-0.153,0.822-0.895,1.416-1.726,1.38c-0.831-0.036-1.519-0.692-1.6-1.525l-0.352-0.274c-1.327,0.202-2.591,0.656-3.757,1.351
					l-0.096,0.437c0.211,0.308,0.314,0.662,0.299,1.022c-0.041,0.931-0.831,1.654-1.762,1.614c-0.371-0.017-0.723-0.157-1.017-0.41
					l-0.445,0.049c-0.84,1.116-1.439,2.357-1.78,3.689l0.255,0.38c0.867,0.122,1.492,0.869,1.454,1.736
					c-0.038,0.874-0.757,1.579-1.637,1.604l-0.295,0.352c0.198,1.385,0.66,2.691,1.373,3.883l0.454,0.084
					c0.327-0.259,0.712-0.386,1.113-0.368c0.931,0.04,1.654,0.829,1.614,1.76c-0.019,0.407-0.188,0.797-0.479,1.096l0.037,0.46
					c1.134,0.846,2.389,1.443,3.731,1.774l0.375-0.24c0.163-0.825,0.888-1.399,1.723-1.363c0.828,0.036,1.516,0.688,1.598,1.517
					l0.352,0.273c1.399-0.209,2.714-0.684,3.905-1.411l0.071-0.461c-0.281-0.33-0.428-0.746-0.409-1.172
					c0.04-0.93,0.829-1.654,1.76-1.614c0.423,0.019,0.821,0.198,1.124,0.506l0.467-0.035c0.828-1.135,1.408-2.384,1.727-3.715
					l-0.238-0.373C34.863,25.528,34.294,24.804,34.33,23.973z M35.325,25.924c-0.299,1.251-0.845,2.427-1.625,3.493l0.467-0.034
					c-0.411-0.417-0.956-0.661-1.535-0.687c-1.268-0.055-2.345,0.934-2.4,2.201c-0.024,0.582,0.174,1.149,0.559,1.598l0.072-0.462
					c-1.12,0.685-2.356,1.13-3.674,1.327l0.351,0.272c-0.114-1.13-1.053-2.019-2.184-2.067c-1.142-0.05-2.13,0.731-2.352,1.857
					l0.374-0.238c-1.262-0.312-2.442-0.874-3.511-1.669l0.037,0.46c0.396-0.409,0.627-0.94,0.651-1.497
					c0.056-1.269-0.932-2.346-2.2-2.4c-0.543-0.023-1.083,0.154-1.521,0.499l0.453,0.084c-0.67-1.121-1.104-2.351-1.292-3.655
					l-0.294,0.351c1.199-0.035,2.18-0.998,2.232-2.193c0.051-1.186-0.801-2.204-1.982-2.37l0.254,0.38
					c0.321-1.253,0.884-2.42,1.675-3.473l-0.445,0.049c0.4,0.342,0.881,0.535,1.392,0.557c1.268,0.056,2.345-0.933,2.399-2.201
					c0.021-0.494-0.118-0.976-0.403-1.395l-0.097,0.437c1.096-0.653,2.285-1.081,3.534-1.271l-0.353-0.274
					c0.111,1.137,1.05,2.03,2.185,2.079c1.135,0.049,2.147-0.759,2.355-1.88l-0.375,0.242c1.352,0.327,2.598,0.928,3.705,1.787
					l-0.031-0.458c-0.404,0.411-0.64,0.946-0.664,1.509c-0.055,1.269,0.933,2.346,2.201,2.401c0.52,0.022,1.026-0.135,1.46-0.453
					l-0.448-0.095c0.6,1.05,0.998,2.188,1.184,3.384l0.269-0.353c-1.129,0.133-1.983,1.05-2.033,2.181
					c-0.049,1.136,0.728,2.126,1.848,2.352L35.325,25.924z"/>
			</g>
		</g>
		<g i:knockout="Off">
			<g i:knockout="Off">
				<path i:knockout="Off" fill="#1E3842" d="M14.298,10.83c-0.114,2.069-1.889,3.661-3.958,3.547s-3.66-1.891-3.546-3.959
					c0.114-2.067,1.889-3.659,3.958-3.545C12.821,6.986,14.412,8.763,14.298,10.83z M10.786,6.259
					C8.378,6.127,6.312,7.977,6.18,10.384c-0.132,2.407,1.719,4.473,4.126,4.605c2.408,0.132,4.473-1.718,4.605-4.125
					C15.044,8.457,13.193,6.392,10.786,6.259z"/>
			</g>
			<g i:knockout="Off">
				<path i:knockout="Off" fill="#1E3842" d="M19.109,11.372c0.045-0.828,0.68-1.493,1.508-1.58l0.273-0.35
					c-0.186-1.276-0.596-2.488-1.219-3.608l-0.447-0.099c-0.322,0.23-0.692,0.341-1.073,0.32c-0.93-0.051-1.645-0.85-1.594-1.779
					c0.023-0.41,0.202-0.802,0.501-1.1L17.034,2.72c-1.166-0.927-2.482-1.58-3.914-1.944l-0.377,0.237
					c-0.162,0.822-0.91,1.406-1.74,1.361c-0.831-0.045-1.51-0.709-1.582-1.543L9.073,0.552C7.745,0.738,6.475,1.178,5.299,1.859
					L5.198,2.295C5.406,2.605,5.505,2.96,5.486,3.32C5.435,4.25,4.636,4.965,3.707,4.914C3.335,4.893,2.985,4.748,2.693,4.492
					L2.248,4.536C1.394,5.642,0.781,6.877,0.425,8.205l0.25,0.383c0.866,0.131,1.482,0.884,1.434,1.752
					c-0.048,0.873-0.775,1.57-1.655,1.586l-0.299,0.348c0.182,1.386,0.628,2.697,1.327,3.899l0.453,0.087
					c0.33-0.254,0.717-0.377,1.118-0.355c0.93,0.051,1.645,0.849,1.594,1.78c-0.022,0.406-0.197,0.794-0.493,1.09l0.031,0.46
					c1.124,0.858,2.372,1.47,3.712,1.816l0.377-0.234c0.171-0.825,0.903-1.39,1.738-1.344c0.841,0.047,1.505,0.692,1.582,1.535
					l0.348,0.276c1.399-0.19,2.718-0.65,3.919-1.364l0.077-0.462c-0.278-0.332-0.419-0.749-0.396-1.176
					c0.051-0.93,0.849-1.645,1.779-1.593c0.422,0.022,0.82,0.207,1.118,0.517l0.468-0.028c0.839-1.123,1.435-2.365,1.769-3.694
					l-0.233-0.375C19.625,12.934,19.063,12.205,19.109,11.372z M20.08,13.333c-0.314,1.251-0.875,2.42-1.664,3.476l0.466-0.027
					c-0.407-0.424-0.95-0.674-1.527-0.706c-1.268-0.069-2.356,0.906-2.426,2.173c-0.032,0.582,0.16,1.151,0.539,1.604l0.079-0.462
					c-1.13,0.674-2.371,1.105-3.688,1.285l0.348,0.277c-0.102-1.132-1.031-2.031-2.16-2.094c-1.142-0.063-2.14,0.708-2.373,1.833
					l0.378-0.235c-1.26-0.327-2.435-0.902-3.493-1.709l0.031,0.46c0.402-0.404,0.64-0.933,0.671-1.489
					c0.07-1.268-0.905-2.357-2.173-2.427c-0.542-0.03-1.085,0.142-1.526,0.483l0.453,0.088c-0.658-1.129-1.078-2.365-1.249-3.669
					l-0.299,0.347c1.2-0.023,2.191-0.975,2.257-2.167C2.788,9.188,1.947,8.16,0.768,7.98l0.25,0.383
					C1.353,7.116,1.93,5.953,2.734,4.911L2.289,4.955C2.686,5.3,3.164,5.498,3.673,5.526c1.268,0.07,2.356-0.903,2.426-2.172
					c0.027-0.495-0.107-0.979-0.39-1.4L5.608,2.39c1.106-0.641,2.3-1.054,3.549-1.23L8.81,0.883
					c0.096,1.137,1.025,2.042,2.159,2.104c1.134,0.063,2.155-0.734,2.377-1.854l-0.377,0.238c1.346,0.343,2.585,0.958,3.683,1.83
					l-0.026-0.458c-0.408,0.405-0.649,0.938-0.68,1.501c-0.069,1.268,0.905,2.356,2.173,2.426c0.522,0.029,1.028-0.122,1.466-0.436
					l-0.448-0.1c0.587,1.053,0.973,2.196,1.146,3.397l0.271-0.35c-1.129,0.12-1.994,1.027-2.057,2.158
					c-0.063,1.137,0.703,2.133,1.819,2.37L20.08,13.333z"/>
			</g>
		</g>
		<g i:knockout="Off">
			<g i:knockout="Off">
				<path i:knockout="Off" fill="#4F849F" d="M14.143,10.278c-0.113,2.069-1.888,3.66-3.958,3.546
					c-2.069-0.113-3.662-1.889-3.548-3.958c0.113-2.068,1.891-3.659,3.96-3.545C12.667,6.435,14.256,8.21,14.143,10.278z
					 M10.63,5.707C8.223,5.575,6.156,7.425,6.024,9.833c-0.132,2.407,1.719,4.473,4.126,4.605c2.406,0.132,4.474-1.718,4.606-4.125
					C14.889,7.907,13.037,5.84,10.63,5.707z"/>
			</g>
			<g i:knockout="Off">
				<path i:knockout="Off" fill="#4F849F" d="M18.953,10.821c0.046-0.829,0.681-1.493,1.51-1.58l0.271-0.35
					c-0.184-1.272-0.592-2.486-1.217-3.608l-0.447-0.1c-0.322,0.231-0.694,0.342-1.074,0.322c-0.93-0.051-1.645-0.849-1.593-1.779
					c0.022-0.411,0.2-0.801,0.5-1.099l-0.025-0.459c-1.167-0.925-2.483-1.579-3.913-1.943l-0.378,0.238
					c-0.163,0.821-0.911,1.406-1.741,1.36c-0.831-0.046-1.51-0.71-1.582-1.544L8.917,0c-1.33,0.187-2.598,0.626-3.771,1.307
					L5.044,1.744C5.25,2.054,5.35,2.408,5.33,2.769c-0.051,0.93-0.849,1.644-1.779,1.593C3.18,4.342,2.83,4.196,2.539,3.941
					L2.093,3.984C1.24,5.091,0.626,6.325,0.271,7.653l0.25,0.383c0.865,0.132,1.481,0.886,1.434,1.753
					c-0.048,0.874-0.775,1.57-1.655,1.585L0,11.722c0.182,1.387,0.629,2.699,1.328,3.898l0.453,0.089
					c0.33-0.255,0.716-0.377,1.118-0.355c0.93,0.051,1.645,0.849,1.593,1.778C4.469,17.54,4.295,17.928,4,18.223l0.032,0.461
					c1.124,0.858,2.372,1.471,3.71,1.816l0.377-0.235c0.173-0.822,0.904-1.389,1.739-1.343c0.828,0.045,1.507,0.706,1.58,1.534
					l0.349,0.278c1.401-0.193,2.722-0.652,3.921-1.366l0.077-0.46c-0.278-0.333-0.419-0.751-0.396-1.177
					c0.051-0.93,0.848-1.645,1.778-1.594c0.422,0.023,0.819,0.208,1.118,0.519l0.467-0.029c0.842-1.125,1.437-2.368,1.771-3.694
					l-0.235-0.376C19.469,12.382,18.908,11.651,18.953,10.821z M19.926,12.783c-0.313,1.248-0.873,2.417-1.665,3.475l0.467-0.029
					c-0.407-0.421-0.949-0.672-1.527-0.704c-1.268-0.069-2.356,0.906-2.425,2.173c-0.032,0.582,0.16,1.152,0.54,1.604l0.077-0.461
					c-1.127,0.671-2.369,1.103-3.688,1.284l0.348,0.276c-0.101-1.13-1.03-2.03-2.16-2.092c-1.141-0.063-2.139,0.707-2.373,1.83
					l0.376-0.234c-1.258-0.325-2.433-0.901-3.492-1.709l0.032,0.461c0.401-0.404,0.639-0.934,0.669-1.49
					c0.07-1.268-0.905-2.356-2.173-2.426c-0.542-0.03-1.084,0.142-1.526,0.481l0.453,0.089c-0.657-1.128-1.078-2.363-1.25-3.669
					L0.311,11.99c1.2-0.022,2.192-0.973,2.257-2.167c0.065-1.185-0.775-2.214-1.954-2.393l0.25,0.382
					c0.335-1.249,0.912-2.41,1.715-3.453L2.133,4.403c0.396,0.346,0.875,0.544,1.384,0.573c1.268,0.07,2.356-0.905,2.425-2.173
					c0.027-0.495-0.107-0.978-0.388-1.4L5.454,1.839c1.104-0.641,2.298-1.055,3.549-1.23L8.653,0.331
					c0.098,1.138,1.026,2.042,2.16,2.104c1.134,0.063,2.156-0.734,2.377-1.854l-0.378,0.238c1.348,0.342,2.586,0.958,3.684,1.83
					L16.471,2.19c-0.409,0.406-0.65,0.939-0.681,1.502c-0.07,1.268,0.905,2.356,2.173,2.426c0.52,0.028,1.027-0.123,1.465-0.436
					l-0.447-0.1c0.588,1.056,0.973,2.199,1.145,3.397l0.273-0.35c-1.131,0.12-1.996,1.027-2.059,2.158
					c-0.063,1.135,0.703,2.133,1.82,2.372L19.926,12.783z"/>
			</g>
		</g>
	</g>
</svg>
