<?xml version="1.0" encoding="utf-8"?>
<!-- Generator: Adobe Illustrator 10.0, SVG Export Plug-In . SVG Version: 3.0.0 Build 76)  -->
<!DOCTYPE svg PUBLIC "-//W3C//DTD SVG 1.0//EN"    "http://www.w3.org/TR/2001/REC-SVG-20010904/DTD/svg10.dtd" [
	<!ENTITY ns_flows "http://ns.adobe.com/Flows/1.0/">
	<!ENTITY ns_extend "http://ns.adobe.com/Extensibility/1.0/">
	<!ENTITY ns_ai "http://ns.adobe.com/AdobeIllustrator/10.0/">
	<!ENTITY ns_graphs "http://ns.adobe.com/Graphs/1.0/">
	<!ENTITY ns_vars "http://ns.adobe.com/Variables/1.0/">
	<!ENTITY ns_imrep "http://ns.adobe.com/ImageReplacement/1.0/">
	<!ENTITY ns_sfw "http://ns.adobe.com/SaveForWeb/1.0/">
	<!ENTITY ns_custom "http://ns.adobe.com/GenericCustomNamespace/1.0/">
	<!ENTITY ns_adobe_xpath "http://ns.adobe.com/XPath/1.0/">
	<!ENTITY ns_svg "http://www.w3.org/2000/svg">
	<!ENTITY ns_xlink "http://www.w3.org/1999/xlink">
]>
<svg 
	 xmlns:x="&ns_extend;" xmlns:i="&ns_ai;" xmlns:graph="&ns_graphs;" i:viewOrigin="9.6387 43.7129" i:rulerOrigin="0 0" i:pageBounds="0 48 48 0"
	 xmlns="&ns_svg;" xmlns:xlink="&ns_xlink;" xmlns:a="http://ns.adobe.com/AdobeSVGViewerExtensions/3.0/"
	 width="27.861" height="39.213" viewBox="0 0 27.861 39.213" overflow="visible" enable-background="new 0 0 27.861 39.213"
	 xml:space="preserve">
	<metadata>
		<variableSets  xmlns="http://ns.adobe.com/Variables/1.0/">
			<variableSet  varSetName="binding1" locked="none">
				<variables></variables>
				<v:sampleDataSets  xmlns="http://ns.adobe.com/GenericCustomNamespace/1.0/" xmlns:v="http://ns.adobe.com/Variables/1.0/">
					</v:sampleDataSets>
			</variableSet>
		</variableSets>
		<sfw  xmlns="&ns_sfw;">
			<slices></slices>
			<sliceSourceBounds  y="4.5" x="9.639" width="27.861" height="39.213" bottomLeftOrigin="true"></sliceSourceBounds>
		</sfw>
	</metadata>
	<g id="Layer_1" i:layer="yes" i:dimmedPercent="50" i:rgbTrio="#4F008000FFFF">
		<path i:knockout="Off" fill="#203842" d="M14.132,11.462c-1.008,0-1.981,0.144-2.897,0.409c-3.989,1.16-6.895,4.65-6.895,8.766
			c0,5.059,4.391,9.172,9.788,9.174l0.002,0.01c0.002,0,0.017-0.004,0.038-0.01c0.418-0.002,0.832-0.031,1.237-0.08
			c4.8-0.587,8.52-4.439,8.52-9.094C23.924,15.578,19.531,11.462,14.132,11.462z M22.973,18.246
			c-0.359-0.063-0.981-0.158-1.899-0.254c-0.976-3.083-3.45-4.826-5.152-5.691C19.297,12.916,22.016,15.234,22.973,18.246z
			 M17.955,18.43c1.072,0.056,1.963,0.125,2.691,0.195c0.17,0.657,0.27,1.375,0.27,2.16c0,0.928-0.14,1.758-0.375,2.503
			c-0.732,0.081-1.621,0.159-2.678,0.216c0.166-0.842,0.268-1.768,0.268-2.793C18.131,19.896,18.066,19.137,17.955,18.43z
			 M20.43,17.93c-0.717-0.064-1.576-0.127-2.596-0.178c-0.451-2.167-1.328-3.763-2.069-4.8C17.309,13.748,19.475,15.285,20.43,17.93
			z M14.422,12.359c0.025,0.01,0.053,0.019,0.084,0.03c0.657,0.708,2.076,2.494,2.719,5.334c-0.838-0.034-1.769-0.062-2.803-0.075
			V12.359z M14.422,18.318c1.088,0.015,2.065,0.044,2.936,0.083c0.121,0.712,0.194,1.481,0.194,2.312
			c0,1.039-0.113,1.978-0.296,2.821c-0.848,0.036-1.791,0.062-2.834,0.064V18.318z M13.842,12.537v5.104
			c-0.737-0.005-1.423,0-2.06,0.012c-0.18,0.004-0.357,0.009-0.53,0.013c0.081-0.346,0.174-0.676,0.275-0.99
			C12.196,14.594,13.244,13.205,13.842,12.537z M11.307,15.516c-0.261,0.645-0.491,1.369-0.663,2.172
			c-0.836,0.031-1.576,0.078-2.219,0.13c0.639-1.575,1.698-2.802,2.739-3.71c0.543-0.475,1.082-0.863,1.552-1.164
			C12.255,13.582,11.74,14.439,11.307,15.516z M10.592,23.512c-0.919-0.047-1.716-0.109-2.393-0.178
			c-0.234-0.729-0.373-1.531-0.373-2.422c0-0.867,0.131-1.667,0.354-2.4c0.667-0.059,1.443-0.111,2.339-0.148
			c-0.119,0.732-0.19,1.521-0.19,2.373C10.329,21.753,10.427,22.677,10.592,23.512z M11.174,12.588
			c0.465-0.146,0.943-0.263,1.438-0.338c-0.436,0.273-0.942,0.622-1.461,1.047C9.875,14.34,8.5,15.85,7.771,17.875
			c-1.212,0.119-2.018,0.255-2.472,0.348C6.148,15.578,8.358,13.473,11.174,12.588z M4.918,20.637c0-0.579,0.066-1.145,0.185-1.69
			c0.283-0.065,1.074-0.229,2.449-0.372c-0.193,0.719-0.306,1.498-0.306,2.338c0,0.855,0.117,1.638,0.316,2.354
			c-1.296-0.151-2.049-0.313-2.313-0.373C5.035,22.172,4.918,21.417,4.918,20.637z M5.509,23.631
			c0.447,0.09,1.197,0.219,2.287,0.338c0.971,2.56,3.03,4.148,4.523,5.008C9.183,28.396,6.618,26.341,5.509,23.631z M8.463,24.035
			c0.656,0.062,1.416,0.117,2.279,0.158c0.501,1.988,1.366,3.414,2.076,4.322C11.467,27.778,9.474,26.359,8.463,24.035z
			 M13.842,28.741c-0.646-0.681-1.826-2.171-2.478-4.521c0.751,0.028,1.578,0.045,2.478,0.048V28.741z M13.842,23.598
			c-0.966-0.004-1.85-0.023-2.643-0.057c-0.182-0.838-0.293-1.771-0.293-2.803c0-0.862,0.078-1.66,0.208-2.395
			c0.282-0.009,0.577-0.015,0.879-0.021c0.579-0.011,1.192-0.014,1.85-0.011V23.598z M14.422,28.916V24.27
			c0.08,0,0.154-0.002,0.235-0.003c0.882-0.006,1.693-0.023,2.43-0.055c-0.421,1.515-1.062,2.671-1.638,3.481
			C15.038,28.277,14.658,28.686,14.422,28.916z M17.713,24.185c0.998-0.05,1.852-0.119,2.574-0.192
			c-1.059,2.477-3.217,3.87-4.705,4.572C16.3,27.664,17.194,26.22,17.713,24.185z M16.402,28.877
			c1.594-0.863,3.604-2.403,4.55-4.957c0.81-0.1,1.403-0.197,1.796-0.273C21.691,26.215,19.322,28.191,16.402,28.877z
			 M21.182,23.213c0.199-0.734,0.313-1.54,0.313-2.428c0-0.756-0.086-1.451-0.231-2.096c1.082,0.119,1.693,0.23,1.9,0.273
			c0.121,0.541,0.182,1.102,0.182,1.675c0,0.788-0.119,1.549-0.338,2.274C22.725,22.973,22.121,23.092,21.182,23.213z"/>
		<path i:knockout="Off" fill="#5182A1" d="M13.68,11.16c-1.009,0-1.981,0.143-2.898,0.41c-3.988,1.16-6.895,4.65-6.895,8.765
			c0,5.058,4.391,9.173,9.788,9.175l0.002,0.01c0.002-0.001,0.016-0.004,0.037-0.01c0.419-0.002,0.833-0.031,1.237-0.08
			c4.8-0.586,8.521-4.439,8.521-9.094C23.473,15.275,19.078,11.16,13.68,11.16z M22.52,17.945c-0.359-0.063-0.98-0.158-1.898-0.255
			c-0.977-3.083-3.451-4.825-5.152-5.691C18.844,12.615,21.563,14.934,22.52,17.945z M17.502,18.129
			c1.074,0.055,1.963,0.124,2.69,0.195c0.171,0.658,0.271,1.374,0.271,2.16c0,0.928-0.141,1.757-0.375,2.504
			c-0.732,0.08-1.621,0.157-2.678,0.215c0.166-0.841,0.268-1.769,0.268-2.793C17.678,19.595,17.613,18.835,17.502,18.129z
			 M19.977,17.628c-0.716-0.065-1.575-0.128-2.596-0.177c-0.449-2.168-1.326-3.764-2.068-4.801
			C16.855,13.447,19.022,14.984,19.977,17.628z M13.969,12.058c0.026,0.011,0.054,0.019,0.083,0.03
			c0.658,0.709,2.077,2.494,2.72,5.335c-0.838-0.034-1.768-0.062-2.803-0.075V12.058z M13.969,18.018
			c1.088,0.014,2.066,0.043,2.936,0.082c0.121,0.713,0.194,1.48,0.194,2.311c0,1.041-0.113,1.979-0.296,2.822
			c-0.848,0.037-1.791,0.061-2.835,0.064L13.969,18.018z M13.39,12.234v5.106c-0.738-0.005-1.423-0.001-2.061,0.011
			c-0.179,0.005-0.357,0.01-0.53,0.014c0.082-0.347,0.174-0.677,0.275-0.992C11.744,14.291,12.791,12.903,13.39,12.234z
			 M10.854,15.213c-0.261,0.645-0.491,1.369-0.662,2.174c-0.837,0.031-1.576,0.075-2.219,0.129c0.639-1.576,1.698-2.803,2.739-3.711
			c0.543-0.475,1.082-0.862,1.552-1.164C11.802,13.28,11.287,14.138,10.854,15.213z M10.138,23.211
			c-0.918-0.047-1.715-0.11-2.392-0.178c-0.234-0.727-0.373-1.531-0.373-2.423c0-0.867,0.131-1.666,0.353-2.399
			c0.667-0.059,1.444-0.111,2.339-0.148c-0.119,0.732-0.19,1.521-0.19,2.371C9.875,21.451,9.974,22.375,10.138,23.211z
			 M10.722,12.285c0.465-0.145,0.944-0.262,1.438-0.337c-0.437,0.272-0.942,0.623-1.461,1.048c-1.276,1.043-2.65,2.552-3.378,4.578
			C6.107,17.691,5.3,17.828,4.846,17.92C5.696,15.275,7.905,13.169,10.722,12.285z M4.466,20.335c0-0.579,0.065-1.144,0.185-1.69
			c0.282-0.065,1.074-0.229,2.449-0.371c-0.193,0.719-0.306,1.498-0.306,2.338c0,0.855,0.117,1.637,0.316,2.354
			c-1.296-0.151-2.048-0.313-2.313-0.373C4.582,21.872,4.466,21.115,4.466,20.335z M5.057,23.33c0.446,0.09,1.196,0.219,2.287,0.338
			c0.97,2.559,3.029,4.146,4.523,5.007C8.73,28.094,6.165,26.039,5.057,23.33z M8.01,23.735c0.657,0.06,1.417,0.114,2.28,0.157
			c0.502,1.988,1.366,3.414,2.076,4.322C11.014,27.477,9.02,26.059,8.01,23.735z M13.39,28.44c-0.646-0.681-1.827-2.17-2.479-4.521
			c0.752,0.026,1.578,0.044,2.479,0.048V28.44z M13.39,23.298c-0.966-0.004-1.85-0.024-2.644-0.058
			c-0.182-0.839-0.293-1.771-0.293-2.805c0-0.861,0.078-1.658,0.208-2.393c0.281-0.01,0.577-0.016,0.878-0.021
			c0.578-0.011,1.192-0.016,1.851-0.011V23.298z M13.969,28.615v-4.646c0.079-0.001,0.156-0.002,0.236-0.002
			c0.881-0.006,1.693-0.025,2.43-0.055c-0.422,1.515-1.063,2.668-1.638,3.479C14.586,27.977,14.207,28.383,13.969,28.615z
			 M17.26,23.883c0.998-0.051,1.854-0.119,2.574-0.191c-1.058,2.477-3.217,3.871-4.705,4.572
			C15.848,27.362,16.742,25.918,17.26,23.883z M15.949,28.574c1.594-0.861,3.603-2.402,4.55-4.957
			c0.81-0.098,1.404-0.197,1.796-0.273C21.238,25.912,18.87,27.889,15.949,28.574z M20.729,22.91
			c0.199-0.732,0.313-1.539,0.313-2.426c0-0.756-0.086-1.451-0.232-2.098c1.083,0.12,1.696,0.231,1.903,0.273
			c0.119,0.542,0.18,1.103,0.18,1.676c0,0.787-0.119,1.549-0.338,2.273C22.271,22.672,21.668,22.789,20.729,22.91z"/>
		<path i:knockout="Off" fill="#203842" d="M0.785,1.328L0.723,4.453l2.875-4l-2.75,0.625"/>
		<path i:knockout="Off" fill="#203842" d="M26.598,34.891l-0.563,2.25l-2.625,1.188l3.313-0.25l0.5-4.438L26.598,34.891z"/>
		<path i:knockout="Off" fill="none" stroke="#203842" d="M27.361,34.162c0,5.024-0.401,4.551-5.067,4.551H6.307
			c-4.666,0-4.828,0.476-4.828-4.551V6.272c0-5.025,0.162-4.876,4.828-4.876h15.985c4.668,0,5.069-0.149,5.069,4.876V34.162z"/>
		<path i:knockout="Off" fill="none" stroke="#51839F" d="M26.383,33.266c0,5.025-0.402,4.552-5.068,4.552H5.328
			c-4.667,0-4.828,0.476-4.828-4.552V5.376C0.5,0.35,0.662,0.5,5.328,0.5h15.984c4.668,0,5.069-0.15,5.069,4.876L26.383,33.266z"/>
	</g>
</svg>
