<?xml version="1.0" encoding="utf-8"?>
<!-- Generator: Adobe Illustrator 10.0, SVG Export Plug-In . SVG Version: 3.0.0 Build 76)  -->
<!DOCTYPE svg PUBLIC "-//W3C//DTD SVG 1.0//EN"    "http://www.w3.org/TR/2001/REC-SVG-20010904/DTD/svg10.dtd" [
	<!ENTITY ns_flows "http://ns.adobe.com/Flows/1.0/">
	<!ENTITY ns_extend "http://ns.adobe.com/Extensibility/1.0/">
	<!ENTITY ns_ai "http://ns.adobe.com/AdobeIllustrator/10.0/">
	<!ENTITY ns_graphs "http://ns.adobe.com/Graphs/1.0/">
	<!ENTITY ns_vars "http://ns.adobe.com/Variables/1.0/">
	<!ENTITY ns_imrep "http://ns.adobe.com/ImageReplacement/1.0/">
	<!ENTITY ns_sfw "http://ns.adobe.com/SaveForWeb/1.0/">
	<!ENTITY ns_custom "http://ns.adobe.com/GenericCustomNamespace/1.0/">
	<!ENTITY ns_adobe_xpath "http://ns.adobe.com/XPath/1.0/">
	<!ENTITY ns_svg "http://www.w3.org/2000/svg">
	<!ENTITY ns_xlink "http://www.w3.org/1999/xlink">
]>
<svg 
	 xmlns:x="&ns_extend;" xmlns:i="&ns_ai;" xmlns:graph="&ns_graphs;" i:viewOrigin="1.2539 45.1729" i:rulerOrigin="0 0" i:pageBounds="0 48 48 0"
	 xmlns="&ns_svg;" xmlns:xlink="&ns_xlink;" xmlns:a="http://ns.adobe.com/AdobeSVGViewerExtensions/3.0/"
	 width="47.126" height="44.872" viewBox="0 0 47.126 44.872" overflow="visible" enable-background="new 0 0 47.126 44.872"
	 xml:space="preserve">
	<metadata>
		<variableSets  xmlns="http://ns.adobe.com/Variables/1.0/">
			<variableSet  varSetName="binding1" locked="none">
				<variables></variables>
				<v:sampleDataSets  xmlns="http://ns.adobe.com/GenericCustomNamespace/1.0/" xmlns:v="http://ns.adobe.com/Variables/1.0/">
					</v:sampleDataSets>
			</variableSet>
		</variableSets>
		<sfw  xmlns="&ns_sfw;">
			<slices></slices>
			<sliceSourceBounds  y="0.301" x="1.254" width="47.126" height="44.872" bottomLeftOrigin="true"></sliceSourceBounds>
			<optimizationSettings>
				<targetSettings  fileFormat="PNG24Format" targetSettingsID="0">
					<PNG24Format  transparency="true" interlaced="false" noMatteColor="false" matteColor="#FFFFFF" filtered="false">
						</PNG24Format>
				</targetSettings>
			</optimizationSettings>
		</sfw>
	</metadata>
	<g id="Layer_1" i:layer="yes" i:dimmedPercent="50" i:rgbTrio="#4F008000FFFF">
		<g>
			<g i:knockout="Off">
				<g i:knockout="Off">
					<path i:knockout="Off" fill="#1E3842" d="M38.577,31.246c-0.117,2.691-2.4,4.787-5.092,4.67
						c-2.691-0.116-4.785-2.401-4.668-5.093c0.116-2.689,2.4-4.785,5.092-4.668C36.601,26.271,38.694,28.557,38.577,31.246z
						 M33.943,25.357c-3.132-0.136-5.79,2.301-5.926,5.43c-0.137,3.132,2.301,5.789,5.434,5.925c3.132,0.137,5.789-2.3,5.925-5.432
						C39.512,28.15,37.075,25.493,33.943,25.357z"/>
				</g>
				<g i:knockout="Off">
					<path i:knockout="Off" fill="#1E3842" d="M44.839,31.878c0.047-1.076,0.863-1.951,1.938-2.075l0.349-0.459
						c-0.26-1.655-0.812-3.226-1.638-4.673l-0.583-0.122c-0.416,0.305-0.895,0.455-1.39,0.433c-1.21-0.052-2.152-1.079-2.1-2.287
						c0.023-0.535,0.25-1.045,0.635-1.437l-0.04-0.596c-1.528-1.186-3.25-2.017-5.116-2.468l-0.485,0.315
						c-0.2,1.069-1.163,1.841-2.242,1.794c-1.081-0.047-1.975-0.899-2.08-1.982l-0.455-0.357c-1.726,0.262-3.37,0.853-4.887,1.755
						l-0.126,0.569c0.275,0.4,0.41,0.859,0.39,1.328c-0.052,1.209-1.079,2.15-2.289,2.099c-0.482-0.021-0.939-0.206-1.323-0.533
						l-0.578,0.063c-1.093,1.451-1.871,3.066-2.314,4.798l0.332,0.492c1.126,0.159,1.939,1.129,1.89,2.258
						c-0.049,1.135-0.984,2.053-2.127,2.087l-0.384,0.455c0.257,1.8,0.857,3.498,1.784,5.048l0.589,0.108
						c0.425-0.335,0.926-0.502,1.448-0.479c1.21,0.052,2.151,1.079,2.099,2.289c-0.023,0.529-0.244,1.035-0.625,1.424l0.048,0.598
						c1.475,1.099,3.105,1.874,4.853,2.305l0.486-0.31c0.211-1.075,1.152-1.819,2.24-1.772c1.094,0.047,1.967,0.877,2.079,1.971
						l0.455,0.355c1.817-0.27,3.524-0.887,5.074-1.834l0.095-0.601c-0.367-0.428-0.557-0.968-0.532-1.523
						c0.052-1.209,1.078-2.148,2.287-2.097c0.549,0.024,1.069,0.258,1.462,0.655l0.607-0.045c1.074-1.472,1.83-3.095,2.244-4.828
						l-0.311-0.484C45.533,33.901,44.791,32.962,44.839,31.878z M46.132,34.412c-0.391,1.631-1.102,3.16-2.112,4.545l0.605-0.045
						c-0.535-0.543-1.244-0.86-1.995-0.893c-1.649-0.072-3.049,1.212-3.121,2.86c-0.033,0.758,0.225,1.496,0.725,2.077l0.095-0.602
						c-1.458,0.893-3.065,1.473-4.773,1.726l0.455,0.355c-0.149-1.469-1.369-2.624-2.838-2.689
						c-1.485-0.063-2.771,0.954-3.058,2.419l0.487-0.313c-1.643-0.405-3.179-1.135-4.566-2.168l0.049,0.598
						c0.515-0.532,0.817-1.223,0.848-1.947c0.072-1.648-1.211-3.05-2.861-3.122c-0.706-0.03-1.408,0.2-1.977,0.651l0.59,0.109
						c-0.873-1.459-1.437-3.06-1.679-4.752l-0.383,0.455c1.56-0.048,2.834-1.3,2.901-2.851c0.067-1.543-1.041-2.867-2.577-3.081
						l0.331,0.493c0.417-1.627,1.149-3.146,2.179-4.515l-0.579,0.065c0.521,0.442,1.146,0.691,1.808,0.721
						c1.649,0.071,3.05-1.21,3.121-2.859c0.027-0.643-0.155-1.271-0.528-1.815l-0.124,0.569c1.428-0.849,2.974-1.405,4.596-1.651
						l-0.456-0.357c0.141,1.477,1.363,2.639,2.839,2.703c1.474,0.064,2.789-0.987,3.061-2.446l-0.486,0.315
						c1.755,0.424,3.374,1.206,4.814,2.323l-0.04-0.596c-0.524,0.533-0.83,1.229-0.861,1.963c-0.071,1.647,1.212,3.048,2.861,3.12
						c0.678,0.029,1.334-0.174,1.897-0.589l-0.584-0.123c0.778,1.359,1.298,2.84,1.542,4.398l0.346-0.459
						c-1.466,0.173-2.577,1.364-2.641,2.836c-0.064,1.479,0.945,2.764,2.401,3.053L46.132,34.412z"/>
				</g>
			</g>
			<g i:knockout="Off">
				<g i:knockout="Off">
					<path i:knockout="Off" fill="#4F849F" d="M38.367,30.531c-0.116,2.691-2.4,4.786-5.093,4.669
						c-2.691-0.116-4.787-2.4-4.671-5.092c0.117-2.69,2.403-4.786,5.095-4.67C36.391,25.557,38.484,27.841,38.367,30.531z
						 M33.732,24.642c-3.131-0.136-5.79,2.301-5.926,5.433c-0.136,3.131,2.303,5.787,5.434,5.925
						c3.131,0.135,5.79-2.302,5.926-5.433C39.302,27.438,36.863,24.778,33.732,24.642z"/>
				</g>
				<g i:knockout="Off">
					<path i:knockout="Off" fill="#4F849F" d="M44.629,31.164c0.047-1.077,0.862-1.951,1.938-2.076l0.348-0.459
						c-0.257-1.65-0.806-3.223-1.635-4.672l-0.583-0.123c-0.416,0.305-0.897,0.455-1.392,0.434c-1.21-0.053-2.15-1.078-2.097-2.289
						c0.022-0.533,0.248-1.043,0.633-1.437l-0.038-0.595c-1.531-1.186-3.252-2.016-5.116-2.468l-0.487,0.315
						c-0.199,1.069-1.163,1.84-2.243,1.794c-1.08-0.047-1.975-0.9-2.079-1.983l-0.457-0.356c-1.726,0.262-3.368,0.854-4.885,1.756
						l-0.124,0.568c0.274,0.4,0.409,0.861,0.389,1.329c-0.054,1.209-1.08,2.15-2.29,2.098c-0.482-0.021-0.94-0.204-1.323-0.533
						l-0.579,0.063c-1.092,1.451-1.871,3.064-2.314,4.797l0.332,0.493c1.126,0.159,1.939,1.13,1.89,2.258
						c-0.049,1.136-0.984,2.053-2.128,2.086l-0.383,0.457c0.258,1.8,0.858,3.498,1.785,5.047l0.59,0.109
						c0.424-0.336,0.925-0.501,1.447-0.479c1.21,0.052,2.15,1.078,2.099,2.288c-0.024,0.529-0.245,1.035-0.623,1.424l0.048,0.599
						c1.475,1.099,3.105,1.876,4.852,2.307l0.487-0.313c0.212-1.073,1.153-1.819,2.239-1.772c1.076,0.047,1.971,0.896,2.077,1.972
						l0.457,0.355c1.819-0.271,3.527-0.889,5.076-1.835l0.093-0.599c-0.365-0.43-0.556-0.97-0.531-1.523
						c0.052-1.209,1.077-2.15,2.287-2.099c0.55,0.024,1.068,0.258,1.462,0.657l0.606-0.045c1.076-1.476,1.831-3.1,2.244-4.83
						L46.39,33.4C45.322,33.187,44.582,32.245,44.629,31.164z M45.923,33.701c-0.389,1.626-1.099,3.154-2.112,4.541l0.606-0.045
						c-0.534-0.542-1.243-0.859-1.996-0.892c-1.647-0.071-3.048,1.213-3.12,2.861c-0.032,0.757,0.226,1.494,0.727,2.077l0.094-0.601
						c-1.456,0.89-3.063,1.469-4.776,1.725l0.456,0.354c-0.148-1.469-1.369-2.624-2.839-2.688c-1.484-0.064-2.769,0.951-3.057,2.415
						l0.486-0.311c-1.641-0.404-3.176-1.136-4.564-2.169l0.048,0.598c0.515-0.532,0.815-1.223,0.848-1.946
						c0.072-1.649-1.212-3.05-2.86-3.12c-0.707-0.031-1.409,0.2-1.978,0.648l0.589,0.109c-0.871-1.458-1.436-3.056-1.679-4.752
						l-0.382,0.456c1.559-0.046,2.833-1.298,2.901-2.852c0.067-1.541-1.041-2.865-2.576-3.081l0.331,0.493
						c0.417-1.629,1.149-3.146,2.178-4.514l-0.579,0.063c0.521,0.444,1.145,0.695,1.809,0.724c1.647,0.072,3.048-1.213,3.119-2.862
						c0.028-0.643-0.153-1.269-0.524-1.813l-0.126,0.567c1.425-0.849,2.971-1.405,4.595-1.652l-0.458-0.356
						c0.145,1.478,1.364,2.639,2.84,2.703c1.475,0.064,2.792-0.986,3.062-2.444l-0.487,0.315c1.757,0.425,3.377,1.207,4.816,2.323
						l-0.04-0.595c-0.525,0.534-0.832,1.23-0.863,1.961c-0.071,1.65,1.212,3.049,2.861,3.121c0.676,0.029,1.334-0.175,1.898-0.589
						l-0.583-0.123c0.779,1.364,1.297,2.845,1.538,4.398l0.35-0.458c-1.468,0.173-2.578,1.365-2.644,2.835
						c-0.063,1.477,0.946,2.764,2.402,3.057L45.923,33.701z"/>
				</g>
			</g>
			<g i:knockout="Off">
				<g i:knockout="Off">
					<path i:knockout="Off" fill="#1E3842" d="M18.588,14.079c-0.148,2.689-2.456,4.759-5.146,4.611
						c-2.69-0.147-4.758-2.458-4.61-5.147c0.148-2.688,2.456-4.756,5.146-4.608C16.667,9.083,18.736,11.392,18.588,14.079z
						 M14.022,8.137c-3.13-0.172-5.816,2.233-5.988,5.362c-0.172,3.129,2.235,5.815,5.364,5.987c3.13,0.172,5.815-2.234,5.987-5.363
						C19.557,10.994,17.151,8.309,14.022,8.137z"/>
				</g>
				<g i:knockout="Off">
					<path i:knockout="Off" fill="#1E3842" d="M24.842,14.784c0.059-1.077,0.884-1.941,1.96-2.053l0.355-0.455
						c-0.241-1.659-0.774-3.235-1.584-4.691l-0.581-0.128c-0.419,0.3-0.9,0.444-1.395,0.417c-1.209-0.067-2.138-1.104-2.072-2.313
						c0.03-0.533,0.262-1.042,0.651-1.43l-0.033-0.594c-1.516-1.205-3.227-2.054-5.088-2.527l-0.49,0.308
						c-0.211,1.068-1.183,1.828-2.262,1.77c-1.08-0.059-1.963-0.922-2.056-2.006l-0.452-0.362C10.068,0.96,8.417,1.531,6.889,2.417
						L6.758,2.983c0.27,0.403,0.399,0.865,0.374,1.333C7.065,5.524,6.027,6.455,4.818,6.388C4.336,6.361,3.881,6.172,3.5,5.84
						L2.922,5.897c-1.11,1.438-1.907,3.043-2.37,4.77l0.326,0.498c1.125,0.17,1.926,1.149,1.864,2.277
						c-0.063,1.134-1.007,2.042-2.151,2.063l-0.389,0.452c0.237,1.802,0.817,3.507,1.726,5.069l0.588,0.114
						c0.429-0.33,0.932-0.491,1.454-0.462c1.208,0.067,2.138,1.104,2.072,2.314c-0.029,0.528-0.256,1.032-0.641,1.417l0.041,0.598
						c1.461,1.116,3.083,1.91,4.826,2.361l0.49-0.305c0.223-1.073,1.173-1.807,2.26-1.747c1.093,0.061,1.957,0.9,2.056,1.996
						l0.452,0.359c1.818-0.248,3.534-0.846,5.095-1.774l0.1-0.6c-0.361-0.432-0.545-0.975-0.515-1.529
						c0.067-1.208,1.103-2.138,2.313-2.07c0.548,0.029,1.066,0.269,1.453,0.672l0.608-0.037c1.091-1.46,1.865-3.074,2.299-4.803
						l-0.303-0.488C25.513,16.814,24.781,15.866,24.842,14.784z M26.104,17.333c-0.408,1.627-1.137,3.146-2.163,4.519l0.605-0.035
						c-0.529-0.551-1.234-0.876-1.984-0.917c-1.648-0.09-3.063,1.178-3.154,2.825c-0.041,0.757,0.208,1.497,0.7,2.085l0.102-0.601
						c-1.469,0.876-3.082,1.437-4.793,1.671l0.452,0.36c-0.132-1.472-1.34-2.641-2.808-2.722c-1.484-0.082-2.781,0.92-3.084,2.383
						l0.491-0.307c-1.639-0.425-3.165-1.173-4.541-2.222l0.04,0.599c0.522-0.525,0.833-1.213,0.873-1.937
						c0.091-1.648-1.177-3.064-2.826-3.155c-0.705-0.039-1.41,0.185-1.984,0.628l0.588,0.115c-0.855-1.468-1.401-3.075-1.624-4.771
						l-0.388,0.451c1.56-0.03,2.849-1.268,2.934-2.817c0.085-1.542-1.007-2.878-2.541-3.111l0.326,0.499
						c0.436-1.623,1.186-3.134,2.23-4.488L2.975,6.442c0.516,0.449,1.138,0.706,1.799,0.742C6.423,7.274,7.837,6.009,7.928,4.36
						c0.035-0.643-0.14-1.273-0.507-1.82L7.29,3.107c1.438-0.833,2.991-1.371,4.614-1.599l-0.452-0.36
						c0.125,1.478,1.333,2.654,2.807,2.735c1.475,0.082,2.801-0.955,3.09-2.411l-0.49,0.31c1.75,0.446,3.36,1.245,4.787,2.378
						l-0.034-0.595c-0.53,0.527-0.843,1.22-0.884,1.951c-0.09,1.648,1.177,3.063,2.825,3.154c0.679,0.037,1.337-0.158,1.905-0.567
						l-0.583-0.129c0.764,1.369,1.265,2.855,1.489,4.416l0.354-0.455c-1.468,0.156-2.593,1.334-2.674,2.806
						c-0.081,1.478,0.914,2.773,2.365,3.081L26.104,17.333z"/>
				</g>
			</g>
			<g i:knockout="Off">
				<g i:knockout="Off">
					<path i:knockout="Off" fill="#4F849F" d="M18.385,13.362c-0.147,2.69-2.455,4.758-5.146,4.61
						c-2.69-0.147-4.76-2.456-4.612-5.146c0.147-2.688,2.458-4.757,5.148-4.609C16.467,8.366,18.533,10.674,18.385,13.362z
						 M13.819,7.419c-3.129-0.172-5.816,2.233-5.988,5.363c-0.172,3.129,2.234,5.815,5.364,5.987
						c3.128,0.171,5.816-2.234,5.989-5.363C19.356,10.279,16.948,7.592,13.819,7.419z"/>
				</g>
				<g i:knockout="Off">
					<path i:knockout="Off" fill="#4F849F" d="M24.639,14.067c0.06-1.078,0.885-1.941,1.963-2.054l0.353-0.455
						c-0.238-1.654-0.769-3.232-1.581-4.691l-0.582-0.13c-0.419,0.3-0.902,0.445-1.396,0.418c-1.209-0.066-2.138-1.103-2.071-2.313
						c0.029-0.534,0.26-1.041,0.65-1.429l-0.032-0.597c-1.517-1.202-3.229-2.053-5.086-2.526l-0.491,0.309
						c-0.211,1.068-1.184,1.828-2.264,1.769c-1.08-0.06-1.963-0.923-2.057-2.008L11.591,0C9.863,0.243,8.214,0.814,6.688,1.699
						L6.557,2.267C6.826,2.67,6.955,3.131,6.929,3.6C6.862,4.809,5.825,5.737,4.617,5.671C4.133,5.645,3.678,5.455,3.3,5.124
						L2.721,5.179c-1.109,1.439-1.906,3.043-2.369,4.77l0.325,0.498c1.125,0.172,1.926,1.152,1.864,2.279
						c-0.063,1.136-1.007,2.042-2.152,2.061L0,15.239c0.237,1.804,0.817,3.508,1.727,5.068l0.588,0.116
						c0.428-0.331,0.931-0.49,1.453-0.462c1.208,0.067,2.138,1.103,2.071,2.312C5.81,22.802,5.583,23.306,5.2,23.689l0.042,0.6
						c1.461,1.115,3.083,1.911,4.824,2.361l0.49-0.307c0.226-1.068,1.175-1.805,2.261-1.745c1.076,0.059,1.959,0.918,2.054,1.994
						l0.453,0.362c1.822-0.252,3.538-0.849,5.097-1.776l0.1-0.598c-0.362-0.434-0.545-0.977-0.515-1.53
						c0.066-1.208,1.103-2.138,2.312-2.072c0.549,0.031,1.065,0.27,1.453,0.674l0.606-0.038c1.095-1.463,1.868-3.079,2.302-4.803
						l-0.306-0.489C25.31,16.097,24.58,15.147,24.639,14.067z M25.903,16.618c-0.406,1.622-1.135,3.142-2.164,4.517l0.607-0.038
						c-0.529-0.548-1.234-0.874-1.985-0.916c-1.648-0.09-3.063,1.178-3.153,2.825c-0.042,0.756,0.208,1.498,0.702,2.086l0.1-0.6
						c-1.466,0.872-3.079,1.434-4.795,1.669l0.452,0.359c-0.131-1.469-1.338-2.639-2.808-2.719c-1.483-0.081-2.78,0.919-3.084,2.379
						l0.489-0.305c-1.636-0.423-3.163-1.172-4.539-2.222l0.041,0.6c0.521-0.526,0.831-1.214,0.87-1.938
						c0.091-1.648-1.176-3.063-2.825-3.154c-0.705-0.039-1.41,0.185-1.984,0.626l0.589,0.116c-0.854-1.467-1.401-3.072-1.625-4.771
						l-0.388,0.452c1.56-0.029,2.849-1.265,2.934-2.818c0.084-1.54-1.008-2.878-2.54-3.111l0.325,0.497
						c0.436-1.624,1.186-3.133,2.23-4.489l-0.58,0.058c0.515,0.45,1.137,0.708,1.8,0.745c1.648,0.091,3.063-1.177,3.153-2.825
						C7.761,3,7.586,2.372,7.222,1.823L7.089,2.391c1.436-0.833,2.988-1.372,4.614-1.6L11.249,0.43
						c0.127,1.479,1.334,2.654,2.809,2.735c1.474,0.081,2.802-0.955,3.09-2.41l-0.491,0.31c1.752,0.444,3.362,1.245,4.789,2.378
						l-0.033-0.597c-0.531,0.527-0.846,1.221-0.886,1.953c-0.091,1.647,1.177,3.063,2.825,3.153
						c0.676,0.037,1.336-0.159,1.904-0.567l-0.581-0.129c0.764,1.373,1.264,2.859,1.487,4.416l0.355-0.455
						c-1.47,0.156-2.595,1.335-2.676,2.806c-0.081,1.475,0.914,2.773,2.366,3.083L25.903,16.618z"/>
				</g>
			</g>
		</g>
	</g>
</svg>
