<?xml version="1.0" encoding="utf-8"?>
<!-- Generator: Adobe Illustrator 10.0, SVG Export Plug-In . SVG Version: 3.0.0 Build 76)  -->
<!DOCTYPE svg PUBLIC "-//W3C//DTD SVG 1.0//EN"    "http://www.w3.org/TR/2001/REC-SVG-20010904/DTD/svg10.dtd" [
	<!ENTITY ns_flows "http://ns.adobe.com/Flows/1.0/">
	<!ENTITY ns_extend "http://ns.adobe.com/Extensibility/1.0/">
	<!ENTITY ns_ai "http://ns.adobe.com/AdobeIllustrator/10.0/">
	<!ENTITY ns_graphs "http://ns.adobe.com/Graphs/1.0/">
	<!ENTITY ns_vars "http://ns.adobe.com/Variables/1.0/">
	<!ENTITY ns_imrep "http://ns.adobe.com/ImageReplacement/1.0/">
	<!ENTITY ns_sfw "http://ns.adobe.com/SaveForWeb/1.0/">
	<!ENTITY ns_custom "http://ns.adobe.com/GenericCustomNamespace/1.0/">
	<!ENTITY ns_adobe_xpath "http://ns.adobe.com/XPath/1.0/">
	<!ENTITY ns_svg "http://www.w3.org/2000/svg">
	<!ENTITY ns_xlink "http://www.w3.org/1999/xlink">
]>
<svg 
	 xmlns:x="&ns_extend;" xmlns:i="&ns_ai;" xmlns:graph="&ns_graphs;" i:viewOrigin="9.6387 43.7129" i:rulerOrigin="0 0" i:pageBounds="0 48 48 0"
	 xmlns="&ns_svg;" xmlns:xlink="&ns_xlink;" xmlns:a="http://ns.adobe.com/AdobeSVGViewerExtensions/3.0/"
	 width="27.861" height="39.213" viewBox="0 0 27.861 39.213" overflow="visible" enable-background="new 0 0 27.861 39.213"
	 xml:space="preserve">
	<metadata>
		<variableSets  xmlns="http://ns.adobe.com/Variables/1.0/">
			<variableSet  varSetName="binding1" locked="none">
				<variables></variables>
				<v:sampleDataSets  xmlns="http://ns.adobe.com/GenericCustomNamespace/1.0/" xmlns:v="http://ns.adobe.com/Variables/1.0/">
					</v:sampleDataSets>
			</variableSet>
		</variableSets>
		<sfw  xmlns="&ns_sfw;">
			<slices></slices>
			<sliceSourceBounds  y="4.5" x="9.639" width="27.861" height="39.213" bottomLeftOrigin="true"></sliceSourceBounds>
		</sfw>
	</metadata>
	<g id="Layer_1" i:layer="yes" i:dimmedPercent="50" i:rgbTrio="#4F008000FFFF">
		<path i:knockout="Off" fill="#203842" d="M14.154,10.559c-1.109,0-2.179,0.158-3.187,0.45c-4.388,1.276-7.584,5.115-7.584,9.642
			c0,5.564,4.83,10.089,10.767,10.091l0.002,0.011c0.002,0,0.019-0.004,0.042-0.011c0.46-0.002,0.915-0.034,1.361-0.088
			c5.279-0.646,9.371-4.883,9.371-10.003C24.926,15.087,20.094,10.559,14.154,10.559z M23.88,18.021
			c-0.396-0.07-1.08-0.174-2.09-0.279c-1.073-3.391-3.795-5.309-5.668-6.26C19.836,12.159,22.827,14.709,23.88,18.021z
			 M18.36,18.224c1.18,0.061,2.159,0.138,2.96,0.215c0.188,0.723,0.297,1.513,0.297,2.376c0,1.021-0.153,1.934-0.412,2.754
			c-0.806,0.089-1.783,0.175-2.946,0.237c0.183-0.927,0.295-1.944,0.295-3.072C18.554,19.837,18.482,19.001,18.36,18.224z
			 M21.082,17.674c-0.788-0.071-1.733-0.14-2.855-0.196c-0.496-2.384-1.461-4.139-2.276-5.28
			C17.649,13.074,20.031,14.765,21.082,17.674z M14.474,11.546c0.028,0.011,0.058,0.021,0.092,0.033
			c0.723,0.779,2.284,2.744,2.991,5.867c-0.922-0.038-1.945-0.067-3.083-0.083V11.546z M14.474,18.101
			c1.196,0.016,2.271,0.048,3.229,0.091c0.133,0.783,0.213,1.63,0.213,2.543c0,1.143-0.124,2.175-0.325,3.104
			c-0.933,0.039-1.97,0.067-3.117,0.07V18.101z M13.836,11.742v5.615c-0.811-0.005-1.565,0-2.266,0.013
			c-0.198,0.004-0.393,0.01-0.583,0.014c0.089-0.38,0.191-0.744,0.302-1.089C12.025,14.004,13.178,12.477,13.836,11.742z
			 M11.047,15.018c-0.287,0.709-0.541,1.506-0.729,2.389c-0.92,0.034-1.733,0.086-2.441,0.143c0.702-1.733,1.868-3.082,3.013-4.081
			c0.597-0.522,1.189-0.95,1.707-1.281C12.09,12.891,11.523,13.834,11.047,15.018z M10.26,23.813
			c-1.011-0.051-1.887-0.12-2.632-0.195c-0.257-0.801-0.41-1.685-0.41-2.664c0-0.954,0.144-1.833,0.389-2.64
			c0.733-0.064,1.588-0.123,2.573-0.164c-0.131,0.806-0.208,1.674-0.208,2.61C9.971,21.879,10.079,22.896,10.26,23.813z
			 M10.901,11.798c0.511-0.161,1.038-0.289,1.581-0.372c-0.479,0.301-1.036,0.685-1.607,1.152c-1.404,1.147-2.916,2.808-3.717,5.036
			c-1.333,0.131-2.22,0.281-2.719,0.383C5.373,15.087,7.804,12.771,10.901,11.798z M4.02,20.651c0-0.637,0.072-1.259,0.203-1.859
			c0.312-0.072,1.181-0.251,2.694-0.409c-0.213,0.791-0.336,1.647-0.336,2.571c0,0.941,0.128,1.802,0.348,2.589
			c-1.425-0.166-2.253-0.344-2.544-0.41C4.148,22.34,4.02,21.51,4.02,20.651z M4.67,23.945c0.491,0.099,1.317,0.24,2.516,0.371
			c1.068,2.815,3.333,4.563,4.976,5.509C8.71,29.187,5.889,26.926,4.67,23.945z M7.919,24.39c0.722,0.067,1.558,0.129,2.507,0.174
			c0.552,2.188,1.503,3.756,2.284,4.755C11.223,28.507,9.03,26.946,7.919,24.39z M13.836,29.566
			c-0.71-0.749-2.009-2.388-2.725-4.974c0.826,0.031,1.735,0.05,2.725,0.053V29.566z M13.836,23.908
			c-1.063-0.004-2.035-0.025-2.907-0.063c-0.2-0.921-0.322-1.948-0.322-3.083c0-0.948,0.085-1.826,0.228-2.634
			c0.31-0.009,0.634-0.016,0.967-0.022c0.637-0.012,1.311-0.015,2.035-0.012V23.908z M14.474,29.759v-5.111
			c0.088,0,0.169-0.002,0.259-0.003c0.97-0.007,1.862-0.026,2.673-0.061c-0.463,1.666-1.168,2.938-1.802,3.83
			C15.151,29.056,14.733,29.505,14.474,29.759z M18.094,24.554c1.098-0.055,2.037-0.131,2.832-0.211
			c-1.165,2.724-3.539,4.257-5.176,5.029C16.539,28.382,17.523,26.793,18.094,24.554z M16.652,29.716
			c1.753-0.95,3.964-2.644,5.005-5.453c0.891-0.109,1.543-0.217,1.976-0.301C22.47,26.787,19.864,28.962,16.652,29.716z
			 M21.909,23.485c0.22-0.808,0.345-1.694,0.345-2.671c0-0.831-0.095-1.596-0.254-2.305c1.189,0.131,1.862,0.253,2.09,0.301
			c0.134,0.595,0.2,1.212,0.2,1.842c0,0.867-0.131,1.704-0.372,2.502C23.606,23.221,22.942,23.352,21.909,23.485z"/>
		<path i:knockout="Off" fill="#5182A1" d="M13.657,10.227c-1.11,0-2.18,0.157-3.188,0.451c-4.387,1.276-7.584,5.116-7.584,9.641
			c0,5.563,4.83,10.09,10.767,10.093l0.002,0.011c0.002-0.001,0.018-0.005,0.041-0.011c0.461-0.003,0.916-0.035,1.36-0.089
			c5.28-0.645,9.374-4.883,9.374-10.003C24.43,14.754,19.596,10.227,13.657,10.227z M23.381,17.691
			c-0.396-0.07-1.078-0.174-2.088-0.28c-1.074-3.392-3.797-5.308-5.668-6.261C19.338,11.828,22.328,14.378,23.381,17.691z
			 M17.861,17.893c1.182,0.061,2.159,0.137,2.96,0.215c0.188,0.724,0.298,1.512,0.298,2.376c0,1.02-0.155,1.932-0.413,2.754
			c-0.806,0.088-1.783,0.173-2.945,0.236c0.183-0.925,0.294-1.945,0.294-3.072C18.055,19.505,17.984,18.669,17.861,17.893z
			 M20.584,17.342c-0.788-0.072-1.733-0.141-2.855-0.194c-0.494-2.385-1.459-4.14-2.275-5.281
			C17.15,12.743,19.534,14.434,20.584,17.342z M13.975,11.214c0.029,0.012,0.059,0.021,0.091,0.033
			c0.724,0.78,2.285,2.744,2.992,5.869c-0.922-0.038-1.945-0.068-3.083-0.083V11.214z M13.975,17.771
			c1.197,0.015,2.273,0.047,3.229,0.09c0.134,0.784,0.214,1.629,0.214,2.542c0,1.145-0.125,2.178-0.325,3.104
			c-0.933,0.041-1.97,0.066-3.119,0.07L13.975,17.771z M13.339,11.409v5.617c-0.812-0.005-1.566-0.001-2.267,0.012
			c-0.197,0.005-0.393,0.011-0.583,0.015c0.09-0.381,0.191-0.745,0.303-1.091C11.527,13.671,12.68,12.145,13.339,11.409z
			 M10.549,14.685c-0.287,0.709-0.54,1.506-0.728,2.391C8.9,17.111,8.087,17.159,7.38,17.218c0.703-1.734,1.868-3.083,3.013-4.082
			c0.598-0.522,1.19-0.949,1.708-1.281C11.591,12.559,11.025,13.502,10.549,14.685z M9.762,23.483
			c-1.011-0.052-1.887-0.122-2.631-0.196c-0.257-0.799-0.411-1.684-0.411-2.665c0-0.954,0.144-1.833,0.389-2.64
			c0.733-0.064,1.588-0.123,2.573-0.163c-0.131,0.806-0.209,1.673-0.209,2.608C9.472,21.547,9.581,22.563,9.762,23.483z
			 M10.403,11.465c0.511-0.159,1.038-0.288,1.581-0.371c-0.48,0.299-1.036,0.685-1.607,1.152c-1.404,1.147-2.916,2.807-3.716,5.036
			c-1.333,0.129-2.221,0.279-2.72,0.38C4.875,14.754,7.305,12.437,10.403,11.465z M3.522,20.319c0-0.637,0.071-1.258,0.204-1.859
			c0.311-0.072,1.181-0.251,2.693-0.408c-0.212,0.791-0.336,1.648-0.336,2.572c0,0.941,0.128,1.8,0.347,2.588
			c-1.425-0.166-2.253-0.344-2.543-0.41C3.65,22.011,3.522,21.178,3.522,20.319z M4.172,23.614c0.49,0.099,1.316,0.24,2.515,0.371
			c1.067,2.814,3.333,4.562,4.976,5.508C8.213,28.854,5.391,26.594,4.172,23.614z M7.421,24.06c0.722,0.065,1.559,0.126,2.508,0.173
			c0.552,2.188,1.502,3.756,2.283,4.755C10.725,28.175,8.532,26.615,7.421,24.06z M13.339,29.235
			c-0.711-0.749-2.01-2.387-2.727-4.973c0.828,0.029,1.736,0.049,2.727,0.053V29.235z M13.339,23.579
			c-1.063-0.005-2.035-0.027-2.908-0.063c-0.2-0.923-0.322-1.949-0.322-3.085c0-0.948,0.085-1.824,0.229-2.632
			c0.309-0.011,0.635-0.017,0.966-0.024c0.636-0.012,1.311-0.017,2.036-0.012V23.579z M13.975,29.428v-5.111
			c0.087-0.001,0.172-0.002,0.259-0.002c0.97-0.007,1.862-0.028,2.674-0.061c-0.465,1.667-1.17,2.936-1.802,3.828
			C14.654,28.726,14.237,29.172,13.975,29.428z M17.596,24.222c1.098-0.056,2.038-0.131,2.831-0.21
			c-1.163,2.724-3.538,4.258-5.175,5.029C16.042,28.05,17.026,26.461,17.596,24.222z M16.153,29.383
			c1.754-0.947,3.963-2.643,5.005-5.453c0.891-0.107,1.545-0.217,1.976-0.301C21.972,26.454,19.366,28.629,16.153,29.383z
			 M21.411,23.152c0.219-0.806,0.345-1.693,0.345-2.668c0-0.832-0.095-1.596-0.256-2.308c1.191,0.132,1.866,0.255,2.094,0.301
			c0.131,0.596,0.197,1.213,0.197,1.843c0,0.866-0.131,1.704-0.371,2.501C23.108,22.89,22.444,23.019,21.411,23.152z"/>
		<path i:knockout="Off" fill="#203842" d="M0.785,1.328L0.723,4.453l2.875-4l-2.75,0.625"/>
		<path i:knockout="Off" fill="#203842" d="M26.598,34.891l-0.563,2.25l-2.625,1.188l3.313-0.25l0.5-4.438L26.598,34.891z"/>
		<path i:knockout="Off" fill="none" stroke="#203842" d="M27.361,34.162c0,5.024-0.401,4.551-5.067,4.551H6.307
			c-4.666,0-4.828,0.476-4.828-4.551V6.272c0-5.025,0.162-4.876,4.828-4.876h15.985c4.668,0,5.069-0.149,5.069,4.876V34.162z"/>
		<path i:knockout="Off" fill="none" stroke="#51839F" d="M26.383,33.266c0,5.025-0.402,4.552-5.068,4.552H5.328
			c-4.667,0-4.828,0.476-4.828-4.552V5.376C0.5,0.35,0.662,0.5,5.328,0.5h15.984c4.668,0,5.069-0.15,5.069,4.876L26.383,33.266z"/>
	</g>
</svg>
