<?xml version="1.0" encoding="utf-8"?>
<!-- Generator: Adobe Illustrator 10.0, SVG Export Plug-In . SVG Version: 3.0.0 Build 76)  -->
<!DOCTYPE svg PUBLIC "-//W3C//DTD SVG 1.0//EN"    "http://www.w3.org/TR/2001/REC-SVG-20010904/DTD/svg10.dtd" [
	<!ENTITY ns_flows "http://ns.adobe.com/Flows/1.0/">
	<!ENTITY ns_extend "http://ns.adobe.com/Extensibility/1.0/">
	<!ENTITY ns_ai "http://ns.adobe.com/AdobeIllustrator/10.0/">
	<!ENTITY ns_graphs "http://ns.adobe.com/Graphs/1.0/">
	<!ENTITY ns_vars "http://ns.adobe.com/Variables/1.0/">
	<!ENTITY ns_imrep "http://ns.adobe.com/ImageReplacement/1.0/">
	<!ENTITY ns_sfw "http://ns.adobe.com/SaveForWeb/1.0/">
	<!ENTITY ns_custom "http://ns.adobe.com/GenericCustomNamespace/1.0/">
	<!ENTITY ns_adobe_xpath "http://ns.adobe.com/XPath/1.0/">
	<!ENTITY ns_svg "http://www.w3.org/2000/svg">
	<!ENTITY ns_xlink "http://www.w3.org/1999/xlink">
]>
<svg 
	 xmlns:x="&ns_extend;" xmlns:i="&ns_ai;" xmlns:graph="&ns_graphs;" i:viewOrigin="-33.2583 -10.127" i:rulerOrigin="0 0" i:pageBounds="0 48 48 0"
	 xmlns="&ns_svg;" xmlns:xlink="&ns_xlink;" xmlns:a="http://ns.adobe.com/AdobeSVGViewerExtensions/3.0/"
	 width="41.908" height="42.415" viewBox="0 0 41.908 42.415" overflow="visible" enable-background="new 0 0 41.908 42.415"
	 xml:space="preserve">
	<metadata>
		<variableSets  xmlns="http://ns.adobe.com/Variables/1.0/">
			<variableSet  varSetName="binding1" locked="none">
				<variables></variables>
				<v:sampleDataSets  xmlns="http://ns.adobe.com/GenericCustomNamespace/1.0/" xmlns:v="http://ns.adobe.com/Variables/1.0/">
					</v:sampleDataSets>
			</variableSet>
		</variableSets>
		<sfw  xmlns="&ns_sfw;">
			<slices></slices>
			<sliceSourceBounds  x="-33.258" y="-52.542" width="41.908" height="42.415" bottomLeftOrigin="true"></sliceSourceBounds>
		</sfw>
	</metadata>
	<g id="Layer_1" i:layer="yes" i:dimmedPercent="50" i:rgbTrio="#4F008000FFFF">
		<g i:knockout="Off">
			<g i:knockout="Off">
				<path i:knockout="Off" fill="none" stroke="#FFC726" stroke-linejoin="round" d="M27.63,36.347v-4.854h-5.427v4.854h-3.927
					v5.568h13.102v-5.568H27.63z"/>
				<path i:knockout="Off" fill="none" stroke="#FFC726" stroke-linejoin="round" d="M18.277,40.809H10.21v-3.104h8.067V40.809z"/>
				<path i:knockout="Off" fill="none" stroke="#FFC726" stroke-linejoin="round" d="M39.48,40.809h-8.066v-3.104h8.066V40.809z"/>
			</g>
			<g i:knockout="Off">
				<path i:knockout="Off" fill="none" stroke="#685012" stroke-linecap="round" stroke-linejoin="round" d="M27.63,36.347v-4.854
					h-5.427v4.854h-3.927v5.568h13.102v-5.568H27.63z"/>
				<path i:knockout="Off" fill="none" stroke="#685012" stroke-linecap="round" stroke-linejoin="round" d="M18.277,40.809H10.21
					v-3.104h8.067V40.809z"/>
				<path i:knockout="Off" fill="none" stroke="#685012" stroke-linecap="round" stroke-linejoin="round" d="M39.48,40.809h-8.066
					v-3.104h8.066V40.809z"/>
			</g>
		</g>
		<path i:knockout="Off" fill="#685012" d="M6.401,1.31L6.19,2.951l2.424-1.924L7.243,0.858L6.401,1.31z"/>
		<g i:knockout="Off">
			<g i:knockout="Off">
				<path i:knockout="Off" fill="#685012" d="M40.833,7.145c-1.191-1.492-3.319-1.609-6.137-1.609H23.752
					c-0.549-0.063-0.965-0.226-1.311-0.437c-0.744-0.457-1.111-1.184-1.461-1.897c-0.283-0.58-0.576-1-0.855-1.312
					C19.319,1,18.61,1.053,18.508,1.066L8.444,1.063c-1.121,0-1.853,0.95-1.889,1.836c-0.01,0.249-0.02,3.683-0.029,7.892h-3.68
					c-1.121,0-2.031,0.991-2.031,2.209c0,0.241,0.045,0.469,0.11,0.688l-0.024,0.01l5.975,16.984l0.013-0.005
					c0.24,0.765,0.849,1.34,1.595,1.473c0.104,0.019,0.211,0.025,0.32,0.025l2.577-0.001h0.965l22.439-0.008l1.019,0.006
					c0.649,0.006,1.239,0.009,1.774-0.007l1.558-0.001c0.032,0.002,0.063,0.011,0.098,0.011c0.455,0,0.869-0.168,1.207-0.439
					c0.287-0.231,0.519-0.538,0.659-0.897c0.249-0.347,0.438-0.77,0.566-1.288c0.164-0.645,0.242-1.435,0.242-2.409V11.464
					C41.909,9.374,41.532,8.021,40.833,7.145z M40.268,30.339c-0.018,0.022-0.034,0.049-0.055,0.07
					c-0.531,0.563-1.426,0.719-2.684,0.756l-2.688,0.001l-20.915,0.007v0.023H8.745v-0.032c-0.451-0.027-0.824-0.352-0.969-0.801
					l-0.021,0.009l-0.423-1.211l-0.828-2.368L6.442,26.62L2.864,16.447l-0.023,0.009L2.463,15.3l-0.052-0.146l0.002-0.002
					l-0.52-1.584C1.809,13.396,1.747,13.209,1.747,13c0-0.667,0.494-1.209,1.101-1.209c0.058,0,0.106,0.026,0.163,0.036h1.534
					c-0.002-0.009,0.005-0.029,0.001-0.036h27.033c-0.002,0.005-0.002,0.011-0.006,0.016h1.635c0.023-0.002,0.045-0.016,0.07-0.016
					c0.512,0,0.924,0.396,1.045,0.916l0.754,2.183l3.688,10.406l0.002-0.001l0.313,0.883l0.578,1.629H39.65l0.591,1.677
					l-0.003,0.001c0.062,0.146,0.097,0.312,0.097,0.482C40.333,30.099,40.305,30.221,40.268,30.339z M40.978,27.138
					c0,0.523-0.024,0.979-0.074,1.385l-5.627-15.888c-0.159-1.044-0.991-1.845-1.998-1.845H7.46c0.009-4.308,0.02-7.619,0.027-7.848
					c0.002-0.071,0.028-0.149,0.056-0.229c0.048-0.137,0.129-0.27,0.248-0.383C7.952,2.176,8.168,2.06,8.446,2.06h10.121
					c0.045-0.004,0.746,0.003,1.498,1.435c0.031,0.059,0.062,0.104,0.092,0.166c0.263,0.537,0.574,1.169,1.085,1.707
					c0.537,0.563,1.295,1.024,2.459,1.162L34.696,6.53c3.088,0,4.838,0.186,5.67,1.629c0.422,0.729,0.611,1.78,0.611,3.303
					L40.978,27.138z"/>
			</g>
		</g>
		<path i:knockout="Off" fill="#685012" d="M38.526,31.637l2.205-1.254l0.459-3.147L38.526,31.637z"/>
		<path i:knockout="Off" fill="#685012" d="M2.759,10.396l-1.503,0.312l-0.843,1.925L2.759,10.396z"/>
		<g i:knockout="Off">
			<g i:knockout="Off">
				<path i:knockout="Off" fill="#FFC726" d="M40.017,6.081C38.827,4.587,36.7,4.47,33.881,4.47H22.937
					c-0.547-0.063-0.964-0.223-1.31-0.434c-0.744-0.457-1.111-1.187-1.46-1.9c-0.283-0.58-0.575-1-0.855-1.309
					c-0.807-0.89-1.517-0.837-1.617-0.823L7.63,0C6.51,0,5.776,0.953,5.741,1.836C5.731,2.085,5.72,5.52,5.712,9.729h-3.68
					C0.911,9.729,0,10.719,0,11.938c0,0.238,0.044,0.469,0.11,0.686l-0.024,0.01L6.06,29.62l0.014-0.005
					c0.24,0.762,0.848,1.34,1.595,1.47c0.104,0.021,0.211,0.028,0.319,0.028l2.578-0.001h0.965l22.441-0.008l1.019,0.006
					c0.649,0.006,1.237,0.009,1.775-0.007l1.556-0.004c0.033,0.005,0.063,0.014,0.097,0.014c0.455,0,0.871-0.168,1.209-0.442
					c0.285-0.229,0.518-0.538,0.658-0.896c0.25-0.35,0.438-0.771,0.566-1.288c0.164-0.646,0.242-1.438,0.242-2.409V10.401
					C41.094,8.313,40.717,6.959,40.017,6.081z M39.452,29.276c-0.019,0.021-0.033,0.049-0.055,0.067
					c-0.531,0.564-1.425,0.722-2.684,0.756l-2.688,0.004L13.112,30.11v0.021H7.93V30.1c-0.45-0.024-0.823-0.352-0.968-0.801
					l-0.022,0.01l-0.423-1.211L5.688,25.73l-0.061-0.176L2.051,15.384l-0.024,0.009l-0.379-1.153l-0.051-0.146
					c0,0,0.002-0.002,0.003-0.002l-0.521-1.584c-0.084-0.172-0.146-0.356-0.146-0.565c0-0.667,0.494-1.209,1.102-1.209
					c0.058,0,0.106,0.023,0.162,0.033h1.535c-0.002-0.009,0.004-0.026,0-0.033h27.034c-0.002,0.005-0.004,0.011-0.008,0.016h1.634
					c0.024-0.002,0.047-0.016,0.071-0.016c0.512,0,0.925,0.395,1.045,0.915l0.755,2.184l3.688,10.406l0.002-0.001l0.311,0.883
					l0.576,1.629h-0.004l0.591,1.674l-0.003,0.001c0.061,0.149,0.098,0.313,0.098,0.485C39.519,29.036,39.489,29.158,39.452,29.276z
					 M40.161,26.075c0,0.521-0.024,0.978-0.072,1.382L34.46,11.572c-0.16-1.044-0.992-1.848-1.998-1.848H6.644
					c0.01-4.308,0.02-7.616,0.028-7.848C6.675,1.808,6.7,1.73,6.727,1.652c0.048-0.14,0.13-0.271,0.248-0.386
					C7.135,1.115,7.351,1,7.63,1h10.121c0.045-0.003,0.744,0.001,1.499,1.433c0.03,0.062,0.062,0.104,0.092,0.166
					c0.263,0.537,0.574,1.169,1.086,1.707c0.537,0.566,1.295,1.027,2.46,1.162L33.881,5.47c3.088,0,4.839,0.188,5.67,1.629
					c0.422,0.731,0.609,1.78,0.609,3.306L40.161,26.075z"/>
			</g>
		</g>
		<g i:knockout="Off">
			<path i:knockout="Off" fill="none" stroke="#FFC726" stroke-linejoin="round" d="M26.719,35.562v-4.854h-5.426v4.854h-3.927
				v5.568h13.101v-5.568H26.719z"/>
			<path i:knockout="Off" fill="none" stroke="#FFC726" stroke-linejoin="round" d="M17.367,40.022H9.3v-3.105h8.067V40.022z"/>
			<path i:knockout="Off" fill="none" stroke="#FFC726" stroke-linejoin="round" d="M38.57,40.022h-8.066v-3.105h8.066V40.022z"/>
		</g>
		<g i:knockout="Off">
			<path i:knockout="Off" fill="none" stroke="#FFC726" stroke-linejoin="round" d="M26.844,35.562v-4.854h-5.426v4.854h-3.927
				v5.568h13.101v-5.568H26.844z"/>
			<path i:knockout="Off" fill="none" stroke="#FFC726" stroke-linejoin="round" d="M17.492,40.022H9.425v-3.105h8.067V40.022z"/>
			<path i:knockout="Off" fill="none" stroke="#FFC726" stroke-linejoin="round" d="M38.695,40.022h-8.066v-3.105h8.066V40.022z"/>
		</g>
	</g>
</svg>
