<?xml version="1.0" encoding="utf-8"?>
<!-- Generator: Adobe Illustrator 10.0, SVG Export Plug-In . SVG Version: 3.0.0 Build 76)  -->
<!DOCTYPE svg PUBLIC "-//W3C//DTD SVG 1.0//EN"    "http://www.w3.org/TR/2001/REC-SVG-20010904/DTD/svg10.dtd" [
	<!ENTITY ns_flows "http://ns.adobe.com/Flows/1.0/">
	<!ENTITY ns_extend "http://ns.adobe.com/Extensibility/1.0/">
	<!ENTITY ns_ai "http://ns.adobe.com/AdobeIllustrator/10.0/">
	<!ENTITY ns_graphs "http://ns.adobe.com/Graphs/1.0/">
	<!ENTITY ns_vars "http://ns.adobe.com/Variables/1.0/">
	<!ENTITY ns_imrep "http://ns.adobe.com/ImageReplacement/1.0/">
	<!ENTITY ns_sfw "http://ns.adobe.com/SaveForWeb/1.0/">
	<!ENTITY ns_custom "http://ns.adobe.com/GenericCustomNamespace/1.0/">
	<!ENTITY ns_adobe_xpath "http://ns.adobe.com/XPath/1.0/">
	<!ENTITY ns_svg "http://www.w3.org/2000/svg">
	<!ENTITY ns_xlink "http://www.w3.org/1999/xlink">
]>
<svg 
	 xmlns:x="&ns_extend;" xmlns:i="&ns_ai;" xmlns:graph="&ns_graphs;" i:viewOrigin="4.8247 41.2158" i:rulerOrigin="0 0" i:pageBounds="0 48 48 0"
	 xmlns="&ns_svg;" xmlns:xlink="&ns_xlink;" xmlns:a="http://ns.adobe.com/AdobeSVGViewerExtensions/3.0/"
	 width="37.576" height="34.901" viewBox="0 0 37.576 34.901" overflow="visible" enable-background="new 0 0 37.576 34.901"
	 xml:space="preserve">
	<metadata>
		<variableSets  xmlns="http://ns.adobe.com/Variables/1.0/">
			<variableSet  varSetName="binding1" locked="none">
				<variables></variables>
				<v:sampleDataSets  xmlns="http://ns.adobe.com/GenericCustomNamespace/1.0/" xmlns:v="http://ns.adobe.com/Variables/1.0/">
					</v:sampleDataSets>
			</variableSet>
		</variableSets>
		<sfw  xmlns="&ns_sfw;">
			<slices></slices>
			<sliceSourceBounds  y="6.314" x="4.825" width="37.576" height="34.901" bottomLeftOrigin="true"></sliceSourceBounds>
		</sfw>
	</metadata>
	<g id="Layer_1" i:layer="yes" i:dimmedPercent="50" i:rgbTrio="#4F008000FFFF">
		<g>
			<g>
				<path i:knockout="Off" fill="#223742" d="M37.576,27.534c0-1.232-0.213-2.234-0.605-3.014c-0.018-0.061-0.074-0.264-0.074-0.264
					L29.374,1H8.248L1.331,24.314c0.014-0.037-0.012,0.05-0.033,0.12c-0.418,0.79-0.634,1.828-0.634,3.1v2.483
					c0,1.403,0.255,2.405,0.642,3.128c0.281,0.774,0.806,1.366,1.746,1.538c0.46,0.164,0.918,0.218,1.303,0.218h29.529
					c0.391,0,0.855-0.056,1.32-0.225c0.84-0.17,1.342-0.68,1.629-1.356c0.443-0.731,0.742-1.783,0.742-3.303V27.534z M34.82,33.744
					c-0.077,0.005-0.154,0.008-0.232,0.008H3.616c-0.063,0-0.124-0.002-0.185-0.005c-0.58-0.191-1.022-0.579-1.324-1.164
					c-0.119-0.431-0.188-1.013-0.188-1.814v-2.819c0-2.755,0.803-2.983,1.697-2.983h30.972c0.895,0,1.699,0.229,1.699,2.983v2.819
					c0,0.886-0.085,1.509-0.228,1.948C35.762,33.225,35.349,33.566,34.82,33.744z M8.938,2h19.765
					c0.197,0.608,6.338,19.59,7.213,22.297c-0.347-0.205-0.777-0.331-1.328-0.331H3.616c-0.534,0-0.95,0.122-1.292,0.315
					C3.188,21.367,8.752,2.625,8.938,2z"/>
				<path i:knockout="Off" fill="#223742" d="M31.307,28.399H6.341c-0.298,0-0.54,0.441-0.54,0.987c0,0.544,0.242,0.985,0.54,0.985
					h24.966c0.297,0,0.538-0.441,0.538-0.985C31.845,28.841,31.604,28.399,31.307,28.399z"/>
				<path i:knockout="Off" fill="#5383A0" d="M30.494,27.274H5.528c-0.298,0-0.54,0.441-0.54,0.987c0,0.544,0.242,0.985,0.54,0.985
					h24.966c0.297,0,0.537-0.441,0.537-0.985C31.031,27.716,30.791,27.274,30.494,27.274z"/>
				<path i:knockout="Off" fill="#223742" d="M1.949,23.883l0.039,0.791l1.545-0.708L1.949,23.883z"/>
				<path i:knockout="Off" fill="#223742" d="M36.414,30.174l-1.201,2.042l-1.549,1.167l0.542,0.541l1.898-0.5l0.62-3.166
					L36.414,30.174z"/>
				<path i:knockout="Off" fill="#5383A0" d="M36.486,26.534c0-1.232-0.211-2.234-0.6-3.014c-0.018-0.061-0.072-0.264-0.072-0.264
					L28.378,0H7.497L0.659,23.314c0.014-0.037-0.012,0.05-0.033,0.12C0.213,24.225,0,25.263,0,26.534v2.483
					c0,1.403,0.252,2.405,0.635,3.128c0.278,0.774,0.796,1.366,1.726,1.538c0.455,0.164,0.907,0.218,1.288,0.218h29.188
					c0.386,0,0.845-0.056,1.306-0.225c0.83-0.17,1.325-0.68,1.609-1.356c0.439-0.731,0.734-1.783,0.734-3.303V26.534z
					 M33.761,32.744c-0.076,0.005-0.152,0.008-0.229,0.008H2.917c-0.062,0-0.123-0.002-0.183-0.005
					c-0.573-0.191-1.01-0.579-1.31-1.164C1.309,31.152,1.24,30.57,1.24,29.769v-2.819c0-2.755,0.793-2.983,1.678-2.983h30.614
					c0.884,0,1.679,0.229,1.679,2.983v2.819c0,0.886-0.084,1.509-0.225,1.948C34.693,32.225,34.284,32.566,33.761,32.744z M8.178,1
					h19.537c0.194,0.608,6.265,19.59,7.13,22.297c-0.344-0.205-0.769-0.331-1.313-0.331H2.917c-0.528,0-0.939,0.122-1.277,0.315
					C2.495,20.367,7.995,1.625,8.178,1z"/>
			</g>
			<path i:knockout="Off" fill="#223742" d="M23.569,7.966h-2.75v2.75h0.875v1c0-0.024-0.116,1.054-0.914,1.421l-0.333,0.149
				c-0.336,0.149-0.685,0.309-1.003,0.511V6.593h1.457l-1.941-3.258l-1.942,3.258h1.426v8.45c-0.009,0.03-0.02,0.06-0.028,0.091
				c-0.363-0.248-0.777-0.431-1.174-0.601l-0.345-0.149c-0.836-0.371-0.954-1.455-0.956-1.466l0.002-1.359
				c0.546-0.204,0.938-0.726,0.938-1.343c0-0.794-0.644-1.438-1.438-1.438s-1.438,0.644-1.438,1.438c0,0.617,0.391,1.14,0.938,1.343
				v1.407c0.008,0.113,0.169,1.72,1.547,2.332l0.358,0.155c1.048,0.447,1.595,0.723,1.595,1.638v0.839
				c-0.678,0.219-1.172,0.848-1.172,1.599c0,0.932,0.755,1.688,1.688,1.688s1.688-0.756,1.688-1.688
				c0-0.762-0.509-1.399-1.203-1.608v-2.71c0.208-0.451,0.681-0.687,1.408-1.009l0.346-0.155c1.333-0.614,1.488-2.218,1.494-2.286
				l0.001-1.043h0.876V7.966z"/>
			<path i:knockout="Off" fill="#5383A0" d="M22.8,7.264h-2.75v2.75h0.875v1c0-0.025-0.116,1.053-0.914,1.421l-0.333,0.149
				c-0.336,0.148-0.685,0.309-1.003,0.511V5.891h1.457l-1.941-3.258l-1.942,3.258h1.426v8.45c-0.009,0.03-0.02,0.06-0.028,0.091
				c-0.363-0.248-0.777-0.431-1.174-0.601l-0.345-0.149c-0.836-0.371-0.954-1.455-0.956-1.466l0.002-1.358
				c0.546-0.204,0.938-0.727,0.938-1.344c0-0.794-0.644-1.438-1.438-1.438s-1.438,0.644-1.438,1.438c0,0.617,0.391,1.14,0.938,1.343
				v1.407c0.008,0.113,0.169,1.72,1.547,2.332l0.358,0.155c1.048,0.447,1.595,0.724,1.595,1.638v0.839
				c-0.678,0.219-1.172,0.848-1.172,1.599c0,0.932,0.755,1.688,1.688,1.688s1.688-0.756,1.688-1.688
				c0-0.762-0.509-1.399-1.203-1.608v-2.71c0.208-0.451,0.681-0.688,1.408-1.01l0.346-0.155c1.333-0.614,1.488-2.218,1.494-2.286
				l0.001-1.043H22.8V7.264z"/>
		</g>
	</g>
</svg>
