<?xml version="1.0" encoding="utf-8"?>
<!-- Generator: Adobe Illustrator 10.0, SVG Export Plug-In . SVG Version: 3.0.0 Build 76)  -->
<!DOCTYPE svg PUBLIC "-//W3C//DTD SVG 1.0//EN"    "http://www.w3.org/TR/2001/REC-SVG-20010904/DTD/svg10.dtd" [
	<!ENTITY ns_flows "http://ns.adobe.com/Flows/1.0/">
	<!ENTITY ns_extend "http://ns.adobe.com/Extensibility/1.0/">
	<!ENTITY ns_ai "http://ns.adobe.com/AdobeIllustrator/10.0/">
	<!ENTITY ns_graphs "http://ns.adobe.com/Graphs/1.0/">
	<!ENTITY ns_vars "http://ns.adobe.com/Variables/1.0/">
	<!ENTITY ns_imrep "http://ns.adobe.com/ImageReplacement/1.0/">
	<!ENTITY ns_sfw "http://ns.adobe.com/SaveForWeb/1.0/">
	<!ENTITY ns_custom "http://ns.adobe.com/GenericCustomNamespace/1.0/">
	<!ENTITY ns_adobe_xpath "http://ns.adobe.com/XPath/1.0/">
	<!ENTITY ns_svg "http://www.w3.org/2000/svg">
	<!ENTITY ns_xlink "http://www.w3.org/1999/xlink">
]>
<svg 
	 xmlns:x="&ns_extend;" xmlns:i="&ns_ai;" xmlns:graph="&ns_graphs;" i:viewOrigin="9.5 45.7959" i:rulerOrigin="0 0" i:pageBounds="0 48 48 0"
	 xmlns="&ns_svg;" xmlns:xlink="&ns_xlink;" xmlns:a="http://ns.adobe.com/AdobeSVGViewerExtensions/3.0/"
	 width="30.027" height="42.308" viewBox="0 0 30.027 42.308" overflow="visible" enable-background="new 0 0 30.027 42.308"
	 xml:space="preserve">
	<metadata>
		<variableSets  xmlns="http://ns.adobe.com/Variables/1.0/">
			<variableSet  varSetName="binding1" locked="none">
				<variables></variables>
				<v:sampleDataSets  xmlns="http://ns.adobe.com/GenericCustomNamespace/1.0/" xmlns:v="http://ns.adobe.com/Variables/1.0/">
					</v:sampleDataSets>
			</variableSet>
		</variableSets>
		<sfw  xmlns="&ns_sfw;">
			<slices></slices>
			<sliceSourceBounds  x="9.5" y="3.488" width="30.027" height="42.308" bottomLeftOrigin="true"></sliceSourceBounds>
		</sfw>
	</metadata>
	<g id="Layer_1" i:layer="yes" i:dimmedPercent="50" i:rgbTrio="#4F008000FFFF">
		<g i:knockout="Off">
			<path i:knockout="Off" fill="#223742" d="M25.953,35.224h-2.609l-2.34-6.115h-9.228l-2.18,6.115H6.948l8.295-21.497h2.337
				L25.953,35.224z M20.165,26.968l-3.432-9.292c-0.127-0.341-0.234-0.813-0.321-1.417h-0.073c-0.107,0.671-0.225,1.145-0.351,1.417
				l-3.403,9.292H20.165z"/>
		</g>
		<g i:knockout="Off">
			<g i:knockout="Off">
				<path i:knockout="Off" fill="#5383A0" d="M24.706,34.601h-2.607l-2.341-6.115H10.53l-2.179,6.115H5.702l8.295-21.497h2.337
					L24.706,34.601z M18.919,26.343l-3.433-9.291c-0.126-0.341-0.234-0.813-0.321-1.417h-0.072
					c-0.107,0.672-0.225,1.145-0.352,1.417l-3.402,9.291H18.919z"/>
			</g>
		</g>
		<path i:knockout="Off" fill="#203842" d="M0.808,1.395L0.741,4.772l3.107-4.323L0.876,1.125"/>
		<path i:knockout="Off" fill="#203842" d="M28.871,38.081l-0.607,2.432l-2.837,1.284l3.579-0.271l0.541-4.796L28.871,38.081z"/>
		<path i:knockout="Off" fill="none" stroke="#203842" d="M29.527,36.878c0,5.43-0.434,4.918-5.477,4.918H6.775
			c-5.043,0-5.217,0.514-5.217-4.918V6.738c0-5.432,0.175-5.27,5.217-5.27H24.05c5.046,0,5.479-0.162,5.479,5.27v30.14H29.527z"/>
		<path i:knockout="Off" fill="none" stroke="#51839F" d="M28.471,35.909c0,5.431-0.435,4.919-5.478,4.919H5.718
			c-5.043,0-5.218,0.514-5.218-4.919V5.769C0.5,0.337,0.675,0.5,5.718,0.5h17.273c5.045,0,5.479-0.163,5.479,5.269V35.909z"/>
	</g>
</svg>
