<?xml version="1.0" encoding="utf-8"?>
<!-- Generator: Adobe Illustrator 10.0, SVG Export Plug-In . SVG Version: 3.0.0 Build 76)  -->
<!DOCTYPE svg PUBLIC "-//W3C//DTD SVG 1.0//EN"    "http://www.w3.org/TR/2001/REC-SVG-20010904/DTD/svg10.dtd" [
	<!ENTITY ns_flows "http://ns.adobe.com/Flows/1.0/">
	<!ENTITY ns_extend "http://ns.adobe.com/Extensibility/1.0/">
	<!ENTITY ns_ai "http://ns.adobe.com/AdobeIllustrator/10.0/">
	<!ENTITY ns_graphs "http://ns.adobe.com/Graphs/1.0/">
	<!ENTITY ns_vars "http://ns.adobe.com/Variables/1.0/">
	<!ENTITY ns_imrep "http://ns.adobe.com/ImageReplacement/1.0/">
	<!ENTITY ns_sfw "http://ns.adobe.com/SaveForWeb/1.0/">
	<!ENTITY ns_custom "http://ns.adobe.com/GenericCustomNamespace/1.0/">
	<!ENTITY ns_adobe_xpath "http://ns.adobe.com/XPath/1.0/">
	<!ENTITY ns_svg "http://www.w3.org/2000/svg">
	<!ENTITY ns_xlink "http://www.w3.org/1999/xlink">
]>
<svg 
	 xmlns:x="&ns_extend;" xmlns:i="&ns_ai;" xmlns:graph="&ns_graphs;" i:viewOrigin="8.2231 45.7383" i:rulerOrigin="0 0" i:pageBounds="0 48 48 0"
	 xmlns="&ns_svg;" xmlns:xlink="&ns_xlink;" xmlns:a="http://ns.adobe.com/AdobeSVGViewerExtensions/3.0/"
	 width="29.957" height="42.309" viewBox="0 0 29.957 42.309" overflow="visible" enable-background="new 0 0 29.957 42.309"
	 xml:space="preserve">
	<metadata>
		<variableSets  xmlns="http://ns.adobe.com/Variables/1.0/">
			<variableSet  varSetName="binding1" locked="none">
				<variables></variables>
				<v:sampleDataSets  xmlns="http://ns.adobe.com/GenericCustomNamespace/1.0/" xmlns:v="http://ns.adobe.com/Variables/1.0/">
					</v:sampleDataSets>
			</variableSet>
		</variableSets>
		<sfw  xmlns="&ns_sfw;">
			<slices></slices>
			<sliceSourceBounds  x="8.223" y="3.43" width="29.957" height="42.309" bottomLeftOrigin="true"></sliceSourceBounds>
		</sfw>
	</metadata>
	<g id="Layer_1" i:layer="yes" i:dimmedPercent="50" i:rgbTrio="#4F008000FFFF">
		<path i:knockout="Off" fill="#1E3842" d="M0.737,1.395L0.67,4.773L3.777,0.45L0.805,1.125"/>
		<path i:knockout="Off" fill="#1E3842" d="M28.632,37.666l-0.608,2.432l-2.837,1.283l3.58-0.27l0.541-4.797L28.632,37.666z"/>
		<path i:knockout="Off" fill="none" stroke="#1E3842" d="M29.457,36.879c0,5.43-0.434,4.918-5.477,4.918H6.704
			c-5.043,0-5.217,0.514-5.217-4.918V6.739c0-5.432,0.175-5.27,5.217-5.27h17.274c5.046,0,5.479-0.162,5.479,5.27L29.457,36.879z"/>
		<path i:knockout="Off" fill="none" stroke="#4F849F" d="M28.471,35.91c0,5.43-0.436,4.918-5.479,4.918H5.718
			c-5.043,0-5.218,0.514-5.218-4.918V5.769C0.5,0.337,0.675,0.5,5.718,0.5h17.273c5.045,0,5.479-0.163,5.479,5.269L28.471,35.91z"/>
		<path i:knockout="Off" fill="#666666" d="M15.31,23.688c-1.641,0.454-2.638,2.274-3.072,3.269
			c-1.292-1.099-2.591-1.676-3.869-1.513c-2.226,0.282-3.499,2.4-3.552,2.491c-0.145,0.244-0.063,0.56,0.182,0.704
			c0.244,0.145,0.56,0.063,0.705-0.18c0.01-0.019,1.079-1.781,2.801-1.995c1.141-0.143,2.353,0.419,3.602,1.668
			c0.127,0.127,0.31,0.178,0.484,0.137c0.174-0.042,0.314-0.171,0.37-0.342c0.009-0.027,0.924-2.777,2.626-3.247
			c0.768-0.212,1.628,0.09,2.554,0.901c0.215,0.187,0.541,0.165,0.727-0.05c0.188-0.214,0.166-0.54-0.049-0.727
			C17.613,23.752,16.433,23.377,15.31,23.688z"/>
		<path i:knockout="Off" fill="#666666" d="M23.638,18.082c-1.242,0.13-2.129,1.468-2.6,2.364c-0.826-0.988-1.748-1.535-2.76-1.575
			c-2.054-0.083-3.607,1.881-3.672,1.963c-0.175,0.225-0.134,0.547,0.089,0.722c0.224,0.175,0.547,0.135,0.723-0.088
			c0.013-0.016,1.3-1.634,2.823-1.568c0.879,0.037,1.709,0.643,2.467,1.799c0.107,0.16,0.293,0.248,0.484,0.229
			s0.355-0.144,0.426-0.323c0.244-0.616,1.158-2.397,2.127-2.498c0.594-0.062,1.152,0.583,1.514,1.133
			c0.156,0.238,0.477,0.302,0.715,0.146c0.236-0.156,0.303-0.476,0.145-0.713C25.363,18.524,24.527,17.989,23.638,18.082z"/>
		<path i:knockout="Off" d="M14.726,22.738c-1.641,0.453-2.638,2.274-3.072,3.268c-1.292-1.098-2.591-1.676-3.869-1.513
			c-2.226,0.283-3.499,2.401-3.552,2.492c-0.145,0.244-0.063,0.559,0.182,0.704c0.244,0.145,0.56,0.063,0.705-0.181
			c0.011-0.018,1.079-1.78,2.801-1.994c1.141-0.144,2.353,0.418,3.602,1.668c0.127,0.126,0.31,0.178,0.484,0.137
			c0.174-0.043,0.314-0.172,0.37-0.343c0.009-0.026,0.924-2.777,2.626-3.247c0.768-0.211,1.627,0.091,2.554,0.901
			c0.215,0.188,0.539,0.165,0.727-0.049c0.188-0.215,0.166-0.54-0.049-0.728C17.029,22.803,15.848,22.428,14.726,22.738z"/>
		<path i:knockout="Off" d="M23.054,17.132c-1.244,0.131-2.129,1.469-2.602,2.364c-0.826-0.988-1.746-1.535-2.76-1.575
			c-2.052-0.083-3.606,1.881-3.67,1.963c-0.175,0.226-0.134,0.547,0.089,0.722c0.224,0.175,0.547,0.135,0.723-0.088
			c0.013-0.016,1.3-1.633,2.821-1.568c0.881,0.038,1.711,0.643,2.469,1.799c0.105,0.16,0.293,0.249,0.482,0.229
			c0.191-0.02,0.357-0.144,0.428-0.323c0.242-0.616,1.156-2.397,2.127-2.498c0.592-0.062,1.15,0.583,1.514,1.134
			c0.156,0.237,0.475,0.302,0.713,0.146c0.236-0.156,0.303-0.476,0.146-0.713C24.779,17.575,23.943,17.04,23.054,17.132z"/>
	</g>
</svg>
