<?xml version="1.0" encoding="utf-8"?>
<!-- Generator: Adobe Illustrator 10.0, SVG Export Plug-In . SVG Version: 3.0.0 Build 76)  -->
<!DOCTYPE svg PUBLIC "-//W3C//DTD SVG 1.0//EN"    "http://www.w3.org/TR/2001/REC-SVG-20010904/DTD/svg10.dtd" [
	<!ENTITY ns_flows "http://ns.adobe.com/Flows/1.0/">
	<!ENTITY ns_extend "http://ns.adobe.com/Extensibility/1.0/">
	<!ENTITY ns_ai "http://ns.adobe.com/AdobeIllustrator/10.0/">
	<!ENTITY ns_graphs "http://ns.adobe.com/Graphs/1.0/">
	<!ENTITY ns_vars "http://ns.adobe.com/Variables/1.0/">
	<!ENTITY ns_imrep "http://ns.adobe.com/ImageReplacement/1.0/">
	<!ENTITY ns_sfw "http://ns.adobe.com/SaveForWeb/1.0/">
	<!ENTITY ns_custom "http://ns.adobe.com/GenericCustomNamespace/1.0/">
	<!ENTITY ns_adobe_xpath "http://ns.adobe.com/XPath/1.0/">
	<!ENTITY ns_svg "http://www.w3.org/2000/svg">
	<!ENTITY ns_xlink "http://www.w3.org/1999/xlink">
]>
<svg 
	 xmlns:x="&ns_extend;" xmlns:i="&ns_ai;" xmlns:graph="&ns_graphs;" i:viewOrigin="8.2231 45.7383" i:rulerOrigin="0 0" i:pageBounds="0 48 48 0"
	 xmlns="&ns_svg;" xmlns:xlink="&ns_xlink;" xmlns:a="http://ns.adobe.com/AdobeSVGViewerExtensions/3.0/"
	 width="29.957" height="42.309" viewBox="0 0 29.957 42.309" overflow="visible" enable-background="new 0 0 29.957 42.309"
	 xml:space="preserve">
	<metadata>
		<variableSets  xmlns="http://ns.adobe.com/Variables/1.0/">
			<variableSet  varSetName="binding1" locked="none">
				<variables></variables>
				<v:sampleDataSets  xmlns="http://ns.adobe.com/GenericCustomNamespace/1.0/" xmlns:v="http://ns.adobe.com/Variables/1.0/">
					</v:sampleDataSets>
			</variableSet>
		</variableSets>
		<sfw  xmlns="&ns_sfw;">
			<slices></slices>
			<sliceSourceBounds  x="8.223" y="3.43" width="29.957" height="42.309" bottomLeftOrigin="true"></sliceSourceBounds>
		</sfw>
	</metadata>
	<g id="Layer_1" i:layer="yes" i:dimmedPercent="50" i:rgbTrio="#4F008000FFFF">
		<path i:knockout="Off" fill="#1E3842" d="M0.737,1.395L0.67,4.773L3.777,0.45L0.805,1.125"/>
		<path i:knockout="Off" fill="#1E3842" d="M28.632,37.666l-0.608,2.432l-2.837,1.283l3.58-0.27l0.541-4.797L28.632,37.666z"/>
		<path i:knockout="Off" fill="none" stroke="#1E3842" d="M29.457,36.879c0,5.43-0.434,4.918-5.477,4.918H6.704
			c-5.043,0-5.217,0.514-5.217-4.918V6.739c0-5.432,0.175-5.27,5.217-5.27h17.274c5.046,0,5.479-0.162,5.479,5.27L29.457,36.879z"/>
		<path i:knockout="Off" fill="none" stroke="#4F849F" d="M28.471,35.91c0,5.43-0.436,4.918-5.479,4.918H5.718
			c-5.043,0-5.218,0.514-5.218-4.918V5.769C0.5,0.337,0.675,0.5,5.718,0.5h17.273c5.045,0,5.479-0.163,5.479,5.269L28.471,35.91z"/>
		<g i:knockout="Off">
			<path i:knockout="Off" fill="#490C08" d="M13.927,16.868c0.116,0.26,2.78,6.466-3.709,14.254
				c-2.943,3.532-4.336,4.251-4.625,4.229c0.058,0.004,0.139,0.076,0.15,0.133c-0.069-0.349,0.773-1.977,2.76-3.16
				c5.138-3.061,13.539-3.454,16.058-1.515c0.824,0.634,0.963,1.138,0.918,1.239c0.002-0.002,0.004-0.006,0.006-0.007
				c-0.137,0.112-1.113,0.021-2.68-1.532c-0.182-0.178-0.475-0.443-0.846-0.78c-2.225-2.015-7.435-6.732-8.636-10.941
				c-0.583-2.041-0.224-2.848-0.071-2.894c0.058-0.018,0.415,0.165,0.653,0.918l0.009,0.028L13.927,16.868z M12.362,19.063
				c1.28,4.483,6.639,9.336,8.926,11.408c0.363,0.328,0.648,0.587,0.813,0.75c1.412,1.398,2.781,2.066,3.66,1.787
				c0.381-0.122,0.639-0.412,0.707-0.796c0.117-0.671-0.355-1.471-1.297-2.194c-2.834-2.184-11.493-1.939-17.179,1.447
				c-2.095,1.248-3.367,3.15-3.241,4.144c0.044,0.35,0.261,0.614,0.578,0.707c1.238,0.361,3.76-2.276,5.657-4.554
				c6.911-8.294,3.98-15.024,3.852-15.307l0.021,0.056c-0.426-1.345-1.281-1.758-1.894-1.574
				C12.172,15.176,11.598,16.385,12.362,19.063z"/>
		</g>
		<g i:knockout="Off">
			<path i:knockout="Off" fill="#F5270E" d="M13.147,16.868c0.116,0.26,2.78,6.466-3.709,14.254
				c-2.943,3.532-4.336,4.251-4.625,4.229c0.058,0.004,0.139,0.076,0.15,0.133c-0.069-0.349,0.773-1.977,2.76-3.16
				c5.138-3.061,13.539-3.454,16.058-1.515c0.824,0.634,0.963,1.138,0.918,1.239c0.002-0.002,0.004-0.006,0.006-0.007
				c-0.137,0.112-1.113,0.021-2.68-1.532c-0.182-0.178-0.475-0.443-0.846-0.78c-2.225-2.015-7.435-6.732-8.636-10.941
				c-0.583-2.041-0.224-2.848-0.071-2.894c0.058-0.018,0.415,0.165,0.653,0.918l0.009,0.028L13.147,16.868z M11.583,19.063
				c1.28,4.483,6.639,9.336,8.926,11.408c0.363,0.328,0.648,0.587,0.813,0.75c1.412,1.398,2.781,2.066,3.66,1.787
				c0.381-0.122,0.639-0.412,0.707-0.796c0.117-0.671-0.355-1.471-1.297-2.194c-2.834-2.184-11.493-1.939-17.179,1.447
				c-2.095,1.248-3.367,3.15-3.241,4.144c0.044,0.35,0.261,0.614,0.578,0.707c1.238,0.361,3.76-2.276,5.657-4.554
				c6.911-8.294,3.98-15.024,3.852-15.307l0.021,0.056c-0.426-1.345-1.281-1.758-1.894-1.574
				C11.393,15.176,10.818,16.385,11.583,19.063z"/>
		</g>
	</g>
</svg>
