<?xml version="1.0" encoding="utf-8"?>
<!-- Generator: Adobe Illustrator 10.0, SVG Export Plug-In . SVG Version: 3.0.0 Build 76)  -->
<!DOCTYPE svg PUBLIC "-//W3C//DTD SVG 1.0//EN"    "http://www.w3.org/TR/2001/REC-SVG-20010904/DTD/svg10.dtd" [
	<!ENTITY ns_flows "http://ns.adobe.com/Flows/1.0/">
	<!ENTITY ns_extend "http://ns.adobe.com/Extensibility/1.0/">
	<!ENTITY ns_ai "http://ns.adobe.com/AdobeIllustrator/10.0/">
	<!ENTITY ns_graphs "http://ns.adobe.com/Graphs/1.0/">
	<!ENTITY ns_vars "http://ns.adobe.com/Variables/1.0/">
	<!ENTITY ns_imrep "http://ns.adobe.com/ImageReplacement/1.0/">
	<!ENTITY ns_sfw "http://ns.adobe.com/SaveForWeb/1.0/">
	<!ENTITY ns_custom "http://ns.adobe.com/GenericCustomNamespace/1.0/">
	<!ENTITY ns_adobe_xpath "http://ns.adobe.com/XPath/1.0/">
	<!ENTITY ns_svg "http://www.w3.org/2000/svg">
	<!ENTITY ns_xlink "http://www.w3.org/1999/xlink">
]>
<svg 
	 xmlns:x="&ns_extend;" xmlns:i="&ns_ai;" xmlns:graph="&ns_graphs;" i:viewOrigin="9.5 45.7964" i:rulerOrigin="0 0" i:pageBounds="0 48 48 0"
	 xmlns="&ns_svg;" xmlns:xlink="&ns_xlink;" xmlns:a="http://ns.adobe.com/AdobeSVGViewerExtensions/3.0/"
	 width="30.029" height="42.303" viewBox="0 0 30.029 42.303" overflow="visible" enable-background="new 0 0 30.029 42.303"
	 xml:space="preserve">
	<metadata>
		<variableSets  xmlns="http://ns.adobe.com/Variables/1.0/">
			<variableSet  varSetName="binding1" locked="none">
				<variables></variables>
				<v:sampleDataSets  xmlns="http://ns.adobe.com/GenericCustomNamespace/1.0/" xmlns:v="http://ns.adobe.com/Variables/1.0/">
					</v:sampleDataSets>
			</variableSet>
		</variableSets>
		<sfw  xmlns="&ns_sfw;">
			<slices></slices>
			<sliceSourceBounds  x="9.5" y="3.493" width="30.029" height="42.303" bottomLeftOrigin="true"></sliceSourceBounds>
		</sfw>
	</metadata>
	<g id="Layer_1" i:layer="yes" i:dimmedPercent="50" i:rgbTrio="#4F008000FFFF">
		<g>
			<g i:knockout="Off">
				<path i:knockout="Off" fill="#223742" d="M25.953,35.224h-2.609l-2.34-6.115h-9.228l-2.18,6.115H6.948l8.295-21.497h2.337
					L25.953,35.224z M20.165,26.968l-3.432-9.292c-0.127-0.341-0.234-0.813-0.321-1.417h-0.073
					c-0.107,0.671-0.225,1.145-0.351,1.417l-3.403,9.292H20.165z"/>
			</g>
			<g i:knockout="Off">
				<g i:knockout="Off">
					<path i:knockout="Off" fill="#5383A0" d="M24.706,34.601h-2.607l-2.341-6.115H10.53l-2.179,6.115H5.702l8.295-21.497h2.337
						L24.706,34.601z M18.919,26.343l-3.433-9.291c-0.126-0.341-0.234-0.813-0.321-1.417h-0.072
						c-0.107,0.672-0.225,1.145-0.352,1.417l-3.402,9.291H18.919z"/>
				</g>
			</g>
			<path i:knockout="Off" fill="#203842" d="M0.808,1.395L0.741,4.773L3.848,0.45L0.876,1.125"/>
			<path i:knockout="Off" fill="#203842" d="M28.871,38.082l-0.607,2.432l-2.837,1.284l3.579-0.271l0.541-4.796L28.871,38.082z"/>
			<path i:knockout="Off" fill="#203842" d="M24.476,0.969H6.35C3.9,0.967,2.67,0.965,1.896,1.739c-0.802,0.801-0.838,2.188-0.838,5
				v30.14c0,2.703,0.033,4.034,0.779,4.773c0.688,0.681,1.774,0.671,3.745,0.651l1.193-0.007h17.276l1.19,0.007
				c2.063,0.02,3.199,0.03,3.935-0.698c0.733-0.727,0.852-1.988,0.852-4.727c0,0-0.069,0.069-0.102,0.102
				c0.1-0.525,0.103-1.769,0.103-4.811l0.001-25.431c0-2.848-0.127-4.165-0.912-4.949C28.292,0.965,26.937,0.967,24.476,0.969z
				 M24.05,1.969l0.427,0c2.193-0.002,3.402-0.003,3.934,0.528c0.526,0.526,0.619,1.787,0.619,4.242v30.14h-0.002
				c0,2.349-0.083,3.549-0.555,4.016c-0.439,0.436-1.487,0.426-3.222,0.409l-1.2-0.007H6.775l-1.203,0.008
				c-1.646,0.016-2.64,0.024-3.032-0.363c-0.459-0.455-0.482-1.84-0.482-4.063V6.739c0-2.394,0.025-3.773,0.544-4.292
				c0.481-0.481,1.641-0.48,3.746-0.478l0.426,0H24.05z"/>
			<path i:knockout="Off" fill="#51839F" d="M0.837,0.771C0.036,1.571,0,2.958,0,5.769V35.91c0,2.703,0.033,4.035,0.779,4.774
				c0.688,0.681,1.774,0.671,3.746,0.651l1.193-0.007h17.275l1.19,0.007c2.063,0.02,3.199,0.03,3.936-0.698
				c0.733-0.727,0.852-1.989,0.852-4.728V5.769c0-2.847-0.127-4.164-0.912-4.949c-0.825-0.824-2.18-0.822-4.64-0.82H5.29
				C2.841-0.002,1.612-0.003,0.837,0.771z M22.991,1l0.429,0c2.192-0.002,3.4-0.003,3.932,0.528
				c0.526,0.526,0.619,1.787,0.619,4.241V35.91c0,2.349-0.083,3.549-0.556,4.017c-0.439,0.436-1.487,0.426-3.223,0.409l-1.199-0.007
				H5.718l-1.203,0.008c-1.646,0.016-2.64,0.024-3.032-0.363C1.023,39.518,1,38.132,1,35.91V5.769c0-2.394,0.025-3.773,0.544-4.292
				C2.025,0.997,3.185,0.998,5.289,1l0.429,0H22.991z"/>
		</g>
	</g>
</svg>
