<?xml version="1.0" encoding="utf-8"?>
<!-- Generator: Adobe Illustrator 10.0, SVG Export Plug-In . SVG Version: 3.0.0 Build 76)  -->
<!DOCTYPE svg PUBLIC "-//W3C//DTD SVG 1.0//EN"    "http://www.w3.org/TR/2001/REC-SVG-20010904/DTD/svg10.dtd" [
	<!ENTITY ns_flows "http://ns.adobe.com/Flows/1.0/">
	<!ENTITY ns_extend "http://ns.adobe.com/Extensibility/1.0/">
	<!ENTITY ns_ai "http://ns.adobe.com/AdobeIllustrator/10.0/">
	<!ENTITY ns_graphs "http://ns.adobe.com/Graphs/1.0/">
	<!ENTITY ns_vars "http://ns.adobe.com/Variables/1.0/">
	<!ENTITY ns_imrep "http://ns.adobe.com/ImageReplacement/1.0/">
	<!ENTITY ns_sfw "http://ns.adobe.com/SaveForWeb/1.0/">
	<!ENTITY ns_custom "http://ns.adobe.com/GenericCustomNamespace/1.0/">
	<!ENTITY ns_adobe_xpath "http://ns.adobe.com/XPath/1.0/">
	<!ENTITY ns_svg "http://www.w3.org/2000/svg">
	<!ENTITY ns_xlink "http://www.w3.org/1999/xlink">
]>
<svg 
	 xmlns:x="&ns_extend;" xmlns:i="&ns_ai;" xmlns:graph="&ns_graphs;" i:viewOrigin="8.1465 39.1387" i:rulerOrigin="0 0" i:pageBounds="0 48 48 0"
	 xmlns="&ns_svg;" xmlns:xlink="&ns_xlink;" xmlns:a="http://ns.adobe.com/AdobeSVGViewerExtensions/3.0/"
	 width="33.751" height="34.306" viewBox="0 0 33.751 34.306" overflow="visible" enable-background="new 0 0 33.751 34.306"
	 xml:space="preserve">
	<metadata>
		<variableSets  xmlns="http://ns.adobe.com/Variables/1.0/">
			<variableSet  varSetName="binding1" locked="none">
				<variables></variables>
				<v:sampleDataSets  xmlns="http://ns.adobe.com/GenericCustomNamespace/1.0/" xmlns:v="http://ns.adobe.com/Variables/1.0/">
					</v:sampleDataSets>
			</variableSet>
		</variableSets>
		<sfw  xmlns="&ns_sfw;">
			<slices></slices>
			<sliceSourceBounds  x="8.146" y="4.833" width="33.751" height="34.306" bottomLeftOrigin="true"></sliceSourceBounds>
		</sfw>
	</metadata>
	<g id="Layer_1" i:layer="yes" i:dimmedPercent="50" i:rgbTrio="#4F008000FFFF">
		<g>
			<path i:knockout="Off" fill="none" stroke="#203842" stroke-linecap="round" stroke-linejoin="bevel" d="M23.662,17.122
				c0,3.655-2.963,6.619-6.618,6.619c-3.656,0-6.62-2.964-6.62-6.619s2.964-6.619,6.62-6.619
				C20.699,10.503,23.662,13.467,23.662,17.122z"/>
			<path i:knockout="Off" fill="none" stroke="#203842" stroke-linecap="round" stroke-linejoin="bevel" d="M30.533,17.572
				c0-1.617,1.186-2.947,2.732-3.197c-0.405-2.019-1.171-3.906-2.234-5.59c-0.558,0.45-1.258,0.73-2.029,0.73
				c-1.794,0-3.25-1.455-3.25-3.25c0-0.836,0.325-1.592,0.844-2.167c-1.866-1.322-4.016-2.271-6.344-2.729
				c-0.222,1.579-1.564,2.797-3.204,2.797c-1.639,0-2.982-1.219-3.204-2.798C11.722,1.785,9.75,2.613,8.004,3.757
				C8.412,4.3,8.663,4.967,8.663,5.698c0,1.795-1.455,3.25-3.25,3.25c-0.755,0-1.442-0.269-1.994-0.701
				c-1.214,1.768-2.102,3.777-2.558,5.948c1.648,0.159,2.94,1.53,2.94,3.218c0,1.714-1.331,3.103-3.013,3.227
				c0.411,2.193,1.248,4.238,2.432,6.038c0.57-0.492,1.302-0.8,2.113-0.8c1.795,0,3.25,1.456,3.25,3.25
				c0,0.828-0.319,1.576-0.83,2.149c1.788,1.217,3.819,2.103,6.014,2.544c0.236-1.562,1.573-2.764,3.2-2.764
				c1.636,0,2.975,1.211,3.203,2.782c2.21-0.427,4.266-1.284,6.067-2.494c-0.545-0.581-0.885-1.357-0.885-2.218
				c0-1.794,1.455-3.25,3.25-3.25c0.854,0,1.625,0.336,2.205,0.875c1.187-1.783,2.049-3.801,2.472-5.981
				C31.727,20.528,30.533,19.195,30.533,17.572z"/>
		</g>
		<g>
			<path i:knockout="Off" fill="none" stroke="#51839F" stroke-linecap="round" stroke-linejoin="bevel" d="M23.361,16.239
				c0,3.655-2.964,6.619-6.62,6.619c-3.655,0-6.62-2.964-6.62-6.619s2.965-6.62,6.62-6.62C20.397,9.62,23.361,12.584,23.361,16.239z
				"/>
			<path i:knockout="Off" fill="none" stroke="#51839F" stroke-linecap="round" stroke-linejoin="bevel" d="M30.231,16.689
				c0-1.617,1.186-2.948,2.732-3.197c-0.404-2.019-1.171-3.906-2.233-5.59c-0.559,0.45-1.258,0.73-2.03,0.73
				c-1.794,0-3.25-1.455-3.25-3.25c0-0.836,0.325-1.591,0.845-2.167c-1.867-1.322-4.017-2.271-6.344-2.729
				c-0.223,1.578-1.565,2.796-3.205,2.796c-1.639,0-2.982-1.219-3.204-2.798C11.42,0.902,9.449,1.73,7.704,2.874
				c0.407,0.543,0.657,1.21,0.657,1.941c0,1.795-1.454,3.25-3.25,3.25c-0.754,0-1.442-0.269-1.993-0.701
				c-1.214,1.768-2.102,3.777-2.558,5.948c1.647,0.159,2.94,1.53,2.94,3.219c0,1.714-1.33,3.103-3.013,3.226
				c0.411,2.194,1.248,4.239,2.433,6.038c0.569-0.491,1.301-0.799,2.112-0.799c1.796,0,3.25,1.455,3.25,3.25
				c0,0.828-0.319,1.576-0.829,2.149c1.788,1.216,3.818,2.103,6.014,2.544c0.237-1.562,1.573-2.764,3.2-2.764
				c1.636,0,2.975,1.21,3.203,2.782c2.21-0.428,4.267-1.284,6.068-2.494c-0.546-0.582-0.886-1.357-0.886-2.218
				c0-1.795,1.456-3.25,3.25-3.25c0.854,0,1.625,0.336,2.205,0.875c1.187-1.783,2.049-3.802,2.472-5.981
				C31.425,19.646,30.231,18.312,30.231,16.689z"/>
		</g>
	</g>
</svg>
