<?xml version="1.0" encoding="utf-8"?>
<!-- Generator: Adobe Illustrator 10.0, SVG Export Plug-In . SVG Version: 3.0.0 Build 76)  -->
<!DOCTYPE svg PUBLIC "-//W3C//DTD SVG 1.0//EN"    "http://www.w3.org/TR/2001/REC-SVG-20010904/DTD/svg10.dtd" [
	<!ENTITY ns_flows "http://ns.adobe.com/Flows/1.0/">
	<!ENTITY ns_extend "http://ns.adobe.com/Extensibility/1.0/">
	<!ENTITY ns_ai "http://ns.adobe.com/AdobeIllustrator/10.0/">
	<!ENTITY ns_graphs "http://ns.adobe.com/Graphs/1.0/">
	<!ENTITY ns_vars "http://ns.adobe.com/Variables/1.0/">
	<!ENTITY ns_imrep "http://ns.adobe.com/ImageReplacement/1.0/">
	<!ENTITY ns_sfw "http://ns.adobe.com/SaveForWeb/1.0/">
	<!ENTITY ns_custom "http://ns.adobe.com/GenericCustomNamespace/1.0/">
	<!ENTITY ns_adobe_xpath "http://ns.adobe.com/XPath/1.0/">
	<!ENTITY ns_svg "http://www.w3.org/2000/svg">
	<!ENTITY ns_xlink "http://www.w3.org/1999/xlink">
]>
<svg 
	 xmlns:x="&ns_extend;" xmlns:i="&ns_ai;" xmlns:graph="&ns_graphs;" i:viewOrigin="8.2231 45.7383" i:rulerOrigin="0 0" i:pageBounds="0 48 48 0"
	 xmlns="&ns_svg;" xmlns:xlink="&ns_xlink;" xmlns:a="http://ns.adobe.com/AdobeSVGViewerExtensions/3.0/"
	 width="29.957" height="42.309" viewBox="0 0 29.957 42.309" overflow="visible" enable-background="new 0 0 29.957 42.309"
	 xml:space="preserve">
	<metadata>
		<variableSets  xmlns="http://ns.adobe.com/Variables/1.0/">
			<variableSet  varSetName="binding1" locked="none">
				<variables></variables>
				<v:sampleDataSets  xmlns="http://ns.adobe.com/GenericCustomNamespace/1.0/" xmlns:v="http://ns.adobe.com/Variables/1.0/">
					</v:sampleDataSets>
			</variableSet>
		</variableSets>
		<sfw  xmlns="&ns_sfw;">
			<slices></slices>
			<sliceSourceBounds  x="8.223" y="3.43" width="29.957" height="42.309" bottomLeftOrigin="true"></sliceSourceBounds>
		</sfw>
	</metadata>
	<g id="Layer_1" i:layer="yes" i:dimmedPercent="50" i:rgbTrio="#4F008000FFFF">
		<path i:knockout="Off" fill="#1E3842" d="M0.737,1.395L0.67,4.773L3.777,0.45L0.805,1.125"/>
		<path i:knockout="Off" fill="#1E3842" d="M28.632,37.666l-0.608,2.432l-2.837,1.283l3.58-0.27l0.541-4.797L28.632,37.666z"/>
		<path i:knockout="Off" fill="none" stroke="#1E3842" d="M29.457,36.879c0,5.43-0.434,4.918-5.477,4.918H6.704
			c-5.043,0-5.217,0.514-5.217-4.918V6.739c0-5.432,0.175-5.27,5.217-5.27h17.274c5.046,0,5.479-0.162,5.479,5.27L29.457,36.879z"/>
		<path i:knockout="Off" fill="none" stroke="#4F849F" d="M28.471,35.91c0,5.43-0.436,4.918-5.479,4.918H5.718
			c-5.043,0-5.218,0.514-5.218-4.918V5.769C0.5,0.337,0.675,0.5,5.718,0.5h17.273c5.045,0,5.479-0.163,5.479,5.269L28.471,35.91z"/>
		<path i:knockout="Off" fill="#0C1E26" d="M11.19,25.331c-0.045,0.077-4.472,7.76-2.75,9.605c1.28,1.371,6.968,0.556,11.514-0.37
			c0.541-0.109,0.891-0.638,0.781-1.179s-0.639-0.891-1.18-0.78c-3.841,0.781-8.409,1.316-9.54,0.955
			c0.03-1.567,2.553-7.81,5.405-10.565c0.811-0.783,1.522-1.146,2.003-1.024c2.923,0.746,5.665,10.856,5.925,12.487
			c0.08,0.516,0.547,0.897,1.068,0.856c0.52-0.041,0.922-0.458,0.922-0.979c0-0.124-2.658-13.086-7.421-14.302
			C15.342,19.377,12.837,22.552,11.19,25.331z"/>
		<path i:knockout="Off" fill="#2891C1" d="M10.115,24.471c-0.045,0.078-4.472,7.76-2.75,9.605c1.28,1.373,6.968,0.557,11.513-0.369
			c0.541-0.109,0.891-0.639,0.781-1.18s-0.639-0.891-1.18-0.779c-3.841,0.781-8.408,1.316-9.54,0.955
			c0.03-1.568,2.553-7.811,5.405-10.566c0.811-0.783,1.522-1.146,2.003-1.024c2.922,0.746,5.665,10.856,5.924,12.487
			c0.08,0.516,0.547,0.898,1.068,0.857c0.52-0.041,0.922-0.459,0.922-0.98c0-0.123-2.658-13.085-7.42-14.301
			C14.266,18.517,11.762,21.692,10.115,24.471z"/>
	</g>
</svg>
