<?xml version="1.0" encoding="utf-8"?>
<!-- Generator: Adobe Illustrator 10.0, SVG Export Plug-In . SVG Version: 3.0.0 Build 76)  -->
<!DOCTYPE svg PUBLIC "-//W3C//DTD SVG 1.0//EN"    "http://www.w3.org/TR/2001/REC-SVG-20010904/DTD/svg10.dtd" [
	<!ENTITY ns_flows "http://ns.adobe.com/Flows/1.0/">
	<!ENTITY ns_extend "http://ns.adobe.com/Extensibility/1.0/">
	<!ENTITY ns_ai "http://ns.adobe.com/AdobeIllustrator/10.0/">
	<!ENTITY ns_graphs "http://ns.adobe.com/Graphs/1.0/">
	<!ENTITY ns_vars "http://ns.adobe.com/Variables/1.0/">
	<!ENTITY ns_imrep "http://ns.adobe.com/ImageReplacement/1.0/">
	<!ENTITY ns_sfw "http://ns.adobe.com/SaveForWeb/1.0/">
	<!ENTITY ns_custom "http://ns.adobe.com/GenericCustomNamespace/1.0/">
	<!ENTITY ns_adobe_xpath "http://ns.adobe.com/XPath/1.0/">
	<!ENTITY ns_svg "http://www.w3.org/2000/svg">
	<!ENTITY ns_xlink "http://www.w3.org/1999/xlink">
]>
<svg 
	 xmlns:x="&ns_extend;" xmlns:i="&ns_ai;" xmlns:graph="&ns_graphs;" i:viewOrigin="8.2231 45.7383" i:rulerOrigin="0 0" i:pageBounds="0 48 48 0"
	 xmlns="&ns_svg;" xmlns:xlink="&ns_xlink;" xmlns:a="http://ns.adobe.com/AdobeSVGViewerExtensions/3.0/"
	 width="29.957" height="42.309" viewBox="0 0 29.957 42.309" overflow="visible" enable-background="new 0 0 29.957 42.309"
	 xml:space="preserve">
	<metadata>
		<variableSets  xmlns="http://ns.adobe.com/Variables/1.0/">
			<variableSet  varSetName="binding1" locked="none">
				<variables></variables>
				<v:sampleDataSets  xmlns="http://ns.adobe.com/GenericCustomNamespace/1.0/" xmlns:v="http://ns.adobe.com/Variables/1.0/">
					</v:sampleDataSets>
			</variableSet>
		</variableSets>
		<sfw  xmlns="&ns_sfw;">
			<slices></slices>
			<sliceSourceBounds  x="8.223" y="3.43" width="29.957" height="42.309" bottomLeftOrigin="true"></sliceSourceBounds>
		</sfw>
	</metadata>
	<g id="Layer_1" i:layer="yes" i:dimmedPercent="50" i:rgbTrio="#4F008000FFFF">
		<path i:knockout="Off" fill="#1E3842" d="M0.737,1.395L0.67,4.773L3.777,0.45L0.805,1.125"/>
		<path i:knockout="Off" fill="#1E3842" d="M28.775,37.879l-0.608,2.432l-2.837,1.283l3.58-0.27l0.541-4.797L28.775,37.879z"/>
		<path i:knockout="Off" fill="none" stroke="#1E3842" d="M29.457,36.879c0,5.43-0.434,4.918-5.477,4.918H6.704
			c-5.043,0-5.217,0.514-5.217-4.918V6.739c0-5.432,0.175-5.27,5.217-5.27h17.274c5.046,0,5.479-0.162,5.479,5.27L29.457,36.879z"/>
		<path i:knockout="Off" fill="none" stroke="#4F849F" d="M28.471,35.91c0,5.43-0.436,4.918-5.479,4.918H5.718
			c-5.043,0-5.218,0.514-5.218-4.918V5.769C0.5,0.337,0.675,0.5,5.718,0.5h17.273c5.045,0,5.479-0.163,5.479,5.269L28.471,35.91z"/>
		<g i:knockout="Off">
			<path i:knockout="Off" fill="#0E3516" stroke="#0E3615" stroke-width="0.5" stroke-linejoin="round" d="M17.105,24.318
				c0.662,1.053,1.127,1.808,1.393,2.263h0.051c0.369-0.627,0.829-1.378,1.383-2.251l1.956-3.092h2.887l-4.771,7.37l4.977,7.617
				h-2.847l-2.141-3.35c-0.526-0.821-1.01-1.598-1.454-2.329h-0.041c-0.464,0.761-0.949,1.538-1.453,2.329l-2.141,3.35h-2.847
				l4.976-7.617l-4.771-7.37h2.887L17.105,24.318z"/>
		</g>
		<g i:knockout="Off">
			<path i:knockout="Off" fill="#1F7027" stroke="#217829" stroke-width="0.5" stroke-linejoin="round" d="M16.18,24.122
				c0.663,1.052,1.126,1.807,1.394,2.262h0.05c0.368-0.627,0.829-1.378,1.382-2.251l1.957-3.092h2.887l-4.771,7.371l4.978,7.615
				h-2.847l-2.142-3.348c-0.526-0.821-1.01-1.598-1.454-2.331h-0.039c-0.465,0.763-0.95,1.539-1.455,2.331l-2.14,3.348h-2.847
				l4.977-7.615l-4.771-7.371h2.887L16.18,24.122z"/>
		</g>
	</g>
</svg>
