<?xml version="1.0" encoding="utf-8"?>
<!-- Generator: Adobe Illustrator 10.0, SVG Export Plug-In . SVG Version: 3.0.0 Build 76)  -->
<!DOCTYPE svg PUBLIC "-//W3C//DTD SVG 1.0//EN"    "http://www.w3.org/TR/2001/REC-SVG-20010904/DTD/svg10.dtd" [
	<!ENTITY ns_flows "http://ns.adobe.com/Flows/1.0/">
	<!ENTITY ns_extend "http://ns.adobe.com/Extensibility/1.0/">
	<!ENTITY ns_ai "http://ns.adobe.com/AdobeIllustrator/10.0/">
	<!ENTITY ns_graphs "http://ns.adobe.com/Graphs/1.0/">
	<!ENTITY ns_vars "http://ns.adobe.com/Variables/1.0/">
	<!ENTITY ns_imrep "http://ns.adobe.com/ImageReplacement/1.0/">
	<!ENTITY ns_sfw "http://ns.adobe.com/SaveForWeb/1.0/">
	<!ENTITY ns_custom "http://ns.adobe.com/GenericCustomNamespace/1.0/">
	<!ENTITY ns_adobe_xpath "http://ns.adobe.com/XPath/1.0/">
	<!ENTITY ns_svg "http://www.w3.org/2000/svg">
	<!ENTITY ns_xlink "http://www.w3.org/1999/xlink">
]>
<svg 
	 xmlns:x="&ns_extend;" xmlns:i="&ns_ai;" xmlns:graph="&ns_graphs;" i:viewOrigin="2.7319 36.3228" i:rulerOrigin="0 0" i:pageBounds="0 48 48 0"
	 xmlns="&ns_svg;" xmlns:xlink="&ns_xlink;" xmlns:a="http://ns.adobe.com/AdobeSVGViewerExtensions/3.0/"
	 width="42.204" height="31.942" viewBox="0 0 42.204 31.942" overflow="visible" enable-background="new 0 0 42.204 31.942"
	 xml:space="preserve">
	<metadata>
		<variableSets  xmlns="http://ns.adobe.com/Variables/1.0/">
			<variableSet  varSetName="binding1" locked="none">
				<variables></variables>
				<v:sampleDataSets  xmlns="http://ns.adobe.com/GenericCustomNamespace/1.0/" xmlns:v="http://ns.adobe.com/Variables/1.0/">
					</v:sampleDataSets>
			</variableSet>
		</variableSets>
		<sfw  xmlns="&ns_sfw;">
			<slices></slices>
			<sliceSourceBounds  x="2.732" y="4.381" width="42.204" height="31.942" bottomLeftOrigin="true"></sliceSourceBounds>
			<optimizationSettings>
				<targetSettings  fileFormat="GIFFormat" targetSettingsID="0">
					
						<GIFFormat  transparency="true" includeCaption="false" interlaced="false" noMatteColor="false" matteColor="#FFFFFF" autoReduce="false" rolloverMasterPalette="false" webShiftPercent="0" numColors="256" lossy="0" ditherAlgorithm="diffusion" ditherPercent="100" reductionAlgorithm="selective">
						<lockedColors></lockedColors>
						<colorShiftEntries></colorShiftEntries>
					</GIFFormat>
				</targetSettings>
			</optimizationSettings>
		</sfw>
	</metadata>
	<g id="Layer_1" i:layer="yes" i:dimmedPercent="50" i:rgbTrio="#4F008000FFFF">
		<g>
			<path i:knockout="Off" fill="#203842" d="M41.176,30.768l0.189-3.436l-2.941,4.297l2.682-0.588"/>
			<path i:knockout="Off" fill="#203842" d="M0.989,3.432L1.872,1.57l3.075-0.601l-3.74-0.328L0.149,4.417L0.989,3.432z"/>
			<path i:knockout="Off" fill="none" stroke="#203842" d="M6.294,31.442c-5.43,0-4.918-0.463-4.918-5.855V7.118
				c0-5.392-0.514-5.577,4.918-5.577h30.14c5.432,0,5.27,0.187,5.27,5.577v18.468c0,5.395,0.162,5.857-5.27,5.857H6.294V31.442z"/>
			<path i:knockout="Off" fill="none" stroke="#51839F" d="M5.43,30.403c-5.431,0-4.919-0.465-4.919-5.857V6.078
				C0.511,0.687-0.002,0.5,5.43,0.5h30.141c5.432,0,5.269,0.187,5.269,5.578v18.465c0,5.395,0.163,5.859-5.269,5.859H5.43z"/>
		</g>
		<g>
			<g>
				<path i:knockout="Off" fill="#353535" d="M34.238,5.503H8.411c-1.211,0-2.195,0.989-2.195,2.204v17.42
					c0,1.215,0.984,2.202,2.195,2.202h25.827c1.211,0,2.195-0.987,2.195-2.202V7.707C36.433,6.492,35.449,5.503,34.238,5.503z
					 M8.411,6.133h25.827c0.864,0,1.568,0.707,1.568,1.574v13.444c-0.998-0.155-4.623-0.746-6.326-1.376
					c-1.987-0.735-4.025-3.935-6.378-3.829c-2.354,0.104-5.543,2.518-5.543,2.518c2.98,1.995,4.131,2.046,4.131,2.046
					s1.777,0.263-0.366,0.105c-2.143-0.157-7.633-4.88-9.201-4.932c-1.326-0.044-4.371,2.312-5.28,3.04V7.707
					C6.842,6.839,7.545,6.133,8.411,6.133z"/>
				<path i:knockout="Off" fill="#353535" d="M33.033,12.219c0,1.363-1.174,2.467-2.619,2.467c-1.448,0-2.623-1.104-2.623-2.467
					c0-1.361,1.175-2.466,2.623-2.466C31.859,9.753,33.033,10.857,33.033,12.219z"/>
			</g>
			<g>
				<linearGradient id="XMLID_1_" gradientUnits="userSpaceOnUse" x1="5.4204" y1="15.7134" x2="35.6382" y2="15.7134">
					<stop  offset="0" style="stop-color:#38B4CF"/>
					<stop  offset="0.3596" style="stop-color:#189648"/>
					<stop  offset="0.6011" style="stop-color:#F7B71B"/>
					<stop  offset="1" style="stop-color:#A2BF1C"/>
					<a:midPointStop  offset="0" style="stop-color:#38B4CF"/>
					<a:midPointStop  offset="0.5" style="stop-color:#38B4CF"/>
					<a:midPointStop  offset="0.3596" style="stop-color:#189648"/>
					<a:midPointStop  offset="0.5" style="stop-color:#189648"/>
					<a:midPointStop  offset="0.6011" style="stop-color:#F7B71B"/>
					<a:midPointStop  offset="0.5" style="stop-color:#F7B71B"/>
					<a:midPointStop  offset="1" style="stop-color:#A2BF1C"/>
				</linearGradient>
				<path i:knockout="Off" fill="url(#XMLID_1_)" d="M33.444,4.8H7.615C6.404,4.8,5.42,5.789,5.42,7.004v17.419
					c0,1.215,0.983,2.202,2.194,2.202h25.829c1.211,0,2.194-0.987,2.194-2.202V7.004C35.638,5.789,34.655,4.8,33.444,4.8z
					 M7.615,5.43h25.829c0.863,0,1.567,0.707,1.567,1.574v13.444c-0.998-0.155-4.622-0.747-6.326-1.376
					c-1.987-0.736-4.025-3.936-6.378-3.829c-2.353,0.104-5.543,2.519-5.543,2.519c2.98,1.993,4.131,2.045,4.131,2.045
					s1.777,0.263-0.366,0.104c-2.143-0.157-7.633-4.88-9.201-4.931c-1.327-0.044-4.37,2.312-5.28,3.041V7.004
					C6.047,6.136,6.751,5.43,7.615,5.43z"/>
				<linearGradient id="XMLID_2_" gradientUnits="userSpaceOnUse" x1="26.9966" y1="11.5161" x2="32.2378" y2="11.5161">
					<stop  offset="0" style="stop-color:#38B4CF"/>
					<stop  offset="0.3596" style="stop-color:#189648"/>
					<stop  offset="0.6011" style="stop-color:#F7B71B"/>
					<stop  offset="1" style="stop-color:#A2BF1C"/>
					<a:midPointStop  offset="0" style="stop-color:#38B4CF"/>
					<a:midPointStop  offset="0.5" style="stop-color:#38B4CF"/>
					<a:midPointStop  offset="0.3596" style="stop-color:#189648"/>
					<a:midPointStop  offset="0.5" style="stop-color:#189648"/>
					<a:midPointStop  offset="0.6011" style="stop-color:#F7B71B"/>
					<a:midPointStop  offset="0.5" style="stop-color:#F7B71B"/>
					<a:midPointStop  offset="1" style="stop-color:#A2BF1C"/>
				</linearGradient>
				<path i:knockout="Off" fill="url(#XMLID_2_)" d="M32.238,11.515c0,1.363-1.174,2.468-2.62,2.468
					c-1.447,0-2.621-1.105-2.621-2.468c0-1.361,1.174-2.465,2.621-2.465C31.064,9.05,32.238,10.154,32.238,11.515z"/>
			</g>
		</g>
	</g>
</svg>
