<?xml version="1.0" encoding="utf-8"?>
<!-- Generator: Adobe Illustrator 10.0, SVG Export Plug-In . SVG Version: 3.0.0 Build 76)  -->
<!DOCTYPE svg PUBLIC "-//W3C//DTD SVG 1.0//EN"    "http://www.w3.org/TR/2001/REC-SVG-20010904/DTD/svg10.dtd" [
	<!ENTITY ns_flows "http://ns.adobe.com/Flows/1.0/">
	<!ENTITY ns_extend "http://ns.adobe.com/Extensibility/1.0/">
	<!ENTITY ns_ai "http://ns.adobe.com/AdobeIllustrator/10.0/">
	<!ENTITY ns_graphs "http://ns.adobe.com/Graphs/1.0/">
	<!ENTITY ns_vars "http://ns.adobe.com/Variables/1.0/">
	<!ENTITY ns_imrep "http://ns.adobe.com/ImageReplacement/1.0/">
	<!ENTITY ns_sfw "http://ns.adobe.com/SaveForWeb/1.0/">
	<!ENTITY ns_custom "http://ns.adobe.com/GenericCustomNamespace/1.0/">
	<!ENTITY ns_adobe_xpath "http://ns.adobe.com/XPath/1.0/">
	<!ENTITY ns_svg "http://www.w3.org/2000/svg">
	<!ENTITY ns_xlink "http://www.w3.org/1999/xlink">
]>
<svg 
	 xmlns:x="&ns_extend;" xmlns:i="&ns_ai;" xmlns:graph="&ns_graphs;" i:viewOrigin="9.543 44.0137" i:rulerOrigin="0 0" i:pageBounds="0 48 48 0"
	 xmlns="&ns_svg;" xmlns:xlink="&ns_xlink;" xmlns:a="http://ns.adobe.com/AdobeSVGViewerExtensions/3.0/"
	 width="30.027" height="42.308" viewBox="0 0 30.027 42.308" overflow="visible" enable-background="new 0 0 30.027 42.308"
	 xml:space="preserve">
	<metadata>
		<variableSets  xmlns="http://ns.adobe.com/Variables/1.0/">
			<variableSet  varSetName="binding1" locked="none">
				<variables></variables>
				<v:sampleDataSets  xmlns="http://ns.adobe.com/GenericCustomNamespace/1.0/" xmlns:v="http://ns.adobe.com/Variables/1.0/">
					</v:sampleDataSets>
			</variableSet>
		</variableSets>
		<sfw  xmlns="&ns_sfw;">
			<slices></slices>
			<sliceSourceBounds  x="9.543" y="1.706" width="30.027" height="42.308" bottomLeftOrigin="true"></sliceSourceBounds>
			<optimizationSettings>
				<targetSettings  fileFormat="GIFFormat" targetSettingsID="0">
					
						<GIFFormat  transparency="true" includeCaption="false" interlaced="false" noMatteColor="false" matteColor="#FFFFFF" autoReduce="false" rolloverMasterPalette="false" webShiftPercent="0" numColors="256" lossy="0" ditherAlgorithm="diffusion" ditherPercent="100" reductionAlgorithm="selective">
						<lockedColors></lockedColors>
						<colorShiftEntries></colorShiftEntries>
					</GIFFormat>
				</targetSettings>
			</optimizationSettings>
		</sfw>
	</metadata>
	<g id="Layer_1" i:layer="yes" i:dimmedPercent="50" i:rgbTrio="#4F008000FFFF">
		<g>
			<path i:knockout="Off" fill="#203842" d="M0.808,1.395L0.741,4.772l3.106-4.323L0.876,1.125"/>
			<path i:knockout="Off" fill="#203842" d="M28.871,38.081l-0.607,2.432l-2.837,1.284l3.579-0.271l0.541-4.796L28.871,38.081z"/>
			<path i:knockout="Off" fill="none" stroke="#203842" d="M29.527,36.878c0,5.43-0.434,4.918-5.477,4.918H6.774
				c-5.043,0-5.217,0.514-5.217-4.918V6.738c0-5.432,0.175-5.27,5.217-5.27H24.05c5.046,0,5.479-0.162,5.479,5.27v30.14H29.527z"/>
			<path i:knockout="Off" fill="none" stroke="#51839F" d="M28.471,35.909c0,5.431-0.435,4.919-5.478,4.919H5.718
				c-5.043,0-5.218,0.514-5.218-4.919V5.769C0.5,0.337,0.675,0.5,5.718,0.5h17.273c5.045,0,5.479-0.163,5.479,5.269V35.909z"/>
		</g>
		<g>
			<path i:knockout="Off" fill="#223742" d="M15.278,10.937c-1.138,0-2.234,0.161-3.269,0.462c-4.501,1.308-7.779,5.246-7.779,9.889
				c0,5.707,4.954,10.349,11.043,10.351l0.002,0.012c0.004,0,0.02-0.005,0.043-0.012c0.474-0.002,0.938-0.035,1.396-0.09
				c5.415-0.662,9.612-5.01,9.612-10.261C26.326,15.58,21.369,10.937,15.278,10.937z M25.253,18.591
				c-0.406-0.072-1.107-0.179-2.144-0.287c-1.1-3.478-3.893-5.444-5.813-6.421C21.105,12.577,24.173,15.193,25.253,18.591z
				 M19.592,18.798c1.211,0.063,2.214,0.141,3.036,0.22c0.193,0.741,0.305,1.552,0.305,2.438c0,1.048-0.158,1.982-0.423,2.823
				c-0.827,0.092-1.829,0.18-3.021,0.244c0.187-0.949,0.302-1.994,0.302-3.15C19.79,20.452,19.717,19.595,19.592,18.798z
				 M22.385,18.234c-0.809-0.074-1.778-0.145-2.93-0.201c-0.508-2.445-1.498-4.246-2.335-5.416
				C18.863,13.516,21.307,15.251,22.385,18.234z M15.605,11.948c0.028,0.012,0.061,0.021,0.095,0.035
				c0.741,0.798,2.343,2.813,3.067,6.018c-0.944-0.038-1.995-0.069-3.162-0.085V11.948z M15.605,18.672
				c1.228,0.017,2.33,0.05,3.313,0.094c0.136,0.804,0.219,1.671,0.219,2.606c0,1.174-0.128,2.232-0.334,3.185
				c-0.956,0.04-2.021,0.069-3.197,0.072V18.672z M14.951,12.148v5.761c-0.831-0.006-1.604-0.001-2.324,0.013
				c-0.202,0.004-0.402,0.01-0.598,0.015c0.092-0.391,0.196-0.764,0.311-1.118C13.094,14.469,14.276,12.903,14.951,12.148z
				 M12.091,15.509c-0.293,0.729-0.554,1.546-0.747,2.451c-0.943,0.036-1.778,0.088-2.504,0.146c0.72-1.777,1.916-3.161,3.09-4.186
				c0.613-0.534,1.221-0.974,1.751-1.313C13.161,13.328,12.579,14.296,12.091,15.509z M11.284,24.532
				c-1.037-0.054-1.936-0.125-2.699-0.201c-0.265-0.822-0.421-1.729-0.421-2.732c0-0.979,0.147-1.881,0.398-2.709
				c0.752-0.065,1.629-0.125,2.64-0.166c-0.135,0.825-0.215,1.715-0.215,2.676C10.987,22.547,11.099,23.589,11.284,24.532z
				 M11.941,12.206c0.525-0.164,1.064-0.296,1.622-0.381c-0.492,0.309-1.063,0.702-1.648,1.182c-1.44,1.178-2.99,2.88-3.813,5.165
				c-1.367,0.134-2.277,0.287-2.789,0.392C6.271,15.58,8.765,13.204,11.941,12.206z M4.884,21.287c0-0.653,0.074-1.29,0.209-1.907
				c0.319-0.073,1.211-0.257,2.763-0.42c-0.219,0.812-0.345,1.691-0.345,2.639c0,0.965,0.131,1.848,0.356,2.654
				c-1.462-0.17-2.312-0.352-2.609-0.42C5.015,23.02,4.884,22.168,4.884,21.287z M5.55,24.665c0.504,0.102,1.351,0.248,2.58,0.383
				c1.096,2.887,3.419,4.68,5.104,5.648C9.694,30.042,6.801,27.724,5.55,24.665z M8.883,25.122c0.741,0.068,1.598,0.131,2.572,0.178
				c0.565,2.243,1.541,3.852,2.342,4.877C12.271,29.345,10.022,27.744,8.883,25.122z M14.951,30.432
				c-0.728-0.769-2.06-2.45-2.795-5.102c0.848,0.032,1.78,0.05,2.795,0.054V30.432z M14.951,24.628
				c-1.089-0.004-2.087-0.025-2.981-0.064c-0.205-0.943-0.331-1.997-0.331-3.162c0-0.973,0.088-1.871,0.234-2.7
				c0.318-0.011,0.65-0.018,0.991-0.023c0.653-0.012,1.345-0.016,2.087-0.012V24.628z M15.605,30.628v-5.242
				c0.09,0,0.175-0.002,0.266-0.003c0.994-0.007,1.911-0.026,2.741-0.062c-0.475,1.709-1.198,3.014-1.847,3.928
				C16.301,29.907,15.873,30.368,15.605,30.628z M19.318,25.29c1.127-0.057,2.09-0.134,2.904-0.217
				c-1.194,2.793-3.629,4.366-5.309,5.158C17.725,29.216,18.733,27.586,19.318,25.29z M17.841,30.585
				c1.797-0.975,4.064-2.713,5.132-5.594c0.914-0.111,1.584-0.223,2.026-0.309C23.807,27.581,21.135,29.811,17.841,30.585z
				 M23.232,24.194c0.225-0.828,0.354-1.738,0.354-2.738c0-0.854-0.098-1.638-0.261-2.366c1.221,0.136,1.911,0.261,2.145,0.309
				c0.136,0.61,0.203,1.243,0.203,1.891c0,0.888-0.134,1.747-0.38,2.565C24.973,23.924,24.292,24.057,23.232,24.194z"/>
			<path i:knockout="Off" fill="#5382A1" d="M14.768,10.596c-1.138,0-2.235,0.162-3.269,0.463c-4.5,1.309-7.779,5.246-7.779,9.888
				c0,5.707,4.954,10.35,11.044,10.353l0.002,0.011c0.002-0.001,0.019-0.006,0.042-0.012c0.473-0.001,0.938-0.035,1.396-0.09
				c5.415-0.66,9.612-5.009,9.612-10.26C25.815,15.239,20.858,10.596,14.768,10.596z M24.741,18.251
				c-0.406-0.071-1.106-0.179-2.142-0.287c-1.101-3.479-3.893-5.443-5.813-6.422C20.595,12.237,23.662,14.853,24.741,18.251z
				 M19.081,18.459c1.211,0.062,2.214,0.139,3.035,0.219c0.192,0.743,0.306,1.551,0.306,2.438c0,1.048-0.159,1.983-0.423,2.825
				c-0.827,0.091-1.83,0.178-3.021,0.242c0.187-0.948,0.302-1.995,0.302-3.15C19.279,20.112,19.206,19.255,19.081,18.459z
				 M21.873,17.894c-0.808-0.073-1.777-0.145-2.929-0.2c-0.507-2.446-1.497-4.247-2.335-5.417
				C18.352,13.176,20.796,14.91,21.873,17.894z M15.094,11.608c0.03,0.011,0.061,0.021,0.095,0.035
				c0.742,0.798,2.343,2.813,3.067,6.019c-0.944-0.038-1.994-0.069-3.162-0.086V11.608z M15.094,18.332
				c1.228,0.016,2.331,0.05,3.313,0.094c0.137,0.804,0.22,1.671,0.22,2.606c0,1.174-0.128,2.232-0.335,3.184
				c-0.956,0.041-2.02,0.068-3.198,0.073L15.094,18.332z M14.441,11.809v5.761c-0.832-0.006-1.605-0.001-2.324,0.013
				c-0.202,0.005-0.403,0.01-0.599,0.015c0.092-0.391,0.196-0.764,0.311-1.118C12.584,14.129,13.766,12.563,14.441,11.809z
				 M11.581,15.168c-0.295,0.729-0.555,1.546-0.747,2.452c-0.944,0.035-1.778,0.086-2.504,0.146c0.72-1.777,1.915-3.162,3.09-4.187
				c0.613-0.535,1.221-0.973,1.751-1.313C12.649,12.988,12.069,13.955,11.581,15.168z M10.772,24.192
				c-1.036-0.053-1.935-0.125-2.699-0.201c-0.264-0.82-0.42-1.729-0.42-2.732c0-0.979,0.147-1.881,0.398-2.708
				c0.752-0.066,1.628-0.126,2.639-0.168c-0.135,0.827-0.215,1.716-0.215,2.677C10.476,22.207,10.588,23.249,10.772,24.192z
				 M11.431,11.866c0.524-0.164,1.064-0.296,1.622-0.382c-0.492,0.309-1.063,0.703-1.648,1.184c-1.44,1.176-2.99,2.878-3.813,5.164
				c-1.367,0.133-2.277,0.287-2.789,0.391C5.762,15.239,8.254,12.862,11.431,11.866z M4.373,20.946c0-0.653,0.073-1.289,0.209-1.905
				c0.318-0.074,1.211-0.259,2.762-0.421c-0.218,0.813-0.345,1.691-0.345,2.639c0,0.965,0.132,1.848,0.356,2.656
				c-1.462-0.172-2.311-0.354-2.609-0.422C4.504,22.681,4.373,21.827,4.373,20.946z M5.04,24.325c0.503,0.103,1.35,0.248,2.58,0.383
				c1.095,2.886,3.417,4.678,5.103,5.648C9.185,29.701,6.29,27.382,5.04,24.325z M8.372,24.783c0.74,0.067,1.599,0.129,2.572,0.177
				c0.565,2.244,1.541,3.852,2.342,4.877C11.761,29.004,9.511,27.404,8.372,24.783z M14.441,30.093
				c-0.729-0.768-2.061-2.449-2.796-5.102c0.849,0.03,1.78,0.051,2.796,0.055V30.093z M14.441,24.29
				c-1.09-0.005-2.087-0.027-2.982-0.064c-0.205-0.947-0.33-1.999-0.33-3.165c0-0.972,0.087-1.871,0.233-2.7
				c0.318-0.011,0.651-0.017,0.991-0.023c0.652-0.012,1.345-0.017,2.088-0.012V24.29z M15.094,30.289v-5.241
				c0.09-0.002,0.177-0.004,0.267-0.004c0.994-0.007,1.91-0.027,2.741-0.061c-0.475,1.709-1.199,3.01-1.848,3.926
				C15.79,29.567,15.362,30.026,15.094,30.289z M18.807,24.95c1.127-0.057,2.091-0.135,2.905-0.216
				c-1.193,2.793-3.629,4.366-5.309,5.157C17.214,28.875,18.223,27.245,18.807,24.95z M17.329,30.243
				c1.798-0.973,4.064-2.711,5.133-5.594c0.914-0.109,1.584-0.222,2.026-0.308C23.296,27.24,20.625,29.47,17.329,30.243z
				 M22.721,23.853c0.225-0.826,0.354-1.736,0.354-2.737c0-0.853-0.098-1.638-0.263-2.365c1.222,0.135,1.913,0.261,2.146,0.308
				c0.135,0.611,0.203,1.244,0.203,1.89c0,0.89-0.135,1.749-0.381,2.565C24.461,23.584,23.781,23.716,22.721,23.853z"/>
		</g>
	</g>
</svg>
