<?xml version="1.0" encoding="utf-8"?>
<!-- Generator: Adobe Illustrator 10.0, SVG Export Plug-In . SVG Version: 3.0.0 Build 76)  -->
<!DOCTYPE svg PUBLIC "-//W3C//DTD SVG 1.0//EN"    "http://www.w3.org/TR/2001/REC-SVG-20010904/DTD/svg10.dtd" [
	<!ENTITY ns_flows "http://ns.adobe.com/Flows/1.0/">
	<!ENTITY ns_extend "http://ns.adobe.com/Extensibility/1.0/">
	<!ENTITY ns_ai "http://ns.adobe.com/AdobeIllustrator/10.0/">
	<!ENTITY ns_graphs "http://ns.adobe.com/Graphs/1.0/">
	<!ENTITY ns_vars "http://ns.adobe.com/Variables/1.0/">
	<!ENTITY ns_imrep "http://ns.adobe.com/ImageReplacement/1.0/">
	<!ENTITY ns_sfw "http://ns.adobe.com/SaveForWeb/1.0/">
	<!ENTITY ns_custom "http://ns.adobe.com/GenericCustomNamespace/1.0/">
	<!ENTITY ns_adobe_xpath "http://ns.adobe.com/XPath/1.0/">
	<!ENTITY ns_svg "http://www.w3.org/2000/svg">
	<!ENTITY ns_xlink "http://www.w3.org/1999/xlink">
]>
<svg 
	 xmlns:x="&ns_extend;" xmlns:i="&ns_ai;" xmlns:graph="&ns_graphs;" i:viewOrigin="3.1875 45.1152" i:rulerOrigin="0 0" i:pageBounds="0 48 48 0"
	 xmlns="&ns_svg;" xmlns:xlink="&ns_xlink;" xmlns:a="http://ns.adobe.com/AdobeSVGViewerExtensions/3.0/"
	 width="41.812" height="39.077" viewBox="0 0 41.812 39.077" overflow="visible" enable-background="new 0 0 41.812 39.077"
	 xml:space="preserve">
	<metadata>
		<variableSets  xmlns="http://ns.adobe.com/Variables/1.0/">
			<variableSet  varSetName="binding1" locked="none">
				<variables></variables>
				<v:sampleDataSets  xmlns="http://ns.adobe.com/GenericCustomNamespace/1.0/" xmlns:v="http://ns.adobe.com/Variables/1.0/">
					</v:sampleDataSets>
			</variableSet>
		</variableSets>
		<sfw  xmlns="&ns_sfw;">
			<slices></slices>
			<sliceSourceBounds  x="3.188" y="6.038" width="41.812" height="39.077" bottomLeftOrigin="true"></sliceSourceBounds>
		</sfw>
	</metadata>
	<g id="Layer_1" i:layer="yes" i:dimmedPercent="50" i:rgbTrio="#4F008000FFFF">
		<path i:knockout="Off" fill="#5383A0" d="M21.849,37.487h-0.017v0.528h0.017V37.487z"/>
		<path i:knockout="Off" fill="#5383A0" d="M21.849,38.542v-0.526h-0.017v0.526H21.849z"/>
		<g>
			<g i:knockout="Off">
				<path i:knockout="Off" fill="#7F3A01" d="M24.23,9.707c-0.654,7.546-0.982,11.397-0.982,11.558c0,2.89,0.838,4.335,2.518,4.335
					c1.53,0,2.785-0.815,3.764-2.448c0.979-1.634,1.469-3.708,1.469-6.226c0-3.774-1.189-6.88-3.567-9.316
					c-2.377-2.437-5.709-3.654-9.999-3.654c-4.049,0-7.405,1.42-10.069,4.261c-2.664,2.841-3.996,6.439-3.996,10.795
					c0,4.289,1.272,7.732,3.818,10.331c2.546,2.601,5.958,3.9,10.237,3.9c3.372,0,6.259-0.569,8.657-1.71v2.458
					c-2.403,0.998-5.361,1.496-8.873,1.496c-4.968,0-8.971-1.503-12.009-4.509C2.16,27.97,0.642,24.028,0.642,19.149
					c0-5.064,1.598-9.237,4.793-12.519C8.63,3.352,12.683,1.71,17.593,1.71c4.59,0,8.426,1.382,11.507,4.146
					c3.082,2.764,4.623,6.389,4.623,10.874c0,3.245-0.798,5.908-2.397,7.99c-1.598,2.084-3.536,3.124-5.813,3.124
					c-2.972,0-4.469-1.648-4.496-4.949h-0.101c-1.001,3.301-2.979,4.949-5.932,4.949c-1.884,0-3.4-0.692-4.55-2.081
					c-1.148-1.389-1.723-3.244-1.723-5.565c0-3.083,0.794-5.652,2.384-7.708c1.59-2.055,3.68-3.083,6.272-3.083
					c0.922,0,1.792,0.247,2.614,0.741c0.821,0.495,1.333,1.136,1.533,1.924h0.077l0.2-2.365H24.23z M11.544,20.271
					c0,1.615,0.339,2.907,1.018,3.876c0.678,0.969,1.648,1.453,2.911,1.453c1.741,0,3.107-0.87,4.098-2.613
					c0.991-1.743,1.486-4.021,1.486-6.834c0-3.001-1.25-4.501-3.749-4.501c-1.715,0-3.104,0.821-4.169,2.462
					C12.075,15.755,11.544,17.808,11.544,20.271z"/>
			</g>
			<g i:knockout="Off">
				<path i:knockout="Off" fill="#E76F00" d="M23.59,7.997c-0.656,7.545-0.982,11.397-0.982,11.558c0,2.891,0.838,4.335,2.516,4.335
					c1.532,0,2.787-0.816,3.766-2.449c0.979-1.634,1.468-3.708,1.468-6.225c0-3.774-1.188-6.88-3.566-9.317
					c-2.378-2.436-5.71-3.654-9.999-3.654c-4.05,0-7.405,1.42-10.069,4.261S2.726,12.945,2.726,17.3
					c0,4.289,1.272,7.732,3.819,10.333c2.545,2.599,5.958,3.899,10.237,3.899c3.373,0,6.258-0.57,8.658-1.71v2.459
					c-2.403,0.996-5.362,1.496-8.873,1.496c-4.969,0-8.972-1.505-12.01-4.511S0,22.318,0,17.439c0-5.064,1.598-9.237,4.793-12.519
					C7.988,1.641,12.041,0,16.951,0c4.589,0,8.426,1.382,11.508,4.146s4.623,6.388,4.623,10.874c0,3.245-0.8,5.908-2.397,7.991
					c-1.598,2.082-3.536,3.124-5.814,3.124c-2.97,0-4.468-1.65-4.495-4.951h-0.1c-1.002,3.301-2.979,4.951-5.933,4.951
					c-1.884,0-3.4-0.694-4.549-2.083c-1.149-1.387-1.724-3.243-1.724-5.565c0-3.083,0.794-5.651,2.384-7.707
					s3.681-3.083,6.272-3.083c0.922,0,1.793,0.247,2.614,0.741c0.822,0.494,1.333,1.136,1.533,1.924h0.076l0.2-2.364H23.59z
					 M10.902,18.561c0,1.614,0.339,2.908,1.018,3.877c0.678,0.968,1.648,1.452,2.912,1.452c1.741,0,3.107-0.871,4.098-2.614
					c0.99-1.743,1.486-4.021,1.486-6.833c0-3.001-1.25-4.502-3.75-4.502c-1.715,0-3.104,0.821-4.168,2.463
					C11.434,14.045,10.902,16.098,10.902,18.561z"/>
			</g>
		</g>
		<g>
			<path i:knockout="Off" fill="none" stroke="#484F01" stroke-linejoin="round" d="M40.198,28.902h-3.197v-2.789
				c0-1.588-1.133-1.523-2.525-1.523c-1.394,0-2.521-0.064-2.521,1.523v2.789h-3.101c-1.15,0-1.214,1.2-1.214,2.682
				c0,1.48,0.063,2.682,1.214,2.682h3.101v2.903c0,1.588,1.233,1.409,2.626,1.409c1.395,0,2.421,0.179,2.421-1.409v-2.903h3.197
				c1.15,0,1.114-1.014,1.114-2.496C41.313,30.289,41.349,28.902,40.198,28.902z"/>
			<path i:knockout="Off" fill="#97B101" d="M39.839,28.524H36.64v-2.786c0-1.589-1.128-1.525-2.521-1.525
				c-1.394,0-2.524-0.063-2.524,1.525v2.786h-3.101c-1.15,0-1.211,1.204-1.211,2.685s0.061,2.682,1.211,2.682h3.101v2.9
				c0,1.588,1.237,1.412,2.629,1.412c1.395,0,2.416,0.176,2.416-1.412v-2.9h3.199c1.15,0,1.114-1.014,1.114-2.496
				C40.953,29.915,40.989,28.524,39.839,28.524z"/>
		</g>
	</g>
</svg>
