<?xml version="1.0" encoding="utf-8"?>
<!-- Generator: Adobe Illustrator 10.0, SVG Export Plug-In . SVG Version: 3.0.0 Build 76)  -->
<!DOCTYPE svg PUBLIC "-//W3C//DTD SVG 1.0//EN"    "http://www.w3.org/TR/2001/REC-SVG-20010904/DTD/svg10.dtd" [
	<!ENTITY ns_flows "http://ns.adobe.com/Flows/1.0/">
	<!ENTITY ns_extend "http://ns.adobe.com/Extensibility/1.0/">
	<!ENTITY ns_ai "http://ns.adobe.com/AdobeIllustrator/10.0/">
	<!ENTITY ns_graphs "http://ns.adobe.com/Graphs/1.0/">
	<!ENTITY ns_vars "http://ns.adobe.com/Variables/1.0/">
	<!ENTITY ns_imrep "http://ns.adobe.com/ImageReplacement/1.0/">
	<!ENTITY ns_sfw "http://ns.adobe.com/SaveForWeb/1.0/">
	<!ENTITY ns_custom "http://ns.adobe.com/GenericCustomNamespace/1.0/">
	<!ENTITY ns_adobe_xpath "http://ns.adobe.com/XPath/1.0/">
	<!ENTITY ns_svg "http://www.w3.org/2000/svg">
	<!ENTITY ns_xlink "http://www.w3.org/1999/xlink">
]>
<svg 
	 xmlns:x="&ns_extend;" xmlns:i="&ns_ai;" xmlns:graph="&ns_graphs;" i:viewOrigin="6.1182 42.1006" i:rulerOrigin="0 0" i:pageBounds="0 48 48 0"
	 xmlns="&ns_svg;" xmlns:xlink="&ns_xlink;" xmlns:a="http://ns.adobe.com/AdobeSVGViewerExtensions/3.0/"
	 width="39.362" height="37.729" viewBox="0 0 39.362 37.729" overflow="visible" enable-background="new 0 0 39.362 37.729"
	 xml:space="preserve">
	<metadata>
		<variableSets  xmlns="http://ns.adobe.com/Variables/1.0/">
			<variableSet  varSetName="binding1" locked="none">
				<variables></variables>
				<v:sampleDataSets  xmlns="http://ns.adobe.com/GenericCustomNamespace/1.0/" xmlns:v="http://ns.adobe.com/Variables/1.0/">
					</v:sampleDataSets>
			</variableSet>
		</variableSets>
		<sfw  xmlns="&ns_sfw;">
			<slices></slices>
			<sliceSourceBounds  x="6.118" y="4.372" width="39.362" height="37.729" bottomLeftOrigin="true"></sliceSourceBounds>
		</sfw>
	</metadata>
	<g id="Layer_1" i:layer="yes" i:dimmedPercent="50" i:rgbTrio="#4F008000FFFF">
		<g i:knockout="Off">
			<path i:knockout="Off" fill="#484F01" d="M18.229,0.875c-1.777,0-3.492,0.271-5.106,0.772C6.106,3.83,1,10.381,1,18.104
				c0,9.5,7.729,17.229,17.229,17.229c0.545,0,1.086-0.029,1.619-0.079c8.742-0.819,15.608-8.196,15.608-17.15
				C35.457,8.604,27.729,0.875,18.229,0.875z M20.269,33.756c-0.668,0.086-1.349,0.136-2.039,0.136
				c-8.705,0-15.787-7.082-15.787-15.788c0-6.783,4.303-12.583,10.322-14.812c1.702-0.63,3.545-0.976,5.465-0.976
				c8.705,0,15.787,7.082,15.787,15.786C34.017,26.118,28.013,32.751,20.269,33.756z"/>
			<path i:knockout="Off" fill="#484F01" d="M3.324,18.116h2.882"/>
			<path i:knockout="Off" fill="#484F01" d="M3.324,17.496c-0.198,0-0.359,0.264-0.359,0.59c0,0.327,0.161,0.591,0.359,0.591h2.882
				c0.197,0,0.359-0.264,0.359-0.591c0-0.326-0.162-0.59-0.359-0.59H3.324z"/>
			<path i:knockout="Off" fill="#484F01" d="M29.617,18.116h2.882"/>
			<path i:knockout="Off" fill="#484F01" d="M29.617,17.749c-0.199,0-0.359,0.245-0.359,0.547c0,0.304,0.16,0.548,0.359,0.548h2.882
				c0.198,0,0.359-0.244,0.359-0.548c0-0.302-0.161-0.547-0.359-0.547H29.617z"/>
			<path i:knockout="Off" fill="#484F01" d="M18.092,3.229v2.883"/>
			<path i:knockout="Off" fill="#484F01" d="M17.649,3.229v2.883c0,0.197,0.238,0.358,0.531,0.358c0.295,0,0.532-0.161,0.532-0.358
				V3.229c0-0.198-0.237-0.359-0.532-0.359C17.888,2.869,17.649,3.03,17.649,3.229z"/>
			<path i:knockout="Off" fill="#484F01" d="M18.092,30.003v2.881"/>
			<path i:knockout="Off" fill="#484F01" d="M17.776,30.003v2.881c0,0.199,0.222,0.36,0.496,0.36c0.272,0,0.494-0.161,0.494-0.36
				v-2.881c0-0.199-0.222-0.36-0.494-0.36C17.998,29.643,17.776,29.804,17.776,30.003z"/>
			<path i:knockout="Off" fill="#484F01" d="M17.896,19.13l-8.399,8.4"/>
			<path i:knockout="Off" fill="#484F01" d="M17.799,19.093l-8.399,8.4c-0.07,0.068-0.07,0.184,0,0.255
				c0.07,0.07,0.185,0.07,0.254,0l8.4-8.4c0.07-0.07,0.07-0.185,0-0.255C17.983,19.023,17.869,19.022,17.799,19.093z"/>
			<path i:knockout="Off" fill="#484F01" d="M9.53,8.69c-0.233,0.187-0.27,0.526-0.084,0.759l7.953,9.936
				c0.187,0.232,0.527,0.271,0.76,0.084c0.232-0.187,0.271-0.526,0.084-0.76l-7.954-9.935C10.104,8.542,9.763,8.504,9.53,8.69z"/>
			<path i:knockout="Off" fill="#484F01" d="M26.896,14.642l-9.215,3.993c-0.272,0.118-0.398,0.437-0.281,0.71
				c0.119,0.273,0.438,0.399,0.711,0.28l9.216-3.991c0.272-0.119,0.399-0.438,0.28-0.711C27.488,14.649,27.17,14.523,26.896,14.642z
				"/>
		</g>
		<path i:knockout="Off" fill="#96B119" d="M17.229,0c-1.777,0-3.492,0.271-5.106,0.772C5.106,2.955,0,9.506,0,17.229
			c0,9.5,7.729,17.229,17.229,17.229c0.545,0,1.086-0.029,1.619-0.079c8.742-0.819,15.608-8.196,15.608-17.15
			C34.457,7.729,26.729,0,17.229,0z M19.269,32.881c-0.668,0.086-1.349,0.136-2.039,0.136c-8.705,0-15.787-7.082-15.787-15.788
			c0-6.783,4.303-12.583,10.322-14.812c1.702-0.63,3.545-0.976,5.465-0.976c8.705,0,15.787,7.082,15.787,15.786
			C33.017,25.243,27.013,31.876,19.269,32.881z"/>
		<path i:knockout="Off" fill="#FFFFFF" d="M2.324,17.241h2.882"/>
		<path i:knockout="Off" fill="#96B119" d="M2.699,16.871c-0.198,0-0.359,0.264-0.359,0.59c0,0.327,0.161,0.591,0.359,0.591h2.882
			c0.197,0,0.359-0.264,0.359-0.591c0-0.326-0.162-0.59-0.359-0.59H2.699z"/>
		<path i:knockout="Off" fill="#FFFFFF" d="M28.617,17.241h2.882"/>
		<path i:knockout="Off" fill="#96B119" d="M28.992,17.124c-0.199,0-0.359,0.245-0.359,0.547c0,0.304,0.16,0.548,0.359,0.548h2.882
			c0.198,0,0.359-0.244,0.359-0.548c0-0.302-0.161-0.547-0.359-0.547H28.992z"/>
		<path i:knockout="Off" fill="#FFFFFF" d="M17.092,2.354v2.883"/>
		<path i:knockout="Off" fill="#96B119" d="M17.024,2.604v2.883c0,0.197,0.238,0.358,0.531,0.358c0.295,0,0.532-0.161,0.532-0.358
			V2.604c0-0.198-0.237-0.359-0.532-0.359C17.263,2.244,17.024,2.405,17.024,2.604z"/>
		<path i:knockout="Off" fill="#FFFFFF" d="M17.092,29.128v2.881"/>
		<path i:knockout="Off" fill="#96B119" d="M17.151,29.378v2.881c0,0.199,0.222,0.36,0.496,0.36c0.272,0,0.494-0.161,0.494-0.36
			v-2.881c0-0.199-0.222-0.36-0.494-0.36C17.373,29.018,17.151,29.179,17.151,29.378z"/>
		<path i:knockout="Off" fill="#E66F11" d="M16.896,18.255l-8.399,8.4"/>
		<path i:knockout="Off" fill="#E66F11" d="M17.049,18.593l-8.399,8.4c-0.07,0.068-0.07,0.184,0,0.255c0.07,0.07,0.185,0.07,0.254,0
			l8.4-8.4c0.07-0.07,0.07-0.185,0-0.255C17.233,18.523,17.119,18.522,17.049,18.593z"/>
		<path i:knockout="Off" d="M8.78,8.19c-0.233,0.187-0.27,0.526-0.084,0.759l7.953,9.936c0.187,0.232,0.527,0.271,0.76,0.084
			c0.232-0.187,0.271-0.526,0.084-0.76L9.539,8.274C9.354,8.042,9.013,8.004,8.78,8.19z"/>
		<path i:knockout="Off" d="M26.146,14.142l-9.215,3.993c-0.272,0.118-0.398,0.437-0.281,0.71c0.119,0.273,0.438,0.399,0.711,0.28
			l9.216-3.991c0.272-0.119,0.399-0.438,0.28-0.711C26.738,14.149,26.42,14.023,26.146,14.142z"/>
		<path i:knockout="Off" fill="#5383A0" d="M18.918,34.473h-0.017v0.528h0.017V34.473z"/>
		<path i:knockout="Off" fill="#5383A0" d="M18.918,35.527v-0.526h-0.017v0.526H18.918z"/>
		<path i:knockout="Off" fill="none" stroke="#484F01" stroke-linejoin="round" d="M37.69,27.035h-3.369v-2.938
			c0-1.673-1.193-1.605-2.661-1.605s-2.656-0.067-2.656,1.605v2.938h-3.268c-1.212,0-1.278,1.265-1.278,2.825
			c0,1.56,0.066,2.825,1.278,2.825h3.268v3.059c0,1.674,1.3,1.485,2.767,1.485c1.47,0,2.551,0.188,2.551-1.485v-3.059h3.369
			c1.212,0,1.173-1.067,1.173-2.63C38.863,28.496,38.902,27.035,37.69,27.035z"/>
		<path i:knockout="Off" fill="#97B101" d="M37.24,27.01h-3.199v-2.786c0-1.589-1.128-1.525-2.521-1.525
			c-1.394,0-2.524-0.063-2.524,1.525v2.786h-3.101c-1.15,0-1.211,1.204-1.211,2.685s0.061,2.682,1.211,2.682h3.101v2.9
			c0,1.588,1.237,1.412,2.629,1.412c1.395,0,2.416,0.176,2.416-1.412v-2.9h3.199c1.15,0,1.114-1.014,1.114-2.496
			C38.354,28.4,38.391,27.01,37.24,27.01z"/>
	</g>
</svg>
