<?xml version="1.0" encoding="utf-8"?>
<!-- Generator: Adobe Illustrator 10.0, SVG Export Plug-In . SVG Version: 3.0.0 Build 76)  -->
<!DOCTYPE svg PUBLIC "-//W3C//DTD SVG 1.0//EN"    "http://www.w3.org/TR/2001/REC-SVG-20010904/DTD/svg10.dtd" [
	<!ENTITY ns_flows "http://ns.adobe.com/Flows/1.0/">
	<!ENTITY ns_extend "http://ns.adobe.com/Extensibility/1.0/">
	<!ENTITY ns_ai "http://ns.adobe.com/AdobeIllustrator/10.0/">
	<!ENTITY ns_graphs "http://ns.adobe.com/Graphs/1.0/">
	<!ENTITY ns_vars "http://ns.adobe.com/Variables/1.0/">
	<!ENTITY ns_imrep "http://ns.adobe.com/ImageReplacement/1.0/">
	<!ENTITY ns_sfw "http://ns.adobe.com/SaveForWeb/1.0/">
	<!ENTITY ns_custom "http://ns.adobe.com/GenericCustomNamespace/1.0/">
	<!ENTITY ns_adobe_xpath "http://ns.adobe.com/XPath/1.0/">
	<!ENTITY ns_svg "http://www.w3.org/2000/svg">
	<!ENTITY ns_xlink "http://www.w3.org/1999/xlink">
]>
<svg 
	 xmlns:x="&ns_extend;" xmlns:i="&ns_ai;" xmlns:graph="&ns_graphs;" i:viewOrigin="9.2568 42.917" i:rulerOrigin="0 0" i:pageBounds="0 48 48 0"
	 xmlns="&ns_svg;" xmlns:xlink="&ns_xlink;" xmlns:a="http://ns.adobe.com/AdobeSVGViewerExtensions/3.0/"
	 width="27.862" height="39.261" viewBox="0 0 27.862 39.261" overflow="visible" enable-background="new 0 0 27.862 39.261"
	 xml:space="preserve">
	<metadata>
		<variableSets  xmlns="http://ns.adobe.com/Variables/1.0/">
			<variableSet  varSetName="binding1" locked="none">
				<variables></variables>
				<v:sampleDataSets  xmlns="http://ns.adobe.com/GenericCustomNamespace/1.0/" xmlns:v="http://ns.adobe.com/Variables/1.0/">
					</v:sampleDataSets>
			</variableSet>
		</variableSets>
		<sfw  xmlns="&ns_sfw;">
			<slices></slices>
			<sliceSourceBounds  x="9.257" y="3.656" width="27.862" height="39.261" bottomLeftOrigin="true"></sliceSourceBounds>
		</sfw>
	</metadata>
	<g id="Layer_1" i:layer="yes" i:dimmedPercent="50" i:rgbTrio="#4F008000FFFF">
		<g>
			<path i:knockout="Off" fill="#323232" d="M16.075,19.153V0.833h-5.499v18.333l2.625-2.625L16.075,19.153z"/>
		</g>
		<path i:knockout="Off" fill="#223742" d="M0.785,1.375L0.723,4.5l2.875-4l-2.75,0.625"/>
		<path i:knockout="Off" fill="#223742" stroke="#333333" d="M26.599,34.938l-0.563,2.25l-2.625,1.188l3.313-0.25l0.5-4.438
			L26.599,34.938z"/>
		<path i:knockout="Off" fill="none" stroke="#333333" d="M27.362,34.21c0,5.023-0.402,4.551-5.068,4.551H6.307
			c-4.667,0-4.828,0.475-4.828-4.551V6.32c0-5.025,0.162-4.876,4.828-4.876h15.985c4.668,0,5.068-0.149,5.068,4.876L27.362,34.21z"
			/>
		<path i:knockout="Off" fill="none" stroke="#000000" d="M26.383,33.313c0,5.025-0.401,4.551-5.067,4.551H5.328
			c-4.667,0-4.828,0.477-4.828-4.551V5.423c0-5.026,0.162-4.876,4.828-4.876h15.985c4.668,0,5.068-0.15,5.068,4.876L26.383,33.313z"
			/>
		<g>
			<path i:knockout="Off" fill="#E76F00" d="M15.243,18.32V0h-5.5v18.333l2.625-2.625L15.243,18.32z"/>
		</g>
	</g>
</svg>
