<?xml version="1.0" encoding="utf-8"?>
<!-- Generator: Adobe Illustrator 10.0, SVG Export Plug-In . SVG Version: 3.0.0 Build 76)  -->
<!DOCTYPE svg PUBLIC "-//W3C//DTD SVG 1.0//EN"    "http://www.w3.org/TR/2001/REC-SVG-20010904/DTD/svg10.dtd" [
	<!ENTITY ns_flows "http://ns.adobe.com/Flows/1.0/">
	<!ENTITY ns_extend "http://ns.adobe.com/Extensibility/1.0/">
	<!ENTITY ns_ai "http://ns.adobe.com/AdobeIllustrator/10.0/">
	<!ENTITY ns_graphs "http://ns.adobe.com/Graphs/1.0/">
	<!ENTITY ns_vars "http://ns.adobe.com/Variables/1.0/">
	<!ENTITY ns_imrep "http://ns.adobe.com/ImageReplacement/1.0/">
	<!ENTITY ns_sfw "http://ns.adobe.com/SaveForWeb/1.0/">
	<!ENTITY ns_custom "http://ns.adobe.com/GenericCustomNamespace/1.0/">
	<!ENTITY ns_adobe_xpath "http://ns.adobe.com/XPath/1.0/">
	<!ENTITY ns_svg "http://www.w3.org/2000/svg">
	<!ENTITY ns_xlink "http://www.w3.org/1999/xlink">
]>
<svg 
	 xmlns:x="&ns_extend;" xmlns:i="&ns_ai;" xmlns:graph="&ns_graphs;" i:viewOrigin="1.6772 40.8184" i:rulerOrigin="0 0" i:pageBounds="0 48 48 0"
	 xmlns="&ns_svg;" xmlns:xlink="&ns_xlink;" xmlns:a="http://ns.adobe.com/AdobeSVGViewerExtensions/3.0/"
	 width="44.156" height="37.317" viewBox="0 0 44.156 37.317" overflow="visible" enable-background="new 0 0 44.156 37.317"
	 xml:space="preserve">
	<metadata>
		<variableSets  xmlns="http://ns.adobe.com/Variables/1.0/">
			<variableSet  varSetName="binding1" locked="none">
				<variables></variables>
				<v:sampleDataSets  xmlns="http://ns.adobe.com/GenericCustomNamespace/1.0/" xmlns:v="http://ns.adobe.com/Variables/1.0/">
					</v:sampleDataSets>
			</variableSet>
		</variableSets>
		<sfw  xmlns="&ns_sfw;">
			<slices></slices>
			<sliceSourceBounds  x="1.677" y="3.501" width="44.156" height="37.317" bottomLeftOrigin="true"></sliceSourceBounds>
		</sfw>
	</metadata>
	<g id="Layer_1" i:layer="yes" i:dimmedPercent="50" i:rgbTrio="#4F008000FFFF">
		<path i:knockout="Off" fill="none" stroke="#223742" d="M43.656,25.448c0,5.034-0.458,6.381-5.754,6.381H7.213
			c-5.297,0-5.754-1.347-5.754-6.381V6.688c0-5.032,1.416-5.469,6.713-5.469h28.771c5.296,0,6.713,0.437,6.713,5.469V25.448z"/>
		<path i:knockout="Off" fill="none" stroke="#223742" stroke-linecap="round" d="M17.202,9.292H39.5"/>
		<path i:knockout="Off" fill="none" stroke="#223742" stroke-linecap="round" d="M17.521,14.247H39.42"/>
		<path i:knockout="Off" fill="none" stroke="#223742" stroke-linecap="round" d="M17.522,19.202H39.34"/>
		<path i:knockout="Off" fill="none" stroke="#223742" d="M10.49,5.937c0,0.979-0.793,1.772-1.772,1.772
			c-0.979,0-1.773-0.793-1.773-1.772s0.794-1.773,1.773-1.773C9.697,4.163,10.49,4.957,10.49,5.937z"/>
		<g i:knockout="Off">
			<g i:knockout="Off">
				<path i:knockout="Off" fill="none" stroke="#223742" stroke-linecap="round" stroke-linejoin="round" d="M5.77,16.425
					c0.399-0.007,0.71-0.273,0.785-0.622l0.142,8.204c0.008,0.497,0.471,0.893,1.013,0.883c0.541-0.012,1.19-0.426,1.182-0.922
					l-0.11-6.309c0.063,0.012-0.066,0.021,0,0.021c0.088-0.002-0.082-0.011,0-0.03l0.109,6.264c0.009,0.496,0.683,0.887,1.225,0.878
					c0.541-0.009,1-0.422,0.991-0.918l-0.142-8.142c0.008,0.431,0.36,0.773,0.819,0.766c0.458-0.008,0.812-0.363,0.805-0.794
					l-0.08-4.623c-0.114-0.825-0.488-1.563-1.036-2.135c-0.706-0.209-1.718-0.331-2.842-0.312C7.508,8.653,6.504,8.81,5.808,9.044
					c-0.527,0.589-0.875,1.339-0.962,2.167l0.078,4.457C4.932,16.094,5.311,16.433,5.77,16.425z"/>
			</g>
			<path i:knockout="Off" fill="none" stroke="#223742" stroke-linecap="round" stroke-linejoin="round" d="M6.558,15.994
				l-0.059-3.416"/>
			<path i:knockout="Off" fill="none" stroke="#223742" stroke-linecap="round" stroke-linejoin="round" d="M10.968,15.948
				l-0.059-3.446"/>
		</g>
		<path i:knockout="Off" fill="none" stroke="#5383A0" d="M10.121,5.63c0,0.979-0.793,1.772-1.772,1.772
			c-0.98,0-1.773-0.793-1.773-1.772c0-0.98,0.793-1.772,1.773-1.772C9.328,3.857,10.121,4.649,10.121,5.63z"/>
		<g i:knockout="Off">
			<g i:knockout="Off">
				<path i:knockout="Off" fill="none" stroke="#5383A0" stroke-linecap="round" stroke-linejoin="round" d="M5.336,16.086
					c0.399-0.006,0.71-0.272,0.785-0.622l0.142,8.204c0.009,0.497,0.472,0.892,1.014,0.882c0.541-0.009,1.189-0.423,1.181-0.921
					l-0.11-6.308c0.063,0.01-0.065,0.021,0,0.02c0.088-0.002-0.082-0.011,0-0.029l0.109,6.263c0.009,0.496,0.683,0.888,1.225,0.879
					c0.542-0.01,1-0.42,0.992-0.918l-0.143-8.142c0.008,0.432,0.36,0.773,0.82,0.767c0.458-0.008,0.811-0.364,0.804-0.795
					l-0.081-4.623c-0.113-0.825-0.487-1.563-1.036-2.134c-0.704-0.21-1.717-0.333-2.842-0.313c-1.121,0.02-2.125,0.175-2.821,0.409
					c-0.528,0.59-0.876,1.34-0.962,2.167l0.078,4.456C4.498,15.755,4.877,16.095,5.336,16.086z"/>
			</g>
			<path i:knockout="Off" fill="none" stroke="#5383A0" stroke-linecap="round" stroke-linejoin="round" d="M6.124,15.656
				L6.065,12.24"/>
			<path i:knockout="Off" fill="none" stroke="#5383A0" stroke-linecap="round" stroke-linejoin="round" d="M10.535,15.61
				l-0.06-3.446"/>
		</g>
		<path i:knockout="Off" fill="none" stroke="#5383A0" d="M42.697,24.729c0,5.034-0.458,6.381-5.754,6.381H6.254
			c-5.296,0-5.754-1.347-5.754-6.381V5.968C0.5,0.936,1.917,0.5,7.213,0.5h28.771c5.296,0,6.713,0.436,6.713,5.468V24.729z"/>
		<path i:knockout="Off" fill="none" stroke="#5383A0" stroke-linecap="round" d="M16.644,8.572h22.297"/>
		<path i:knockout="Off" fill="none" stroke="#5383A0" stroke-linecap="round" d="M16.884,13.446h21.898"/>
		<path i:knockout="Off" fill="none" stroke="#5383A0" stroke-linecap="round" d="M17.043,18.322h21.818"/>
		<path i:knockout="Off" fill="none" stroke="#223742" d="M15.573,24.318v4.5"/>
		<path i:knockout="Off" fill="none" stroke="#223742" d="M16.989,24.318v4.5"/>
		<path i:knockout="Off" fill="none" stroke="#223742" stroke-width="0.5" d="M18.24,24.318v4.5"/>
		<path i:knockout="Off" fill="none" stroke="#223742" d="M19.406,24.318v4.5"/>
		<path i:knockout="Off" fill="none" stroke="#223742" d="M20.823,24.318v4.5"/>
		<path i:knockout="Off" fill="none" stroke="#223742" stroke-width="0.5" d="M22.073,24.318v4.5"/>
		<path i:knockout="Off" fill="none" stroke="#223742" d="M23.239,24.318v4.5"/>
		<path i:knockout="Off" fill="none" stroke="#223742" stroke-width="0.5" d="M24.655,24.318v4.5"/>
		<path i:knockout="Off" fill="none" stroke="#223742" stroke-width="2" d="M25.906,24.318v4.5"/>
		<path i:knockout="Off" fill="none" stroke="#223742" d="M27.906,24.318v4.5"/>
		<path i:knockout="Off" fill="none" stroke="#223742" d="M29.406,24.318v4.5"/>
		<path i:knockout="Off" fill="none" stroke="#223742" d="M30.823,24.318v4.5"/>
		<path i:knockout="Off" fill="none" stroke="#223742" stroke-width="0.5" d="M32.073,24.318v4.5"/>
		<path i:knockout="Off" fill="none" stroke="#223742" d="M33.24,24.318v4.5"/>
		<path i:knockout="Off" fill="none" stroke="#223742" d="M34.656,24.318v4.5"/>
		<g i:knockout="Off">
			<path i:knockout="Off" fill="none" stroke="#484F01" stroke-linejoin="round" d="M41.583,27.143h-3.196v-2.789
				c0-1.588-1.134-1.523-2.523-1.523c-1.396,0-2.521-0.063-2.521,1.523v2.789h-3.102c-1.15,0-1.216,1.199-1.216,2.682
				c0,1.48,0.063,2.682,1.216,2.682h3.102v2.903c0,1.588,1.232,1.409,2.626,1.409c1.396,0,2.421,0.179,2.421-1.409v-2.903h3.197
				c1.149,0,1.113-1.014,1.113-2.493C42.7,28.53,42.736,27.143,41.583,27.143z"/>
			<path i:knockout="Off" fill="#97B101" d="M41.224,26.765h-3.197v-2.786c0-1.589-1.129-1.525-2.521-1.525
				c-1.396,0-2.523-0.063-2.523,1.525v2.786h-3.102c-1.148,0-1.211,1.204-1.211,2.685c0,1.481,0.063,2.682,1.211,2.682h3.102v2.9
				c0,1.588,1.236,1.412,2.629,1.412c1.396,0,2.416,0.176,2.416-1.412v-2.9h3.198c1.149,0,1.114-1.014,1.114-2.493
				C42.338,28.155,42.372,26.765,41.224,26.765z"/>
		</g>
	</g>
</svg>
