<?xml version="1.0" encoding="utf-8"?>
<!-- Generator: Adobe Illustrator 10.0, SVG Export Plug-In . SVG Version: 3.0.0 Build 76)  -->
<!DOCTYPE svg PUBLIC "-//W3C//DTD SVG 1.0//EN"    "http://www.w3.org/TR/2001/REC-SVG-20010904/DTD/svg10.dtd" [
	<!ENTITY ns_flows "http://ns.adobe.com/Flows/1.0/">
	<!ENTITY ns_extend "http://ns.adobe.com/Extensibility/1.0/">
	<!ENTITY ns_ai "http://ns.adobe.com/AdobeIllustrator/10.0/">
	<!ENTITY ns_graphs "http://ns.adobe.com/Graphs/1.0/">
	<!ENTITY ns_vars "http://ns.adobe.com/Variables/1.0/">
	<!ENTITY ns_imrep "http://ns.adobe.com/ImageReplacement/1.0/">
	<!ENTITY ns_sfw "http://ns.adobe.com/SaveForWeb/1.0/">
	<!ENTITY ns_custom "http://ns.adobe.com/GenericCustomNamespace/1.0/">
	<!ENTITY ns_adobe_xpath "http://ns.adobe.com/XPath/1.0/">
	<!ENTITY ns_svg "http://www.w3.org/2000/svg">
	<!ENTITY ns_xlink "http://www.w3.org/1999/xlink">
]>
<svg 
	 xmlns:x="&ns_extend;" xmlns:i="&ns_ai;" xmlns:graph="&ns_graphs;" i:viewOrigin="5.6182 41.2783" i:rulerOrigin="0 0" i:pageBounds="0 48 48 0"
	 xmlns="&ns_svg;" xmlns:xlink="&ns_xlink;" xmlns:a="http://ns.adobe.com/AdobeSVGViewerExtensions/3.0/"
	 width="39.045" height="34.255" viewBox="0 0 39.045 34.255" overflow="visible" enable-background="new 0 0 39.045 34.255"
	 xml:space="preserve">
	<metadata>
		<variableSets  xmlns="http://ns.adobe.com/Variables/1.0/">
			<variableSet  varSetName="binding1" locked="none">
				<variables></variables>
				<v:sampleDataSets  xmlns="http://ns.adobe.com/GenericCustomNamespace/1.0/" xmlns:v="http://ns.adobe.com/Variables/1.0/">
					</v:sampleDataSets>
			</variableSet>
		</variableSets>
		<sfw  xmlns="&ns_sfw;">
			<slices></slices>
			<sliceSourceBounds  x="5.618" y="7.023" width="39.045" height="34.255" bottomLeftOrigin="true"></sliceSourceBounds>
		</sfw>
	</metadata>
	<g id="Layer_1" i:layer="yes" i:dimmedPercent="50" i:rgbTrio="#4F008000FFFF">
		<g i:knockout="Off">
			<path i:knockout="Off" fill="none" d="M25.767,1.424H13.828h-0.293c-1.399-0.001-2.246-0.002-2.571,0.324
				c-0.35,0.352-0.367,1.354-0.367,2.962v9.546H28.45V4.036c0-1.216-0.034-2.003-0.186-2.486c-0.477-0.121-1.19-0.127-2.205-0.126
				H25.767z"/>
			<path i:knockout="Off" fill="none" d="M11.339,0.779c-0.539,0.033-0.92,0.105-1.105,0.295c-0.289,0.29-0.352,1.03-0.364,2.181
				c0.041-1.021,0.167-1.637,0.567-2.04C10.666,0.986,10.957,0.856,11.339,0.779z"/>
			<path i:knockout="Off" fill="#223742" d="M25.332,0.751h-12.53c-0.59,0-1.059,0.004-1.453,0.028l0.25-0.351l-2.055,0.47
				L9.497,1.086L9.451,3.433l0.448-0.628C9.888,2.951,9.875,3.09,9.868,3.256c-0.002,0.244-0.004,0.5-0.004,0.78v10.219h0.73V4.709
				c0-1.607,0.019-2.61,0.367-2.962c0.325-0.326,1.172-0.325,2.571-0.324H26.06c1.015-0.001,1.729,0.006,2.205,0.126
				c-0.061-0.189-0.136-0.339-0.235-0.439C27.671,0.748,26.79,0.75,25.332,0.751z M29.289,1.251
				c-0.137-0.137-0.294-0.238-0.478-0.318c0.318,0.58,0.385,1.485,0.385,3.104v10.219h0.73V4.709
				C29.929,2.723,29.839,1.803,29.289,1.251z"/>
			<path i:knockout="Off" fill="#5383A0" d="M28.45,14.255h0.729V4.709c0-1.697-0.063-2.568-0.42-2.927
				c-0.109-0.111-0.285-0.182-0.494-0.232c0.149,0.483,0.186,1.271,0.186,2.486V14.255z"/>
			<path i:knockout="Off" fill="#5383A0" d="M28.812,0.933c-0.07-0.132-0.152-0.253-0.256-0.354C27.978-0.003,27.037-0.002,25.33,0
				H12.804c-1.701-0.002-2.556-0.002-3.1,0.543C9.142,1.107,9.117,2.076,9.117,4.036v10.219h0.729V4.709
				c0-0.565,0.004-1.039,0.021-1.454c0.014-1.149,0.075-1.891,0.363-2.181c0.188-0.188,0.568-0.262,1.106-0.295
				c0.396-0.024,0.869-0.029,1.462-0.028h12.531c1.458-0.001,2.339-0.003,2.697,0.358c0.102,0.102,0.177,0.25,0.236,0.439
				c0.209,0.053,0.385,0.122,0.494,0.232c0.356,0.356,0.42,1.229,0.42,2.927v9.546h0.017V4.036
				C29.196,2.418,29.132,1.513,28.812,0.933z"/>
			<path i:knockout="Off" fill="#5383A0" d="M9.864,4.036c0-0.281,0.001-0.536,0.004-0.78C9.851,3.671,9.847,4.146,9.847,4.71v9.546
				h0.018V4.036z"/>
		</g>
		<path i:knockout="Off" fill="#5383A0" d="M19.53,14.255h-0.018v0.534h0.018V14.255z"/>
		<path i:knockout="Off" fill="#5383A0" d="M19.53,15.323v-0.534h-0.018v0.534H19.53z"/>
		<g i:knockout="Off">
			<g i:knockout="Off">
				<path i:knockout="Off" fill="#424241" d="M33.66,14.88H10.611v1.067h21.387v17.242H7.754V15.948h2.843V14.88H6.438
					c-5.223,0-5.688,1.687-5.688,6.499v7.23c0,5.014,0.64,5.646,5.688,5.646H33.66c5.049,0,5.385-0.69,5.385-5.706V21.32
					C39.045,16.506,38.882,14.88,33.66,14.88z M6.767,33.189H6.438c-4.522,0-4.698-0.173-4.698-4.58v-7.23
					c0-4.61,0.349-5.431,4.698-5.431h0.328V33.189z M38.056,28.551c0,4.409,0.127,4.641-4.396,4.641h-0.672V15.948h0.672
					c4.351,0,4.396,0.762,4.396,5.373V28.551z"/>
				<path i:knockout="Off" fill="#424241" d="M9.722,27.534c0-1.587,0.51-1.438,4.406-1.438h11.539c3.896,0,4.406-0.147,4.406,1.438
					v4.865c0,1.586-0.51,1.437-4.406,1.437H14.128c-3.896,0-4.406,0.149-4.406-1.437V27.534z"/>
			</g>
			<path i:knockout="Off" d="M32.91,14.255H9.861v1.067h21.387v17.242H7.004V15.323h2.843v-1.067H5.688
				C0.466,14.255,0,15.941,0,20.754v7.23c0,5.014,0.64,5.646,5.688,5.646H32.91c5.049,0,5.385-0.69,5.385-5.706v-7.229
				C38.295,15.881,38.132,14.255,32.91,14.255z M6.017,32.564H5.688c-4.522,0-4.698-0.173-4.698-4.58v-7.23
				c0-4.61,0.349-5.431,4.698-5.431h0.328V32.564z M37.306,27.926c0,4.409,0.127,4.641-4.396,4.641h-0.672V15.323h0.672
				c4.351,0,4.396,0.762,4.396,5.373V27.926z"/>
			<path i:knockout="Off" d="M8.972,26.909c0-1.587,0.51-1.438,4.406-1.438h11.539c3.896,0,4.406-0.147,4.406,1.438v4.865
				c0,1.586-0.51,1.437-4.406,1.437H13.378c-3.896,0-4.406,0.149-4.406-1.437V26.909z"/>
		</g>
		<g i:knockout="Off">
			<g i:knockout="Off">
				<g i:knockout="Off">
					<path i:knockout="Off" fill="#685012" d="M14.017,7.828c-2.478,3.249-1.848,7.906,1.4,10.382
						c3.248,2.479,7.905,1.848,10.383-1.401c2.477-3.248,1.848-7.904-1.402-10.382C21.151,3.952,16.492,4.579,14.017,7.828z
						 M15.111,8.664c2.017-2.646,5.809-3.155,8.452-1.14s3.154,5.808,1.14,8.45c-2.015,2.644-5.808,3.154-8.452,1.141
						C13.609,15.098,13.097,11.308,15.111,8.664z"/>
					<path i:knockout="Off" fill="#685012" d="M25.669,15.844c-0.304-0.23-0.734-0.172-0.966,0.131
						c-0.231,0.305-0.173,0.735,0.13,0.967l8.085,6.161c0.302,0.229,0.731,0.174,0.964-0.131c0.231-0.303,0.172-0.733-0.129-0.965
						L25.669,15.844z"/>
				</g>
				<g i:knockout="Off">
					<path i:knockout="Off" fill="#685012" d="M14.017,7.828c-2.478,3.249-1.848,7.906,1.4,10.382
						c3.248,2.479,7.905,1.848,10.383-1.401c2.477-3.248,1.848-7.904-1.402-10.382C21.151,3.952,16.492,4.579,14.017,7.828z
						 M15.111,8.664c2.017-2.646,5.809-3.155,8.452-1.14s3.154,5.808,1.14,8.45c-2.015,2.644-5.808,3.154-8.452,1.141
						C13.609,15.098,13.097,11.308,15.111,8.664z"/>
					<path i:knockout="Off" fill="#685012" d="M25.669,15.844c-0.304-0.23-0.734-0.172-0.966,0.131
						c-0.231,0.305-0.173,0.735,0.13,0.967l8.085,6.161c0.302,0.229,0.731,0.174,0.964-0.131c0.231-0.303,0.172-0.733-0.129-0.965
						L25.669,15.844z"/>
				</g>
			</g>
			<g i:knockout="Off">
				<g i:knockout="Off">
					<path i:knockout="Off" fill="#685012" d="M14.017,7.828c-2.478,3.249-1.848,7.906,1.4,10.382
						c3.248,2.479,7.905,1.848,10.383-1.401c2.477-3.248,1.848-7.904-1.402-10.382C21.151,3.952,16.492,4.579,14.017,7.828z
						 M15.111,8.664c2.017-2.646,5.809-3.155,8.452-1.14s3.154,5.808,1.14,8.45c-2.015,2.644-5.808,3.154-8.452,1.141
						C13.609,15.098,13.097,11.308,15.111,8.664z"/>
					<path i:knockout="Off" fill="#685012" d="M25.669,15.844c-0.304-0.23-0.734-0.172-0.966,0.131
						c-0.231,0.305-0.173,0.735,0.13,0.967l8.085,6.161c0.302,0.229,0.731,0.174,0.964-0.131c0.231-0.303,0.172-0.733-0.129-0.965
						L25.669,15.844z"/>
				</g>
				<g i:knockout="Off">
					<path i:knockout="Off" fill="#685012" d="M14.017,7.828c-2.478,3.249-1.848,7.906,1.4,10.382
						c3.248,2.479,7.905,1.848,10.383-1.401c2.477-3.248,1.848-7.904-1.402-10.382C21.151,3.952,16.492,4.579,14.017,7.828z
						 M15.111,8.664c2.017-2.646,5.809-3.155,8.452-1.14s3.154,5.808,1.14,8.45c-2.015,2.644-5.808,3.154-8.452,1.141
						C13.609,15.098,13.097,11.308,15.111,8.664z"/>
					<path i:knockout="Off" fill="#685012" d="M25.669,15.844c-0.304-0.23-0.734-0.172-0.966,0.131
						c-0.231,0.305-0.173,0.735,0.13,0.967l8.085,6.161c0.302,0.229,0.731,0.174,0.964-0.131c0.231-0.303,0.172-0.733-0.129-0.965
						L25.669,15.844z"/>
				</g>
			</g>
		</g>
		<g i:knockout="Off">
			<path i:knockout="Off" fill="none" stroke="#FFC726" d="M24.093,16.359c-2.25,2.95-6.463,3.52-9.418,1.269
				c-2.951-2.25-3.52-6.461-1.269-9.416c2.251-2.952,6.463-3.521,9.417-1.271C25.774,9.192,26.343,13.406,24.093,16.359z"/>
			<path i:knockout="Off" fill="none" stroke="#FFC726" stroke-linecap="round" d="M24.093,16.359l8.086,6.161"/>
		</g>
	</g>
</svg>
