<?xml version="1.0" encoding="utf-8"?>
<!-- Generator: Adobe Illustrator 10.0, SVG Export Plug-In . SVG Version: 3.0.0 Build 76)  -->
<!DOCTYPE svg PUBLIC "-//W3C//DTD SVG 1.0//EN"    "http://www.w3.org/TR/2001/REC-SVG-20010904/DTD/svg10.dtd" [
	<!ENTITY ns_flows "http://ns.adobe.com/Flows/1.0/">
	<!ENTITY ns_extend "http://ns.adobe.com/Extensibility/1.0/">
	<!ENTITY ns_ai "http://ns.adobe.com/AdobeIllustrator/10.0/">
	<!ENTITY ns_graphs "http://ns.adobe.com/Graphs/1.0/">
	<!ENTITY ns_vars "http://ns.adobe.com/Variables/1.0/">
	<!ENTITY ns_imrep "http://ns.adobe.com/ImageReplacement/1.0/">
	<!ENTITY ns_sfw "http://ns.adobe.com/SaveForWeb/1.0/">
	<!ENTITY ns_custom "http://ns.adobe.com/GenericCustomNamespace/1.0/">
	<!ENTITY ns_adobe_xpath "http://ns.adobe.com/XPath/1.0/">
	<!ENTITY ns_svg "http://www.w3.org/2000/svg">
	<!ENTITY ns_xlink "http://www.w3.org/1999/xlink">
]>
<svg 
	 xmlns:x="&ns_extend;" xmlns:i="&ns_ai;" xmlns:graph="&ns_graphs;" i:viewOrigin="5.1172 40.7773" i:rulerOrigin="0 0" i:pageBounds="0 48 48 0"
	 xmlns="&ns_svg;" xmlns:xlink="&ns_xlink;" xmlns:a="http://ns.adobe.com/AdobeSVGViewerExtensions/3.0/"
	 width="39.047" height="34.254" viewBox="0 0 39.047 34.254" overflow="visible" enable-background="new 0 0 39.047 34.254"
	 xml:space="preserve">
	<metadata>
		<variableSets  xmlns="http://ns.adobe.com/Variables/1.0/">
			<variableSet  varSetName="binding1" locked="none">
				<variables></variables>
				<v:sampleDataSets  xmlns="http://ns.adobe.com/GenericCustomNamespace/1.0/" xmlns:v="http://ns.adobe.com/Variables/1.0/">
					</v:sampleDataSets>
			</variableSet>
		</variableSets>
		<sfw  xmlns="&ns_sfw;">
			<slices></slices>
			<sliceSourceBounds  x="5.117" y="6.523" width="39.047" height="34.254" bottomLeftOrigin="true"></sliceSourceBounds>
		</sfw>
	</metadata>
	<g id="Layer_1" i:layer="yes" i:dimmedPercent="50" i:rgbTrio="#4F008000FFFF">
		<g i:knockout="Off">
			<path i:knockout="Off" fill="none" d="M25.769,1.423H13.829h-0.293c-1.399-0.001-2.245-0.002-2.571,0.324
				c-0.35,0.352-0.367,1.354-0.367,2.962v9.546h17.854V4.035c0-1.216-0.033-2.003-0.186-2.486c-0.477-0.121-1.19-0.127-2.204-0.126
				H25.769z"/>
			<path i:knockout="Off" fill="none" d="M11.34,0.778c-0.539,0.033-0.92,0.105-1.105,0.295c-0.289,0.29-0.352,1.03-0.364,2.181
				c0.041-1.021,0.167-1.637,0.567-2.04C10.668,0.985,10.959,0.855,11.34,0.778z"/>
			<path i:knockout="Off" fill="#223742" d="M25.334,0.75H12.801c-0.588,0-1.058,0.004-1.453,0.028l0.25-0.351l-2.053,0.47
				L9.497,1.085L9.452,3.432l0.449-0.628C9.889,2.95,9.877,3.089,9.869,3.255c-0.002,0.244-0.004,0.5-0.004,0.78v10.219h0.73V4.708
				c0-1.607,0.019-2.61,0.367-2.962c0.325-0.326,1.172-0.325,2.571-0.324h12.526c1.014-0.001,1.729,0.006,2.205,0.126
				c-0.062-0.189-0.137-0.339-0.236-0.439C27.672,0.747,26.791,0.749,25.334,0.75z M29.291,1.25
				c-0.138-0.137-0.295-0.238-0.478-0.318c0.317,0.58,0.384,1.485,0.384,3.104v10.219h0.73V4.708
				C29.928,2.722,29.84,1.802,29.291,1.25z"/>
			<path i:knockout="Off" fill="#5383A0" d="M28.451,14.254h0.729V4.708c0-1.697-0.063-2.568-0.42-2.927
				C28.651,1.67,28.475,1.6,28.266,1.549c0.15,0.483,0.186,1.271,0.186,2.486V14.254z"/>
			<path i:knockout="Off" fill="#5383A0" d="M28.813,0.932C28.742,0.8,28.66,0.679,28.557,0.578C27.979-0.003,27.037-0.002,25.33,0
				H12.803c-1.7-0.002-2.555-0.002-3.099,0.543C9.143,1.107,9.117,2.076,9.117,4.036v10.219h0.73V4.708
				c0-0.565,0.004-1.039,0.021-1.454c0.013-1.149,0.075-1.891,0.364-2.181c0.188-0.188,0.566-0.262,1.105-0.295
				c0.396-0.024,0.869-0.029,1.463-0.028h12.531c1.457-0.001,2.338-0.003,2.696,0.358c0.103,0.102,0.177,0.25,0.235,0.439
				c0.209,0.053,0.386,0.122,0.494,0.232c0.357,0.356,0.42,1.229,0.42,2.927v9.546h0.018V4.035
				C29.197,2.417,29.133,1.512,28.813,0.932z"/>
			<path i:knockout="Off" fill="#5383A0" d="M9.865,4.035c0-0.281,0.001-0.536,0.004-0.78C9.853,3.67,9.848,4.145,9.848,4.709v9.546
				h0.018V4.035z"/>
		</g>
		<path i:knockout="Off" fill="#5383A0" d="M19.531,14.254h-0.018v0.534h0.018V14.254z"/>
		<path i:knockout="Off" fill="#5383A0" d="M19.531,15.322v-0.534h-0.018v0.534H19.531z"/>
		<g i:knockout="Off">
			<g i:knockout="Off">
				<path i:knockout="Off" fill="#424241" d="M33.661,14.879H10.612v1.067H32v17.242H7.756V15.947h2.842v-1.068H6.438
					c-5.222,0-5.688,1.687-5.688,6.499v7.23c0,5.014,0.639,5.646,5.688,5.646h27.223c5.05,0,5.386-0.69,5.386-5.706v-7.229
					C39.047,16.505,38.881,14.879,33.661,14.879z M6.766,33.188H6.438c-4.522,0-4.698-0.173-4.698-4.58v-7.23
					c0-4.61,0.348-5.431,4.698-5.431h0.327V33.188z M38.055,28.55c0,4.409,0.127,4.641-4.395,4.641h-0.672V15.947h0.672
					c4.35,0,4.395,0.762,4.395,5.373V28.55z"/>
				<path i:knockout="Off" fill="#424241" d="M9.721,27.533c0-1.587,0.511-1.438,4.408-1.438h11.539
					c3.896,0,4.405-0.147,4.405,1.438v4.865c0,1.586-0.509,1.437-4.405,1.437H14.129c-3.896,0-4.406,0.149-4.406-1.437v-4.865H9.721
					z"/>
			</g>
			<path i:knockout="Off" d="M32.911,14.254H9.862v1.067H31.25v17.242H7.006V15.322h2.842v-1.067H5.688
				C0.467,14.254,0,15.94,0,20.753v7.23c0,5.014,0.639,5.646,5.688,5.646h27.223c5.05,0,5.386-0.69,5.386-5.706v-7.229
				C38.297,15.88,38.131,14.254,32.911,14.254z M6.016,32.563H5.688c-4.522,0-4.698-0.173-4.698-4.58v-7.23
				c0-4.61,0.348-5.431,4.698-5.431h0.327V32.563z M37.305,27.925c0,4.409,0.127,4.641-4.395,4.641h-0.672V15.322h0.672
				c4.35,0,4.395,0.762,4.395,5.373V27.925z"/>
			<path i:knockout="Off" d="M8.971,26.908c0-1.587,0.511-1.438,4.408-1.438h11.539c3.896,0,4.405-0.147,4.405,1.438v4.865
				c0,1.586-0.509,1.437-4.405,1.437H13.379c-3.896,0-4.406,0.149-4.406-1.437v-4.865H8.971z"/>
		</g>
	</g>
</svg>
