<?xml version="1.0" encoding="utf-8"?>
<!-- Generator: Adobe Illustrator 10.0, SVG Export Plug-In . SVG Version: 3.0.0 Build 76)  -->
<!DOCTYPE svg PUBLIC "-//W3C//DTD SVG 1.0//EN"    "http://www.w3.org/TR/2001/REC-SVG-20010904/DTD/svg10.dtd" [
	<!ENTITY ns_flows "http://ns.adobe.com/Flows/1.0/">
	<!ENTITY ns_extend "http://ns.adobe.com/Extensibility/1.0/">
	<!ENTITY ns_ai "http://ns.adobe.com/AdobeIllustrator/10.0/">
	<!ENTITY ns_graphs "http://ns.adobe.com/Graphs/1.0/">
	<!ENTITY ns_vars "http://ns.adobe.com/Variables/1.0/">
	<!ENTITY ns_imrep "http://ns.adobe.com/ImageReplacement/1.0/">
	<!ENTITY ns_sfw "http://ns.adobe.com/SaveForWeb/1.0/">
	<!ENTITY ns_custom "http://ns.adobe.com/GenericCustomNamespace/1.0/">
	<!ENTITY ns_adobe_xpath "http://ns.adobe.com/XPath/1.0/">
	<!ENTITY ns_svg "http://www.w3.org/2000/svg">
	<!ENTITY ns_xlink "http://www.w3.org/1999/xlink">
]>
<svg 
	 xmlns:x="&ns_extend;" xmlns:i="&ns_ai;" xmlns:graph="&ns_graphs;" i:viewOrigin="9.1943 43.4531" i:rulerOrigin="0 0" i:pageBounds="0 48 48 0"
	 xmlns="&ns_svg;" xmlns:xlink="&ns_xlink;" xmlns:a="http://ns.adobe.com/AdobeSVGViewerExtensions/3.0/"
	 width="27.861" height="39.214" viewBox="0 0 27.861 39.214" overflow="visible" enable-background="new 0 0 27.861 39.214"
	 xml:space="preserve">
	<metadata>
		<variableSets  xmlns="http://ns.adobe.com/Variables/1.0/">
			<variableSet  varSetName="binding1" locked="none">
				<variables></variables>
				<v:sampleDataSets  xmlns="http://ns.adobe.com/GenericCustomNamespace/1.0/" xmlns:v="http://ns.adobe.com/Variables/1.0/">
					</v:sampleDataSets>
			</variableSet>
		</variableSets>
		<sfw  xmlns="&ns_sfw;">
			<slices></slices>
			<sliceSourceBounds  x="9.194" y="4.239" width="27.861" height="39.214" bottomLeftOrigin="true"></sliceSourceBounds>
		</sfw>
	</metadata>
	<g id="Layer_1" i:layer="yes" i:dimmedPercent="50" i:rgbTrio="#4F008000FFFF">
		<g i:knockout="Off">
			<g i:knockout="Off">
				<path i:knockout="Off" fill="#223742" d="M0.785,1.328L0.723,4.453l2.875-4l-2.75,0.625"/>
				<path i:knockout="Off" fill="#223742" d="M26.598,34.891l-0.563,2.25l-2.625,1.188l3.313-0.25l0.5-4.438L26.598,34.891z"/>
				<path i:knockout="Off" fill="none" stroke="#223742" d="M27.361,34.162c0,5.023-0.402,4.552-5.068,4.552H6.307
					c-4.667,0-4.828,0.475-4.828-4.552V6.272c0-5.025,0.162-4.876,4.828-4.876h15.984c4.668,0,5.068-0.149,5.068,4.876
					L27.361,34.162z"/>
			</g>
			<path i:knockout="Off" fill="none" stroke="#5383A0" d="M26.383,33.266c0,5.024-0.402,4.551-5.068,4.551H5.328
				c-4.667,0-4.828,0.477-4.828-4.551V5.376C0.5,0.351,0.662,0.5,5.328,0.5h15.984c4.668,0,5.068-0.149,5.068,4.876L26.383,33.266z"
				/>
		</g>
		<g>
			<path i:knockout="Off" fill="none" stroke="#223742" stroke-linecap="round" d="M16.884,21.185
				c0.893,1.474,0.42,3.388-1.051,4.28c-1.473,0.891-3.388,0.424-4.281-1.05c-0.892-1.472-0.421-3.388,1.051-4.28
				C14.075,19.242,15.991,19.713,16.884,21.185z"/>
			<path i:knockout="Off" fill="none" stroke="#223742" d="M20.628,16.72c-0.211,0.265-0.463,0.504-0.768,0.689
				c-1.383,0.837-3.182,0.396-4.02-0.986c-0.449-0.741-0.52-1.599-0.286-2.368c-1.067-0.165-2.168-0.14-3.246,0.097
				c0.425,1.268-0.063,2.706-1.255,3.428c-1.192,0.723-2.691,0.489-3.619-0.474c-0.762,0.91-1.32,1.956-1.664,3.064
				c0.826,0.127,1.595,0.592,2.062,1.363c0.837,1.381,0.396,3.182-0.986,4.02c-0.287,0.174-0.593,0.279-0.904,0.346
				c0.188,0.496,0.418,0.984,0.704,1.455c0.284,0.469,0.61,0.898,0.963,1.295c0.203-0.244,0.438-0.469,0.725-0.641
				c1.382-0.838,3.182-0.396,4.02,0.984c0.468,0.771,0.524,1.67,0.253,2.461c1.064,0.195,2.165,0.197,3.247-0.01
				c-0.439-1.273,0.049-2.727,1.248-3.455c1.244-0.754,2.818-0.465,3.734,0.605c0.793-0.904,1.385-1.947,1.752-3.064
				c-0.824-0.129-1.59-0.594-2.057-1.362c-0.838-1.382-0.396-3.183,0.986-4.019c0.314-0.191,0.652-0.308,0.994-0.369
				c-0.195-0.542-0.447-1.072-0.756-1.583C21.427,17.652,21.046,17.164,20.628,16.72z"/>
			<path i:knockout="Off" fill="none" stroke="#5383A0" d="M16.635,20.602c0.893,1.474,0.421,3.388-1.051,4.28
				c-1.472,0.891-3.387,0.424-4.28-1.051c-0.892-1.471-0.421-3.388,1.051-4.28C13.826,18.659,15.743,19.129,16.635,20.602z"/>
			<path i:knockout="Off" fill="none" stroke="#5383A0" d="M20.128,15.886c-0.209,0.265-0.461,0.504-0.768,0.689
				c-1.381,0.837-3.182,0.396-4.018-0.986c-0.449-0.741-0.521-1.599-0.287-2.368c-1.067-0.164-2.168-0.139-3.246,0.098
				c0.425,1.268-0.063,2.705-1.255,3.428c-1.192,0.723-2.691,0.489-3.619-0.475c-0.762,0.91-1.32,1.956-1.664,3.064
				c0.826,0.126,1.595,0.591,2.062,1.363c0.837,1.382,0.396,3.183-0.986,4.021c-0.287,0.174-0.593,0.279-0.904,0.346
				c0.188,0.496,0.418,0.984,0.704,1.455c0.284,0.469,0.61,0.898,0.963,1.295c0.203-0.244,0.438-0.469,0.725-0.641
				c1.382-0.838,3.182-0.396,4.02,0.984c0.468,0.771,0.524,1.67,0.253,2.461c1.064,0.195,2.166,0.197,3.248-0.01
				c-0.439-1.273,0.047-2.727,1.248-3.455c1.244-0.754,2.818-0.465,3.734,0.605c0.791-0.904,1.385-1.947,1.752-3.064
				c-0.824-0.129-1.592-0.594-2.057-1.363c-0.838-1.381-0.396-3.183,0.986-4.018c0.314-0.191,0.652-0.308,0.992-0.369
				c-0.195-0.542-0.445-1.072-0.754-1.583C20.929,16.819,20.548,16.331,20.128,15.886z"/>
		</g>
	</g>
</svg>
