<?xml version="1.0" encoding="utf-8"?>
<!-- Generator: Adobe Illustrator 10.0, SVG Export Plug-In . SVG Version: 3.0.0 Build 76)  -->
<!DOCTYPE svg PUBLIC "-//W3C//DTD SVG 1.0//EN"    "http://www.w3.org/TR/2001/REC-SVG-20010904/DTD/svg10.dtd" [
	<!ENTITY ns_flows "http://ns.adobe.com/Flows/1.0/">
	<!ENTITY ns_extend "http://ns.adobe.com/Extensibility/1.0/">
	<!ENTITY ns_ai "http://ns.adobe.com/AdobeIllustrator/10.0/">
	<!ENTITY ns_graphs "http://ns.adobe.com/Graphs/1.0/">
	<!ENTITY ns_vars "http://ns.adobe.com/Variables/1.0/">
	<!ENTITY ns_imrep "http://ns.adobe.com/ImageReplacement/1.0/">
	<!ENTITY ns_sfw "http://ns.adobe.com/SaveForWeb/1.0/">
	<!ENTITY ns_custom "http://ns.adobe.com/GenericCustomNamespace/1.0/">
	<!ENTITY ns_adobe_xpath "http://ns.adobe.com/XPath/1.0/">
	<!ENTITY ns_svg "http://www.w3.org/2000/svg">
	<!ENTITY ns_xlink "http://www.w3.org/1999/xlink">
]>
<svg 
	 xmlns:x="&ns_extend;" xmlns:i="&ns_ai;" xmlns:graph="&ns_graphs;" i:viewOrigin="6.1099 45.792" i:rulerOrigin="0 0" i:pageBounds="0 48 48 0"
	 xmlns="&ns_svg;" xmlns:xlink="&ns_xlink;" xmlns:a="http://ns.adobe.com/AdobeSVGViewerExtensions/3.0/"
	 width="34.362" height="44.714" viewBox="0 0 34.362 44.714" overflow="visible" enable-background="new 0 0 34.362 44.714"
	 xml:space="preserve">
	<metadata>
		<variableSets  xmlns="http://ns.adobe.com/Variables/1.0/">
			<variableSet  varSetName="binding1" locked="none">
				<variables></variables>
				<v:sampleDataSets  xmlns="http://ns.adobe.com/GenericCustomNamespace/1.0/" xmlns:v="http://ns.adobe.com/Variables/1.0/">
					</v:sampleDataSets>
			</variableSet>
		</variableSets>
		<sfw  xmlns="&ns_sfw;">
			<slices></slices>
			<sliceSourceBounds  x="6.11" y="1.078" width="34.362" height="44.714" bottomLeftOrigin="true"></sliceSourceBounds>
		</sfw>
	</metadata>
	<g id="Layer_1" i:layer="yes" i:dimmedPercent="50" i:rgbTrio="#4F008000FFFF">
		<g>
			<g i:knockout="Off">
				<g i:knockout="Off">
					<path i:knockout="Off" fill="#223742" d="M7.285,1.328L7.223,4.453l2.875-4l-2.75,0.625"/>
					<path i:knockout="Off" fill="#223742" d="M33.098,34.891l-0.563,2.25l-2.625,1.188l3.313-0.25l0.5-4.438L33.098,34.891z"/>
					<path i:knockout="Off" fill="#223742" d="M34.359,6.272c0-2.646-0.119-3.871-0.855-4.606c-0.773-0.773-2.033-0.772-4.319-0.77
						H12.415c-2.278-0.002-3.422-0.003-4.15,0.724C7.512,2.373,7.479,3.661,7.479,6.272v0.52c0.324,0,0.652,0,1,0v-0.52
						c0-2.141,0.024-3.476,0.493-3.945c0.435-0.434,1.566-0.433,3.442-0.431h0.393h15.984h0.394
						c1.953-0.002,3.132-0.003,3.612,0.477c0.478,0.477,0.562,1.637,0.562,3.899l0.003,27.89c0,2.116-0.077,3.269-0.503,3.69
						c-0.396,0.393-1.361,0.383-2.959,0.368l-1.106-0.007H26.89c0,0.334,0,0.666,0,1h1.903l1.098,0.006
						c1.921,0.019,2.979,0.028,3.671-0.657c0.689-0.683,0.8-1.856,0.8-4.4L34.359,6.272z"/>
				</g>
				<path i:knockout="Off" fill="#5383A0" d="M33.381,5.376c0-2.646-0.118-3.871-0.854-4.606C31.752-0.003,30.492-0.002,28.206,0
					h-16.77c-2.278-0.002-3.422-0.003-4.15,0.724C6.533,1.476,6.5,2.765,6.5,5.376v1.416c0.343,0,0.673,0,1,0V5.376
					c0-2.141,0.024-3.476,0.493-3.945C8.428,0.997,9.56,0.998,11.435,1h0.393h15.985h0.394c1.953-0.002,3.133-0.003,3.613,0.477
					c0.478,0.478,0.562,1.638,0.562,3.899l0.002,27.89c0,2.116-0.077,3.269-0.503,3.689c-0.396,0.392-1.359,0.383-2.955,0.368
					l-1.11-0.007H26.89c0,0.333,0,0.667,0,1h0.925l1.101,0.007c1.92,0.018,2.977,0.027,3.668-0.658c0.689-0.682,0.8-1.855,0.8-4.399
					L33.381,5.376z"/>
			</g>
			<g i:knockout="Off">
				<g i:knockout="Off">
					<path i:knockout="Off" fill="#223742" d="M0.785,6.828L0.723,9.953l2.875-4l-2.75,0.625"/>
					<path i:knockout="Off" fill="#223742" d="M26.598,40.391l-0.563,2.25l-2.625,1.188l3.313-0.25l0.5-4.438L26.598,40.391z"/>
					<path i:knockout="Off" fill="none" stroke="#223742" d="M27.362,39.662c0,5.023-0.402,4.552-5.068,4.552H6.307
						c-4.667,0-4.828,0.475-4.828-4.552v-27.89c0-5.025,0.162-4.876,4.828-4.876h15.984c4.668,0,5.067-0.149,5.067,4.876
						L27.362,39.662z"/>
				</g>
				<path i:knockout="Off" fill="none" stroke="#5383A0" d="M26.383,38.766c0,5.024-0.402,4.551-5.068,4.551H5.328
					c-4.667,0-4.828,0.477-4.828-4.551v-27.89C0.5,5.851,0.662,6,5.328,6h15.985c4.668,0,5.068-0.149,5.068,4.876L26.383,38.766z"/>
			</g>
			<g i:knockout="Off">
				<path i:knockout="Off" fill="none" stroke="#223742" stroke-linecap="round" d="M4.806,12.964H23.14"/>
				<path i:knockout="Off" fill="none" stroke="#5383A0" stroke-linecap="round" d="M4.306,12.297H22.64"/>
			</g>
			<g i:knockout="Off">
				<path i:knockout="Off" fill="none" stroke="#223742" stroke-linecap="round" d="M4.806,17.961h14.167"/>
				<path i:knockout="Off" fill="none" stroke="#5383A0" stroke-linecap="round" d="M4.306,17.294h14.167"/>
			</g>
			<g i:knockout="Off">
				<path i:knockout="Off" fill="none" stroke="#223742" stroke-linecap="round" d="M4.806,22.958H23.39"/>
				<path i:knockout="Off" fill="none" stroke="#5383A0" stroke-linecap="round" d="M4.306,22.292H22.89"/>
			</g>
			<g i:knockout="Off">
				<path i:knockout="Off" fill="none" stroke="#223742" stroke-linecap="round" d="M4.806,27.955h18.75"/>
				<path i:knockout="Off" fill="none" stroke="#5383A0" stroke-linecap="round" d="M4.306,27.289h18.75"/>
			</g>
			<g i:knockout="Off">
				<path i:knockout="Off" fill="none" stroke="#223742" stroke-linecap="round" d="M4.806,32.953h9.084"/>
				<path i:knockout="Off" fill="none" stroke="#5383A0" stroke-linecap="round" d="M4.306,32.287h9.084"/>
			</g>
		</g>
	</g>
</svg>
