<?xml version="1.0" encoding="utf-8"?>
<!-- Generator: Adobe Illustrator 10.0, SVG Export Plug-In . SVG Version: 3.0.0 Build 76)  -->
<!DOCTYPE svg PUBLIC "-//W3C//DTD SVG 1.0//EN"    "http://www.w3.org/TR/2001/REC-SVG-20010904/DTD/svg10.dtd" [
	<!ENTITY ns_flows "http://ns.adobe.com/Flows/1.0/">
	<!ENTITY ns_extend "http://ns.adobe.com/Extensibility/1.0/">
	<!ENTITY ns_ai "http://ns.adobe.com/AdobeIllustrator/10.0/">
	<!ENTITY ns_graphs "http://ns.adobe.com/Graphs/1.0/">
	<!ENTITY ns_vars "http://ns.adobe.com/Variables/1.0/">
	<!ENTITY ns_imrep "http://ns.adobe.com/ImageReplacement/1.0/">
	<!ENTITY ns_sfw "http://ns.adobe.com/SaveForWeb/1.0/">
	<!ENTITY ns_custom "http://ns.adobe.com/GenericCustomNamespace/1.0/">
	<!ENTITY ns_adobe_xpath "http://ns.adobe.com/XPath/1.0/">
	<!ENTITY ns_svg "http://www.w3.org/2000/svg">
	<!ENTITY ns_xlink "http://www.w3.org/1999/xlink">
]>
<svg 
	 xmlns:x="&ns_extend;" xmlns:i="&ns_ai;" xmlns:graph="&ns_graphs;" i:viewOrigin="7.875 47.5" i:rulerOrigin="0 0" i:pageBounds="0 48 48 0"
	 xmlns="&ns_svg;" xmlns:xlink="&ns_xlink;" xmlns:a="http://ns.adobe.com/AdobeSVGViewerExtensions/3.0/"
	 width="33.015" height="45.383" viewBox="0 0 33.015 45.383" overflow="visible" enable-background="new 0 0 33.015 45.383"
	 xml:space="preserve">
	<metadata>
		<variableSets  xmlns="http://ns.adobe.com/Variables/1.0/">
			<variableSet  varSetName="binding1" locked="none">
				<variables></variables>
				<v:sampleDataSets  xmlns="http://ns.adobe.com/GenericCustomNamespace/1.0/" xmlns:v="http://ns.adobe.com/Variables/1.0/">
					</v:sampleDataSets>
			</variableSet>
		</variableSets>
		<sfw  xmlns="&ns_sfw;">
			<slices></slices>
			<sliceSourceBounds  x="7.875" y="2.117" width="33.015" height="45.383" bottomLeftOrigin="true"></sliceSourceBounds>
		</sfw>
	</metadata>
	<g id="Layer_1" i:layer="yes" i:dimmedPercent="50" i:rgbTrio="#4F008000FFFF">
		<g i:knockout="Off">
			<path i:knockout="Off" fill="none" stroke="#7F3A01" stroke-linejoin="round" d="M32.515,39.741c0,5.661-0.482,5.129-6.088,5.129
				H7.226c-5.605,0-5.799,0.535-5.799-5.129V8.309c0-5.664,0.195-5.495,5.799-5.495h19.199c5.607,0,6.087-0.168,6.087,5.495
				L32.515,39.741z"/>
		</g>
		<path i:knockout="Off" fill="#7F3A01" stroke="#7F3A01" stroke-linejoin="round" d="M21.805,3.875h-9.362l3.058-3h7.362
			L21.805,3.875z"/>
		<g i:knockout="Off">
			<g i:knockout="Off">
				<path i:knockout="Off" fill="#223742" d="M4.634,4.946L4.577,7.876l2.607-3.751L4.69,4.711"/>
				<path i:knockout="Off" fill="#223742" d="M28.043,36.425l-0.509,2.11l-2.381,1.114l3.003-0.235l0.454-4.162L28.043,36.425z"/>
				<path i:knockout="Off" fill="none" stroke="#223742" d="M28.736,35.741c0,4.712-0.365,4.27-4.597,4.27H9.641
					c-4.233,0-4.379,0.445-4.379-4.27V9.583c0-4.713,0.147-4.573,4.379-4.573h14.497c4.233,0,4.596-0.14,4.596,4.573L28.736,35.741z
					"/>
			</g>
			<path i:knockout="Off" fill="none" stroke="#5383A0" d="M27.849,34.9c0,4.713-0.364,4.269-4.596,4.269H8.754
				c-4.233,0-4.379,0.447-4.379-4.269V8.742c0-4.713,0.147-4.573,4.379-4.573h14.497c4.233,0,4.596-0.14,4.596,4.573L27.849,34.9z"
				/>
		</g>
		<g i:knockout="Off">
			<path i:knockout="Off" fill="none" stroke="#223742" stroke-linecap="round" d="M8.913,11.136h15.715"/>
			<path i:knockout="Off" fill="none" stroke="#5383A0" stroke-linecap="round" d="M8.484,10.469H24.2"/>
		</g>
		<g i:knockout="Off">
			<path i:knockout="Off" fill="none" stroke="#223742" stroke-linecap="round" d="M10.699,16.133h12.144"/>
			<path i:knockout="Off" fill="none" stroke="#5383A0" stroke-linecap="round" d="M10.271,15.466h12.143"/>
		</g>
		<g i:knockout="Off">
			<path i:knockout="Off" fill="none" stroke="#223742" stroke-linecap="round" d="M8.807,21.13h15.929"/>
			<path i:knockout="Off" fill="none" stroke="#5383A0" stroke-linecap="round" d="M8.378,20.464h15.93"/>
		</g>
		<g i:knockout="Off">
			<path i:knockout="Off" fill="none" stroke="#223742" stroke-linecap="round" d="M8.734,26.127h16.071"/>
			<path i:knockout="Off" fill="none" stroke="#5383A0" stroke-linecap="round" d="M8.306,25.461h16.072"/>
		</g>
		<g i:knockout="Off">
			<path i:knockout="Off" fill="none" stroke="#223742" stroke-linecap="round" d="M12.878,31.125h7.785"/>
			<path i:knockout="Off" fill="none" stroke="#5383A0" stroke-linecap="round" d="M12.449,30.459h7.786"/>
		</g>
		<path i:knockout="Off" fill="#E76F00" stroke="#E76F00" stroke-linecap="round" stroke-linejoin="round" d="M21.055,6.5h-9.362
			l-1.942-6h9.362L21.055,6.5z"/>
		<path i:knockout="Off" fill="none" stroke="#E76F00" stroke-linecap="round" stroke-linejoin="round" d="M31.71,39.198
			c0,5.696-0.485,5.158-6.111,5.158H6.322c-5.629,0-5.822,0.54-5.822-5.158V7.581c0-5.697,0.195-5.527,5.822-5.527h19.274
			c5.628,0,6.111-0.169,6.111,5.527L31.71,39.198z"/>
	</g>
</svg>
