<?xml version="1.0" encoding="utf-8"?>
<!-- Generator: Adobe Illustrator 10.0, SVG Export Plug-In . SVG Version: 3.0.0 Build 76)  -->
<!DOCTYPE svg PUBLIC "-//W3C//DTD SVG 1.0//EN"    "http://www.w3.org/TR/2001/REC-SVG-20010904/DTD/svg10.dtd" [
	<!ENTITY ns_flows "http://ns.adobe.com/Flows/1.0/">
	<!ENTITY ns_extend "http://ns.adobe.com/Extensibility/1.0/">
	<!ENTITY ns_ai "http://ns.adobe.com/AdobeIllustrator/10.0/">
	<!ENTITY ns_graphs "http://ns.adobe.com/Graphs/1.0/">
	<!ENTITY ns_vars "http://ns.adobe.com/Variables/1.0/">
	<!ENTITY ns_imrep "http://ns.adobe.com/ImageReplacement/1.0/">
	<!ENTITY ns_sfw "http://ns.adobe.com/SaveForWeb/1.0/">
	<!ENTITY ns_custom "http://ns.adobe.com/GenericCustomNamespace/1.0/">
	<!ENTITY ns_adobe_xpath "http://ns.adobe.com/XPath/1.0/">
	<!ENTITY ns_svg "http://www.w3.org/2000/svg">
	<!ENTITY ns_xlink "http://www.w3.org/1999/xlink">
]>
<svg 
	 xmlns:x="&ns_extend;" xmlns:i="&ns_ai;" xmlns:graph="&ns_graphs;" i:viewOrigin="4.0806 43.7095" i:rulerOrigin="0 0" i:pageBounds="0 48 48 0"
	 xmlns="&ns_svg;" xmlns:xlink="&ns_xlink;" xmlns:a="http://ns.adobe.com/AdobeSVGViewerExtensions/3.0/"
	 width="38.316" height="36.797" viewBox="0 0 38.316 36.797" overflow="visible" enable-background="new 0 0 38.316 36.797"
	 xml:space="preserve">
	<metadata>
		<variableSets  xmlns="http://ns.adobe.com/Variables/1.0/">
			<variableSet  varSetName="binding1" locked="none">
				<variables></variables>
				<v:sampleDataSets  xmlns="http://ns.adobe.com/GenericCustomNamespace/1.0/" xmlns:v="http://ns.adobe.com/Variables/1.0/">
					</v:sampleDataSets>
			</variableSet>
		</variableSets>
		<sfw  xmlns="&ns_sfw;">
			<slices></slices>
			<sliceSourceBounds  x="4.081" y="6.912" width="38.316" height="36.797" bottomLeftOrigin="true"></sliceSourceBounds>
			<optimizationSettings>
				<targetSettings  fileFormat="PNG8Format" targetSettingsID="0">
					
						<PNG8Format  transparency="true" interlaced="false" noMatteColor="false" matteColor="#FFFFFF" autoReduce="false" rolloverMasterPalette="false" webShiftPercent="0" numColors="256" ditherAlgorithm="diffusion" ditherPercent="100" reductionAlgorithm="selective">
						<lockedColors></lockedColors>
						<colorShiftEntries></colorShiftEntries>
					</PNG8Format>
				</targetSettings>
			</optimizationSettings>
		</sfw>
	</metadata>
	<g id="Layer_1" i:layer="yes" i:dimmedPercent="50" i:rgbTrio="#4F008000FFFF">
		<path i:knockout="Off" fill="#495012" d="M18.72,1.353L0.755,14.378c-0.162,0.118-0.261,0.304-0.268,0.503
			c-0.007,0.2,0.078,0.393,0.232,0.521L18.801,30.56c0.194,0.162,0.464,0.198,0.693,0.091c0.228-0.107,0.374-0.336,0.374-0.589
			c0-0.001-0.027-7.788-0.031-8.891c4.374-0.124,8.316,1.332,10.629,3.968c2.333,2.657,3.062,6.334,2.168,10.927
			c-0.061,0.31,0.11,0.617,0.403,0.731c0.295,0.112,0.627,0,0.791-0.27c2.993-4.932,4.487-9.124,4.487-12.721
			c0-3.27-1.235-6.046-3.703-8.436C31.07,11.942,26.063,10,19.781,9.53c-0.004-0.987-0.029-7.653-0.029-7.653
			C19.75,1.633,19.614,1.41,19.396,1.3C19.179,1.189,18.918,1.209,18.72,1.353z M18.457,3.15c0.007,1.814,0.027,6.955,0.027,6.955
			c0.001,0.343,0.27,0.626,0.612,0.646c6.265,0.363,11.18,2.231,14.613,5.554c2.216,2.147,3.328,4.61,3.328,7.539
			c0,2.659-0.961,5.728-2.803,9.27c0.006-0.185,0.059-0.394,0.059-0.574c0-3.296-0.961-6.106-2.851-8.258
			c-2.684-3.06-7.282-4.699-12.297-4.388c-0.343,0.021-0.61,0.305-0.61,0.648c0,0,0.021,6.086,0.028,8.124
			C16.737,27.133,3.308,15.877,2.193,14.942C3.369,14.09,16.705,4.421,18.457,3.15z"/>
		<path i:knockout="Off" fill="#96B119" d="M18.233,0.053L0.268,13.079C0.106,13.197,0.007,13.383,0,13.583
			c-0.007,0.2,0.078,0.392,0.231,0.521L18.313,29.26c0.194,0.162,0.465,0.197,0.694,0.091c0.228-0.107,0.374-0.336,0.374-0.589
			c0-0.001-0.027-7.788-0.031-8.891c4.374-0.124,8.316,1.332,10.629,3.968c2.332,2.657,3.062,6.333,2.167,10.927
			c-0.06,0.31,0.11,0.617,0.404,0.731c0.294,0.112,0.627,0,0.791-0.27c2.993-4.933,4.487-9.124,4.487-12.721
			c0-3.27-1.235-6.046-3.703-8.436c-3.543-3.43-8.55-5.371-14.832-5.841c-0.003-0.987-0.029-7.653-0.029-7.653
			C19.263,0.333,19.126,0.11,18.909,0C18.691-0.111,18.43-0.09,18.233,0.053z M17.97,1.85c0.007,1.814,0.026,6.955,0.026,6.955
			c0.001,0.344,0.27,0.626,0.613,0.646c6.265,0.363,11.18,2.231,14.612,5.554c2.217,2.146,3.329,4.609,3.329,7.539
			c0,2.659-0.961,5.728-2.803,9.27c0.006-0.186,0.058-0.394,0.058-0.575c0-3.295-0.961-6.106-2.85-8.257
			c-2.684-3.06-7.282-4.7-12.297-4.389c-0.343,0.021-0.61,0.306-0.61,0.649c0,0,0.021,6.086,0.028,8.124
			C16.25,25.833,2.821,14.578,1.706,13.642C2.881,12.791,16.217,3.121,17.97,1.85z"/>
	</g>
</svg>
