<?xml version="1.0" encoding="utf-8"?>
<!-- Generator: Adobe Illustrator 10.0, SVG Export Plug-In . SVG Version: 3.0.0 Build 76)  -->
<!DOCTYPE svg PUBLIC "-//W3C//DTD SVG 1.0//EN"    "http://www.w3.org/TR/2001/REC-SVG-20010904/DTD/svg10.dtd" [
	<!ENTITY ns_flows "http://ns.adobe.com/Flows/1.0/">
	<!ENTITY ns_extend "http://ns.adobe.com/Extensibility/1.0/">
	<!ENTITY ns_ai "http://ns.adobe.com/AdobeIllustrator/10.0/">
	<!ENTITY ns_graphs "http://ns.adobe.com/Graphs/1.0/">
	<!ENTITY ns_vars "http://ns.adobe.com/Variables/1.0/">
	<!ENTITY ns_imrep "http://ns.adobe.com/ImageReplacement/1.0/">
	<!ENTITY ns_sfw "http://ns.adobe.com/SaveForWeb/1.0/">
	<!ENTITY ns_custom "http://ns.adobe.com/GenericCustomNamespace/1.0/">
	<!ENTITY ns_adobe_xpath "http://ns.adobe.com/XPath/1.0/">
	<!ENTITY ns_svg "http://www.w3.org/2000/svg">
	<!ENTITY ns_xlink "http://www.w3.org/1999/xlink">
]>
<svg 
	 xmlns:x="&ns_extend;" xmlns:i="&ns_ai;" xmlns:graph="&ns_graphs;" i:viewOrigin="9.291 43.0605" i:rulerOrigin="0 0" i:pageBounds="0 48 48 0"
	 xmlns="&ns_svg;" xmlns:xlink="&ns_xlink;" xmlns:a="http://ns.adobe.com/AdobeSVGViewerExtensions/3.0/"
	 width="30.563" height="36.66" viewBox="0 0 30.563 36.66" overflow="visible" enable-background="new 0 0 30.563 36.66"
	 xml:space="preserve">
	<metadata>
		<variableSets  xmlns="http://ns.adobe.com/Variables/1.0/">
			<variableSet  varSetName="binding1" locked="none">
				<variables></variables>
				<v:sampleDataSets  xmlns="http://ns.adobe.com/GenericCustomNamespace/1.0/" xmlns:v="http://ns.adobe.com/Variables/1.0/">
					</v:sampleDataSets>
			</variableSet>
		</variableSets>
		<sfw  xmlns="&ns_sfw;">
			<slices></slices>
			<sliceSourceBounds  x="9.291" y="6.4" width="30.563" height="36.66" bottomLeftOrigin="true"></sliceSourceBounds>
		</sfw>
	</metadata>
	<g id="Layer_1" i:layer="yes" i:dimmedPercent="50" i:rgbTrio="#4F008000FFFF">
		<g i:knockout="Off">
			<path i:knockout="Off" fill="none" stroke="#223742" d="M5.327,6.415L6.682,2.6l3.82,2.16l2.711-4.031l4.067,3.239l4.559-2.017
				l1.788,2.734l1.849-0.217l0.433,1.801"/>
			<path i:knockout="Off" fill="none" stroke="#5382A1" d="M4.344,5.915l1.352-3.313l3.809,1.875l2.703-3.5l4.055,2.813l4.547-1.75
				l1.779,2.375l1.844-0.188l0.432,1.563"/>
		</g>
		<path i:knockout="Off" fill="#484F01" d="M30.563,9.533c0-1.857-1.5-3.37-3.34-3.37H4.108c-1.84,0-3.338,1.513-3.338,3.37
			c0,0.107,0.021,0.213,0.032,0.318H0.798l0.009,0.05c0.018,0.167,0.043,0.331,0.086,0.486l4.253,24.07
			c0.011,0.068,0.021,0.137,0.036,0.204l0.039,0.214l0.022-0.006c0.312,1.009,1.172,1.743,2.201,1.782v0.007h0.073
			c0.004,0,0.007,0.001,0.011,0.001c0.003,0,0.006-0.001,0.01-0.001H23.8c1.229,0,2.234-0.993,2.391-2.273l0.023,0.004l4.275-24.114
			l-0.016-0.006C30.53,10.034,30.563,9.787,30.563,9.533z M28.737,14.509l-0.014-0.002l-3.52,19.719
			c-0.078,0.802-0.676,1.431-1.404,1.431c-0.006,0-0.01-0.002-0.015-0.002v0.014L9.429,35.654c0.002-0.002,0.002-0.003,0.004-0.005
			H7.687v-0.016c-0.049,0.006-0.098,0.021-0.147,0.021H7.525c-0.649-0.003-1.193-0.503-1.357-1.182L6.129,34.26
			c-0.003-0.028-0.005-0.063-0.008-0.094L6.107,34.17L5.588,31.2L2.354,12.905l-0.01,0.002L1.782,9.701L1.789,9.7L1.788,9.696
			C1.785,9.641,1.772,9.59,1.772,9.533c0-1.301,1.048-2.358,2.336-2.358h17.989v-0.01h5.116v0.011c0.004,0,0.006-0.001,0.011-0.001
			c1.289,0,2.338,1.061,2.338,2.358C29.562,9.627,28.737,14.509,28.737,14.509z"/>
		<path i:knockout="Off" fill="#484F01" d="M23.22,35.998h1.291l1-1.333l0.293-1.917L23.22,35.998z"/>
		<path i:knockout="Off" fill="#97B101" d="M29.751,8.915c0-1.839-1.496-3.335-3.334-3.335H3.333C1.495,5.58,0,7.076,0,8.915
			c0,0.104,0.021,0.21,0.032,0.313H0.028l0.009,0.051c0.018,0.165,0.044,0.324,0.086,0.48l4.248,23.81
			c0.011,0.065,0.021,0.135,0.036,0.199l0.038,0.213l0.022-0.006c0.312,0.996,1.171,1.727,2.198,1.765v0.008h0.073
			c0.004,0,0.007,0.001,0.011,0.001c0.003,0,0.006-0.001,0.01-0.001h16.239c1.228,0,2.229-0.983,2.387-2.249l0.023,0.004
			l4.271-23.854l-0.017-0.006C29.718,9.409,29.751,9.166,29.751,8.915z M27.927,13.834l-0.012-0.002l-3.514,19.503
			c-0.078,0.791-0.672,1.411-1.402,1.411c-0.006,0-0.01-0.002-0.016-0.002v0.014l-14.337-0.01c0.002-0.003,0.002-0.004,0.004-0.006
			H6.906v-0.015c-0.049,0.008-0.096,0.021-0.147,0.021H6.745c-0.648-0.004-1.191-0.497-1.355-1.165l-0.038-0.212
			c-0.003-0.03-0.005-0.063-0.008-0.094L5.329,33.28l-0.518-2.938L1.582,12.247l-0.01,0.002L1.01,9.079l0.007-0.001L1.016,9.074
			C1.013,9.021,1,8.969,1,8.915C1,7.628,2.047,6.58,3.333,6.58h17.963V6.57h5.109v0.013c0.004,0,0.008-0.003,0.012-0.003
			c1.287,0,2.334,1.048,2.334,2.335C28.751,9.006,27.927,13.834,27.927,13.834z"/>
		<g i:knockout="Off">
			<g i:knockout="Off">
				<path i:knockout="Off" fill="#484F01" d="M11.013,28.733l0.928-2.295c1.496,0.5,3.178,0.564,4.842,0.077
					c1.417-0.415,2.627-1.177,3.568-2.152c-2.545,0.535-5.074,0.184-7.229-0.837l1.075-2.657l-6.75,2.215L11.013,28.733z"/>
				<path i:knockout="Off" fill="#484F01" d="M19.235,14.297L18.112,16.5c-1.446-0.626-3.116-0.839-4.815-0.497
					c-1.448,0.292-2.72,0.948-3.742,1.84c2.583-0.313,5.071,0.256,7.131,1.457l-1.302,2.558l6.916-1.623L19.235,14.297z"/>
			</g>
			<g i:knockout="Off">
				<path i:knockout="Off" fill="#97B101" d="M11.782,27.983l0.928-2.295c1.496,0.5,3.178,0.564,4.842,0.077
					c1.418-0.415,2.629-1.177,3.569-2.152c-2.546,0.535-5.074,0.184-7.229-0.837l1.074-2.657l-6.748,2.215L11.782,27.983z"/>
				<path i:knockout="Off" fill="#97B101" d="M20.009,13.545l-1.123,2.203c-1.447-0.625-3.117-0.839-4.816-0.496
					c-1.448,0.292-2.721,0.948-3.741,1.84c2.582-0.313,5.069,0.256,7.131,1.457l-1.3,2.559l6.915-1.623L20.009,13.545z"/>
			</g>
		</g>
	</g>
</svg>
