<?xml version="1.0" encoding="utf-8"?>
<!-- Generator: Adobe Illustrator 10.0, SVG Export Plug-In . SVG Version: 3.0.0 Build 76)  -->
<!DOCTYPE svg PUBLIC "-//W3C//DTD SVG 1.0//EN"    "http://www.w3.org/TR/2001/REC-SVG-20010904/DTD/svg10.dtd" [
	<!ENTITY ns_flows "http://ns.adobe.com/Flows/1.0/">
	<!ENTITY ns_extend "http://ns.adobe.com/Extensibility/1.0/">
	<!ENTITY ns_ai "http://ns.adobe.com/AdobeIllustrator/10.0/">
	<!ENTITY ns_graphs "http://ns.adobe.com/Graphs/1.0/">
	<!ENTITY ns_vars "http://ns.adobe.com/Variables/1.0/">
	<!ENTITY ns_imrep "http://ns.adobe.com/ImageReplacement/1.0/">
	<!ENTITY ns_sfw "http://ns.adobe.com/SaveForWeb/1.0/">
	<!ENTITY ns_custom "http://ns.adobe.com/GenericCustomNamespace/1.0/">
	<!ENTITY ns_adobe_xpath "http://ns.adobe.com/XPath/1.0/">
	<!ENTITY ns_svg "http://www.w3.org/2000/svg">
	<!ENTITY ns_xlink "http://www.w3.org/1999/xlink">
]>
<svg 
	 xmlns:x="&ns_extend;" xmlns:i="&ns_ai;" xmlns:graph="&ns_graphs;" i:viewOrigin="9.4526 43.8281" i:rulerOrigin="0 0" i:pageBounds="0 48 48 0"
	 xmlns="&ns_svg;" xmlns:xlink="&ns_xlink;" xmlns:a="http://ns.adobe.com/AdobeSVGViewerExtensions/3.0/"
	 width="31.047" height="39.214" viewBox="0 0 31.047 39.214" overflow="visible" enable-background="new 0 0 31.047 39.214"
	 xml:space="preserve">
	<metadata>
		<variableSets  xmlns="http://ns.adobe.com/Variables/1.0/">
			<variableSet  varSetName="binding1" locked="none">
				<variables></variables>
				<v:sampleDataSets  xmlns="http://ns.adobe.com/GenericCustomNamespace/1.0/" xmlns:v="http://ns.adobe.com/Variables/1.0/">
					</v:sampleDataSets>
			</variableSet>
		</variableSets>
		<sfw  xmlns="&ns_sfw;">
			<slices></slices>
			<sliceSourceBounds  x="9.453" y="4.614" width="31.047" height="39.214" bottomLeftOrigin="true"></sliceSourceBounds>
		</sfw>
	</metadata>
	<g id="Layer_1" i:knockout="Off" i:layer="yes" i:dimmedPercent="50" i:rgbTrio="#4F008000FFFF">
		<g i:knockout="Off">
			<g i:knockout="Off">
				<path i:knockout="Off" fill="#223742" d="M0.785,1.328L0.723,4.453l2.875-4l-2.75,0.625"/>
				<path i:knockout="Off" fill="#223742" d="M26.598,34.891l-0.563,2.25l-2.625,1.188l3.313-0.25l0.5-4.438L26.598,34.891z"/>
				<path i:knockout="Off" fill="none" stroke="#223742" d="M27.362,34.162c0,5.022-0.401,4.552-5.067,4.552H6.307
					c-4.667,0-4.828,0.476-4.828-4.552V6.272c0-5.025,0.162-4.876,4.828-4.876h15.983c4.668,0,5.067-0.149,5.067,4.876
					L27.362,34.162z"/>
			</g>
			<path i:knockout="Off" fill="none" stroke="#5383A0" d="M26.383,33.266c0,5.024-0.402,4.552-5.068,4.552H5.329
				c-4.667,0-4.829,0.477-4.829-4.552V5.376C0.5,0.351,0.662,0.5,5.329,0.5h15.984c4.668,0,5.068-0.149,5.068,4.876L26.383,33.266z"
				/>
		</g>
		<g i:knockout="Off">
			<path i:knockout="Off" fill="none" stroke="#223742" stroke-linecap="round" d="M4.806,7.464H23.14"/>
			<path i:knockout="Off" fill="none" stroke="#5383A0" stroke-linecap="round" d="M4.306,6.797H22.64"/>
		</g>
		<g i:knockout="Off">
			<path i:knockout="Off" fill="none" stroke="#223742" stroke-linecap="round" d="M4.806,12.461h14.167"/>
			<path i:knockout="Off" fill="none" stroke="#5383A0" stroke-linecap="round" d="M4.306,11.794h14.167"/>
		</g>
		<g i:knockout="Off">
			<path i:knockout="Off" fill="none" stroke="#223742" stroke-linecap="round" d="M4.806,17.458H23.39"/>
			<path i:knockout="Off" fill="none" stroke="#5383A0" stroke-linecap="round" d="M4.306,16.792H22.89"/>
		</g>
		<g i:knockout="Off">
			<path i:knockout="Off" fill="none" stroke="#223742" stroke-linecap="round" d="M4.806,22.455h18.75"/>
			<path i:knockout="Off" fill="none" stroke="#5383A0" stroke-linecap="round" d="M4.306,21.789h18.75"/>
		</g>
		<g i:knockout="Off">
			<path i:knockout="Off" fill="none" stroke="#223742" stroke-linecap="round" d="M4.806,27.453h9.084"/>
			<path i:knockout="Off" fill="none" stroke="#5383A0" stroke-linecap="round" d="M4.306,26.787h9.084"/>
		</g>
		<g i:knockout="Off">
			<g i:knockout="Off">
				<g i:knockout="Off">
					<path i:knockout="Off" fill="#685012" d="M11.182,20.503c-2.478,3.249-1.848,7.906,1.4,10.382
						c3.248,2.479,7.905,1.849,10.383-1.4c2.477-3.248,1.848-7.904-1.402-10.382C18.317,16.627,13.658,17.254,11.182,20.503z
						 M12.277,21.339c2.017-2.646,5.81-3.155,8.452-1.14c2.643,2.015,3.154,5.808,1.14,8.45c-2.015,2.644-5.808,3.153-8.452,1.141
						C10.775,27.772,10.262,23.982,12.277,21.339z"/>
					<path i:knockout="Off" fill="#685012" d="M22.833,28.519c-0.304-0.229-0.733-0.172-0.966,0.132
						c-0.23,0.305-0.173,0.734,0.13,0.967l8.085,6.161c0.303,0.229,0.731,0.174,0.965-0.131c0.23-0.304,0.172-0.733-0.13-0.966
						L22.833,28.519z"/>
				</g>
				<g i:knockout="Off">
					<path i:knockout="Off" fill="#685012" d="M11.182,20.503c-2.478,3.249-1.848,7.906,1.4,10.382
						c3.248,2.479,7.905,1.849,10.383-1.4c2.477-3.248,1.848-7.904-1.402-10.382C18.317,16.627,13.658,17.254,11.182,20.503z
						 M12.277,21.339c2.017-2.646,5.81-3.155,8.452-1.14c2.643,2.015,3.154,5.808,1.14,8.45c-2.015,2.644-5.808,3.153-8.452,1.141
						C10.775,27.772,10.262,23.982,12.277,21.339z"/>
					<path i:knockout="Off" fill="#685012" d="M22.833,28.519c-0.304-0.229-0.733-0.172-0.966,0.132
						c-0.23,0.305-0.173,0.734,0.13,0.967l8.085,6.161c0.303,0.229,0.731,0.174,0.965-0.131c0.23-0.304,0.172-0.733-0.13-0.966
						L22.833,28.519z"/>
				</g>
			</g>
			<g i:knockout="Off">
				<g i:knockout="Off">
					<path i:knockout="Off" fill="#685012" d="M11.182,20.503c-2.478,3.249-1.848,7.906,1.4,10.382
						c3.248,2.479,7.905,1.849,10.383-1.4c2.477-3.248,1.848-7.904-1.402-10.382C18.317,16.627,13.658,17.254,11.182,20.503z
						 M12.277,21.339c2.017-2.646,5.81-3.155,8.452-1.14c2.643,2.015,3.154,5.808,1.14,8.45c-2.015,2.644-5.808,3.153-8.452,1.141
						C10.775,27.772,10.262,23.982,12.277,21.339z"/>
					<path i:knockout="Off" fill="#685012" d="M22.833,28.519c-0.304-0.229-0.733-0.172-0.966,0.132
						c-0.23,0.305-0.173,0.734,0.13,0.967l8.085,6.161c0.303,0.229,0.731,0.174,0.965-0.131c0.23-0.304,0.172-0.733-0.13-0.966
						L22.833,28.519z"/>
				</g>
				<g i:knockout="Off">
					<path i:knockout="Off" fill="#685012" d="M11.182,20.503c-2.478,3.249-1.848,7.906,1.4,10.382
						c3.248,2.479,7.905,1.849,10.383-1.4c2.477-3.248,1.848-7.904-1.402-10.382C18.317,16.627,13.658,17.254,11.182,20.503z
						 M12.277,21.339c2.017-2.646,5.81-3.155,8.452-1.14c2.643,2.015,3.154,5.808,1.14,8.45c-2.015,2.644-5.808,3.153-8.452,1.141
						C10.775,27.772,10.262,23.982,12.277,21.339z"/>
					<path i:knockout="Off" fill="#685012" d="M22.833,28.519c-0.304-0.229-0.733-0.172-0.966,0.132
						c-0.23,0.305-0.173,0.734,0.13,0.967l8.085,6.161c0.303,0.229,0.731,0.174,0.965-0.131c0.23-0.304,0.172-0.733-0.13-0.966
						L22.833,28.519z"/>
				</g>
			</g>
		</g>
		<g i:knockout="Off">
			<path i:knockout="Off" fill="none" stroke="#FFC726" d="M21.258,29.034c-2.25,2.95-6.463,3.52-9.418,1.269
				c-2.951-2.25-3.52-6.461-1.269-9.416c2.251-2.952,6.463-3.521,9.417-1.271C22.94,21.867,23.508,26.081,21.258,29.034z"/>
			<path i:knockout="Off" fill="none" stroke="#FFC726" stroke-linecap="round" d="M21.258,29.034l8.086,6.161"/>
		</g>
	</g>
</svg>
