<?xml version="1.0" encoding="utf-8"?>
<!-- Generator: Adobe Illustrator 10.0, SVG Export Plug-In . SVG Version: 3.0.0 Build 76)  -->
<!DOCTYPE svg PUBLIC "-//W3C//DTD SVG 1.0//EN"    "http://www.w3.org/TR/2001/REC-SVG-20010904/DTD/svg10.dtd" [
	<!ENTITY ns_flows "http://ns.adobe.com/Flows/1.0/">
	<!ENTITY ns_extend "http://ns.adobe.com/Extensibility/1.0/">
	<!ENTITY ns_ai "http://ns.adobe.com/AdobeIllustrator/10.0/">
	<!ENTITY ns_graphs "http://ns.adobe.com/Graphs/1.0/">
	<!ENTITY ns_vars "http://ns.adobe.com/Variables/1.0/">
	<!ENTITY ns_imrep "http://ns.adobe.com/ImageReplacement/1.0/">
	<!ENTITY ns_sfw "http://ns.adobe.com/SaveForWeb/1.0/">
	<!ENTITY ns_custom "http://ns.adobe.com/GenericCustomNamespace/1.0/">
	<!ENTITY ns_adobe_xpath "http://ns.adobe.com/XPath/1.0/">
	<!ENTITY ns_svg "http://www.w3.org/2000/svg">
	<!ENTITY ns_xlink "http://www.w3.org/1999/xlink">
]>
<svg 
	 xmlns:x="&ns_extend;" xmlns:i="&ns_ai;" xmlns:graph="&ns_graphs;" i:viewOrigin="8.5 46.4531" i:rulerOrigin="0 0" i:pageBounds="0 48 48 0"
	 xmlns="&ns_svg;" xmlns:xlink="&ns_xlink;" xmlns:a="http://ns.adobe.com/AdobeSVGViewerExtensions/3.0/"
	 width="34.458" height="39.214" viewBox="0 0 34.458 39.214" overflow="visible" enable-background="new 0 0 34.458 39.214"
	 xml:space="preserve">
	<metadata>
		<variableSets  xmlns="http://ns.adobe.com/Variables/1.0/">
			<variableSet  varSetName="binding1" locked="none">
				<variables></variables>
				<v:sampleDataSets  xmlns="http://ns.adobe.com/GenericCustomNamespace/1.0/" xmlns:v="http://ns.adobe.com/Variables/1.0/">
					</v:sampleDataSets>
			</variableSet>
		</variableSets>
		<sfw  xmlns="&ns_sfw;">
			<slices></slices>
			<sliceSourceBounds  x="8.5" y="7.239" width="34.458" height="39.214" bottomLeftOrigin="true"></sliceSourceBounds>
		</sfw>
	</metadata>
	<g id="Layer_1" i:layer="yes" i:dimmedPercent="50" i:rgbTrio="#4F008000FFFF">
		<g i:knockout="Off">
			<g i:knockout="Off">
				<path i:knockout="Off" fill="#223742" d="M0.785,1.328L0.723,4.453l2.875-4l-2.75,0.625"/>
				<path i:knockout="Off" fill="#223742" d="M26.598,34.891l-0.563,2.25l-2.625,1.188l3.313-0.25l0.5-4.438L26.598,34.891z"/>
				<path i:knockout="Off" fill="none" stroke="#223742" d="M27.361,34.162c0,5.023-0.401,4.552-5.067,4.552H6.307
					c-4.667,0-4.828,0.475-4.828-4.552V6.272c0-5.025,0.162-4.876,4.828-4.876h15.984c4.668,0,5.068-0.149,5.068,4.876
					L27.361,34.162z"/>
			</g>
			<path i:knockout="Off" fill="none" stroke="#5383A0" d="M26.383,33.266c0,5.024-0.402,4.551-5.068,4.551H5.328
				c-4.667,0-4.828,0.477-4.828-4.551V5.376C0.5,0.351,0.662,0.5,5.328,0.5h15.984c4.668,0,5.068-0.149,5.068,4.876L26.383,33.266z"
				/>
		</g>
		<g i:knockout="Off">
			<path i:knockout="Off" fill="none" stroke="#223742" stroke-linecap="round" d="M4.865,7.464h13.372"/>
			<path i:knockout="Off" fill="none" stroke="#5383A0" stroke-linecap="round" d="M4.5,6.797h13.371"/>
		</g>
		<g i:knockout="Off">
			<path i:knockout="Off" fill="none" stroke="#223742" stroke-linecap="round" d="M4.864,11.46h10.331"/>
			<path i:knockout="Off" fill="none" stroke="#5383A0" stroke-linecap="round" d="M4.5,10.793h10.332"/>
		</g>
		<g i:knockout="Off">
			<path i:knockout="Off" fill="none" stroke="#223742" stroke-linecap="round" d="M4.865,15.457h13.553"/>
			<path i:knockout="Off" fill="none" stroke="#5383A0" stroke-linecap="round" d="M4.5,14.791h13.554"/>
		</g>
		<g i:knockout="Off">
			<path i:knockout="Off" fill="none" stroke="#223742" stroke-linecap="round" d="M4.864,19.453h6.625"/>
			<path i:knockout="Off" fill="none" stroke="#5383A0" stroke-linecap="round" d="M4.5,18.787h6.625"/>
		</g>
		<path i:knockout="Off" fill="none" stroke="#484F01" d="M33.958,27.785v-0.459c0.005-0.594,0.009-1.269-0.245-1.769
			c-0.187-0.368-0.457-0.538-0.854-0.538l-10.088,0.001c-0.154,0-0.283,0.033-0.402,0.087v-3.519c0-0.4-0.109-0.768-0.289-0.963
			c-0.178-0.196-0.396-0.19-0.571,0.017l-6.634,5.955c-0.17,0.201-0.272,0.557-0.272,0.943c0,0.388,0.104,0.745,0.272,0.944
			l6.634,5.951c0.175,0.207,0.396,0.214,0.571,0.018c0.18-0.195,0.289-0.563,0.289-0.962v-3.492
			c0.119,0.055,0.248,0.089,0.403,0.089h10.087c0.396,0,0.667-0.171,0.854-0.54C33.966,29.049,33.963,28.378,33.958,27.785z"/>
		<path i:knockout="Off" fill="none" stroke="#97B101" d="M33.143,27.163v-0.444c0.004-0.579,0.009-1.234-0.25-1.724
			c-0.189-0.358-0.463-0.525-0.863-0.525H21.809c-0.13,0-0.206,0.096-0.314,0.137c0-1.364,0-3.469,0-3.469
			c0-0.259-0.074-0.499-0.194-0.626c-0.12-0.126-0.269-0.124-0.387,0.012l-6.698,5.805c-0.113,0.13-0.184,0.363-0.184,0.613
			c0,0.251,0.071,0.484,0.184,0.613l6.699,5.801c0.117,0.133,0.267,0.14,0.387,0.012c0.119-0.128,0.194-0.367,0.194-0.624
			c0,0,0-2.103,0-3.469c0.108,0.042,0.185,0.138,0.315,0.138h10.219c0.401,0,0.676-0.166,0.863-0.525
			C33.151,28.397,33.146,27.742,33.143,27.163z"/>
	</g>
</svg>
