<?xml version="1.0" encoding="utf-8"?>
<!-- Generator: Adobe Illustrator 10.0, SVG Export Plug-In . SVG Version: 3.0.0 Build 76)  -->
<!DOCTYPE svg PUBLIC "-//W3C//DTD SVG 1.0//EN"    "http://www.w3.org/TR/2001/REC-SVG-20010904/DTD/svg10.dtd" [
	<!ENTITY ns_flows "http://ns.adobe.com/Flows/1.0/">
	<!ENTITY ns_extend "http://ns.adobe.com/Extensibility/1.0/">
	<!ENTITY ns_ai "http://ns.adobe.com/AdobeIllustrator/10.0/">
	<!ENTITY ns_graphs "http://ns.adobe.com/Graphs/1.0/">
	<!ENTITY ns_vars "http://ns.adobe.com/Variables/1.0/">
	<!ENTITY ns_imrep "http://ns.adobe.com/ImageReplacement/1.0/">
	<!ENTITY ns_sfw "http://ns.adobe.com/SaveForWeb/1.0/">
	<!ENTITY ns_custom "http://ns.adobe.com/GenericCustomNamespace/1.0/">
	<!ENTITY ns_adobe_xpath "http://ns.adobe.com/XPath/1.0/">
	<!ENTITY ns_svg "http://www.w3.org/2000/svg">
	<!ENTITY ns_xlink "http://www.w3.org/1999/xlink">
]>
<svg 
	 xmlns:x="&ns_extend;" xmlns:i="&ns_ai;" xmlns:graph="&ns_graphs;" i:viewOrigin="10.0537 45.249" i:rulerOrigin="0 0" i:pageBounds="0 48 48 0"
	 xmlns="&ns_svg;" xmlns:xlink="&ns_xlink;" xmlns:a="http://ns.adobe.com/AdobeSVGViewerExtensions/3.0/"
	 width="30.771" height="40.978" viewBox="0 0 30.771 40.978" overflow="visible" enable-background="new 0 0 30.771 40.978"
	 xml:space="preserve">
	<metadata>
		<variableSets  xmlns="http://ns.adobe.com/Variables/1.0/">
			<variableSet  varSetName="binding1" locked="none">
				<variables></variables>
				<v:sampleDataSets  xmlns="http://ns.adobe.com/GenericCustomNamespace/1.0/" xmlns:v="http://ns.adobe.com/Variables/1.0/">
					</v:sampleDataSets>
			</variableSet>
		</variableSets>
		<sfw  xmlns="&ns_sfw;">
			<slices></slices>
			<sliceSourceBounds  x="10.054" y="4.271" width="30.771" height="40.978" bottomLeftOrigin="true"></sliceSourceBounds>
		</sfw>
	</metadata>
	<g id="Layer_1" i:layer="yes" i:dimmedPercent="50" i:rgbTrio="#4F008000FFFF">
		<g>
			<path i:knockout="Off" fill="#7F3A01" d="M17.374,0.449h-3.22c-4.476,0-8.117,4.141-8.117,9.231v6.154H6.81V9.68
				c0-4.606,3.294-8.353,7.344-8.353h3.22c4.049,0,7.342,3.747,7.342,8.353v6.154h0.775V9.68
				C25.491,4.589,21.851,0.449,17.374,0.449z"/>
			<path i:knockout="Off" fill="#E76F00" d="M16.62,0H13.4C8.924,0,5.283,4.143,5.283,9.231v6.155h0.773V9.231
				c0-4.604,3.294-8.352,7.344-8.352h3.22c4.049,0,7.344,3.748,7.344,8.352v6.155h0.773V9.231C24.737,4.143,21.095,0,16.62,0z"/>
		</g>
		<g>
			<path i:knockout="Off" fill="none" stroke="#7F3A01" d="M30.274,36.7c0,3.475-1.118,3.777-5.299,3.777H6.429
				c-4.181,0-5.298-0.303-5.298-3.777V20.438c0-3.477,1.117-4.406,5.298-4.406h18.547c4.181,0,5.299,0.93,5.299,4.406V36.7z"/>
			<path i:knockout="Off" fill="none" stroke="#E76F00" stroke-linejoin="round" d="M29.644,36.175c0,3.477-1.118,3.777-5.299,3.777
				H5.798c-4.181,0-5.298-0.301-5.298-3.777V19.913c0-3.477,1.117-4.406,5.298-4.406h18.547c4.181,0,5.299,0.93,5.299,4.406V36.175z
				"/>
		</g>
		<path i:knockout="Off" fill="#7F3A01" d="M16.403,27.965v-4.803c0-0.504-0.455-0.912-1.016-0.912s-1.017,0.408-1.017,0.912v4.803
			c-1.683,0.405-2.93,1.771-2.93,3.41c0,1.956,1.767,3.542,3.946,3.542c2.177,0,3.945-1.586,3.945-3.542
			C19.333,29.735,18.086,28.37,16.403,27.965z"/>
	</g>
</svg>
