<?xml version="1.0" encoding="utf-8"?>
<!-- Generator: Adobe Illustrator 10.0, SVG Export Plug-In . SVG Version: 3.0.0 Build 76)  -->
<!DOCTYPE svg PUBLIC "-//W3C//DTD SVG 1.0//EN"    "http://www.w3.org/TR/2001/REC-SVG-20010904/DTD/svg10.dtd" [
	<!ENTITY ns_flows "http://ns.adobe.com/Flows/1.0/">
	<!ENTITY ns_extend "http://ns.adobe.com/Extensibility/1.0/">
	<!ENTITY ns_ai "http://ns.adobe.com/AdobeIllustrator/10.0/">
	<!ENTITY ns_graphs "http://ns.adobe.com/Graphs/1.0/">
	<!ENTITY ns_vars "http://ns.adobe.com/Variables/1.0/">
	<!ENTITY ns_imrep "http://ns.adobe.com/ImageReplacement/1.0/">
	<!ENTITY ns_sfw "http://ns.adobe.com/SaveForWeb/1.0/">
	<!ENTITY ns_custom "http://ns.adobe.com/GenericCustomNamespace/1.0/">
	<!ENTITY ns_adobe_xpath "http://ns.adobe.com/XPath/1.0/">
	<!ENTITY ns_svg "http://www.w3.org/2000/svg">
	<!ENTITY ns_xlink "http://www.w3.org/1999/xlink">
]>
<svg 
	 xmlns:x="&ns_extend;" xmlns:i="&ns_ai;" xmlns:graph="&ns_graphs;" i:viewOrigin="5.9194 36.0264" i:rulerOrigin="0 0" i:pageBounds="0 48 48 0"
	 xmlns="&ns_svg;" xmlns:xlink="&ns_xlink;" xmlns:a="http://ns.adobe.com/AdobeSVGViewerExtensions/3.0/"
	 width="36.85" height="26.952" viewBox="0 0 36.85 26.952" overflow="visible" enable-background="new 0 0 36.85 26.952"
	 xml:space="preserve">
	<metadata>
		<variableSets  xmlns="http://ns.adobe.com/Variables/1.0/">
			<variableSet  varSetName="binding1" locked="none">
				<variables></variables>
				<v:sampleDataSets  xmlns="http://ns.adobe.com/GenericCustomNamespace/1.0/" xmlns:v="http://ns.adobe.com/Variables/1.0/">
					</v:sampleDataSets>
			</variableSet>
		</variableSets>
		<sfw  xmlns="&ns_sfw;">
			<slices></slices>
			<sliceSourceBounds  x="5.919" y="9.074" width="36.85" height="26.952" bottomLeftOrigin="true"></sliceSourceBounds>
		</sfw>
	</metadata>
	<g id="Layer_1" i:layer="yes" i:dimmedPercent="50" i:rgbTrio="#4F008000FFFF">
		<path i:knockout="Off" fill="#484F01" d="M23.147,26.905l2.375-2.716l-4.117,0.865L23.147,26.905z"/>
		<path i:knockout="Off" fill="none" stroke="#484F01" d="M0.267,17.188c0.352,0.695,0.863,1.02,1.613,1.02h19.046
			c0.291,0,0.536-0.065,0.761-0.166v6.595c0,0.751,0.208,1.446,0.545,1.815c0.336,0.368,0.749,0.358,1.079-0.032l12.527-11.24
			c0.32-0.376,0.516-1.051,0.516-1.782c0-0.73-0.195-1.404-0.516-1.783L23.312,0.372c-0.33-0.391-0.743-0.402-1.08-0.032
			c-0.337,0.369-0.544,1.063-0.544,1.817v6.646c-0.224-0.101-0.469-0.164-0.759-0.164L1.88,8.638c-0.75,0-1.26,0.321-1.613,1.017
			c-0.479,0.944-0.471,2.218-0.463,3.34v0.865C-0.204,14.979-0.211,16.247,0.267,17.188z"/>
		<path i:knockout="Off" fill="none" stroke="#97B101" d="M0.753,16.235c0.355,0.678,0.873,0.994,1.631,0.994h19.297
			c0.247,0,0.391-0.184,0.595-0.262c0,2.578,0,6.547,0,6.547c0,0.488,0.141,0.939,0.368,1.178c0.227,0.242,0.506,0.232,0.729-0.02
			l12.65-10.953c0.216-0.244,0.348-0.684,0.348-1.158c0-0.473-0.132-0.913-0.348-1.159L23.374,0.442
			c-0.223-0.256-0.502-0.262-0.729-0.023c-0.228,0.242-0.368,0.693-0.368,1.182c0,0,0,3.977,0,6.55
			c-0.204-0.076-0.348-0.256-0.595-0.256L2.384,7.893c-0.756,0-1.273,0.316-1.631,0.994c-0.488,0.922-0.479,2.161-0.472,3.255v0.838
			C0.275,14.073,0.265,15.313,0.753,16.235z"/>
	</g>
</svg>
