<?xml version="1.0" encoding="utf-8"?>
<!-- Generator: Adobe Illustrator 10.0, SVG Export Plug-In . SVG Version: 3.0.0 Build 76)  -->
<!DOCTYPE svg PUBLIC "-//W3C//DTD SVG 1.0//EN"    "http://www.w3.org/TR/2001/REC-SVG-20010904/DTD/svg10.dtd" [
	<!ENTITY ns_flows "http://ns.adobe.com/Flows/1.0/">
	<!ENTITY ns_extend "http://ns.adobe.com/Extensibility/1.0/">
	<!ENTITY ns_ai "http://ns.adobe.com/AdobeIllustrator/10.0/">
	<!ENTITY ns_graphs "http://ns.adobe.com/Graphs/1.0/">
	<!ENTITY ns_vars "http://ns.adobe.com/Variables/1.0/">
	<!ENTITY ns_imrep "http://ns.adobe.com/ImageReplacement/1.0/">
	<!ENTITY ns_sfw "http://ns.adobe.com/SaveForWeb/1.0/">
	<!ENTITY ns_custom "http://ns.adobe.com/GenericCustomNamespace/1.0/">
	<!ENTITY ns_adobe_xpath "http://ns.adobe.com/XPath/1.0/">
	<!ENTITY ns_svg "http://www.w3.org/2000/svg">
	<!ENTITY ns_xlink "http://www.w3.org/1999/xlink">
]>
<svg 
	 xmlns:x="&ns_extend;" xmlns:i="&ns_ai;" xmlns:graph="&ns_graphs;" i:viewOrigin="3.085 40.2627" i:rulerOrigin="0 0" i:pageBounds="0 48 48 0"
	 xmlns="&ns_svg;" xmlns:xlink="&ns_xlink;" xmlns:a="http://ns.adobe.com/AdobeSVGViewerExtensions/3.0/"
	 width="43.402" height="34.896" viewBox="0 0 43.402 34.896" overflow="visible" enable-background="new 0 0 43.402 34.896"
	 xml:space="preserve">
	<metadata>
		<variableSets  xmlns="http://ns.adobe.com/Variables/1.0/">
			<variableSet  varSetName="binding1" locked="none">
				<variables></variables>
				<v:sampleDataSets  xmlns="http://ns.adobe.com/GenericCustomNamespace/1.0/" xmlns:v="http://ns.adobe.com/Variables/1.0/">
					</v:sampleDataSets>
			</variableSet>
		</variableSets>
		<sfw  xmlns="&ns_sfw;">
			<slices></slices>
			<sliceSourceBounds  x="3.085" y="5.367" width="43.402" height="34.896" bottomLeftOrigin="true"></sliceSourceBounds>
			<optimizationSettings>
				<targetSettings  fileFormat="PNG8Format" targetSettingsID="0">
					
						<PNG8Format  transparency="true" interlaced="false" noMatteColor="false" matteColor="#FFFFFF" autoReduce="false" rolloverMasterPalette="false" webShiftPercent="0" numColors="256" ditherAlgorithm="diffusion" ditherPercent="100" reductionAlgorithm="selective">
						<lockedColors></lockedColors>
						<colorShiftEntries></colorShiftEntries>
					</PNG8Format>
				</targetSettings>
			</optimizationSettings>
		</sfw>
	</metadata>
	<g id="Layer_1" i:layer="yes" i:dimmedPercent="50" i:rgbTrio="#4F008000FFFF">
		<g i:knockout="Off">
			<g i:knockout="Off">
				<g i:knockout="Off">
					<path i:knockout="Off" fill="#495012" d="M42.652,9.312l-12.09-7.5l-0.154,14.743L42.652,9.312z"/>
				</g>
				<g i:knockout="Off">
					<path i:knockout="Off" fill="#51839F" d="M42.652,9.312l-12.09-7.5l-0.154,14.743L42.652,9.312z"/>
					<path i:knockout="Off" fill="#51839F" d="M30.321,1.374c-0.158,0.087-0.257,0.252-0.259,0.433l-0.154,14.743
						c-0.002,0.181,0.094,0.348,0.25,0.438s0.349,0.089,0.505-0.003l12.244-7.243c0.15-0.089,0.243-0.25,0.245-0.425
						s-0.088-0.338-0.236-0.43l-12.09-7.5C30.673,1.292,30.479,1.287,30.321,1.374z M31.053,2.705
						c1.244,0.771,9.473,5.876,10.635,6.597c-1.177,0.696-9.51,5.625-10.771,6.371C30.933,14.206,31.038,4.172,31.053,2.705z"/>
				</g>
				<g i:knockout="Off">
					<path i:knockout="Off" fill="#7F3A09" d="M42.652,9.312l-12.09-7.5l-0.154,14.743L42.652,9.312z"/>
					<path i:knockout="Off" fill="#7F3A09" d="M30.201,1.154c-0.237,0.13-0.386,0.378-0.389,0.649l-0.154,14.743
						c-0.003,0.271,0.141,0.522,0.375,0.657c0.234,0.136,0.523,0.134,0.757-0.004l12.244-7.243c0.226-0.133,0.365-0.375,0.368-0.638
						s-0.132-0.507-0.354-0.645l-12.09-7.5C30.728,1.031,30.438,1.024,30.201,1.154z M31.299,3.151
						c1.681,1.042,8.332,5.169,9.906,6.146c-1.594,0.943-8.331,4.928-10.033,5.935C31.192,13.247,31.277,5.136,31.299,3.151z"/>
				</g>
			</g>
			<path i:knockout="Off" fill="#7F3A09" d="M29.886,9.196c-0.014,1.23,0.159,2.225-1.761,2.204L3.799,11.146
				c-1.917-0.019-1.727-1.012-1.713-2.241c0.012-1.228-0.157-2.229,1.76-2.21l24.328,0.255C30.092,6.97,29.9,7.966,29.886,9.196z"/>
			<path i:knockout="Off" fill="#7F3A09" d="M2.082,6.724C1.583,7.218,1.585,7.929,1.586,8.617l0,0.284L1.581,9.187
				c-0.016,0.686-0.032,1.395,0.455,1.897c0.363,0.375,0.922,0.554,1.759,0.563L28.12,11.9c0.838,0.009,1.4-0.158,1.771-0.525
				c0.495-0.491,0.494-1.198,0.493-1.882l0.001-0.292v0l0.006-0.286c0.017-0.688,0.033-1.399-0.454-1.903
				c-0.363-0.376-0.922-0.555-1.759-0.563L3.852,6.195C3.015,6.187,2.453,6.355,2.082,6.724z M28.13,10.9L3.805,10.646
				c-0.53-0.005-0.893-0.094-1.051-0.258c-0.196-0.202-0.186-0.655-0.173-1.179l0.005-0.298l0-0.296
				C2.585,8.088,2.584,7.633,2.786,7.433C2.948,7.272,3.313,7.19,3.841,7.195l24.328,0.255c0.528,0.005,0.892,0.095,1.05,0.258
				c0.196,0.203,0.186,0.658,0.173,1.184l-0.006,0.302V9.191l-0.001,0.304c0.001,0.522,0.001,0.973-0.197,1.17
				C29.026,10.825,28.66,10.906,28.13,10.9z"/>
			<path i:knockout="Off" fill="#E66F11" d="M29.708,9.158l-0.062,6.024l12.24-7.245L29.801,0.438l-0.065,6.025
				c-0.134-0.532-0.525-0.886-1.65-0.898L3.759,5.312C1.84,5.292,2.013,6.293,2,7.521C1.987,8.753,1.794,9.745,3.712,9.765
				l24.327,0.255C29.164,10.031,29.563,9.69,29.708,9.158z"/>
			<path i:knockout="Off" fill="#E66F11" d="M29.56,0c-0.158,0.086-0.257,0.252-0.259,0.433c0,0-0.036,3.287-0.053,4.826
				c-0.378-0.146-0.797-0.189-1.158-0.193L3.764,4.812C2.928,4.803,2.366,4.97,1.995,5.338C1.498,5.831,1.5,6.54,1.501,7.226l0,0.29
				c0,0-0.005,0.289-0.005,0.289C1.479,8.49,1.462,9.2,1.948,9.702c0.363,0.375,0.922,0.554,1.759,0.563l24.327,0.255
				c0.361,0.003,0.78-0.035,1.162-0.172c-0.017,1.536-0.05,4.833-0.05,4.834c0,0.179,0.096,0.344,0.25,0.433
				c0.156,0.09,0.35,0.089,0.505-0.003l12.24-7.245c0.15-0.089,0.243-0.25,0.245-0.425s-0.088-0.338-0.236-0.43L30.064,0.013
				C29.911-0.082,29.718-0.087,29.56,0z M29.794,6.96c0.25-0.03,0.438-0.24,0.441-0.491c0,0,0.042-3.848,0.056-5.138
				c1.244,0.772,9.47,5.875,10.631,6.596c-1.176,0.696-9.507,5.627-10.767,6.373c0.014-1.291,0.053-5.14,0.053-5.142
				c0-0.25-0.184-0.461-0.432-0.495c-0.249-0.035-0.485,0.121-0.551,0.364c-0.051,0.188-0.137,0.503-1.182,0.493L3.718,9.265
				C3.188,9.26,2.825,9.17,2.667,9.007c-0.195-0.202-0.185-0.655-0.173-1.18L2.5,7.526l0-0.302C2.5,6.699,2.499,6.247,2.699,6.048
				c0.162-0.16,0.526-0.242,1.054-0.236L28.08,6.065c1.042,0.011,1.122,0.33,1.17,0.52C29.312,6.829,29.545,6.989,29.794,6.96z"/>
		</g>
		<g i:knockout="Off">
			<g i:knockout="Off">
				<path i:knockout="Off" fill="#495012" d="M0.89,26.74l12.088,7.498l0.155-14.742L0.89,26.74z"/>
			</g>
			<g i:knockout="Off">
				<path i:knockout="Off" fill="#51839F" d="M0.89,26.74l12.088,7.498l0.155-14.742L0.89,26.74z"/>
				<path i:knockout="Off" fill="#51839F" d="M12.879,19.065L0.636,26.31c-0.151,0.09-0.244,0.251-0.246,0.426
					s0.088,0.338,0.236,0.43l12.088,7.498c0.153,0.096,0.346,0.101,0.504,0.014s0.257-0.253,0.259-0.434l0.155-14.742
					c0.002-0.18-0.094-0.348-0.25-0.438C13.227,18.973,13.034,18.974,12.879,19.065z M12.624,20.378
					c-0.016,1.468-0.121,11.5-0.136,12.968c-1.244-0.771-9.471-5.875-10.633-6.596C3.032,26.054,11.364,21.124,12.624,20.378z"/>
			</g>
			<g i:knockout="Off">
				<path i:knockout="Off" fill="#7F3A09" d="M0.89,26.74l12.088,7.498l0.155-14.742L0.89,26.74z"/>
				<path i:knockout="Off" fill="#7F3A09" d="M12.751,18.851L0.508,26.095c-0.226,0.134-0.365,0.375-0.368,0.638
					s0.132,0.507,0.354,0.646l12.088,7.498c0.23,0.143,0.52,0.15,0.757,0.02s0.386-0.379,0.389-0.649l0.155-14.742
					c0.003-0.271-0.141-0.522-0.375-0.657C13.274,18.711,12.984,18.713,12.751,18.851z M12.369,20.819
					c-0.021,1.985-0.106,10.096-0.126,12.08c-1.681-1.043-8.332-5.168-9.905-6.145C3.931,25.813,10.667,21.827,12.369,20.819z"/>
			</g>
		</g>
		<path i:knockout="Off" fill="#7F3A09" d="M13.655,26.854c0.014-1.231-0.158-2.225,1.763-2.204l24.326,0.255
			c1.921,0.021,1.729,1.008,1.718,2.238c-0.016,1.232,0.154,2.234-1.764,2.212l-24.328-0.253
			C13.45,29.08,13.641,28.085,13.655,26.854z"/>
		<path i:knockout="Off" fill="#7F3A09" d="M13.65,24.675c-0.496,0.491-0.495,1.199-0.494,1.884l-0.001,0.289l-0.005,0.287
			c-0.016,0.688-0.032,1.398,0.455,1.901c0.363,0.377,0.922,0.556,1.76,0.565l24.329,0.253c0.834,0.01,1.396-0.156,1.769-0.524
			c0.498-0.492,0.498-1.203,0.499-1.891l0.001-0.29c0-0.003,0.005-0.293,0.005-0.293c0.015-0.683,0.029-1.389-0.455-1.889
			c-0.363-0.375-0.923-0.554-1.762-0.563l-24.326-0.255C14.584,24.141,14.021,24.308,13.65,24.675z M39.703,28.854l-24.329-0.253
			c-0.529-0.006-0.893-0.096-1.051-0.26c-0.197-0.203-0.187-0.658-0.174-1.185l0.006-0.298l0.001-0.302
			c0-0.523-0.001-0.975,0.198-1.172c0.162-0.16,0.528-0.242,1.059-0.236l24.326,0.255c0.531,0.006,0.896,0.096,1.054,0.259
			c0.194,0.201,0.186,0.65,0.174,1.172l-0.005,0.304c0-0.002-0.001,0.3-0.001,0.3c-0.001,0.527-0.001,0.981-0.202,1.181
			C40.596,28.779,40.231,28.86,39.703,28.854z"/>
		<path i:knockout="Off" fill="#E66F11" d="M12.679,24.298l0.062-6.026L0.5,25.515l12.087,7.5l0.063-6.025
			c0.135,0.529,0.527,0.887,1.651,0.896l24.328,0.255c1.918,0.019,1.747-0.981,1.761-2.209c0.013-1.231,0.202-2.227-1.714-2.248
			L14.35,23.431C13.225,23.42,12.824,23.764,12.679,24.298z"/>
		<path i:knockout="Off" fill="#E66F11" d="M12.486,17.841L0.245,25.084C0.095,25.174,0.002,25.335,0,25.51s0.088,0.338,0.236,0.43
			l12.087,7.5c0.153,0.096,0.346,0.101,0.504,0.014s0.257-0.253,0.259-0.434c0,0,0.034-3.292,0.05-4.829
			c0.452,0.179,0.927,0.192,1.16,0.194l24.327,0.255c0.836,0.008,1.398-0.159,1.77-0.527c0.497-0.493,0.496-1.202,0.495-1.888
			l0.001-0.288c0-0.001,0.005-0.286,0.005-0.286c0.016-0.688,0.031-1.399-0.456-1.903c-0.363-0.376-0.922-0.555-1.757-0.564
			l-24.327-0.252c-0.362-0.004-0.782,0.035-1.164,0.173c0.016-1.538,0.05-4.83,0.05-4.832c0-0.179-0.095-0.344-0.25-0.433
			C12.834,17.748,12.642,17.749,12.486,17.841z M12.231,19.153c-0.013,1.291-0.053,5.143-0.053,5.145
			c0,0.249,0.184,0.461,0.431,0.495c0.25,0.035,0.485-0.121,0.551-0.364c0.052-0.189,0.138-0.508,1.184-0.498l24.326,0.252
			c0.527,0.006,0.891,0.096,1.049,0.26c0.197,0.203,0.188,0.658,0.176,1.186l-0.006,0.298c0-0.001-0.001,0.3-0.001,0.3
			c0.001,0.524,0.001,0.978-0.199,1.177c-0.162,0.16-0.527,0.242-1.056,0.237l-24.328-0.255c-1.041-0.008-1.123-0.328-1.172-0.52
			c-0.062-0.243-0.295-0.402-0.544-0.372c-0.25,0.029-0.438,0.24-0.44,0.491c0,0-0.04,3.847-0.054,5.138
			c-1.244-0.772-9.47-5.876-10.631-6.598C2.641,24.828,10.972,19.899,12.231,19.153z"/>
	</g>
</svg>
