<?xml version="1.0" encoding="utf-8"?>
<!-- Generator: Adobe Illustrator 10.0, SVG Export Plug-In . SVG Version: 3.0.0 Build 76)  -->
<!DOCTYPE svg PUBLIC "-//W3C//DTD SVG 1.0//EN"    "http://www.w3.org/TR/2001/REC-SVG-20010904/DTD/svg10.dtd" [
	<!ENTITY ns_flows "http://ns.adobe.com/Flows/1.0/">
	<!ENTITY ns_extend "http://ns.adobe.com/Extensibility/1.0/">
	<!ENTITY ns_ai "http://ns.adobe.com/AdobeIllustrator/10.0/">
	<!ENTITY ns_graphs "http://ns.adobe.com/Graphs/1.0/">
	<!ENTITY ns_vars "http://ns.adobe.com/Variables/1.0/">
	<!ENTITY ns_imrep "http://ns.adobe.com/ImageReplacement/1.0/">
	<!ENTITY ns_sfw "http://ns.adobe.com/SaveForWeb/1.0/">
	<!ENTITY ns_custom "http://ns.adobe.com/GenericCustomNamespace/1.0/">
	<!ENTITY ns_adobe_xpath "http://ns.adobe.com/XPath/1.0/">
	<!ENTITY ns_svg "http://www.w3.org/2000/svg">
	<!ENTITY ns_xlink "http://www.w3.org/1999/xlink">
]>
<svg 
	 xmlns:x="&ns_extend;" xmlns:i="&ns_ai;" xmlns:graph="&ns_graphs;" i:viewOrigin="7.2051 41.6602" i:rulerOrigin="0 0" i:pageBounds="0 48 48 0"
	 xmlns="&ns_svg;" xmlns:xlink="&ns_xlink;" xmlns:a="http://ns.adobe.com/AdobeSVGViewerExtensions/3.0/"
	 width="36.834" height="37.137" viewBox="0 0 36.834 37.137" overflow="visible" enable-background="new 0 0 36.834 37.137"
	 xml:space="preserve">
	<metadata>
		<variableSets  xmlns="http://ns.adobe.com/Variables/1.0/">
			<variableSet  varSetName="binding1" locked="none">
				<variables></variables>
				<v:sampleDataSets  xmlns="http://ns.adobe.com/GenericCustomNamespace/1.0/" xmlns:v="http://ns.adobe.com/Variables/1.0/">
					</v:sampleDataSets>
			</variableSet>
		</variableSets>
		<sfw  xmlns="&ns_sfw;">
			<slices></slices>
			<sliceSourceBounds  x="7.205" y="4.523" width="36.834" height="37.137" bottomLeftOrigin="true"></sliceSourceBounds>
		</sfw>
	</metadata>
	<g id="Layer_1" i:layer="yes" i:dimmedPercent="50" i:rgbTrio="#4F008000FFFF">
		<g>
			<path i:knockout="Off" fill="none" stroke="#7F3A01" d="M27.119,23.828l-4.828-4.826l4.828-4.829l-3.861-3.861l-4.828,4.827
				l-4.828-4.827L9.74,14.173l4.828,4.829L9.74,23.828l3.862,3.863l4.828-4.828l4.828,4.828L27.119,23.828z"/>
			<path i:knockout="Off" fill="none" stroke="#E76F00" stroke-linejoin="round" d="M27.094,22.963l-4.828-4.828l4.828-4.829
				l-3.861-3.861l-4.828,4.827l-4.827-4.827l-3.862,3.861l4.828,4.829l-4.828,4.828l3.862,3.861l4.827-4.826l4.828,4.826
				L27.094,22.963z"/>
		</g>
		<g>
			<path i:knockout="Off" fill="none" stroke="#7F3A01" d="M36.334,31.17c0,5.031-1.347,5.467-6.377,5.467H7.636
				c-5.032,0-6.377-0.436-6.377-5.467V7.636c0-5.031,1.346-6.377,6.377-6.377h22.321c5.03,0,6.377,1.346,6.377,6.377V31.17z"/>
			<path i:knockout="Off" fill="none" stroke="#E76F00" stroke-linejoin="round" d="M35.574,30.41c0,5.031-1.345,5.467-6.377,5.467
				H6.876c-5.031,0-6.376-0.436-6.376-5.467V6.876C0.5,1.845,1.846,0.5,6.876,0.5h22.321c5.032,0,6.377,1.346,6.377,6.377V30.41z"/>
		</g>
	</g>
</svg>
