<?xml version="1.0" encoding="utf-8"?>
<!-- Generator: Adobe Illustrator 10.0, SVG Export Plug-In . SVG Version: 3.0.0 Build 76)  -->
<!DOCTYPE svg PUBLIC "-//W3C//DTD SVG 1.0//EN"    "http://www.w3.org/TR/2001/REC-SVG-20010904/DTD/svg10.dtd" [
	<!ENTITY ns_flows "http://ns.adobe.com/Flows/1.0/">
	<!ENTITY ns_extend "http://ns.adobe.com/Extensibility/1.0/">
	<!ENTITY ns_ai "http://ns.adobe.com/AdobeIllustrator/10.0/">
	<!ENTITY ns_graphs "http://ns.adobe.com/Graphs/1.0/">
	<!ENTITY ns_vars "http://ns.adobe.com/Variables/1.0/">
	<!ENTITY ns_imrep "http://ns.adobe.com/ImageReplacement/1.0/">
	<!ENTITY ns_sfw "http://ns.adobe.com/SaveForWeb/1.0/">
	<!ENTITY ns_custom "http://ns.adobe.com/GenericCustomNamespace/1.0/">
	<!ENTITY ns_adobe_xpath "http://ns.adobe.com/XPath/1.0/">
	<!ENTITY ns_svg "http://www.w3.org/2000/svg">
	<!ENTITY ns_xlink "http://www.w3.org/1999/xlink">
]>
<svg 
	 xmlns:x="&ns_extend;" xmlns:i="&ns_ai;" xmlns:graph="&ns_graphs;" i:viewOrigin="6.896 38.9766" i:rulerOrigin="0 0" i:pageBounds="0 48 48 0"
	 xmlns="&ns_svg;" xmlns:xlink="&ns_xlink;" xmlns:a="http://ns.adobe.com/AdobeSVGViewerExtensions/3.0/"
	 width="38.863" height="34.116" viewBox="0 0 38.863 34.116" overflow="visible" enable-background="new 0 0 38.863 34.116"
	 xml:space="preserve">
	<metadata>
		<variableSets  xmlns="http://ns.adobe.com/Variables/1.0/">
			<variableSet  varSetName="binding1" locked="none">
				<variables></variables>
				<v:sampleDataSets  xmlns="http://ns.adobe.com/GenericCustomNamespace/1.0/" xmlns:v="http://ns.adobe.com/Variables/1.0/">
					</v:sampleDataSets>
			</variableSet>
		</variableSets>
		<sfw  xmlns="&ns_sfw;">
			<slices></slices>
			<sliceSourceBounds  x="6.896" y="4.86" width="38.863" height="34.116" bottomLeftOrigin="true"></sliceSourceBounds>
		</sfw>
	</metadata>
	<g id="Layer_1" i:layer="yes" i:dimmedPercent="50" i:rgbTrio="#4F008000FFFF">
		<g>
			<path i:knockout="Off" fill="none" stroke="#7F3A01" d="M10.473,33.616L1.202,17.559L10.473,1.5h18.543l9.27,16.059l-9.27,16.058
				H10.473z"/>
			<path i:knockout="Off" fill="none" stroke="#E76F00" d="M9.848,32.616L0.577,16.559L9.848,0.5h18.543l9.27,16.059l-9.27,16.058
				H9.848z"/>
		</g>
		<g>
			<path i:knockout="Off" fill="none" stroke="#7F3A01" d="M28.133,22.318l-4.828-4.827l4.828-4.828l-3.861-3.861l-4.828,4.827
				l-4.828-4.827l-3.862,3.861l4.828,4.828l-4.828,4.827l3.862,3.862l4.828-4.827l4.828,4.827L28.133,22.318z"/>
			<path i:knockout="Off" fill="none" stroke="#E76F00" stroke-linejoin="round" d="M28.108,21.452l-4.828-4.827l4.828-4.829
				l-3.861-3.861l-4.828,4.827l-4.827-4.827l-3.862,3.861l4.828,4.829l-4.828,4.827l3.862,3.862l4.827-4.827l4.828,4.827
				L28.108,21.452z"/>
		</g>
	</g>
</svg>
