<?xml version="1.0" encoding="utf-8"?>
<!-- Generator: Adobe Illustrator 10.0, SVG Export Plug-In . SVG Version: 3.0.0 Build 76)  -->
<!DOCTYPE svg PUBLIC "-//W3C//DTD SVG 1.0//EN"    "http://www.w3.org/TR/2001/REC-SVG-20010904/DTD/svg10.dtd" [
	<!ENTITY ns_flows "http://ns.adobe.com/Flows/1.0/">
	<!ENTITY ns_extend "http://ns.adobe.com/Extensibility/1.0/">
	<!ENTITY ns_ai "http://ns.adobe.com/AdobeIllustrator/10.0/">
	<!ENTITY ns_graphs "http://ns.adobe.com/Graphs/1.0/">
	<!ENTITY ns_vars "http://ns.adobe.com/Variables/1.0/">
	<!ENTITY ns_imrep "http://ns.adobe.com/ImageReplacement/1.0/">
	<!ENTITY ns_sfw "http://ns.adobe.com/SaveForWeb/1.0/">
	<!ENTITY ns_custom "http://ns.adobe.com/GenericCustomNamespace/1.0/">
	<!ENTITY ns_adobe_xpath "http://ns.adobe.com/XPath/1.0/">
	<!ENTITY ns_svg "http://www.w3.org/2000/svg">
	<!ENTITY ns_xlink "http://www.w3.org/1999/xlink">
]>
<svg 
	 xmlns:x="&ns_extend;" xmlns:i="&ns_ai;" xmlns:graph="&ns_graphs;" i:viewOrigin="4.25 34.3252" i:rulerOrigin="0 0" i:pageBounds="0 48 48 0"
	 xmlns="&ns_svg;" xmlns:xlink="&ns_xlink;" xmlns:a="http://ns.adobe.com/AdobeSVGViewerExtensions/3.0/"
	 width="41.22" height="26.951" viewBox="0 0 41.22 26.951" overflow="visible" enable-background="new 0 0 41.22 26.951"
	 xml:space="preserve">
	<metadata>
		<variableSets  xmlns="http://ns.adobe.com/Variables/1.0/">
			<variableSet  varSetName="binding1" locked="none">
				<variables></variables>
				<v:sampleDataSets  xmlns="http://ns.adobe.com/GenericCustomNamespace/1.0/" xmlns:v="http://ns.adobe.com/Variables/1.0/">
					</v:sampleDataSets>
			</variableSet>
		</variableSets>
		<sfw  xmlns="&ns_sfw;">
			<slices></slices>
			<sliceSourceBounds  x="4.25" y="7.374" width="41.22" height="26.951" bottomLeftOrigin="true"></sliceSourceBounds>
		</sfw>
	</metadata>
	<g id="Layer_1" i:layer="yes" i:dimmedPercent="50" i:rgbTrio="#4F008000FFFF">
		<path i:knockout="Off" fill="none" stroke="#484F01" stroke-width="1.5" stroke-linecap="round" stroke-linejoin="round" d="
			M1.584,24.658V2.325"/>
		<path i:knockout="Off" fill="none" stroke="#97B101" stroke-width="1.5" stroke-linecap="round" d="M0.75,24.159V1.908"/>
		<path i:knockout="Off" fill="#484F01" d="M16.749,25.492l2.167,1.167l0.583-3.035L16.749,25.492z"/>
		<path i:knockout="Off" fill="none" stroke="#484F01" d="M40.953,9.763C40.6,9.068,40.09,8.744,39.34,8.744H20.293
			c-0.291,0-0.536,0.064-0.761,0.166V2.315c0-0.751-0.208-1.446-0.544-1.815c-0.336-0.369-0.749-0.359-1.08,0.032L5.382,11.772
			c-0.32,0.375-0.516,1.05-0.516,1.781s0.195,1.405,0.516,1.784l12.526,11.241c0.33,0.391,0.743,0.402,1.08,0.032
			c0.337-0.369,0.544-1.063,0.544-1.817v-6.645c0.224,0.101,0.469,0.164,0.758,0.164h19.049c0.75,0,1.259-0.321,1.613-1.018
			c0.479-0.944,0.471-2.218,0.463-3.34v-0.865C41.424,11.972,41.432,10.704,40.953,9.763z"/>
		<path i:knockout="Off" fill="none" stroke="#97B101" d="M40.137,9.268c-0.354-0.677-0.873-0.993-1.631-0.993H19.208
			c-0.247,0-0.391,0.183-0.594,0.261c0-2.579,0-6.546,0-6.546c0-0.489-0.141-0.939-0.368-1.18s-0.506-0.231-0.73,0.021L4.866,11.783
			c-0.216,0.246-0.348,0.685-0.348,1.159c0,0.473,0.132,0.913,0.348,1.158l12.65,10.96c0.223,0.257,0.502,0.263,0.73,0.023
			c0.228-0.242,0.368-0.693,0.368-1.182c0,0,0-3.978,0-6.55c0.204,0.076,0.347,0.257,0.594,0.257h19.297
			c0.757,0,1.272-0.316,1.632-0.994c0.487-0.922,0.479-2.161,0.471-3.255v-0.837C40.615,11.429,40.625,10.189,40.137,9.268z"/>
	</g>
</svg>
