<?xml version="1.0" encoding="utf-8"?>
<!-- Generator: Adobe Illustrator 10.0, SVG Export Plug-In . SVG Version: 3.0.0 Build 76)  -->
<!DOCTYPE svg PUBLIC "-//W3C//DTD SVG 1.0//EN"    "http://www.w3.org/TR/2001/REC-SVG-20010904/DTD/svg10.dtd" [
	<!ENTITY ns_flows "http://ns.adobe.com/Flows/1.0/">
	<!ENTITY ns_extend "http://ns.adobe.com/Extensibility/1.0/">
	<!ENTITY ns_ai "http://ns.adobe.com/AdobeIllustrator/10.0/">
	<!ENTITY ns_graphs "http://ns.adobe.com/Graphs/1.0/">
	<!ENTITY ns_vars "http://ns.adobe.com/Variables/1.0/">
	<!ENTITY ns_imrep "http://ns.adobe.com/ImageReplacement/1.0/">
	<!ENTITY ns_sfw "http://ns.adobe.com/SaveForWeb/1.0/">
	<!ENTITY ns_custom "http://ns.adobe.com/GenericCustomNamespace/1.0/">
	<!ENTITY ns_adobe_xpath "http://ns.adobe.com/XPath/1.0/">
	<!ENTITY ns_svg "http://www.w3.org/2000/svg">
	<!ENTITY ns_xlink "http://www.w3.org/1999/xlink">
]>
<svg 
	 xmlns:x="&ns_extend;" xmlns:i="&ns_ai;" xmlns:graph="&ns_graphs;" i:viewOrigin="3.9995 44.002" i:rulerOrigin="0 0" i:pageBounds="0 48 48 0"
	 xmlns="&ns_svg;" xmlns:xlink="&ns_xlink;" xmlns:a="http://ns.adobe.com/AdobeSVGViewerExtensions/3.0/"
	 width="40.334" height="40.034" viewBox="0 0 40.334 40.034" overflow="visible" enable-background="new 0 0 40.334 40.034"
	 xml:space="preserve">
	<metadata>
		<variableSets  xmlns="http://ns.adobe.com/Variables/1.0/">
			<variableSet  varSetName="binding1" locked="none">
				<variables></variables>
				<v:sampleDataSets  xmlns="http://ns.adobe.com/GenericCustomNamespace/1.0/" xmlns:v="http://ns.adobe.com/Variables/1.0/">
					</v:sampleDataSets>
			</variableSet>
		</variableSets>
		<sfw  xmlns="&ns_sfw;">
			<slices></slices>
			<sliceSourceBounds  x="4" y="3.968" width="40.334" height="40.034" bottomLeftOrigin="true"></sliceSourceBounds>
		</sfw>
	</metadata>
	<g id="Layer_1" i:layer="yes" i:dimmedPercent="50" i:rgbTrio="#4F008000FFFF">
		<g i:knockout="Off">
			<path i:knockout="Off" fill="#223742" d="M1.505,20.619c0,10.705,8.709,19.415,19.414,19.415c10.707,0,19.416-8.71,19.416-19.415
				S31.625,1.204,20.919,1.204C10.214,1.204,1.505,9.914,1.505,20.619z M2.408,20.619c0-10.208,8.304-18.512,18.511-18.512
				c10.208,0,18.511,8.304,18.511,18.512s-8.303,18.513-18.511,18.513C10.712,39.131,2.408,30.827,2.408,20.619z"/>
			<path i:knockout="Off" fill="#223742" d="M14.448,20.619c0,3.568,2.903,6.472,6.471,6.472c3.567,0,6.472-2.903,6.472-6.472
				c0-3.567-2.904-6.472-6.472-6.472S14.448,17.052,14.448,20.619z M17.157,20.619c0-2.074,1.688-3.763,3.762-3.763
				c2.076,0,3.763,1.688,3.763,3.763c0,2.075-1.688,3.763-3.763,3.763C18.845,24.382,17.157,22.694,17.157,20.619z"/>
			<path i:knockout="Off" fill="#5383A0" d="M0,19.415C0,30.121,8.709,38.83,19.414,38.83c10.706,0,19.415-8.709,19.415-19.415
				S30.12,0,19.414,0C8.709,0,0,8.709,0,19.415z M0.903,19.415c0-10.208,8.304-18.512,18.511-18.512
				c10.208,0,18.51,8.304,18.51,18.512c0,10.207-8.303,18.513-18.51,18.513C9.207,37.928,0.903,29.622,0.903,19.415z"/>
			<path i:knockout="Off" fill="#5383A0" d="M12.943,19.415c0,3.568,2.903,6.472,6.471,6.472c3.569,0,6.471-2.902,6.471-6.472
				c0-3.567-2.902-6.471-6.471-6.471C15.846,12.944,12.943,15.848,12.943,19.415z M15.652,19.415c0-2.073,1.688-3.762,3.762-3.762
				c2.074,0,3.762,1.688,3.762,3.762c0,2.074-1.688,3.763-3.762,3.763C17.34,23.178,15.652,21.489,15.652,19.415z"/>
		</g>
	</g>
</svg>
