<?xml version="1.0" encoding="utf-8"?>
<!-- Generator: Adobe Illustrator 10.0, SVG Export Plug-In . SVG Version: 3.0.0 Build 76)  -->
<!DOCTYPE svg PUBLIC "-//W3C//DTD SVG 1.0//EN"    "http://www.w3.org/TR/2001/REC-SVG-20010904/DTD/svg10.dtd" [
	<!ENTITY ns_flows "http://ns.adobe.com/Flows/1.0/">
	<!ENTITY ns_extend "http://ns.adobe.com/Extensibility/1.0/">
	<!ENTITY ns_ai "http://ns.adobe.com/AdobeIllustrator/10.0/">
	<!ENTITY ns_graphs "http://ns.adobe.com/Graphs/1.0/">
	<!ENTITY ns_vars "http://ns.adobe.com/Variables/1.0/">
	<!ENTITY ns_imrep "http://ns.adobe.com/ImageReplacement/1.0/">
	<!ENTITY ns_sfw "http://ns.adobe.com/SaveForWeb/1.0/">
	<!ENTITY ns_custom "http://ns.adobe.com/GenericCustomNamespace/1.0/">
	<!ENTITY ns_adobe_xpath "http://ns.adobe.com/XPath/1.0/">
	<!ENTITY ns_svg "http://www.w3.org/2000/svg">
	<!ENTITY ns_xlink "http://www.w3.org/1999/xlink">
]>
<svg 
	 xmlns:x="&ns_extend;" xmlns:i="&ns_ai;" xmlns:graph="&ns_graphs;" i:viewOrigin="7.5 43.75" i:rulerOrigin="0 0" i:pageBounds="0 48 48 0"
	 xmlns="&ns_svg;" xmlns:xlink="&ns_xlink;" xmlns:a="http://ns.adobe.com/AdobeSVGViewerExtensions/3.0/"
	 width="34.75" height="35.5" viewBox="0 0 34.75 35.5" overflow="visible" enable-background="new 0 0 34.75 35.5"
	 xml:space="preserve">
	<metadata>
		<variableSets  xmlns="http://ns.adobe.com/Variables/1.0/">
			<variableSet  varSetName="binding1" locked="none">
				<variables></variables>
				<v:sampleDataSets  xmlns="http://ns.adobe.com/GenericCustomNamespace/1.0/" xmlns:v="http://ns.adobe.com/Variables/1.0/">
					</v:sampleDataSets>
			</variableSet>
		</variableSets>
		<sfw  xmlns="&ns_sfw;">
			<slices></slices>
			<sliceSourceBounds  x="7.5" y="8.25" width="34.75" height="35.5" bottomLeftOrigin="true"></sliceSourceBounds>
		</sfw>
	</metadata>
	<g id="Layer_1" i:layer="yes" i:dimmedPercent="50" i:rgbTrio="#4F008000FFFF">
		<g i:knockout="Off">
			<path i:knockout="Off" fill="#223742" d="M33.313,35.5h-4.188l-3.755-9.813H10.56L7.063,35.5h-4.25L16.125,1h3.75L33.313,35.5z
				 M24.023,22.25L18.516,7.337C18.313,6.79,18.141,6.032,18,5.063h-0.117c-0.172,1.079-0.359,1.837-0.563,2.274L11.859,22.25
				H24.023z"/>
		</g>
		<g i:knockout="Off">
			<g i:knockout="Off">
				<path i:knockout="Off" fill="#5383A0" d="M31.313,34.5h-4.188l-3.755-9.813H8.56L5.063,34.5h-4.25L14.125,0h3.75L31.313,34.5z
					 M22.023,21.25L16.516,6.337C16.313,5.79,16.141,5.032,16,4.063h-0.117c-0.172,1.079-0.359,1.837-0.563,2.274L9.859,21.25
					H22.023z"/>
			</g>
		</g>
		<path i:knockout="Off" fill="none" stroke="#223742" stroke-width="3" stroke-linecap="round" d="M1.5,16.5h31.75"/>
		<path i:knockout="Off" fill="none" stroke="#5383A0" stroke-width="2" stroke-linecap="round" d="M1.458,16.542h31.75"/>
	</g>
</svg>
