<?xml version="1.0" encoding="utf-8"?>
<!-- Generator: Adobe Illustrator 10.0, SVG Export Plug-In . SVG Version: 3.0.0 Build 76)  -->
<!DOCTYPE svg PUBLIC "-//W3C//DTD SVG 1.0//EN"    "http://www.w3.org/TR/2001/REC-SVG-20010904/DTD/svg10.dtd" [
	<!ENTITY ns_flows "http://ns.adobe.com/Flows/1.0/">
	<!ENTITY ns_extend "http://ns.adobe.com/Extensibility/1.0/">
	<!ENTITY ns_ai "http://ns.adobe.com/AdobeIllustrator/10.0/">
	<!ENTITY ns_graphs "http://ns.adobe.com/Graphs/1.0/">
	<!ENTITY ns_vars "http://ns.adobe.com/Variables/1.0/">
	<!ENTITY ns_imrep "http://ns.adobe.com/ImageReplacement/1.0/">
	<!ENTITY ns_sfw "http://ns.adobe.com/SaveForWeb/1.0/">
	<!ENTITY ns_custom "http://ns.adobe.com/GenericCustomNamespace/1.0/">
	<!ENTITY ns_adobe_xpath "http://ns.adobe.com/XPath/1.0/">
	<!ENTITY ns_svg "http://www.w3.org/2000/svg">
	<!ENTITY ns_xlink "http://www.w3.org/1999/xlink">
]>
<svg 
	 xmlns:x="&ns_extend;" xmlns:i="&ns_ai;" xmlns:graph="&ns_graphs;" i:viewOrigin="5.604 44.4531" i:rulerOrigin="0 0" i:pageBounds="0 48 48 0"
	 xmlns="&ns_svg;" xmlns:xlink="&ns_xlink;" xmlns:a="http://ns.adobe.com/AdobeSVGViewerExtensions/3.0/"
	 width="35.329" height="39.213" viewBox="0 0 35.329 39.213" overflow="visible" enable-background="new 0 0 35.329 39.213"
	 xml:space="preserve">
	<metadata>
		<variableSets  xmlns="http://ns.adobe.com/Variables/1.0/">
			<variableSet  varSetName="binding1" locked="none">
				<variables></variables>
				<v:sampleDataSets  xmlns="http://ns.adobe.com/GenericCustomNamespace/1.0/" xmlns:v="http://ns.adobe.com/Variables/1.0/">
					</v:sampleDataSets>
			</variableSet>
		</variableSets>
		<sfw  xmlns="&ns_sfw;">
			<slices></slices>
			<sliceSourceBounds  x="5.604" y="5.24" width="35.329" height="39.213" bottomLeftOrigin="true"></sliceSourceBounds>
		</sfw>
	</metadata>
	<g id="Layer_1" i:layer="yes" i:dimmedPercent="50" i:rgbTrio="#4F008000FFFF">
		<g i:knockout="Off">
			<path i:knockout="Off" fill="none" stroke="#223742" stroke-linecap="round" d="M8.69,7.343h19.932"/>
			<path i:knockout="Off" fill="none" stroke="#223742" stroke-linecap="round" d="M8.69,12.763h19.932"/>
			<path i:knockout="Off" fill="none" stroke="#223742" stroke-linecap="round" d="M8.69,18.183h19.932"/>
			<path i:knockout="Off" fill="none" stroke="#223742" stroke-linecap="round" d="M8.69,23.603h19.932"/>
			<path i:knockout="Off" fill="none" stroke="#223742" stroke-linecap="round" d="M8.69,29.022h8.382"/>
		</g>
		<path i:knockout="Off" fill="#FFFFFF" d="M19.865,23.547l0.094,0.375l0.438,0.094l0.813-0.844l-0.845-0.625L19.865,23.547z"/>
		<path i:knockout="Off" fill="#223742" d="M5.396,1.328L5.333,4.453l2.875-4l-2.75,0.625"/>
		<path i:knockout="Off" fill="#223742" d="M31.208,34.891l-0.563,2.25l-2.625,1.188l3.313-0.25l0.5-4.438L31.208,34.891z"/>
		<path i:knockout="Off" fill="none" stroke="#223742" d="M31.972,34.162c0,5.024-0.401,4.551-5.067,4.551H10.917
			c-4.666,0-4.828,0.476-4.828-4.551V6.272c0-5.025,0.162-4.876,4.828-4.876h15.985c4.668,0,5.069-0.149,5.069,4.876V34.162z"/>
		<path i:knockout="Off" fill="none" stroke="#5383A0" d="M30.994,33.266c0,5.025-0.402,4.552-5.068,4.552H9.939
			c-4.667,0-4.828,0.476-4.828-4.552V5.376C5.111,0.35,5.273,0.5,9.939,0.5h15.984c4.668,0,5.069-0.15,5.069,4.876L30.994,33.266z"
			/>
		<path i:knockout="Off" fill="none" stroke="#5383A0" stroke-linecap="round" d="M8.085,6.384h19.932"/>
		<path i:knockout="Off" fill="none" stroke="#5383A0" stroke-linecap="round" d="M8.085,11.804h19.932"/>
		<path i:knockout="Off" fill="none" stroke="#5383A0" stroke-linecap="round" d="M8.085,17.224h19.932"/>
		<path i:knockout="Off" fill="none" stroke="#5383A0" stroke-linecap="round" d="M8.085,22.644h19.932"/>
		<path i:knockout="Off" fill="none" stroke="#5383A0" stroke-linecap="round" d="M8.085,28.063h8.383"/>
		<path i:knockout="Off" fill="#FFFFFF" d="M19.938,23.183l1.208,0.25L32.563,9.62l-1.479-0.667L19.938,23.183z"/>
		<g i:knockout="Off">
			<g i:knockout="Off">
				<path i:knockout="Off" d="M35.329,4.573c-1.243-0.979-5.655,2.558-9.853,7.896c-3.824,4.869-6.141,9.547-5.577,11.077
					L31.054,9.35c0.123-0.152,0.346-0.18,0.498-0.06c0.153,0.121,0.182,0.344,0.061,0.498L20.412,24.043
					c1.531,0.387,5.646-3.029,9.575-8.029C34.183,10.675,36.573,5.552,35.329,4.573z M19.899,23.548l-3.244,4.129
					c-0.121,0.154-0.094,0.376,0.06,0.498c0.153,0.12,0.377,0.095,0.498-0.059l3.2-4.073c-0.104-0.026-0.196-0.069-0.276-0.132
					C20.026,23.825,19.954,23.695,19.899,23.548z"/>
			</g>
		</g>
		<g i:knockout="Off">
			<g i:knockout="Off">
				<g i:knockout="Off">
					<path i:knockout="Off" fill="#685012" d="M14.079,10.97c-3.271-2.254-7.765-1.427-10.021,1.842
						C1.8,16.083,2.63,20.577,5.902,22.834c3.268,2.255,7.763,1.427,10.02-1.844C18.174,17.721,17.35,13.224,14.079,10.97z
						 M13.318,12.073c2.663,1.836,3.333,5.496,1.496,8.158c-1.834,2.66-5.495,3.333-8.152,1.498C4,19.896,3.326,16.234,5.161,13.573
						C6.999,10.913,10.656,10.24,13.318,12.073z"/>
					<path i:knockout="Off" fill="#685012" d="M6.833,22.662c0.208-0.306,0.133-0.722-0.17-0.934
						c-0.309-0.21-0.724-0.133-0.936,0.172l-5.608,8.141c-0.21,0.301-0.135,0.716,0.172,0.929c0.304,0.209,0.72,0.132,0.931-0.172
						L6.833,22.662z"/>
				</g>
				<g i:knockout="Off">
					<path i:knockout="Off" fill="#685012" d="M14.079,10.97c-3.271-2.254-7.765-1.427-10.021,1.842
						C1.8,16.083,2.63,20.577,5.902,22.834c3.268,2.255,7.763,1.427,10.02-1.844C18.174,17.721,17.35,13.224,14.079,10.97z
						 M13.318,12.073c2.663,1.836,3.333,5.496,1.496,8.158c-1.834,2.66-5.495,3.333-8.152,1.498C4,19.896,3.326,16.234,5.161,13.573
						C6.999,10.913,10.656,10.24,13.318,12.073z"/>
					<path i:knockout="Off" fill="#685012" d="M6.833,22.662c0.208-0.306,0.133-0.722-0.17-0.934
						c-0.309-0.21-0.724-0.133-0.936,0.172l-5.608,8.141c-0.21,0.301-0.135,0.716,0.172,0.929c0.304,0.209,0.72,0.132,0.931-0.172
						L6.833,22.662z"/>
				</g>
			</g>
			<g i:knockout="Off">
				<g i:knockout="Off">
					<path i:knockout="Off" fill="#685012" d="M14.079,10.97c-3.271-2.254-7.765-1.427-10.021,1.842
						C1.8,16.083,2.63,20.577,5.902,22.834c3.268,2.255,7.763,1.427,10.02-1.844C18.174,17.721,17.35,13.224,14.079,10.97z
						 M13.318,12.073c2.663,1.836,3.333,5.496,1.496,8.158c-1.834,2.66-5.495,3.333-8.152,1.498C4,19.896,3.326,16.234,5.161,13.573
						C6.999,10.913,10.656,10.24,13.318,12.073z"/>
					<path i:knockout="Off" fill="#685012" d="M6.833,22.662c0.208-0.306,0.133-0.722-0.17-0.934
						c-0.309-0.21-0.724-0.133-0.936,0.172l-5.608,8.141c-0.21,0.301-0.135,0.716,0.172,0.929c0.304,0.209,0.72,0.132,0.931-0.172
						L6.833,22.662z"/>
				</g>
				<g i:knockout="Off">
					<path i:knockout="Off" fill="#685012" d="M14.079,10.97c-3.271-2.254-7.765-1.427-10.021,1.842
						C1.8,16.083,2.63,20.577,5.902,22.834c3.268,2.255,7.763,1.427,10.02-1.844C18.174,17.721,17.35,13.224,14.079,10.97z
						 M13.318,12.073c2.663,1.836,3.333,5.496,1.496,8.158c-1.834,2.66-5.495,3.333-8.152,1.498C4,19.896,3.326,16.234,5.161,13.573
						C6.999,10.913,10.656,10.24,13.318,12.073z"/>
					<path i:knockout="Off" fill="#685012" d="M6.833,22.662c0.208-0.306,0.133-0.722-0.17-0.934
						c-0.309-0.21-0.724-0.133-0.936,0.172l-5.608,8.141c-0.21,0.301-0.135,0.716,0.172,0.929c0.304,0.209,0.72,0.132,0.931-0.172
						L6.833,22.662z"/>
				</g>
			</g>
		</g>
		<g i:knockout="Off">
			<path i:knockout="Off" fill="none" stroke="#FFC726" d="M6.259,21.154c-2.971-2.049-3.718-6.115-1.67-9.089
				c2.049-2.972,6.114-3.718,9.088-1.669c2.973,2.049,3.719,6.114,1.669,9.089C13.298,22.454,9.233,23.202,6.259,21.154z"/>
			<path i:knockout="Off" fill="none" stroke="#FFC726" stroke-linecap="round" d="M6.259,21.154L0.5,29.829"/>
		</g>
	</g>
</svg>
