<?xml version="1.0" encoding="utf-8"?>
<!-- Generator: Adobe Illustrator 10.0, SVG Export Plug-In . SVG Version: 3.0.0 Build 76)  -->
<!DOCTYPE svg PUBLIC "-//W3C//DTD SVG 1.0//EN"    "http://www.w3.org/TR/2001/REC-SVG-20010904/DTD/svg10.dtd" [
	<!ENTITY ns_flows "http://ns.adobe.com/Flows/1.0/">
	<!ENTITY ns_extend "http://ns.adobe.com/Extensibility/1.0/">
	<!ENTITY ns_ai "http://ns.adobe.com/AdobeIllustrator/10.0/">
	<!ENTITY ns_graphs "http://ns.adobe.com/Graphs/1.0/">
	<!ENTITY ns_vars "http://ns.adobe.com/Variables/1.0/">
	<!ENTITY ns_imrep "http://ns.adobe.com/ImageReplacement/1.0/">
	<!ENTITY ns_sfw "http://ns.adobe.com/SaveForWeb/1.0/">
	<!ENTITY ns_custom "http://ns.adobe.com/GenericCustomNamespace/1.0/">
	<!ENTITY ns_adobe_xpath "http://ns.adobe.com/XPath/1.0/">
	<!ENTITY ns_svg "http://www.w3.org/2000/svg">
	<!ENTITY ns_xlink "http://www.w3.org/1999/xlink">
]>
<svg 
	 xmlns:x="&ns_extend;" xmlns:i="&ns_ai;" xmlns:graph="&ns_graphs;" i:viewOrigin="2.5762 39.2979" i:rulerOrigin="0 0" i:pageBounds="0 48 48 0"
	 xmlns="&ns_svg;" xmlns:xlink="&ns_xlink;" xmlns:a="http://ns.adobe.com/AdobeSVGViewerExtensions/3.0/"
	 width="43.923" height="32.925" viewBox="0 0 43.923 32.925" overflow="visible" enable-background="new 0 0 43.923 32.925"
	 xml:space="preserve">
	<metadata>
		<variableSets  xmlns="http://ns.adobe.com/Variables/1.0/">
			<variableSet  varSetName="binding1" locked="none">
				<variables></variables>
				<v:sampleDataSets  xmlns="http://ns.adobe.com/GenericCustomNamespace/1.0/" xmlns:v="http://ns.adobe.com/Variables/1.0/">
					</v:sampleDataSets>
			</variableSet>
		</variableSets>
		<sfw  xmlns="&ns_sfw;">
			<slices></slices>
			<sliceSourceBounds  x="2.576" y="6.373" width="43.923" height="32.925" bottomLeftOrigin="true"></sliceSourceBounds>
		</sfw>
	</metadata>
	<g id="Layer_1" i:layer="yes" i:dimmedPercent="50" i:rgbTrio="#4F008000FFFF">
		<g>
			<path i:knockout="Off" fill="none" stroke="#223742" d="M5.897,27.372c-4.891,0-4.429-0.402-4.429-5.068V6.317
				c0-4.668-0.463-4.828,4.429-4.828H33.04c4.892,0,4.745,0.161,4.745,4.827v15.984c0,4.668,0.146,5.069-4.745,5.069L5.897,27.372z"
				/>
			<path i:knockout="Off" fill="none" stroke="#223742" stroke-linejoin="round" d="M36.799,2.452L18.924,18.389L1.299,2.306"/>
			<path i:knockout="Off" fill="none" stroke="#223742" stroke-linejoin="round" d="M37.861,25.857L24.268,13.899"/>
			<path i:knockout="Off" fill="none" stroke="#223742" stroke-linejoin="round" d="M15.455,14.462L1.736,26.795"/>
			<path i:knockout="Off" fill="#223742" d="M33.105,27.548l3.776-0.77l0.942-3.147L33.105,27.548z"/>
			<path i:knockout="Off" fill="#223742" d="M0.518,1.931l0.188,2.25l3.188-3.438l-2.25-0.188L0.518,1.931z"/>
			<g i:knockout="Off">
				<path i:knockout="Off" fill="none" stroke="#5383A0" d="M4.929,26.383c-4.891,0-4.429-0.401-4.429-5.067V5.328
					C0.5,0.66,0.037,0.5,4.929,0.5h27.143c4.892,0,4.744,0.161,4.744,4.827v15.984c0,4.668,0.146,5.069-4.744,5.069L4.929,26.383z"
					/>
				<path i:knockout="Off" fill="none" stroke="#5383A0" stroke-linejoin="round" d="M36.518,1.4L18.643,17.337L1.018,1.254"/>
				<path i:knockout="Off" fill="none" stroke="#5383A0" stroke-linejoin="round" d="M36.268,25.556L22.674,13.598"/>
				<path i:knockout="Off" fill="none" stroke="#5383A0" stroke-linejoin="round" d="M14.861,13.598L1.143,25.931"/>
			</g>
		</g>
		<path i:knockout="Off" fill="none" stroke="#484F01" stroke-linejoin="round" d="M42.25,22.232h-3.369v-2.938
			c0-1.673-1.193-1.604-2.661-1.604s-2.656-0.067-2.656,1.604v2.938h-3.269c-1.211,0-1.277,1.265-1.277,2.825
			c0,1.56,0.066,2.824,1.277,2.824h3.269v3.06c0,1.674,1.3,1.484,2.767,1.484c1.471,0,2.552,0.188,2.552-1.484v-3.06h3.368
			c1.213,0,1.174-1.066,1.174-2.63C43.423,23.693,43.461,22.232,42.25,22.232z"/>
		<path i:knockout="Off" fill="#97B101" d="M41.8,22.207h-3.199v-2.786c0-1.589-1.128-1.524-2.521-1.524
			c-1.395,0-2.524-0.063-2.524,1.524v2.786h-3.101c-1.15,0-1.211,1.204-1.211,2.686c0,1.48,0.061,2.682,1.211,2.682h3.101v2.9
			c0,1.588,1.237,1.412,2.629,1.412c1.396,0,2.416,0.176,2.416-1.412v-2.9H41.8c1.149,0,1.114-1.014,1.114-2.496
			C42.914,23.598,42.951,22.207,41.8,22.207z"/>
	</g>
</svg>
