<?xml version="1.0" encoding="utf-8"?>
<!-- Generator: Adobe Illustrator 10.0, SVG Export Plug-In . SVG Version: 3.0.0 Build 76)  -->
<!DOCTYPE svg PUBLIC "-//W3C//DTD SVG 1.0//EN"    "http://www.w3.org/TR/2001/REC-SVG-20010904/DTD/svg10.dtd" [
	<!ENTITY ns_flows "http://ns.adobe.com/Flows/1.0/">
	<!ENTITY ns_extend "http://ns.adobe.com/Extensibility/1.0/">
	<!ENTITY ns_ai "http://ns.adobe.com/AdobeIllustrator/10.0/">
	<!ENTITY ns_graphs "http://ns.adobe.com/Graphs/1.0/">
	<!ENTITY ns_vars "http://ns.adobe.com/Variables/1.0/">
	<!ENTITY ns_imrep "http://ns.adobe.com/ImageReplacement/1.0/">
	<!ENTITY ns_sfw "http://ns.adobe.com/SaveForWeb/1.0/">
	<!ENTITY ns_custom "http://ns.adobe.com/GenericCustomNamespace/1.0/">
	<!ENTITY ns_adobe_xpath "http://ns.adobe.com/XPath/1.0/">
	<!ENTITY ns_svg "http://www.w3.org/2000/svg">
	<!ENTITY ns_xlink "http://www.w3.org/1999/xlink">
]>
<svg 
	 xmlns:x="&ns_extend;" xmlns:i="&ns_ai;" xmlns:graph="&ns_graphs;" i:viewOrigin="4.5762 39.2979" i:rulerOrigin="0 0" i:pageBounds="0 48 48 0"
	 xmlns="&ns_svg;" xmlns:xlink="&ns_xlink;" xmlns:a="http://ns.adobe.com/AdobeSVGViewerExtensions/3.0/"
	 width="42.198" height="31.268" viewBox="0 0 42.198 31.268" overflow="visible" enable-background="new 0 0 42.198 31.268"
	 xml:space="preserve">
	<metadata>
		<variableSets  xmlns="http://ns.adobe.com/Variables/1.0/">
			<variableSet  varSetName="binding1" locked="none">
				<variables></variables>
				<v:sampleDataSets  xmlns="http://ns.adobe.com/GenericCustomNamespace/1.0/" xmlns:v="http://ns.adobe.com/Variables/1.0/">
					</v:sampleDataSets>
			</variableSet>
		</variableSets>
		<sfw  xmlns="&ns_sfw;">
			<slices></slices>
			<sliceSourceBounds  x="4.576" y="8.03" width="42.198" height="31.268" bottomLeftOrigin="true"></sliceSourceBounds>
		</sfw>
	</metadata>
	<g id="Layer_1" i:layer="yes" i:dimmedPercent="50" i:rgbTrio="#4F008000FFFF">
		<g>
			<path i:knockout="Off" fill="none" stroke="#223742" d="M5.897,27.372c-4.891,0-4.429-0.402-4.429-5.068V6.317
				c0-4.668-0.463-4.828,4.429-4.828H33.04c4.892,0,4.745,0.161,4.745,4.827v15.984c0,4.668,0.146,5.069-4.745,5.069L5.897,27.372z"
				/>
			<path i:knockout="Off" fill="none" stroke="#223742" stroke-linejoin="round" d="M36.799,2.452L18.924,18.389L1.299,2.306"/>
			<path i:knockout="Off" fill="none" stroke="#223742" stroke-linejoin="round" d="M37.861,25.857L24.268,13.899"/>
			<path i:knockout="Off" fill="none" stroke="#223742" stroke-linejoin="round" d="M15.455,14.462L1.736,26.795"/>
			<path i:knockout="Off" fill="#223742" d="M33.105,27.548l3.776-0.77l0.942-3.147L33.105,27.548z"/>
			<path i:knockout="Off" fill="#223742" d="M0.518,1.931l0.188,2.25l3.188-3.438l-2.25-0.188L0.518,1.931z"/>
			<g i:knockout="Off">
				<path i:knockout="Off" fill="none" stroke="#5383A0" d="M4.929,26.383c-4.891,0-4.429-0.401-4.429-5.067V5.328
					C0.5,0.66,0.037,0.5,4.929,0.5h27.143c4.892,0,4.744,0.161,4.744,4.827v15.984c0,4.668,0.146,5.069-4.744,5.069L4.929,26.383z"
					/>
				<path i:knockout="Off" fill="none" stroke="#5383A0" stroke-linejoin="round" d="M36.518,1.4L18.643,17.337L1.018,1.254"/>
				<path i:knockout="Off" fill="none" stroke="#5383A0" stroke-linejoin="round" d="M36.268,25.556L22.674,13.598"/>
				<path i:knockout="Off" fill="none" stroke="#5383A0" stroke-linejoin="round" d="M14.861,13.598L1.143,25.931"/>
			</g>
		</g>
		<path i:knockout="Off" fill="none" stroke="#484F01" stroke-linejoin="round" d="M33.653,15.404l-0.014,3.681
			c-2.342,0.137-4.877,0.776-6.729,2.57c-2.25,2.178-2.076,5.037,0.397,9.112c-1.019-5.239,2.77-7.227,6.309-7.008l-0.015,4.264
			l8.097-6.787L33.653,15.404z"/>
		<path i:knockout="Off" fill="#97B101" stroke="#97B101" stroke-width="0.5" stroke-linejoin="round" d="M33.217,14.967
			l-0.014,3.682c-2.342,0.136-4.877,0.774-6.729,2.568c-2.249,2.179-2.076,5.039,0.398,9.113c-1.02-5.238,2.769-7.227,6.308-7.007
			l-0.015,4.263l8.097-6.787L33.217,14.967z"/>
	</g>
</svg>
