<?xml version="1.0" encoding="utf-8"?>
<!-- Generator: Adobe Illustrator 10.0, SVG Export Plug-In . SVG Version: 3.0.0 Build 76)  -->
<!DOCTYPE svg PUBLIC "-//W3C//DTD SVG 1.0//EN"    "http://www.w3.org/TR/2001/REC-SVG-20010904/DTD/svg10.dtd" [
	<!ENTITY ns_flows "http://ns.adobe.com/Flows/1.0/">
	<!ENTITY ns_extend "http://ns.adobe.com/Extensibility/1.0/">
	<!ENTITY ns_ai "http://ns.adobe.com/AdobeIllustrator/10.0/">
	<!ENTITY ns_graphs "http://ns.adobe.com/Graphs/1.0/">
	<!ENTITY ns_vars "http://ns.adobe.com/Variables/1.0/">
	<!ENTITY ns_imrep "http://ns.adobe.com/ImageReplacement/1.0/">
	<!ENTITY ns_sfw "http://ns.adobe.com/SaveForWeb/1.0/">
	<!ENTITY ns_custom "http://ns.adobe.com/GenericCustomNamespace/1.0/">
	<!ENTITY ns_adobe_xpath "http://ns.adobe.com/XPath/1.0/">
	<!ENTITY ns_svg "http://www.w3.org/2000/svg">
	<!ENTITY ns_xlink "http://www.w3.org/1999/xlink">
]>
<svg 
	 xmlns:x="&ns_extend;" xmlns:i="&ns_ai;" xmlns:graph="&ns_graphs;" i:viewOrigin="5.9131 37.7388" i:rulerOrigin="0 0" i:pageBounds="0 48 48 0"
	 xmlns="&ns_svg;" xmlns:xlink="&ns_xlink;" xmlns:a="http://ns.adobe.com/AdobeSVGViewerExtensions/3.0/"
	 width="34.031" height="27.25" viewBox="0 0 34.031 27.25" overflow="visible" enable-background="new 0 0 34.031 27.25"
	 xml:space="preserve">
	<metadata>
		<variableSets  xmlns="http://ns.adobe.com/Variables/1.0/">
			<variableSet  varSetName="binding1" locked="none">
				<variables></variables>
				<v:sampleDataSets  xmlns="http://ns.adobe.com/GenericCustomNamespace/1.0/" xmlns:v="http://ns.adobe.com/Variables/1.0/">
					</v:sampleDataSets>
			</variableSet>
		</variableSets>
		<sfw  xmlns="&ns_sfw;">
			<slices></slices>
			<sliceSourceBounds  x="5.913" y="10.489" width="34.031" height="27.25" bottomLeftOrigin="true"></sliceSourceBounds>
		</sfw>
	</metadata>
	<g id="Layer_1" i:layer="yes" i:dimmedPercent="50" i:rgbTrio="#4F008000FFFF">
		<g i:knockout="Off">
			<g i:knockout="Off">
				<g i:knockout="Off">
					<path i:knockout="Off" fill="#484F01" d="M33.281,7.326l-9.3-5.77l-0.118,11.341L33.281,7.326z"/>
				</g>
				<g i:knockout="Off">
					<path i:knockout="Off" fill="#5383A0" stroke="#5383A0" stroke-linejoin="round" d="M33.281,7.326l-9.3-5.77l-0.118,11.341
						L33.281,7.326z"/>
				</g>
				<g i:knockout="Off">
					<path i:knockout="Off" fill="#7F3A01" stroke="#7F3A01" stroke-width="1.5" stroke-linejoin="round" d="M33.281,7.326
						l-9.3-5.77l-0.118,11.341L33.281,7.326z"/>
				</g>
			</g>
			<path i:knockout="Off" fill="#7F3A01" stroke="#7F3A01" d="M23.461,7.237c-0.011,0.946,0.122,1.711-1.354,1.695L3.394,8.737
				C1.919,8.722,2.066,7.959,2.076,7.013c0.009-0.944-0.121-1.715,1.354-1.7l18.714,0.196C23.619,5.524,23.471,6.291,23.461,7.237z"
				/>
			<path i:knockout="Off" fill="#E76F00" stroke="#E76F00" stroke-linejoin="round" d="M23.324,7.208l-0.048,4.633l9.416-5.573
				L23.395,0.5l-0.05,4.634c-0.103-0.409-0.404-0.681-1.27-0.69L3.363,4.249C1.887,4.233,2.02,5.003,2.01,5.948
				C2,6.896,1.852,7.659,3.327,7.674L22.04,7.871C22.905,7.878,23.213,7.617,23.324,7.208z"/>
		</g>
		<g i:knockout="Off">
			<g i:knockout="Off">
				<path i:knockout="Off" fill="#484F01" d="M1.156,20.732l9.299,5.768l0.119-11.34L1.156,20.732z"/>
			</g>
			<g i:knockout="Off">
				<path i:knockout="Off" fill="#5383A0" stroke="#5383A0" stroke-linejoin="round" d="M1.156,20.732l9.299,5.768l0.119-11.34
					L1.156,20.732z"/>
			</g>
			<g i:knockout="Off">
				<path i:knockout="Off" fill="#7F3A01" stroke="#7F3A01" stroke-width="1.5" stroke-linejoin="round" d="M1.156,20.732
					l9.299,5.768l0.119-11.34L1.156,20.732z"/>
			</g>
		</g>
		<path i:knockout="Off" fill="#7F3A01" stroke="#7F3A01" d="M10.975,20.819c0.011-0.947-0.121-1.711,1.356-1.695l18.712,0.196
			c1.478,0.016,1.33,0.775,1.321,1.722c-0.011,0.948,0.12,1.718-1.356,1.701l-18.714-0.195
			C10.818,22.532,10.965,21.766,10.975,20.819z"/>
		<path i:knockout="Off" fill="#E76F00" stroke="#E76F00" stroke-linejoin="round" d="M9.868,17.715l0.048-4.635L0.5,18.651
			l9.298,5.769l0.048-4.634c0.104,0.407,0.406,0.681,1.27,0.688L29.83,20.67c1.475,0.015,1.344-0.754,1.354-1.699
			c0.01-0.947,0.156-1.713-1.318-1.729l-18.712-0.194C10.288,17.04,9.98,17.304,9.868,17.715z"/>
	</g>
</svg>
