<?xml version="1.0" encoding="utf-8"?>
<!-- Generator: Adobe Illustrator 10.0, SVG Export Plug-In . SVG Version: 3.0.0 Build 76)  -->
<!DOCTYPE svg PUBLIC "-//W3C//DTD SVG 1.0//EN"    "http://www.w3.org/TR/2001/REC-SVG-20010904/DTD/svg10.dtd" [
	<!ENTITY ns_flows "http://ns.adobe.com/Flows/1.0/">
	<!ENTITY ns_extend "http://ns.adobe.com/Extensibility/1.0/">
	<!ENTITY ns_ai "http://ns.adobe.com/AdobeIllustrator/10.0/">
	<!ENTITY ns_graphs "http://ns.adobe.com/Graphs/1.0/">
	<!ENTITY ns_vars "http://ns.adobe.com/Variables/1.0/">
	<!ENTITY ns_imrep "http://ns.adobe.com/ImageReplacement/1.0/">
	<!ENTITY ns_sfw "http://ns.adobe.com/SaveForWeb/1.0/">
	<!ENTITY ns_custom "http://ns.adobe.com/GenericCustomNamespace/1.0/">
	<!ENTITY ns_adobe_xpath "http://ns.adobe.com/XPath/1.0/">
	<!ENTITY ns_svg "http://www.w3.org/2000/svg">
	<!ENTITY ns_xlink "http://www.w3.org/1999/xlink">
]>
<svg 
	 xmlns:x="&ns_extend;" xmlns:i="&ns_ai;" xmlns:graph="&ns_graphs;" i:viewOrigin="3.0898 43.5518" i:rulerOrigin="0 0" i:pageBounds="0 48 48 0"
	 xmlns="&ns_svg;" xmlns:xlink="&ns_xlink;" xmlns:a="http://ns.adobe.com/AdobeSVGViewerExtensions/3.0/"
	 width="37.006" height="39.186" viewBox="0 0 37.006 39.186" overflow="visible" enable-background="new 0 0 37.006 39.186"
	 xml:space="preserve">
	<metadata>
		<variableSets  xmlns="http://ns.adobe.com/Variables/1.0/">
			<variableSet  varSetName="binding1" locked="none">
				<variables></variables>
				<v:sampleDataSets  xmlns="http://ns.adobe.com/GenericCustomNamespace/1.0/" xmlns:v="http://ns.adobe.com/Variables/1.0/">
					</v:sampleDataSets>
			</variableSet>
		</variableSets>
		<sfw  xmlns="&ns_sfw;">
			<slices></slices>
			<sliceSourceBounds  x="3.09" y="4.366" width="37.006" height="39.186" bottomLeftOrigin="true"></sliceSourceBounds>
		</sfw>
	</metadata>
	<g id="Layer_1" i:layer="yes" i:dimmedPercent="50" i:rgbTrio="#4F008000FFFF">
		<path i:knockout="Off" fill="none" d="M36.078,33.464l-0.009-1.223V7.716l0.009-1.222c0.019-2.137,0.027-3.427-0.602-4.062
			C34.967,1.918,33.899,1.7,31.904,1.7h-2.313v10.489c0,0.256-0.207,0.463-0.463,0.463H8.535c-0.255,0-0.462-0.207-0.462-0.463V1.7
			H5.76c-1.995,0-3.063,0.219-3.571,0.732C1.56,3.066,1.57,4.356,1.588,6.494l0.006,1.222v24.526l-0.006,1.223
			c-0.019,2.138-0.028,3.429,0.601,4.063c0.509,0.512,1.576,0.729,3.569,0.729h26.146c0.016,0,0.026,0,0.04,0l4.136-4.137
			C36.08,33.911,36.078,33.694,36.078,33.464z"/>
		<path i:knockout="Off" fill="none" d="M27.047,10.643H12.932c-0.256,0-0.463-0.207-0.463-0.463V1.778c-1.896,0-3.248,0-3.471,0
			c0,0.811,0,9.138,0,9.949c0.863,0,18.803,0,19.668,0c0-0.813,0-9.141,0-9.949c-0.113,0-0.529,0-1.156,0v8.401
			C27.508,10.436,27.301,10.643,27.047,10.643z"/>
		<path i:knockout="Off" d="M12.932,1.7h-0.463v0.077c0.15,0,0.306,0,0.463,0V1.7z"/>
		<path i:knockout="Off" fill="#666666" d="M37,33.202l-0.004-0.961V7.716l0.006-1.214c0.021-2.377,0.033-3.813-0.867-4.721
			c-0.719-0.724-1.902-1.006-4.229-1.006H5.76c-2.326,0-3.512,0.282-4.229,1.006C0.631,2.689,0.643,4.125,0.662,6.502L0.67,7.716
			v24.525l-0.008,1.215c-0.02,2.377-0.031,3.813,0.868,4.723c0.718,0.724,1.903,1.007,4.229,1.007h26.145
			c0.152,0,0.288-0.004,0.432-0.009l0.967-0.969l2.762-2.76l0.941-0.943c0-0.33,0-0.674-0.004-1.049L37,33.202z M22.496,2.625
			c0-0.256,0.207-0.463,0.463-0.463h2.545c0.256,0,0.463,0.207,0.463,0.463v6.123c0,0.255-0.207,0.462-0.463,0.462h-2.545
			c-0.256,0-0.463-0.207-0.463-0.462V2.625z M8.998,1.778h3.471V1.7h0.464v0.077h-0.464v8.401c0,0.257,0.207,0.463,0.463,0.463
			h14.115c0.254,0,0.463-0.207,0.463-0.463v-8.4h-0.463V1.7h0.463v0.077h1.156v9.949H8.998V1.778z M36.078,33.464
			c0,0.23,0.002,0.447,0.002,0.656l-4.136,4.137c-0.015,0-0.024,0-0.04,0H5.76c-1.996,0-3.063-0.219-3.571-0.729
			c-0.629-0.635-0.618-1.924-0.601-4.063l0.008-1.223V7.716L1.588,6.493C1.569,4.356,1.56,3.066,2.188,2.432
			C2.696,1.918,3.764,1.699,5.76,1.699h2.313v10.489c0,0.256,0.207,0.463,0.463,0.463h20.592c0.256,0,0.463-0.207,0.463-0.463V1.7
			h2.313c1.995,0,3.063,0.219,3.571,0.732c0.63,0.634,0.618,1.924,0.603,4.062l-0.009,1.222v24.526L36.078,33.464z M8.535,35.249
			h20.748V20.827H8.535V35.249z"/>
		<g i:knockout="Off">
			<path i:knockout="Off" fill="#5383A0" stroke="#5383A0" stroke-linejoin="round" d="M28.621,34.478H7.875V20.055h20.746V34.478z"
				/>
			<g i:knockout="Off">
				<path i:knockout="Off" fill="none" d="M35.414,32.692l-0.006-1.224V6.942l0.006-1.223c0.019-2.138,0.029-3.428-0.6-4.063
					c-0.51-0.513-1.578-0.731-3.57-0.731h-2.313v10.488c0,0.257-0.207,0.464-0.464,0.464H7.875c-0.256,0-0.463-0.207-0.463-0.464
					V0.927H5.099c-1.996,0-3.063,0.22-3.572,0.731C0.897,2.292,0.908,3.582,0.926,5.721l0.007,1.223V31.47l-0.007,1.224
					c-0.019,2.135-0.028,3.426,0.601,4.063c0.509,0.513,1.576,0.73,3.572,0.73h26.146c0.014,0,0.023-0.002,0.039-0.002l4.137-4.138
					C35.418,33.137,35.416,32.921,35.414,32.692z"/>
				<path i:knockout="Off" fill="none" d="M34.813,36.753c0.402-0.406,0.543-1.086,0.588-2.078l-2.76,2.763
					C33.762,37.346,34.439,37.13,34.813,36.753z"/>
				<path i:knockout="Off" fill="none" d="M26.383,9.868H12.27c-0.256,0-0.461-0.207-0.461-0.462V1.004c-1.896,0-3.25,0-3.473,0
					c0,0.812,0,9.139,0,9.948c0.865,0,18.805,0,19.668,0c0-0.811,0-9.139,0-9.948c-0.113,0-0.529,0-1.158,0v8.401
					C26.846,9.661,26.639,9.868,26.383,9.868z"/>
				<path i:knockout="Off" d="M12.27,0.927h-0.461v0.077c0.15,0,0.303,0,0.461,0V0.927z"/>
				<path i:knockout="Off" d="M26.383,1.004c0.166,0,0.32,0,0.463,0V0.927h-0.463V1.004z"/>
				<path i:knockout="Off" d="M36.34,32.429l-0.006-0.959V6.942l0.006-1.214c0.021-2.377,0.033-3.813-0.869-4.722
					C34.754,0.282,33.566,0,31.244,0H5.098C2.771,0,1.586,0.282,0.869,1.007C-0.033,1.914-0.021,3.352,0,5.729l0.008,1.214v24.526
					L0,32.683c-0.021,2.379-0.033,3.813,0.869,4.721c0.717,0.727,1.902,1.008,4.229,1.008h26.146c0.149,0,0.284-0.006,0.43-0.008
					l0.967-0.967l2.76-2.763l0.943-0.94c0-0.332-0.002-0.676-0.004-1.051V32.429z M21.834,1.853c0-0.257,0.207-0.464,0.463-0.464
					h2.545c0.257,0,0.464,0.207,0.464,0.464v6.123c0,0.255-0.207,0.462-0.464,0.462h-2.545c-0.256,0-0.463-0.207-0.463-0.462V1.853z
					 M8.336,1.004h3.472V0.927h0.463v0.077h-0.463v8.401c0,0.256,0.207,0.462,0.463,0.462h14.112c0.257,0,0.464-0.207,0.464-0.462
					V1.004h-0.464V0.927h0.464v0.077h1.157v9.948H8.336V1.004z M31.283,37.483c-0.016,0-0.025,0.002-0.039,0.002H5.098
					c-1.996,0-3.063-0.219-3.572-0.73c-0.629-0.637-0.618-1.928-0.602-4.063l0.008-1.224V6.942L0.924,5.72
					C0.906,3.582,0.896,2.292,1.525,1.657c0.51-0.513,1.576-0.731,3.572-0.731H7.41v10.488c0,0.257,0.207,0.464,0.463,0.464h20.594
					c0.255,0,0.461-0.207,0.461-0.464V0.927h2.314c1.992,0,3.063,0.22,3.57,0.731c0.629,0.634,0.617,1.924,0.602,4.063l-0.008,1.223
					V31.47l0.008,1.224c0.002,0.229,0.004,0.444,0.004,0.653L31.283,37.483z"/>
			</g>
		</g>
	</g>
</svg>
