<?xml version="1.0" encoding="utf-8"?>
<!-- Generator: Adobe Illustrator 10.0, SVG Export Plug-In . SVG Version: 3.0.0 Build 76)  -->
<!DOCTYPE svg PUBLIC "-//W3C//DTD SVG 1.0//EN"    "http://www.w3.org/TR/2001/REC-SVG-20010904/DTD/svg10.dtd" [
	<!ENTITY ns_flows "http://ns.adobe.com/Flows/1.0/">
	<!ENTITY ns_extend "http://ns.adobe.com/Extensibility/1.0/">
	<!ENTITY ns_ai "http://ns.adobe.com/AdobeIllustrator/10.0/">
	<!ENTITY ns_graphs "http://ns.adobe.com/Graphs/1.0/">
	<!ENTITY ns_vars "http://ns.adobe.com/Variables/1.0/">
	<!ENTITY ns_imrep "http://ns.adobe.com/ImageReplacement/1.0/">
	<!ENTITY ns_sfw "http://ns.adobe.com/SaveForWeb/1.0/">
	<!ENTITY ns_custom "http://ns.adobe.com/GenericCustomNamespace/1.0/">
	<!ENTITY ns_adobe_xpath "http://ns.adobe.com/XPath/1.0/">
	<!ENTITY ns_svg "http://www.w3.org/2000/svg">
	<!ENTITY ns_xlink "http://www.w3.org/1999/xlink">
]>
<svg 
	 xmlns:x="&ns_extend;" xmlns:i="&ns_ai;" xmlns:graph="&ns_graphs;" i:viewOrigin="8.8452 42.8403" i:rulerOrigin="0 0" i:pageBounds="0 48 48 0"
	 xmlns="&ns_svg;" xmlns:xlink="&ns_xlink;" xmlns:a="http://ns.adobe.com/AdobeSVGViewerExtensions/3.0/"
	 width="26.988" height="37.347" viewBox="0 0 26.988 37.347" overflow="visible" enable-background="new 0 0 26.988 37.347"
	 xml:space="preserve">
	<metadata>
		<variableSets  xmlns="http://ns.adobe.com/Variables/1.0/">
			<variableSet  varSetName="binding1" locked="none">
				<variables></variables>
				<v:sampleDataSets  xmlns="http://ns.adobe.com/GenericCustomNamespace/1.0/" xmlns:v="http://ns.adobe.com/Variables/1.0/">
					</v:sampleDataSets>
			</variableSet>
		</variableSets>
		<sfw  xmlns="&ns_sfw;">
			<slices></slices>
			<sliceSourceBounds  x="8.845" y="5.493" width="26.988" height="37.347" bottomLeftOrigin="true"></sliceSourceBounds>
		</sfw>
	</metadata>
	<g id="Layer_1" i:layer="yes" i:dimmedPercent="50" i:rgbTrio="#4F008000FFFF">
		<path i:knockout="Off" fill="#484F01" d="M25.375,13.043l-2.555,2.547l4.167-0.583L25.375,13.043z"/>
		<path i:knockout="Off" fill="none" stroke="#484F01" d="M17.188,37.08c0.695-0.352,1.02-0.863,1.02-1.613V16.42
			c0-0.291-0.065-0.536-0.166-0.761h6.595c0.751,0,1.446-0.208,1.815-0.544c0.368-0.336,0.358-0.749-0.032-1.08L15.179,1.509
			c-0.376-0.32-1.051-0.516-1.782-0.516c-0.73,0-1.404,0.195-1.783,0.516L0.372,14.035c-0.391,0.33-0.402,0.743-0.032,1.08
			c0.369,0.337,1.063,0.544,1.817,0.544h6.645c-0.101,0.224-0.164,0.469-0.164,0.759l0,19.048c0,0.75,0.321,1.26,1.017,1.613
			c0.944,0.479,2.218,0.471,3.34,0.463h0.865C14.979,37.55,16.247,37.558,17.188,37.08z"/>
		<path i:knockout="Off" fill="none" stroke="#97B101" d="M16.518,36.097c0.677-0.355,0.993-0.873,0.993-1.631V15.169
			c0-0.247-0.183-0.391-0.261-0.594c2.578,0,6.546,0,6.546,0c0.489,0,0.939-0.141,1.179-0.368c0.241-0.227,0.232-0.506-0.021-0.73
			L14.002,0.827c-0.245-0.216-0.685-0.348-1.158-0.348c-0.473,0-0.913,0.132-1.159,0.348l-10.96,12.65
			c-0.256,0.223-0.262,0.502-0.023,0.729c0.242,0.228,0.693,0.368,1.182,0.368c0,0,3.977,0,6.549,0
			c-0.076,0.204-0.256,0.348-0.256,0.595l0,19.297c0,0.756,0.316,1.273,0.994,1.631c0.922,0.488,2.161,0.479,3.255,0.472h0.837
			C14.356,36.576,15.596,36.585,16.518,36.097z"/>
	</g>
</svg>
