<?xml version="1.0" encoding="utf-8"?>
<!-- Generator: Adobe Illustrator 10.0, SVG Export Plug-In . SVG Version: 3.0.0 Build 76)  -->
<!DOCTYPE svg PUBLIC "-//W3C//DTD SVG 1.0//EN"    "http://www.w3.org/TR/2001/REC-SVG-20010904/DTD/svg10.dtd" [
	<!ENTITY ns_flows "http://ns.adobe.com/Flows/1.0/">
	<!ENTITY ns_extend "http://ns.adobe.com/Extensibility/1.0/">
	<!ENTITY ns_ai "http://ns.adobe.com/AdobeIllustrator/10.0/">
	<!ENTITY ns_graphs "http://ns.adobe.com/Graphs/1.0/">
	<!ENTITY ns_vars "http://ns.adobe.com/Variables/1.0/">
	<!ENTITY ns_imrep "http://ns.adobe.com/ImageReplacement/1.0/">
	<!ENTITY ns_sfw "http://ns.adobe.com/SaveForWeb/1.0/">
	<!ENTITY ns_custom "http://ns.adobe.com/GenericCustomNamespace/1.0/">
	<!ENTITY ns_adobe_xpath "http://ns.adobe.com/XPath/1.0/">
	<!ENTITY ns_svg "http://www.w3.org/2000/svg">
	<!ENTITY ns_xlink "http://www.w3.org/1999/xlink">
]>
<svg 
	 xmlns:x="&ns_extend;" xmlns:i="&ns_ai;" xmlns:graph="&ns_graphs;" i:viewOrigin="11.5 40.8315" i:rulerOrigin="0 0" i:pageBounds="0 48 48 0"
	 xmlns="&ns_svg;" xmlns:xlink="&ns_xlink;" xmlns:a="http://ns.adobe.com/AdobeSVGViewerExtensions/3.0/"
	 width="25.784" height="37.208" viewBox="0 0 25.784 37.208" overflow="visible" enable-background="new 0 0 25.784 37.208"
	 xml:space="preserve">
	<metadata>
		<variableSets  xmlns="http://ns.adobe.com/Variables/1.0/">
			<variableSet  varSetName="binding1" locked="none">
				<variables></variables>
				<v:sampleDataSets  xmlns="http://ns.adobe.com/GenericCustomNamespace/1.0/" xmlns:v="http://ns.adobe.com/Variables/1.0/">
					</v:sampleDataSets>
			</variableSet>
		</variableSets>
		<sfw  xmlns="&ns_sfw;">
			<slices></slices>
			<sliceSourceBounds  x="11.5" y="3.623" width="25.784" height="37.208" bottomLeftOrigin="true"></sliceSourceBounds>
		</sfw>
	</metadata>
	<g id="Layer_1" i:layer="yes" i:dimmedPercent="50" i:rgbTrio="#4F008000FFFF">
		<path i:knockout="Off" fill="none" stroke="#484F01" d="M9.705,1.183C9.014,1.528,8.691,2.032,8.691,2.77v18.742
			c0,0.286,0.065,0.527,0.165,0.749H2.304c-0.746,0-1.437,0.204-1.804,0.536c-0.366,0.33-0.356,0.736,0.032,1.062L11.7,36.186
			c0.374,0.315,0.49,0.562,1.216,0.562c0.726,0,0.95-0.246,1.327-0.562L25.414,23.86c0.388-0.325,0.399-0.731,0.031-1.063
			c-0.367-0.332-0.057-0.535-0.806-0.535h-6.604c0.101-0.221,0.164-0.462,0.164-0.747L18.201,2.77c0-0.738-0.32-1.24-1.011-1.587
			c-0.938-0.471-2.204-0.463-3.317-0.456h-0.861C11.899,0.719,10.64,0.712,9.705,1.183z"/>
		<path i:knockout="Off" fill="none" stroke="#97B101" d="M8.957,0.26C8.279,0.616,7.963,1.133,7.963,1.891v19.297
			c0,0.247,0.184,0.391,0.262,0.595c-2.578,0-6.547,0-6.547,0c-0.488,0-0.939,0.141-1.178,0.368
			c-0.242,0.227-0.232,0.506,0.02,0.729l10.953,12.65c0.244,0.216,0.684,0.348,1.158,0.348c0.473,0,0.912-0.132,1.158-0.348
			L24.75,22.88c0.256-0.223,0.262-0.502,0.023-0.729c-0.242-0.228-0.693-0.368-1.182-0.368c0,0-3.977,0-6.549,0
			c0.076-0.204,0.256-0.348,0.256-0.595L17.3,1.891c0-0.756-0.316-1.273-0.994-1.631c-0.922-0.488-2.161-0.479-3.255-0.472h-0.838
			C11.119-0.218,9.879-0.228,8.957,0.26z"/>
	</g>
</svg>
