<?xml version="1.0" encoding="utf-8"?>
<!-- Generator: Adobe Illustrator 10.0, SVG Export Plug-In . SVG Version: 3.0.0 Build 76)  -->
<!DOCTYPE svg PUBLIC "-//W3C//DTD SVG 1.0//EN"    "http://www.w3.org/TR/2001/REC-SVG-20010904/DTD/svg10.dtd" [
	<!ENTITY ns_flows "http://ns.adobe.com/Flows/1.0/">
	<!ENTITY ns_extend "http://ns.adobe.com/Extensibility/1.0/">
	<!ENTITY ns_ai "http://ns.adobe.com/AdobeIllustrator/10.0/">
	<!ENTITY ns_graphs "http://ns.adobe.com/Graphs/1.0/">
	<!ENTITY ns_vars "http://ns.adobe.com/Variables/1.0/">
	<!ENTITY ns_imrep "http://ns.adobe.com/ImageReplacement/1.0/">
	<!ENTITY ns_sfw "http://ns.adobe.com/SaveForWeb/1.0/">
	<!ENTITY ns_custom "http://ns.adobe.com/GenericCustomNamespace/1.0/">
	<!ENTITY ns_adobe_xpath "http://ns.adobe.com/XPath/1.0/">
	<!ENTITY ns_svg "http://www.w3.org/2000/svg">
	<!ENTITY ns_xlink "http://www.w3.org/1999/xlink">
]>
<svg 
	 xmlns:x="&ns_extend;" xmlns:i="&ns_ai;" xmlns:graph="&ns_graphs;" i:viewOrigin="2.123 37.4922" i:rulerOrigin="0 0" i:pageBounds="0 48 48 0"
	 xmlns="&ns_svg;" xmlns:xlink="&ns_xlink;" xmlns:a="http://ns.adobe.com/AdobeSVGViewerExtensions/3.0/"
	 width="37.181" height="26.951" viewBox="0 0 37.181 26.951" overflow="visible" enable-background="new 0 0 37.181 26.951"
	 xml:space="preserve">
	<metadata>
		<variableSets  xmlns="http://ns.adobe.com/Variables/1.0/">
			<variableSet  varSetName="binding1" locked="none">
				<variables></variables>
				<v:sampleDataSets  xmlns="http://ns.adobe.com/GenericCustomNamespace/1.0/" xmlns:v="http://ns.adobe.com/Variables/1.0/">
					</v:sampleDataSets>
			</variableSet>
		</variableSets>
		<sfw  xmlns="&ns_sfw;">
			<slices></slices>
			<sliceSourceBounds  x="2.123" y="10.541" width="37.181" height="26.951" bottomLeftOrigin="true"></sliceSourceBounds>
		</sfw>
	</metadata>
	<g id="Layer_1" i:layer="yes" i:dimmedPercent="50" i:rgbTrio="#4F008000FFFF">
		<path i:knockout="Off" fill="#484F01" d="M12.71,25.492l2.167,1.167l0.583-3.035L12.71,25.492z"/>
		<path i:knockout="Off" fill="none" stroke="#484F01" d="M36.914,9.763c-0.353-0.695-0.863-1.019-1.613-1.019H16.254
			c-0.291,0-0.536,0.065-0.761,0.166V2.315c0-0.751-0.208-1.446-0.544-1.815c-0.336-0.369-0.749-0.359-1.08,0.032L1.343,11.772
			c-0.32,0.375-0.516,1.05-0.516,1.782c0,0.731,0.195,1.405,0.516,1.784l12.526,11.241c0.33,0.391,0.743,0.402,1.08,0.032
			c0.337-0.369,0.544-1.063,0.544-1.817v-6.645c0.224,0.101,0.469,0.164,0.758,0.164h19.049c0.75,0,1.259-0.321,1.613-1.017
			c0.479-0.944,0.471-2.218,0.463-3.34v-0.865C37.385,11.972,37.393,10.704,36.914,9.763z"/>
		<path i:knockout="Off" fill="none" stroke="#97B101" d="M36.098,9.268c-0.355-0.677-0.873-0.994-1.631-0.994H15.169
			c-0.247,0-0.391,0.183-0.594,0.261c0-2.579,0-6.546,0-6.546c0-0.489-0.141-0.939-0.368-1.179c-0.227-0.241-0.506-0.232-0.73,0.021
			L0.827,11.783c-0.216,0.246-0.348,0.685-0.348,1.159c0,0.473,0.132,0.913,0.348,1.159l12.65,10.96
			c0.223,0.256,0.502,0.262,0.73,0.023c0.228-0.242,0.368-0.693,0.368-1.182c0,0,0-3.977,0-6.549
			c0.204,0.076,0.347,0.256,0.594,0.256h19.297c0.756,0,1.273-0.316,1.631-0.994c0.488-0.922,0.479-2.161,0.472-3.255v-0.837
			C36.576,11.429,36.586,10.189,36.098,9.268z"/>
	</g>
</svg>
