<?xml version="1.0" encoding="utf-8"?>
<!-- Generator: Adobe Illustrator 10.0, SVG Export Plug-In . SVG Version: 3.0.0 Build 76)  -->
<!DOCTYPE svg PUBLIC "-//W3C//DTD SVG 1.0//EN"    "http://www.w3.org/TR/2001/REC-SVG-20010904/DTD/svg10.dtd" [
	<!ENTITY ns_flows "http://ns.adobe.com/Flows/1.0/">
	<!ENTITY ns_extend "http://ns.adobe.com/Extensibility/1.0/">
	<!ENTITY ns_ai "http://ns.adobe.com/AdobeIllustrator/10.0/">
	<!ENTITY ns_graphs "http://ns.adobe.com/Graphs/1.0/">
	<!ENTITY ns_vars "http://ns.adobe.com/Variables/1.0/">
	<!ENTITY ns_imrep "http://ns.adobe.com/ImageReplacement/1.0/">
	<!ENTITY ns_sfw "http://ns.adobe.com/SaveForWeb/1.0/">
	<!ENTITY ns_custom "http://ns.adobe.com/GenericCustomNamespace/1.0/">
	<!ENTITY ns_adobe_xpath "http://ns.adobe.com/XPath/1.0/">
	<!ENTITY ns_svg "http://www.w3.org/2000/svg">
	<!ENTITY ns_xlink "http://www.w3.org/1999/xlink">
]>
<svg 
	 xmlns:x="&ns_extend;" xmlns:i="&ns_ai;" xmlns:graph="&ns_graphs;" i:viewOrigin="7.501 35.5181" i:rulerOrigin="0 0" i:pageBounds="0 48 48 0"
	 xmlns="&ns_svg;" xmlns:xlink="&ns_xlink;" xmlns:a="http://ns.adobe.com/AdobeSVGViewerExtensions/3.0/"
	 width="29.475" height="28.393" viewBox="0 0 29.475 28.393" overflow="visible" enable-background="new 0 0 29.475 28.393"
	 xml:space="preserve">
	<metadata>
		<variableSets  xmlns="http://ns.adobe.com/Variables/1.0/">
			<variableSet  varSetName="binding1" locked="none">
				<variables></variables>
				<v:sampleDataSets  xmlns="http://ns.adobe.com/GenericCustomNamespace/1.0/" xmlns:v="http://ns.adobe.com/Variables/1.0/">
					</v:sampleDataSets>
			</variableSet>
		</variableSets>
		<sfw  xmlns="&ns_sfw;">
			<slices></slices>
			<sliceSourceBounds  x="7.501" y="7.125" width="29.475" height="28.393" bottomLeftOrigin="true"></sliceSourceBounds>
		</sfw>
	</metadata>
	<g id="Layer_1" i:layer="yes" i:dimmedPercent="50" i:rgbTrio="#4F008000FFFF">
		<path i:knockout="Off" fill="none" stroke="#484F01" stroke-linejoin="round" d="M0.875,11.52l13.909,11.66l-0.025-7.323
			c6.079-0.377,12.586,3.037,10.836,12.037c4.25-7,4.549-11.912,0.684-15.655c-3.183-3.081-7.537-4.179-11.56-4.412L14.694,1.5
			L0.875,11.52z"/>
		<path i:knockout="Off" fill="none" stroke="#97B101" stroke-linejoin="round" d="M0.5,10.52l13.909,11.659l-0.025-7.323
			c6.079-0.377,12.586,3.037,10.836,12.037c4.25-7,4.549-11.912,0.684-15.655c-3.183-3.081-7.537-4.179-11.56-4.412L14.319,0.5
			L0.5,10.52z"/>
	</g>
</svg>
