<?xml version="1.0" encoding="utf-8"?>
<!-- Generator: Adobe Illustrator 10.0, SVG Export Plug-In . SVG Version: 3.0.0 Build 76)  -->
<!DOCTYPE svg PUBLIC "-//W3C//DTD SVG 1.0//EN"    "http://www.w3.org/TR/2001/REC-SVG-20010904/DTD/svg10.dtd" [
	<!ENTITY ns_flows "http://ns.adobe.com/Flows/1.0/">
	<!ENTITY ns_extend "http://ns.adobe.com/Extensibility/1.0/">
	<!ENTITY ns_ai "http://ns.adobe.com/AdobeIllustrator/10.0/">
	<!ENTITY ns_graphs "http://ns.adobe.com/Graphs/1.0/">
	<!ENTITY ns_vars "http://ns.adobe.com/Variables/1.0/">
	<!ENTITY ns_imrep "http://ns.adobe.com/ImageReplacement/1.0/">
	<!ENTITY ns_sfw "http://ns.adobe.com/SaveForWeb/1.0/">
	<!ENTITY ns_custom "http://ns.adobe.com/GenericCustomNamespace/1.0/">
	<!ENTITY ns_adobe_xpath "http://ns.adobe.com/XPath/1.0/">
	<!ENTITY ns_svg "http://www.w3.org/2000/svg">
	<!ENTITY ns_xlink "http://www.w3.org/1999/xlink">
]>
<svg 
	 xmlns:x="&ns_extend;" xmlns:i="&ns_ai;" xmlns:graph="&ns_graphs;" i:viewOrigin="2.2705 45.3652" i:rulerOrigin="0 0" i:pageBounds="0 48 48 0"
	 xmlns="&ns_svg;" xmlns:xlink="&ns_xlink;" xmlns:a="http://ns.adobe.com/AdobeSVGViewerExtensions/3.0/"
	 width="41.812" height="39.077" viewBox="0 0 41.812 39.077" overflow="visible" enable-background="new 0 0 41.812 39.077"
	 xml:space="preserve">
	<metadata>
		<variableSets  xmlns="http://ns.adobe.com/Variables/1.0/">
			<variableSet  varSetName="binding1" locked="none">
				<variables></variables>
				<v:sampleDataSets  xmlns="http://ns.adobe.com/GenericCustomNamespace/1.0/" xmlns:v="http://ns.adobe.com/Variables/1.0/">
					</v:sampleDataSets>
			</variableSet>
		</variableSets>
		<sfw  xmlns="&ns_sfw;">
			<slices></slices>
			<sliceSourceBounds  x="2.271" y="6.288" width="41.812" height="39.077" bottomLeftOrigin="true"></sliceSourceBounds>
		</sfw>
	</metadata>
	<g id="Layer_1" i:layer="yes" i:dimmedPercent="50" i:rgbTrio="#4F008000FFFF">
		<g i:knockout="Off">
			<g i:knockout="Off">
				<path i:knockout="Off" fill="#7F3A01" d="M24.23,9.707c-0.654,7.546-0.982,11.397-0.982,11.558c0,2.891,0.838,4.335,2.518,4.335
					c1.53,0,2.785-0.814,3.764-2.447c0.979-1.635,1.47-3.708,1.47-6.227c0-3.773-1.188-6.88-3.567-9.315
					c-2.377-2.438-5.709-3.654-9.999-3.654c-4.049,0-7.405,1.42-10.069,4.261C4.7,11.058,3.368,14.656,3.368,19.012
					c0,4.289,1.272,7.732,3.818,10.331c2.546,2.602,5.958,3.9,10.237,3.9c3.372,0,6.259-0.569,8.657-1.71v2.458
					c-2.403,0.998-5.361,1.496-8.873,1.496c-4.968,0-8.971-1.503-12.009-4.509c-3.038-3.009-4.556-6.95-4.556-11.829
					c0-5.064,1.598-9.237,4.793-12.52c3.195-3.278,7.248-4.92,12.158-4.92c4.591,0,8.427,1.382,11.507,4.146
					c3.082,2.764,4.623,6.389,4.623,10.874c0,3.244-0.798,5.907-2.396,7.989c-1.598,2.084-3.536,3.124-5.813,3.124
					c-2.973,0-4.47-1.647-4.496-4.948h-0.102c-1.001,3.301-2.979,4.948-5.932,4.948c-1.884,0-3.4-0.691-4.55-2.081
					c-1.148-1.389-1.723-3.244-1.723-5.564c0-3.083,0.794-5.652,2.384-7.708c1.59-2.056,3.68-3.083,6.272-3.083
					c0.922,0,1.792,0.247,2.613,0.741c0.822,0.494,1.334,1.136,1.533,1.924h0.077l0.2-2.365H24.23z M11.544,20.271
					c0,1.614,0.339,2.906,1.018,3.876c0.678,0.969,1.648,1.452,2.911,1.452c1.741,0,3.107-0.869,4.098-2.612
					c0.992-1.743,1.486-4.021,1.486-6.834c0-3.001-1.25-4.501-3.749-4.501c-1.715,0-3.104,0.82-4.169,2.462
					C12.075,15.755,11.544,17.808,11.544,20.271z"/>
			</g>
			<g i:knockout="Off">
				<path i:knockout="Off" fill="#E76F00" d="M23.59,7.997c-0.656,7.545-0.982,11.396-0.982,11.558c0,2.892,0.838,4.335,2.517,4.335
					c1.532,0,2.787-0.815,3.767-2.448c0.979-1.635,1.467-3.708,1.467-6.226c0-3.773-1.188-6.88-3.565-9.316s-5.71-3.654-9.999-3.654
					c-4.05,0-7.405,1.42-10.069,4.261S2.726,12.945,2.726,17.3c0,4.289,1.272,7.732,3.819,10.333
					c2.545,2.6,5.958,3.899,10.237,3.899c3.372,0,6.258-0.57,8.657-1.71v2.459c-2.402,0.996-5.361,1.496-8.873,1.496
					c-4.969,0-8.972-1.505-12.01-4.512C1.519,26.26,0,22.318,0,17.439c0-5.064,1.598-9.237,4.793-12.52
					C7.988,1.641,12.041,0,16.951,0c4.589,0,8.426,1.382,11.508,4.146c3.082,2.764,4.623,6.388,4.623,10.874
					c0,3.244-0.8,5.907-2.396,7.99c-1.599,2.082-3.537,3.124-5.814,3.124c-2.971,0-4.469-1.649-4.495-4.951h-0.101
					c-1.001,3.302-2.979,4.951-5.933,4.951c-1.884,0-3.4-0.693-4.549-2.083c-1.149-1.387-1.724-3.243-1.724-5.564
					c0-3.083,0.794-5.651,2.384-7.707c1.59-2.057,3.681-3.083,6.272-3.083c0.922,0,1.793,0.247,2.614,0.741
					c0.822,0.493,1.333,1.136,1.533,1.924h0.076l0.199-2.364L23.59,7.997z M10.902,18.561c0,1.614,0.339,2.908,1.018,3.878
					c0.678,0.968,1.648,1.451,2.912,1.451c1.741,0,3.107-0.871,4.098-2.613c0.99-1.743,1.486-4.021,1.486-6.833
					c0-3.001-1.25-4.502-3.75-4.502c-1.715,0-3.104,0.82-4.168,2.463C11.434,14.045,10.902,16.098,10.902,18.561z"/>
			</g>
		</g>
		<g i:knockout="Off">
			<path i:knockout="Off" fill="none" stroke="#484F01" stroke-linejoin="round" d="M40.198,28.902h-3.197v-2.789
				c0-1.588-1.133-1.523-2.524-1.523c-1.395,0-2.521-0.063-2.521,1.523v2.789h-3.102c-1.149,0-1.213,1.199-1.213,2.682
				c0,1.48,0.063,2.682,1.213,2.682h3.102v2.903c0,1.588,1.232,1.409,2.626,1.409c1.396,0,2.421,0.179,2.421-1.409v-2.903h3.197
				c1.15,0,1.113-1.014,1.113-2.495S41.35,28.902,40.198,28.902z"/>
			<path i:knockout="Off" fill="#97B101" d="M39.839,28.524h-3.198v-2.786c0-1.589-1.129-1.525-2.521-1.525
				c-1.395,0-2.523-0.063-2.523,1.525v2.786h-3.102c-1.15,0-1.211,1.204-1.211,2.685c0,1.481,0.061,2.682,1.211,2.682h3.102v2.9
				c0,1.588,1.236,1.412,2.629,1.412c1.395,0,2.416,0.176,2.416-1.412v-2.9h3.198c1.149,0,1.114-1.014,1.114-2.495
				C40.953,29.915,40.988,28.524,39.839,28.524z"/>
		</g>
	</g>
</svg>
