<?xml version="1.0" encoding="utf-8"?>
<!-- Generator: Adobe Illustrator 10.0, SVG Export Plug-In . SVG Version: 3.0.0 Build 76)  -->
<!DOCTYPE svg PUBLIC "-//W3C//DTD SVG 1.0//EN"    "http://www.w3.org/TR/2001/REC-SVG-20010904/DTD/svg10.dtd" [
	<!ENTITY ns_flows "http://ns.adobe.com/Flows/1.0/">
	<!ENTITY ns_extend "http://ns.adobe.com/Extensibility/1.0/">
	<!ENTITY ns_ai "http://ns.adobe.com/AdobeIllustrator/10.0/">
	<!ENTITY ns_graphs "http://ns.adobe.com/Graphs/1.0/">
	<!ENTITY ns_vars "http://ns.adobe.com/Variables/1.0/">
	<!ENTITY ns_imrep "http://ns.adobe.com/ImageReplacement/1.0/">
	<!ENTITY ns_sfw "http://ns.adobe.com/SaveForWeb/1.0/">
	<!ENTITY ns_custom "http://ns.adobe.com/GenericCustomNamespace/1.0/">
	<!ENTITY ns_adobe_xpath "http://ns.adobe.com/XPath/1.0/">
	<!ENTITY ns_svg "http://www.w3.org/2000/svg">
	<!ENTITY ns_xlink "http://www.w3.org/1999/xlink">
]>
<svg 
	 xmlns:x="&ns_extend;" xmlns:i="&ns_ai;" xmlns:graph="&ns_graphs;" i:viewOrigin="1.4961 41.6387" i:rulerOrigin="0 0" i:pageBounds="0 48 48 0"
	 xmlns="&ns_svg;" xmlns:xlink="&ns_xlink;" xmlns:a="http://ns.adobe.com/AdobeSVGViewerExtensions/3.0/"
	 width="43.365" height="35.05" viewBox="0 0 43.365 35.05" overflow="visible" enable-background="new 0 0 43.365 35.05"
	 xml:space="preserve">
	<metadata>
		<variableSets  xmlns="http://ns.adobe.com/Variables/1.0/">
			<variableSet  varSetName="binding1" locked="none">
				<variables></variables>
				<v:sampleDataSets  xmlns="http://ns.adobe.com/GenericCustomNamespace/1.0/" xmlns:v="http://ns.adobe.com/Variables/1.0/">
					</v:sampleDataSets>
			</variableSet>
		</variableSets>
		<sfw  xmlns="&ns_sfw;">
			<slices></slices>
			<sliceSourceBounds  x="1.496" y="6.589" width="43.365" height="35.05" bottomLeftOrigin="true"></sliceSourceBounds>
		</sfw>
	</metadata>
	<g id="Layer_1" i:layer="yes" i:dimmedPercent="50" i:rgbTrio="#4F008000FFFF">
		<g i:knockout="Off">
			<g i:knockout="Off">
				<g i:knockout="Off">
					<path i:knockout="Off" fill="#484F01" d="M42.615,9.374l-12.09-7.5l-0.153,14.743L42.615,9.374z"/>
				</g>
				<g i:knockout="Off">
					<path i:knockout="Off" fill="#5383A0" stroke="#5383A0" stroke-linejoin="round" d="M42.615,9.374l-12.09-7.5l-0.153,14.743
						L42.615,9.374z"/>
				</g>
				<g i:knockout="Off">
					<path i:knockout="Off" fill="#7F3A01" stroke="#7F3A01" stroke-width="1.5" stroke-linejoin="round" d="M42.615,9.374
						l-12.09-7.5l-0.153,14.743L42.615,9.374z"/>
				</g>
			</g>
			<path i:knockout="Off" fill="#7F3A01" stroke="#7F3A01" d="M29.849,9.259c-0.014,1.229,0.159,2.225-1.759,2.204L3.762,11.208
				c-1.917-0.02-1.727-1.011-1.714-2.241c0.012-1.228-0.157-2.229,1.76-2.21l24.328,0.255C30.055,7.032,29.861,8.028,29.849,9.259z"
				/>
			<path i:knockout="Off" fill="#E76F00" stroke="#E76F00" stroke-linejoin="round" d="M29.671,9.221l-0.062,6.022l12.24-7.245
				L29.763,0.5l-0.064,6.025c-0.134-0.532-0.525-0.885-1.65-0.897L3.722,5.374c-1.918-0.021-1.747,0.98-1.759,2.208
				C1.95,8.814,1.757,9.807,3.674,9.827l24.328,0.255C29.127,10.092,29.526,9.752,29.671,9.221z"/>
		</g>
		<g i:knockout="Off">
			<g i:knockout="Off">
				<path i:knockout="Off" fill="#484F01" d="M0.853,26.802L12.941,34.3l0.154-14.742L0.853,26.802z"/>
			</g>
			<g i:knockout="Off">
				<path i:knockout="Off" fill="#5383A0" stroke="#5383A0" stroke-linejoin="round" d="M0.853,26.802L12.941,34.3l0.154-14.742
					L0.853,26.802z"/>
			</g>
			<g i:knockout="Off">
				<path i:knockout="Off" fill="#7F3A01" stroke="#7F3A01" stroke-width="1.5" stroke-linejoin="round" d="M0.853,26.802
					L12.941,34.3l0.154-14.742L0.853,26.802z"/>
			</g>
		</g>
		<path i:knockout="Off" fill="#7F3A01" stroke="#7F3A01" d="M13.618,26.915c0.014-1.231-0.158-2.225,1.763-2.204l24.326,0.255
			c1.921,0.021,1.729,1.008,1.718,2.238c-0.015,1.232,0.155,2.233-1.764,2.212l-24.329-0.254
			C13.414,29.142,13.605,28.146,13.618,26.915z"/>
		<path i:knockout="Off" fill="#E76F00" stroke="#E76F00" stroke-linejoin="round" d="M12.679,24.13l0.062-6.025L0.5,25.347
			l12.088,7.499l0.063-6.024c0.135,0.529,0.528,0.885,1.651,0.896l24.327,0.255c1.917,0.019,1.747-0.98,1.76-2.209
			c0.013-1.231,0.203-2.227-1.714-2.248l-24.326-0.253C13.225,23.252,12.825,23.596,12.679,24.13z"/>
	</g>
</svg>
