<?xml version="1.0" encoding="utf-8"?>
<!-- Generator: Adobe Illustrator 10.0, SVG Export Plug-In . SVG Version: 3.0.0 Build 76)  -->
<!DOCTYPE svg PUBLIC "-//W3C//DTD SVG 1.0//EN"    "http://www.w3.org/TR/2001/REC-SVG-20010904/DTD/svg10.dtd" [
	<!ENTITY ns_flows "http://ns.adobe.com/Flows/1.0/">
	<!ENTITY ns_extend "http://ns.adobe.com/Extensibility/1.0/">
	<!ENTITY ns_ai "http://ns.adobe.com/AdobeIllustrator/10.0/">
	<!ENTITY ns_graphs "http://ns.adobe.com/Graphs/1.0/">
	<!ENTITY ns_vars "http://ns.adobe.com/Variables/1.0/">
	<!ENTITY ns_imrep "http://ns.adobe.com/ImageReplacement/1.0/">
	<!ENTITY ns_sfw "http://ns.adobe.com/SaveForWeb/1.0/">
	<!ENTITY ns_custom "http://ns.adobe.com/GenericCustomNamespace/1.0/">
	<!ENTITY ns_adobe_xpath "http://ns.adobe.com/XPath/1.0/">
	<!ENTITY ns_svg "http://www.w3.org/2000/svg">
	<!ENTITY ns_xlink "http://www.w3.org/1999/xlink">
]>
<svg 
	 xmlns:x="&ns_extend;" xmlns:i="&ns_ai;" xmlns:graph="&ns_graphs;" i:viewOrigin="2.0913 42.8169" i:rulerOrigin="0 0" i:pageBounds="0 48 48 0"
	 xmlns="&ns_svg;" xmlns:xlink="&ns_xlink;" xmlns:a="http://ns.adobe.com/AdobeSVGViewerExtensions/3.0/"
	 width="44.587" height="39.984" viewBox="0 0 44.587 39.984" overflow="visible" enable-background="new 0 0 44.587 39.984"
	 xml:space="preserve">
	<metadata>
		<variableSets  xmlns="http://ns.adobe.com/Variables/1.0/">
			<variableSet  varSetName="binding1" locked="none">
				<variables></variables>
				<v:sampleDataSets  xmlns="http://ns.adobe.com/GenericCustomNamespace/1.0/" xmlns:v="http://ns.adobe.com/Variables/1.0/">
					</v:sampleDataSets>
			</variableSet>
		</variableSets>
		<sfw  xmlns="&ns_sfw;">
			<slices></slices>
			<sliceSourceBounds  x="2.091" y="2.833" width="44.587" height="39.984" bottomLeftOrigin="true"></sliceSourceBounds>
		</sfw>
	</metadata>
	<g id="Layer_1" i:layer="yes" i:dimmedPercent="50" i:rgbTrio="#4F008000FFFF">
		<path i:knockout="Off" fill="#223742" d="M7.762,1.425c-4.443,0-6.177-0.019-6.177,7.689v24.809c0,4.362,1.733,6.061,6.177,6.061
			h29.877c4.677,0,6.948-1.98,6.948-6.061V9.115c0-7.572-2.271-7.689-6.948-7.689H7.762z M3.168,33.923V7.856
			c0,0,0.663,0.086,4.594,0.086h29.877c3.813,0,5.367,0.05,5.367,0.05v25.931c0,3.146-1.554,4.434-5.367,4.434H7.762
			C3.831,38.357,3.168,36.988,3.168,33.923z"/>
		<path i:knockout="Off" fill="#223742" d="M36.059,38.56l4.242,0.049l3.264-2.751l-0.297-5.803l-1.979,5.803L36.059,38.56z"/>
		<path i:knockout="Off" fill="#5383A0" d="M6.178,0C1.733,0,0-0.019,0,7.688v24.808c0,4.363,1.733,6.063,6.178,6.063h29.881
			c4.673,0,6.947-1.983,6.947-6.063V7.689c0-7.572-2.274-7.688-6.947-7.688L6.178,0z M1.585,32.498V6.43
			c0,0,0.663,0.087,4.595,0.087h29.879c3.811,0,5.363,0.049,5.363,0.049V32.5c0,3.146-1.553,4.432-5.363,4.432H6.178
			C2.248,36.93,1.585,35.563,1.585,32.498z"/>
		<path i:knockout="Off" fill="none" stroke="#484F01" d="M14.04,16.881c0.072-0.22,0.033-0.396-0.125-0.553l-4.002-4.002
			c-0.061-0.061-0.126-0.099-0.195-0.125l1.387-1.386c0.158-0.158,0.26-0.348,0.267-0.496s-0.082-0.233-0.234-0.22l-4.995-0.27
			C5.997,9.84,5.813,9.941,5.66,10.094c-0.153,0.154-0.254,0.336-0.267,0.483l0.27,4.995c-0.012,0.151,0.071,0.24,0.22,0.233
			c0.148-0.006,0.338-0.109,0.497-0.268l1.396-1.396C7.802,14.21,7.84,14.275,7.9,14.336l4.004,4.003
			c0.158,0.158,0.332,0.197,0.553,0.125c0.299-0.098,0.564-0.367,0.799-0.604l0.182-0.181C13.675,17.444,13.943,17.181,14.04,16.881
			z"/>
		<path i:knockout="Off" fill="none" stroke="#97B101" d="M13.973,16.606c0.068-0.217,0.025-0.392-0.134-0.551l-4.056-4.056
			c-0.052-0.052-0.121-0.044-0.18-0.07c0.542-0.542,1.376-1.376,1.376-1.376c0.103-0.103,0.167-0.227,0.17-0.325
			c0.003-0.098-0.057-0.155-0.157-0.149l-4.96-0.357C5.935,9.729,5.814,9.793,5.715,9.893c-0.1,0.099-0.164,0.219-0.17,0.316
			L5.9,15.171c-0.007,0.101,0.051,0.161,0.149,0.159c0.099-0.003,0.223-0.068,0.325-0.171c0,0,0.836-0.836,1.376-1.377
			c0.027,0.059,0.019,0.127,0.071,0.179l4.055,4.055c0.16,0.159,0.334,0.201,0.552,0.134c0.296-0.091,0.555-0.354,0.783-0.586
			l0.176-0.175C13.619,17.161,13.881,16.903,13.973,16.606z"/>
		<path i:knockout="Off" fill="none" stroke="#484F01" d="M31.981,18.642c0.22,0.072,0.396,0.033,0.553-0.125l4.003-4.002
			c0.062-0.061,0.099-0.127,0.125-0.195l1.386,1.387c0.158,0.158,0.348,0.26,0.496,0.268c0.148,0.006,0.232-0.082,0.221-0.234
			l0.27-4.994c-0.012-0.146-0.112-0.33-0.266-0.483c-0.154-0.153-0.336-0.255-0.483-0.267l-4.995,0.27
			c-0.151-0.012-0.24,0.072-0.233,0.221s0.108,0.338,0.268,0.496l1.396,1.396c-0.068,0.025-0.134,0.064-0.194,0.125l-4.003,4.004
			c-0.157,0.157-0.196,0.332-0.125,0.553c0.098,0.299,0.366,0.564,0.604,0.799l0.182,0.182
			C31.418,18.277,31.682,18.546,31.981,18.642z"/>
		<path i:knockout="Off" fill="none" stroke="#97B101" d="M32.256,18.576c0.217,0.068,0.393,0.024,0.551-0.135l4.057-4.055
			c0.051-0.053,0.043-0.121,0.069-0.18c0.542,0.541,1.376,1.375,1.376,1.375c0.104,0.104,0.227,0.168,0.325,0.17
			c0.099,0.004,0.155-0.057,0.149-0.156l0.356-4.961c-0.007-0.098-0.071-0.217-0.171-0.316s-0.219-0.164-0.316-0.17l-4.961,0.354
			c-0.102-0.007-0.161,0.051-0.159,0.149c0.003,0.098,0.068,0.223,0.171,0.324c0,0,0.836,0.836,1.377,1.377
			c-0.059,0.027-0.127,0.019-0.18,0.07l-4.055,4.056c-0.159,0.159-0.201,0.335-0.135,0.552c0.092,0.297,0.355,0.555,0.586,0.783
			l0.176,0.176C31.702,18.222,31.959,18.484,32.256,18.576z"/>
		<path i:knockout="Off" fill="none" stroke="#484F01" d="M12.996,25.598c-0.22-0.072-0.396-0.033-0.553,0.125L8.44,29.725
			c-0.062,0.061-0.099,0.127-0.125,0.195l-1.386-1.387c-0.158-0.158-0.348-0.26-0.496-0.268C6.285,28.26,6.201,28.348,6.212,28.5
			l-0.27,4.994c0.012,0.146,0.112,0.33,0.266,0.483c0.154,0.153,0.336,0.255,0.483,0.267l4.995-0.27
			c0.151,0.012,0.24-0.072,0.233-0.221s-0.108-0.338-0.268-0.496l-1.396-1.396c0.068-0.025,0.134-0.064,0.194-0.125l4.003-4.004
			c0.157-0.157,0.196-0.332,0.125-0.553c-0.098-0.299-0.366-0.564-0.604-0.799L13.792,26.2
			C13.558,25.963,13.294,25.694,12.996,25.598z"/>
		<path i:knockout="Off" fill="none" stroke="#97B101" d="M12.72,25.665c-0.217-0.068-0.393-0.024-0.551,0.135l-4.057,4.055
			c-0.051,0.053-0.043,0.121-0.069,0.18c-0.542-0.541-1.376-1.375-1.376-1.375c-0.104-0.104-0.227-0.168-0.325-0.17
			c-0.099-0.004-0.155,0.057-0.149,0.156l-0.356,4.961c0.007,0.098,0.071,0.217,0.171,0.316s0.219,0.164,0.316,0.17l4.961-0.354
			c0.102,0.007,0.161-0.051,0.159-0.149c-0.003-0.098-0.068-0.223-0.171-0.324c0,0-0.836-0.836-1.377-1.377
			c0.059-0.027,0.127-0.019,0.18-0.07l4.055-4.056c0.159-0.159,0.201-0.335,0.135-0.552c-0.092-0.297-0.355-0.555-0.586-0.783
			l-0.176-0.176C13.275,26.018,13.017,25.756,12.72,25.665z"/>
		<path i:knockout="Off" fill="none" stroke="#484F01" d="M29.82,27.268c-0.072,0.22-0.033,0.396,0.125,0.553l4.002,4.003
			c0.061,0.062,0.127,0.099,0.195,0.125l-1.387,1.386c-0.158,0.158-0.26,0.348-0.268,0.496c-0.006,0.148,0.082,0.232,0.234,0.221
			l4.994,0.27c0.146-0.012,0.33-0.112,0.483-0.266c0.153-0.154,0.255-0.336,0.267-0.483l-0.27-4.995
			c0.012-0.151-0.072-0.24-0.221-0.233s-0.338,0.108-0.496,0.268l-1.396,1.396c-0.025-0.068-0.064-0.134-0.125-0.194l-4.004-4.003
			c-0.157-0.157-0.332-0.196-0.553-0.125c-0.299,0.098-0.564,0.366-0.799,0.604l-0.182,0.182
			C30.185,26.706,29.916,26.969,29.82,27.268z"/>
		<path i:knockout="Off" fill="none" stroke="#97B101" d="M29.886,27.543c-0.068,0.217-0.024,0.393,0.135,0.551l4.055,4.057
			c0.053,0.051,0.121,0.043,0.18,0.069c-0.541,0.542-1.375,1.376-1.375,1.376c-0.104,0.104-0.168,0.227-0.17,0.325
			c-0.004,0.099,0.057,0.155,0.156,0.149l4.961,0.356c0.098-0.007,0.217-0.071,0.316-0.171s0.164-0.219,0.17-0.316l-0.354-4.961
			c0.007-0.102-0.051-0.161-0.149-0.159c-0.098,0.003-0.223,0.068-0.324,0.171c0,0-0.836,0.836-1.377,1.377
			c-0.027-0.059-0.019-0.127-0.07-0.18l-4.056-4.055c-0.159-0.159-0.335-0.201-0.552-0.135c-0.297,0.092-0.555,0.355-0.783,0.586
			l-0.176,0.176C30.24,26.989,29.978,27.247,29.886,27.543z"/>
	</g>
</svg>
