<?xml version="1.0" encoding="utf-8"?>
<!-- Generator: Adobe Illustrator 10.0, SVG Export Plug-In . SVG Version: 3.0.0 Build 76)  -->
<!DOCTYPE svg PUBLIC "-//W3C//DTD SVG 1.0//EN"    "http://www.w3.org/TR/2001/REC-SVG-20010904/DTD/svg10.dtd" [
	<!ENTITY ns_flows "http://ns.adobe.com/Flows/1.0/">
	<!ENTITY ns_extend "http://ns.adobe.com/Extensibility/1.0/">
	<!ENTITY ns_ai "http://ns.adobe.com/AdobeIllustrator/10.0/">
	<!ENTITY ns_graphs "http://ns.adobe.com/Graphs/1.0/">
	<!ENTITY ns_vars "http://ns.adobe.com/Variables/1.0/">
	<!ENTITY ns_imrep "http://ns.adobe.com/ImageReplacement/1.0/">
	<!ENTITY ns_sfw "http://ns.adobe.com/SaveForWeb/1.0/">
	<!ENTITY ns_custom "http://ns.adobe.com/GenericCustomNamespace/1.0/">
	<!ENTITY ns_adobe_xpath "http://ns.adobe.com/XPath/1.0/">
	<!ENTITY ns_svg "http://www.w3.org/2000/svg">
	<!ENTITY ns_xlink "http://www.w3.org/1999/xlink">
]>
<svg 
	 xmlns:x="&ns_extend;" xmlns:i="&ns_ai;" xmlns:graph="&ns_graphs;" i:viewOrigin="-26.8525 44.79" i:rulerOrigin="0 0" i:pageBounds="0 48 48 0"
	 xmlns="&ns_svg;" xmlns:xlink="&ns_xlink;" xmlns:a="http://ns.adobe.com/AdobeSVGViewerExtensions/3.0/"
	 width="24" height="26.08" viewBox="0 0 24 26.08" overflow="visible" enable-background="new 0 0 24 26.08" xml:space="preserve">
	<metadata>
		<variableSets  xmlns="http://ns.adobe.com/Variables/1.0/">
			<variableSet  varSetName="binding1" locked="none">
				<variables></variables>
				<v:sampleDataSets  xmlns="http://ns.adobe.com/GenericCustomNamespace/1.0/" xmlns:v="http://ns.adobe.com/Variables/1.0/">
					</v:sampleDataSets>
			</variableSet>
		</variableSets>
		<sfw  xmlns="&ns_sfw;">
			<slices></slices>
			<sliceSourceBounds  x="-26.853" y="18.71" width="24" height="26.08" bottomLeftOrigin="true"></sliceSourceBounds>
		</sfw>
	</metadata>
	<g id="Layer_2" i:layer="yes" i:dimmedPercent="50" i:rgbTrio="#FFFF4F004F00">
		<path i:knockout="Off" fill="#7F3A01" d="M10,26.08c-5.523,0-10-4.477-10-10V1.393c0-5.523,4.477,6,10,6h4c5.523,0,10-11.523,10-6
			V16.08c0,5.523-4.477,10-10,10H10z"/>
		<path i:knockout="Off" fill="#FFFFFF" stroke="#000000" d="M10.228,7.415l-0.063,4.063"/>
		<path i:knockout="Off" fill="#FFFFFF" stroke="#000000" d="M13.353,7.415v4.125"/>
		<path i:knockout="Off" fill="#FFFFFF" stroke="#000000" d="M6.165,16.509c0,0.535-0.434,0.969-0.969,0.969
			s-0.969-0.434-0.969-0.969s0.434-0.969,0.969-0.969S6.165,15.974,6.165,16.509z"/>
		<path i:knockout="Off" fill="#FFFFFF" stroke="#000000" d="M18.665,16.821c0,0.569-0.462,1.031-1.031,1.031
			s-1.031-0.462-1.031-1.031s0.462-1.031,1.031-1.031S18.665,16.252,18.665,16.821z"/>
		<path i:knockout="Off" fill="none" stroke="#000000" stroke-width="0.75" d="M8.79,20.415c0,0,0.063,1,1.125,1
			s1.375-1.25,1.375-1.25s-0.188,1.375,1.25,1.375s1.438-1.188,1.438-1.188"/>
		<path i:knockout="Off" fill="#C65705" d="M1.04,3.79l0.813,5.188l2.625-1.125L1.04,3.79z"/>
		<path i:knockout="Off" fill="#C65705" d="M21.353,5.415l-2.688,3.188l2.688,1.125V5.415z"/>
	</g>
</svg>
