<?xml version="1.0" encoding="utf-8"?>
<!-- Generator: Adobe Illustrator 10.0, SVG Export Plug-In . SVG Version: 3.0.0 Build 76)  -->
<!DOCTYPE svg PUBLIC "-//W3C//DTD SVG 1.0//EN"    "http://www.w3.org/TR/2001/REC-SVG-20010904/DTD/svg10.dtd" [
	<!ENTITY ns_flows "http://ns.adobe.com/Flows/1.0/">
	<!ENTITY ns_extend "http://ns.adobe.com/Extensibility/1.0/">
	<!ENTITY ns_ai "http://ns.adobe.com/AdobeIllustrator/10.0/">
	<!ENTITY ns_graphs "http://ns.adobe.com/Graphs/1.0/">
	<!ENTITY ns_vars "http://ns.adobe.com/Variables/1.0/">
	<!ENTITY ns_imrep "http://ns.adobe.com/ImageReplacement/1.0/">
	<!ENTITY ns_sfw "http://ns.adobe.com/SaveForWeb/1.0/">
	<!ENTITY ns_custom "http://ns.adobe.com/GenericCustomNamespace/1.0/">
	<!ENTITY ns_adobe_xpath "http://ns.adobe.com/XPath/1.0/">
	<!ENTITY ns_svg "http://www.w3.org/2000/svg">
	<!ENTITY ns_xlink "http://www.w3.org/1999/xlink">
]>
<svg 
	 xmlns:x="&ns_extend;" xmlns:i="&ns_ai;" xmlns:graph="&ns_graphs;" i:viewOrigin="7.834 43.5459" i:rulerOrigin="0 0" i:pageBounds="0 48 48 0"
	 xmlns="&ns_svg;" xmlns:xlink="&ns_xlink;" xmlns:a="http://ns.adobe.com/AdobeSVGViewerExtensions/3.0/"
	 width="35.749" height="39.563" viewBox="0 0 35.749 39.563" overflow="visible" enable-background="new 0 0 35.749 39.563"
	 xml:space="preserve">
	<metadata>
		<variableSets  xmlns="http://ns.adobe.com/Variables/1.0/">
			<variableSet  varSetName="binding1" locked="none">
				<variables></variables>
				<v:sampleDataSets  xmlns="http://ns.adobe.com/GenericCustomNamespace/1.0/" xmlns:v="http://ns.adobe.com/Variables/1.0/">
					</v:sampleDataSets>
			</variableSet>
		</variableSets>
		<sfw  xmlns="&ns_sfw;">
			<slices></slices>
			<sliceSourceBounds  x="7.834" y="3.983" width="35.749" height="39.563" bottomLeftOrigin="true"></sliceSourceBounds>
		</sfw>
	</metadata>
	<g id="Layer_1" i:layer="yes" i:dimmedPercent="50" i:rgbTrio="#4F008000FFFF">
		<path i:knockout="Off" fill="#51839F" d="M31.499,25.63l-9.75,6V20.88l9.75-6V25.63z"/>
		<path i:knockout="Off" fill="#51839F" d="M4.749,26.295l9.084,5.252v-10.75l-9.084-5.251V26.295z"/>
		<g>
			<path i:knockout="Off" fill="#203842" d="M1,8.03C0.845,8.12,0.75,8.285,0.75,8.464v20.748c0,0.176,0.092,0.339,0.243,0.429
				l16.583,9.916c0.154,0.093,0.347,0.095,0.504,0.006c0.156-0.089,0.253-0.255,0.253-0.435V18.13c0-0.178-0.095-0.342-0.248-0.432
				L1.501,8.032C1.347,7.942,1.155,7.941,1,8.03z M1.75,9.334c1.349,0.786,15.123,8.815,15.583,9.083c0,0.535,0,18.234,0,19.829
				C15.975,37.435,2.2,29.198,1.75,28.929C1.75,28.4,1.75,10.909,1.75,9.334z"/>
			<path i:knockout="Off" fill="#203842" d="M34.992,7.367l-17.25,10.333c-0.151,0.09-0.243,0.253-0.243,0.429v21
				c0,0.179,0.096,0.344,0.25,0.434c0.155,0.089,0.346,0.089,0.501-0.001l17.249-10c0.154-0.09,0.249-0.254,0.249-0.433
				l0.001-21.333c0-0.18-0.097-0.346-0.254-0.435C35.339,7.272,35.146,7.274,34.992,7.367z M34.749,8.678
				c0,1.599-0.001,19.625-0.001,20.163c-0.463,0.269-14.896,8.636-16.249,9.42c0-1.572,0-19.32,0-19.848
				C18.95,18.142,33.386,9.495,34.749,8.678z"/>
			<path i:knockout="Off" fill="#203842" d="M17.644,0.599L0.478,7.582C0.301,7.654,0.18,7.821,0.167,8.011
				C0.154,8.202,0.25,8.383,0.416,8.479l17.166,9.904c0.155,0.09,0.347,0.089,0.502-0.001L35.501,8.228
				c0.166-0.097,0.262-0.28,0.246-0.472c-0.015-0.192-0.139-0.357-0.317-0.427L18.013,0.595C17.894,0.549,17.762,0.55,17.644,0.599z
				 M17.837,1.6C18.179,1.731,32.39,7.227,34.1,7.887c-1.591,0.928-15.808,9.216-16.269,9.484C17.368,17.105,3.37,9.028,1.801,8.123
				C3.473,7.443,17.497,1.738,17.837,1.6z"/>
			<g>
				<path i:knockout="Off" fill="#51839F" d="M0.252,6.946C0.096,7.035,0,7.201,0,7.38v20.749c0,0.175,0.092,0.338,0.242,0.428
					l17,10.25c0.154,0.094,0.347,0.097,0.504,0.008S18,38.56,18,38.379V17.38c0-0.177-0.094-0.341-0.246-0.431l-17-10
					C0.599,6.858,0.407,6.857,0.252,6.946z M1,8.254c1.355,0.797,15.543,9.143,16,9.412c0,0.533,0,18.227,0,19.827
					c-1.363-0.821-15.551-9.376-16-9.646C1,27.32,1,9.835,1,8.254z"/>
				<path i:knockout="Off" fill="#51839F" d="M34.245,6.949l-17,10c-0.152,0.09-0.246,0.254-0.246,0.431v20.999
					c0,0.18,0.096,0.345,0.252,0.434c0.155,0.09,0.347,0.088,0.502-0.003l17-10c0.152-0.09,0.246-0.254,0.246-0.431V7.38
					c0-0.179-0.096-0.345-0.252-0.434C34.592,6.857,34.4,6.858,34.245,6.949z M33.999,8.254c0,1.583,0,19.306,0,19.839
					c-0.457,0.27-14.645,8.614-16,9.412c0-1.583,0-19.306,0-19.839C18.456,17.397,32.644,9.051,33.999,8.254z"/>
				<path i:knockout="Off" fill="#51839F" d="M17.311,0L0.312,6.917C0.135,6.989,0.014,7.155,0.001,7.346
					c-0.013,0.19,0.083,0.372,0.249,0.467l16.999,9.808c0.154,0.089,0.346,0.089,0.5,0l17-9.808
					c0.165-0.095,0.262-0.277,0.249-0.467c-0.014-0.19-0.134-0.357-0.311-0.429L17.688,0C17.566-0.049,17.432-0.049,17.311,0z
					 M17.499,1.003c0.348,0.141,14.195,5.775,15.864,6.454c-1.566,0.904-15.404,8.888-15.864,9.153
					C17.04,16.345,3.202,8.362,1.635,7.458C3.304,6.779,17.151,1.145,17.499,1.003z"/>
			</g>
			<path i:knockout="Off" fill="#51839F" d="M30.975,14.029l-9.75,6c-0.296,0.182-0.476,0.504-0.476,0.852v10.75
				c0,0.362,0.196,0.696,0.512,0.873c0.316,0.177,0.704,0.168,1.013-0.021l9.75-6c0.296-0.182,0.476-0.504,0.476-0.852V14.88
				c0-0.362-0.196-0.696-0.512-0.873C31.671,13.831,31.283,13.839,30.975,14.029z M30.499,16.67c0,2.332,0,7.573,0,8.401
				c-0.72,0.442-5.706,3.511-7.75,4.769c0-2.331,0-7.573,0-8.401C23.469,20.996,28.455,17.928,30.499,16.67z"/>
			<path i:knockout="Off" fill="#51839F" d="M4.249,14.68c-0.309,0.179-0.5,0.509-0.5,0.866v10.749c0,0.357,0.19,0.688,0.5,0.866
				l9.084,5.252c0.31,0.179,0.69,0.179,1,0s0.5-0.509,0.5-0.866v-10.75c0-0.357-0.19-0.687-0.5-0.866L5.25,14.68
				C4.94,14.501,4.559,14.501,4.249,14.68z M5.749,17.279c1.954,1.129,6.348,3.669,7.084,4.095c0,0.857,0,6.157,0,8.439
				c-1.954-1.13-6.348-3.67-7.084-4.096C5.749,24.86,5.749,19.562,5.749,17.279z"/>
			<path i:knockout="Off" fill="#51839F" d="M9.914,4.145l4,2.333c0.129,0.075,0.285,0.089,0.426,0.037c0,0,1.456-0.539,2.766-1.024
				c-1.375,1.673-3.826,4.655-3.826,4.655c-0.076,0.092-0.114,0.205-0.114,0.317c0,0.102,0.031,0.204,0.093,0.291
				c0.132,0.184,0.371,0.257,0.583,0.177c0,0,5.844-2.198,8.112-3.051c-0.8,1.042-1.685,2.195-1.685,2.195
				c-0.067,0.088-0.104,0.195-0.104,0.304c0,0.039,0.005,0.079,0.014,0.118c0.036,0.147,0.136,0.27,0.272,0.334l4.583,2.167
				l0.428-0.904c0,0-3.16-1.494-4.023-1.902C22.002,9.46,23.813,7.1,23.813,7.1c0.069-0.089,0.104-0.197,0.104-0.304
				c0-0.104-0.033-0.209-0.099-0.298c-0.133-0.179-0.368-0.249-0.577-0.17c0,0-5.647,2.123-8.002,3.009
				c1.38-1.679,3.814-4.641,3.814-4.641c0.075-0.092,0.113-0.205,0.113-0.317c0-0.102-0.03-0.203-0.093-0.29
				c-0.131-0.184-0.369-0.257-0.581-0.179c0,0-3.878,1.437-4.278,1.585c-0.368-0.214-3.796-2.214-3.796-2.214L9.914,4.145z"/>
		</g>
	</g>
</svg>
