<?xml version="1.0" encoding="utf-8"?>
<!-- Generator: Adobe Illustrator 10.0, SVG Export Plug-In . SVG Version: 3.0.0 Build 76)  -->
<!DOCTYPE svg PUBLIC "-//W3C//DTD SVG 1.0//EN"    "http://www.w3.org/TR/2001/REC-SVG-20010904/DTD/svg10.dtd" [
	<!ENTITY ns_flows "http://ns.adobe.com/Flows/1.0/">
	<!ENTITY ns_extend "http://ns.adobe.com/Extensibility/1.0/">
	<!ENTITY ns_ai "http://ns.adobe.com/AdobeIllustrator/10.0/">
	<!ENTITY ns_graphs "http://ns.adobe.com/Graphs/1.0/">
	<!ENTITY ns_vars "http://ns.adobe.com/Variables/1.0/">
	<!ENTITY ns_imrep "http://ns.adobe.com/ImageReplacement/1.0/">
	<!ENTITY ns_sfw "http://ns.adobe.com/SaveForWeb/1.0/">
	<!ENTITY ns_custom "http://ns.adobe.com/GenericCustomNamespace/1.0/">
	<!ENTITY ns_adobe_xpath "http://ns.adobe.com/XPath/1.0/">
	<!ENTITY ns_svg "http://www.w3.org/2000/svg">
	<!ENTITY ns_xlink "http://www.w3.org/1999/xlink">
]>
<svg 
	 xmlns:x="&ns_extend;" xmlns:i="&ns_ai;" xmlns:graph="&ns_graphs;" i:viewOrigin="6.4458 41.0176" i:rulerOrigin="0 0" i:pageBounds="0 48 48 0"
	 xmlns="&ns_svg;" xmlns:xlink="&ns_xlink;" xmlns:a="http://ns.adobe.com/AdobeSVGViewerExtensions/3.0/"
	 width="37.843" height="33.813" viewBox="0 0 37.843 33.813" overflow="visible" enable-background="new 0 0 37.843 33.813"
	 xml:space="preserve">
	<metadata>
		<variableSets  xmlns="http://ns.adobe.com/Variables/1.0/">
			<variableSet  varSetName="binding1" locked="none">
				<variables></variables>
				<v:sampleDataSets  xmlns="http://ns.adobe.com/GenericCustomNamespace/1.0/" xmlns:v="http://ns.adobe.com/Variables/1.0/">
					</v:sampleDataSets>
			</variableSet>
		</variableSets>
		<sfw  xmlns="&ns_sfw;">
			<slices></slices>
			<sliceSourceBounds  x="6.446" y="7.205" width="37.843" height="33.813" bottomLeftOrigin="true"></sliceSourceBounds>
		</sfw>
	</metadata>
	<g id="Layer_2" i:layer="yes" i:dimmedPercent="50" i:rgbTrio="#FFFF4F004F00">
		<g>
			<path i:knockout="Off" fill="#223742" d="M37.843,21.465l-0.008-2.946V12.12l0.008-2.291c0.02-4.519,0.031-6.582-1.012-7.71
				c-0.847-0.922-2.249-0.992-4.138-0.992H7.041c-5.574,0-5.903,1.242-5.903,10.993v6.398c0,12.457,0.275,13.069,5.903,13.069
				h25.653c2.052,0,3.289,0,4.111-0.894C37.872,29.538,37.865,27.34,37.843,21.465z M36.705,21.471
				c0.018,5.034,0.027,7.561-0.707,8.357c-0.466,0.507-1.401,0.531-3.304,0.531H7.041c-4.766,0-4.766,0-4.766-11.841V12.12
				c0-9.764,0.36-9.764,4.766-9.764h25.653c1.824,0,2.843,0.097,3.333,0.63c0.707,0.767,0.695,2.923,0.678,6.838l-0.006,2.296v6.398
				L36.705,21.471z"/>
			<path i:knockout="Off" fill="#223742" d="M34.574,16.985v-1.461l0.008-1.361c0.031-3.296,0.059-6.145-1.674-7.895
				c-1.09-1.099-2.773-1.634-5.146-1.634H11.424c-2.374,0-4.057,0.535-5.146,1.634c-1.733,1.75-1.706,4.599-1.675,7.895l0.008,1.361
				v1.461l-0.008,1.358c-0.031,3.3-0.059,6.146,1.675,7.897c1.09,1.099,2.772,1.634,5.146,1.634h16.337
				c2.373,0,4.056-0.535,5.146-1.634c1.733-1.752,1.706-4.598,1.675-7.897L34.574,16.985z M33.445,18.355
				c0.028,3.043,0.053,5.671-1.347,7.084c-0.864,0.873-2.283,1.298-4.337,1.298h-9.884c-0.045-0.583-0.1-1.161-0.18-1.716
				c-0.188-1.298-0.45-2.498-0.715-3.53c-0.368-1.43-0.735-2.514-0.913-3.011c-0.067-0.183-0.111-0.301-0.115-0.308
				c-0.007-0.021-0.273-0.708-0.589-1.848c0,0-0.384-1.459-0.385-1.593c-0.145-0.666-0.286-1.387-0.4-2.19
				c-0.134-0.955-0.226-2.001-0.258-3.094c-0.034-1.175,0.016-2.408,0.174-3.675h13.267c2.055,0,3.473,0.424,4.338,1.298
				c1.398,1.414,1.374,4.04,1.346,7.082l-0.009,1.372v1.461L33.445,18.355z"/>
		</g>
		<path i:knockout="Off" fill="#223742" d="M27.364,31.139H11.312c-0.003,0-0.006,0-0.009,0c2.13,1.651,5.032,2.674,8.235,2.674
			c3.219,0,6.135-1.03,8.269-2.697C27.66,31.124,27.513,31.139,27.364,31.139z"/>
		<path i:knockout="Off" fill="#5383A0" d="M26.416,30.011H10.364c-0.003,0-0.006,0-0.009,0c2.13,1.652,5.032,2.674,8.235,2.674
			c3.22,0,6.135-1.029,8.269-2.698C26.712,29.996,26.566,30.011,26.416,30.011z"/>
		<path i:knockout="Off" fill="#223742" d="M33.533,30.534l1.801-1.535l1.422-4.098l-0.094,4.711l-1.233,1.125L33.533,30.534z"/>
		<path i:knockout="Off" fill="#223742" d="M27.084,26.849l3.982-2.049l2.378-6.444l0.656,4.294l-1.138,2.56l-3.319,1.946
			L27.084,26.849z"/>
		<path i:knockout="Off" fill="#223742" d="M1.863,1.558L0.725,4.527l0.379,3.891l1.517-5.222l3.282-1.967L1.958,1.25"/>
		<g>
			<path i:knockout="Off" fill="#5383A0" d="M36.706,20.338l-0.007-2.945v-6.399l0.007-2.291c0.021-4.519,0.031-6.583-1.011-7.71
				C34.847,0.071,33.445,0,31.556,0H5.903C0.329,0,0,1.242,0,10.993v6.399c0,12.456,0.275,13.066,5.903,13.066h25.653
				c2.051,0,3.289,0,4.111-0.891C36.734,28.411,36.728,26.214,36.706,20.338z M35.568,20.342c0.018,5.036,0.026,7.563-0.707,8.358
				c-0.467,0.508-1.402,0.53-3.305,0.53H5.903c-4.766,0-4.766,0-4.766-11.838v-6.399c0-9.765,0.36-9.765,4.766-9.765h25.653
				c1.824,0,2.843,0.098,3.334,0.63c0.707,0.767,0.695,2.923,0.678,6.838l-0.007,2.296v6.399L35.568,20.342z"/>
			<path i:knockout="Off" fill="#5383A0" d="M33.437,15.858v-1.462l0.008-1.36c0.031-3.296,0.059-6.145-1.675-7.895
				c-1.09-1.099-2.772-1.634-5.146-1.634H10.287c-2.374,0-4.057,0.535-5.146,1.634c-1.733,1.75-1.706,4.599-1.675,7.895l0.008,1.36
				v1.462l-0.008,1.358c-0.031,3.298-0.059,6.146,1.675,7.896c1.09,1.102,2.772,1.636,5.146,1.636h16.336
				c2.374,0,4.056-0.534,5.146-1.636c1.734-1.75,1.707-4.598,1.676-7.896L33.437,15.858z M32.307,17.228
				c0.028,3.042,0.054,5.671-1.347,7.083c-0.863,0.875-2.283,1.298-4.337,1.298H16.74c-0.045-0.581-0.1-1.16-0.18-1.716
				c-0.188-1.298-0.45-2.498-0.715-3.528c-0.368-1.431-0.735-2.516-0.913-3.011c-0.067-0.185-0.111-0.302-0.115-0.309
				c-0.007-0.022-0.273-0.707-0.589-1.845c0,0-0.384-1.461-0.385-1.596c-0.145-0.666-0.285-1.386-0.399-2.19
				c-0.134-0.956-0.226-2.001-0.258-3.094C13.15,7.145,13.2,5.911,13.357,4.644h13.266c2.055,0,3.474,0.425,4.338,1.298
				c1.399,1.414,1.374,4.041,1.346,7.083l-0.009,1.37v1.462L32.307,17.228z"/>
		</g>
		<path i:knockout="Off" fill="#685012" d="M6.31,7.347L6.294,7.479l0.179-0.155L6.373,7.311L6.31,7.347z"/>
		<g i:knockout="Off">
			<g i:knockout="Off">
				<path i:knockout="Off" fill="#685012" d="M8.858,7.813C8.77,7.693,8.612,7.685,8.404,7.685h-0.81
					C7.554,7.679,7.523,7.667,7.497,7.65C7.442,7.613,7.415,7.556,7.389,7.498C7.368,7.452,7.346,7.418,7.326,7.394
					c-0.06-0.071-0.112-0.067-0.12-0.066H6.461c-0.083,0-0.137,0.076-0.14,0.146c0,0.021-0.001,0.293-0.002,0.631H6.047
					c-0.083,0-0.15,0.079-0.15,0.176c0,0.02,0.003,0.038,0.008,0.055H5.903l0.442,1.358l0.001-0.001
					C6.364,9.755,6.409,9.8,6.464,9.812c0.008,0.001,0.016,0.002,0.024,0.002h0.191H6.75l1.661-0.001l0.075,0.001
					c0.048,0,0.092,0,0.132-0.001h0.115c0.003,0,0.005,0.001,0.007,0.001c0.034,0,0.064-0.013,0.089-0.035
					C8.85,9.76,8.868,9.735,8.878,9.707C8.896,9.679,8.91,9.646,8.92,9.604C8.932,9.552,8.938,9.49,8.938,9.412V8.159
					C8.938,7.991,8.91,7.883,8.858,7.813z M8.816,9.667C8.815,9.668,8.813,9.671,8.813,9.672c-0.04,0.045-0.105,0.057-0.199,0.061
					H8.415H6.867v0.002H6.483V9.733C6.45,9.73,6.422,9.704,6.412,9.668L6.41,9.669L6.379,9.573l-0.062-0.19L6.313,9.37L6.048,8.556
					L6.046,8.558L6.019,8.465L6.015,8.453L5.976,8.327c-0.006-0.014-0.01-0.029-0.01-0.046c0-0.054,0.037-0.097,0.081-0.097
					c0.004,0,0.008,0.003,0.012,0.004h0.113c0-0.001,0-0.003,0-0.003l2-0.001l0,0.001h0.121c0.002,0,0.003-0.001,0.006-0.001
					c0.038,0,0.068,0.032,0.077,0.073l0.056,0.175l0.273,0.832l0.023,0.07l0.043,0.13l0.043,0.134
					c0.004,0.012,0.007,0.024,0.007,0.039C8.821,9.648,8.819,9.657,8.816,9.667z M8.869,9.411c0,0.042-0.002,0.079-0.005,0.111
					L8.447,8.253C8.435,8.168,8.374,8.105,8.299,8.105H6.389c0-0.344,0.001-0.609,0.001-0.627c0-0.006,0.002-0.012,0.004-0.018
					c0.003-0.011,0.01-0.022,0.019-0.032c0.012-0.012,0.028-0.021,0.048-0.021H7.21c0.003,0,0.055,0,0.111,0.115
					C7.324,7.527,7.326,7.53,7.328,7.535c0.02,0.042,0.042,0.093,0.081,0.136c0.04,0.045,0.095,0.083,0.182,0.094h0.814
					c0.228,0,0.357,0.014,0.419,0.129c0.031,0.059,0.045,0.143,0.045,0.264L8.869,9.411z"/>
			</g>
		</g>
		<path i:knockout="Off" fill="#685012" d="M8.688,9.77l0.163-0.099l0.034-0.252L8.688,9.77z"/>
		<path i:knockout="Off" fill="#685012" d="M6.04,8.072L5.929,8.098L5.867,8.251L6.04,8.072z"/>
		<g i:knockout="Off">
			<g i:knockout="Off">
				<path i:knockout="Off" fill="#FFC726" d="M8.798,7.728C8.709,7.609,8.552,7.6,8.344,7.6h-0.81
					C7.493,7.595,7.462,7.582,7.437,7.565C7.382,7.528,7.354,7.47,7.329,7.413C7.308,7.367,7.286,7.334,7.265,7.309
					c-0.06-0.071-0.112-0.068-0.119-0.066H6.401c-0.083,0-0.137,0.075-0.14,0.146C6.26,7.409,6.26,7.684,6.259,8.02H5.987
					c-0.083,0-0.15,0.079-0.15,0.177c0,0.019,0.003,0.037,0.008,0.055H5.842l0.442,1.358l0.001-0.001
					c0.018,0.061,0.063,0.108,0.119,0.118c0.007,0.002,0.015,0.002,0.023,0.002h0.191h0.071H8.35h0.076c0.048,0,0.092,0.001,0.131,0
					l0.115-0.001C8.675,9.729,8.677,9.729,8.68,9.729c0.033,0,0.064-0.013,0.089-0.035C8.79,9.674,8.808,9.65,8.817,9.622
					C8.836,9.594,8.85,9.561,8.86,9.519c0.012-0.051,0.018-0.114,0.018-0.192V8.074C8.877,7.907,8.85,7.798,8.798,7.728z
					 M8.756,9.582C8.755,9.583,8.753,9.586,8.752,9.587c-0.04,0.046-0.105,0.057-0.199,0.061H8.354H6.807V9.65H6.423V9.648
					C6.39,9.646,6.362,9.62,6.351,9.583L6.35,9.584L6.318,9.487L6.257,9.299L6.253,9.285L5.988,8.472H5.986L5.958,8.38L5.955,8.369
					V8.368L5.917,8.242C5.91,8.228,5.905,8.213,5.905,8.196c0-0.053,0.037-0.096,0.082-0.096c0.004,0,0.008,0.001,0.012,0.002h0.113
					c0-0.001,0-0.002,0-0.002h2c0,0,0,0,0,0.001h0.121c0.002,0,0.003-0.001,0.005-0.001c0.038,0,0.069,0.031,0.078,0.073
					l0.056,0.174l0.272,0.832h0L8.668,9.25l0.043,0.129h0l0.043,0.134c0.005,0.012,0.007,0.025,0.007,0.038
					C8.761,9.563,8.759,9.573,8.756,9.582z M8.809,9.326c0,0.041-0.002,0.078-0.005,0.111l-0.417-1.27
					C8.375,8.083,8.313,8.02,8.239,8.02H6.328c0-0.344,0.001-0.609,0.002-0.627c0-0.006,0.002-0.012,0.004-0.018
					c0.003-0.011,0.01-0.022,0.019-0.031C6.364,7.331,6.38,7.323,6.401,7.323h0.75c0.003-0.001,0.055,0,0.11,0.114
					C7.263,7.441,7.265,7.445,7.268,7.45c0.02,0.043,0.042,0.094,0.081,0.137c0.04,0.044,0.096,0.081,0.182,0.092h0.813
					c0.229,0,0.358,0.016,0.419,0.131c0.032,0.059,0.045,0.142,0.045,0.264V9.326z"/>
			</g>
		</g>
		<g i:knockout="Off">
			<g i:knockout="Off">
				<path i:knockout="Off" fill="#FFC726" d="M8.798,12.233c-0.088-0.119-0.246-0.128-0.454-0.128h-0.81
					C7.493,12.1,7.462,12.086,7.437,12.07c-0.055-0.038-0.083-0.095-0.108-0.152c-0.021-0.046-0.042-0.08-0.063-0.104
					c-0.06-0.071-0.112-0.067-0.119-0.066H6.401c-0.083,0-0.137,0.076-0.14,0.146c-0.001,0.021-0.001,0.295-0.002,0.631H5.987
					c-0.083,0-0.15,0.079-0.15,0.176c0,0.02,0.003,0.038,0.008,0.056H5.842l0.442,1.358l0.001-0.001
					c0.018,0.061,0.063,0.107,0.119,0.117c0.007,0.002,0.015,0.002,0.023,0.002h0.191h0.071H8.35h0.076c0.048,0,0.092,0.001,0.131,0
					l0.115-0.001c0.002,0.001,0.004,0.001,0.007,0.001c0.033,0,0.064-0.013,0.089-0.035c0.021-0.019,0.039-0.043,0.048-0.072
					c0.019-0.027,0.033-0.061,0.042-0.104c0.012-0.051,0.018-0.114,0.018-0.192v-1.252C8.877,12.412,8.85,12.303,8.798,12.233z
					 M8.756,14.086c-0.001,0.002-0.002,0.004-0.004,0.005c-0.04,0.045-0.105,0.058-0.199,0.061H8.354H6.807v0.002H6.423v-0.002
					c-0.033-0.002-0.061-0.028-0.072-0.064L6.35,14.089l-0.031-0.097l-0.061-0.189l-0.004-0.015l-0.265-0.812H5.986l-0.028-0.093
					l-0.004-0.011v-0.001l-0.038-0.125c-0.006-0.015-0.011-0.029-0.011-0.046c0-0.053,0.037-0.096,0.082-0.096
					c0.004,0,0.008,0.001,0.012,0.002h0.113c0-0.001,0-0.002,0-0.002h2c0,0,0,0,0,0.001h0.121c0.002,0,0.003-0.001,0.005-0.001
					c0.038,0,0.069,0.031,0.078,0.073l0.056,0.174l0.272,0.831h0l0.023,0.071l0.043,0.129h0l0.043,0.135
					c0.005,0.012,0.007,0.025,0.007,0.038C8.761,14.067,8.759,14.077,8.756,14.086z M8.809,13.831c0,0.042-0.002,0.078-0.005,0.111
					l-0.417-1.27c-0.012-0.084-0.073-0.147-0.147-0.147H6.328c0-0.345,0.001-0.61,0.002-0.627c0-0.006,0.002-0.012,0.004-0.018
					c0.003-0.011,0.01-0.021,0.019-0.031c0.012-0.012,0.028-0.021,0.048-0.021h0.75c0.003-0.001,0.055,0,0.11,0.114
					c0.002,0.005,0.004,0.009,0.007,0.013c0.02,0.043,0.042,0.094,0.081,0.137c0.04,0.044,0.096,0.081,0.182,0.092h0.813
					c0.229,0,0.358,0.015,0.419,0.131c0.032,0.059,0.045,0.141,0.045,0.264V13.831z"/>
			</g>
		</g>
	</g>
</svg>
