<?xml version="1.0" encoding="utf-8"?>
<!-- Generator: Adobe Illustrator 10.0, SVG Export Plug-In . SVG Version: 3.0.0 Build 76)  -->
<!DOCTYPE svg PUBLIC "-//W3C//DTD SVG 1.0//EN"    "http://www.w3.org/TR/2001/REC-SVG-20010904/DTD/svg10.dtd" [
	<!ENTITY ns_flows "http://ns.adobe.com/Flows/1.0/">
	<!ENTITY ns_extend "http://ns.adobe.com/Extensibility/1.0/">
	<!ENTITY ns_ai "http://ns.adobe.com/AdobeIllustrator/10.0/">
	<!ENTITY ns_graphs "http://ns.adobe.com/Graphs/1.0/">
	<!ENTITY ns_vars "http://ns.adobe.com/Variables/1.0/">
	<!ENTITY ns_imrep "http://ns.adobe.com/ImageReplacement/1.0/">
	<!ENTITY ns_sfw "http://ns.adobe.com/SaveForWeb/1.0/">
	<!ENTITY ns_custom "http://ns.adobe.com/GenericCustomNamespace/1.0/">
	<!ENTITY ns_adobe_xpath "http://ns.adobe.com/XPath/1.0/">
	<!ENTITY ns_svg "http://www.w3.org/2000/svg">
	<!ENTITY ns_xlink "http://www.w3.org/1999/xlink">
]>
<svg 
	 xmlns:x="&ns_extend;" xmlns:i="&ns_ai;" xmlns:graph="&ns_graphs;" i:viewOrigin="71.0752 -21.96" i:rulerOrigin="0 0" i:pageBounds="0 48 48 0"
	 xmlns="&ns_svg;" xmlns:xlink="&ns_xlink;" xmlns:a="http://ns.adobe.com/AdobeSVGViewerExtensions/3.0/"
	 width="41.909" height="32.176" viewBox="0 0 41.909 32.176" overflow="visible" enable-background="new 0 0 41.909 32.176"
	 xml:space="preserve">
	<metadata>
		<variableSets  xmlns="http://ns.adobe.com/Variables/1.0/">
			<variableSet  varSetName="binding1" locked="none">
				<variables></variables>
				<v:sampleDataSets  xmlns="http://ns.adobe.com/GenericCustomNamespace/1.0/" xmlns:v="http://ns.adobe.com/Variables/1.0/">
					</v:sampleDataSets>
			</variableSet>
		</variableSets>
		<sfw  xmlns="&ns_sfw;">
			<slices></slices>
			<sliceSourceBounds  x="71.075" y="-54.136" width="41.909" height="32.176" bottomLeftOrigin="true"></sliceSourceBounds>
		</sfw>
	</metadata>
	<g id="Layer_2" i:layer="yes" i:dimmedPercent="50" i:rgbTrio="#FFFF4F004F00">
		<path i:knockout="Off" fill="#685012" d="M6.401,1.31L6.19,2.951l2.424-1.924L7.243,0.858L6.401,1.31z"/>
		<g i:knockout="Off">
			<g i:knockout="Off">
				<path i:knockout="Off" fill="#685012" d="M40.832,7.144c-1.191-1.493-3.319-1.61-6.136-1.61H23.752
					c-0.548-0.063-0.964-0.224-1.31-0.435c-0.744-0.457-1.111-1.184-1.461-1.899c-0.283-0.58-0.576-1-0.855-1.31
					C19.319,1,18.61,1.053,18.508,1.066L8.444,1.063c-1.121,0-1.853,0.952-1.889,1.836c-0.01,0.249-0.02,3.683-0.029,7.892h-3.68
					c-1.121,0-2.031,0.991-2.031,2.209c0,0.241,0.045,0.469,0.11,0.687l-0.024,0.01l5.975,16.986l0.013-0.005
					c0.24,0.763,0.849,1.34,1.595,1.471c0.104,0.019,0.211,0.027,0.32,0.027l2.577-0.001h0.965l22.44-0.008l1.018,0.006
					c0.65,0.006,1.239,0.009,1.775-0.007l1.557-0.001c0.033,0.002,0.064,0.011,0.098,0.011c0.455,0,0.869-0.168,1.207-0.441
					c0.287-0.231,0.519-0.538,0.659-0.897c0.249-0.347,0.437-0.77,0.567-1.288c0.164-0.645,0.242-1.435,0.242-2.409V11.464
					C41.909,9.374,41.532,8.021,40.832,7.144z M40.268,30.339c-0.018,0.022-0.034,0.049-0.055,0.07
					c-0.531,0.563-1.425,0.719-2.683,0.756l-2.688,0.001l-20.915,0.007v0.023H8.745v-0.032c-0.451-0.027-0.824-0.352-0.969-0.801
					l-0.021,0.009l-0.423-1.211l-0.828-2.368L6.442,26.62L2.864,16.447l-0.023,0.009L2.463,15.3l-0.052-0.146l0.002-0.002
					l-0.52-1.584C1.809,13.396,1.747,13.209,1.747,13c0-0.667,0.494-1.209,1.101-1.209c0.058,0,0.106,0.026,0.163,0.036h1.534
					c-0.002-0.009,0.005-0.029,0.001-0.036h27.033c-0.002,0.005-0.002,0.011-0.006,0.016h1.634c0.024-0.002,0.046-0.016,0.071-0.016
					c0.512,0,0.924,0.396,1.045,0.916l0.754,2.183l3.687,10.406l0.002-0.001l0.312,0.883l0.578,1.629h-0.006l0.59,1.675
					l-0.002,0.001c0.061,0.148,0.097,0.312,0.097,0.484C40.333,30.099,40.305,30.221,40.268,30.339z M40.978,27.138
					c0,0.523-0.025,0.979-0.074,1.383l-5.627-15.886c-0.16-1.044-0.992-1.845-1.998-1.845H7.46c0.009-4.308,0.02-7.619,0.027-7.848
					c0.002-0.071,0.028-0.149,0.056-0.228c0.048-0.137,0.129-0.27,0.248-0.383c0.161-0.155,0.377-0.271,0.655-0.271h10.121
					c0.045-0.004,0.746,0.001,1.498,1.433c0.031,0.059,0.062,0.104,0.092,0.166c0.263,0.537,0.574,1.169,1.086,1.707
					c0.537,0.565,1.295,1.026,2.459,1.162l10.994,0.002c3.088,0,4.838,0.186,5.67,1.629c0.422,0.73,0.611,1.78,0.611,3.303V27.138z"
					/>
			</g>
		</g>
		<path i:knockout="Off" fill="#685012" d="M38.526,31.637l2.205-1.254l0.459-3.149L38.526,31.637z"/>
		<path i:knockout="Off" fill="#685012" d="M2.759,10.396l-1.503,0.312l-0.843,1.925L2.759,10.396z"/>
		<g i:knockout="Off">
			<g i:knockout="Off">
				<path i:knockout="Off" fill="#FFC726" d="M40.017,6.081c-1.191-1.494-3.318-1.611-6.136-1.611H22.937
					c-0.547-0.063-0.964-0.223-1.309-0.434c-0.744-0.457-1.112-1.185-1.461-1.9c-0.283-0.58-0.575-1-0.855-1.309
					c-0.807-0.89-1.517-0.837-1.617-0.823L7.63,0C6.51,0,5.776,0.953,5.741,1.836c-0.01,0.249-0.021,3.683-0.029,7.893h-3.68
					C0.911,9.729,0,10.719,0,11.938c0,0.24,0.044,0.469,0.11,0.686l-0.024,0.01L6.06,29.62l0.014-0.005
					c0.24,0.762,0.848,1.34,1.595,1.47c0.104,0.02,0.211,0.028,0.319,0.028l2.578-0.001h0.965l22.441-0.008l1.018,0.006
					c0.65,0.006,1.238,0.009,1.776-0.007l1.556-0.002c0.033,0.003,0.063,0.012,0.097,0.012c0.455,0,0.87-0.168,1.209-0.442
					c0.284-0.23,0.517-0.538,0.657-0.896c0.25-0.348,0.438-0.771,0.567-1.288c0.164-0.646,0.242-1.436,0.242-2.409V10.401
					C41.094,8.313,40.718,6.959,40.017,6.081z M39.452,29.276c-0.019,0.021-0.034,0.049-0.055,0.069
					c-0.531,0.564-1.425,0.72-2.683,0.756h-0.001l-2.688,0.002L13.112,30.11v0.022H7.93v-0.032c-0.45-0.026-0.823-0.352-0.968-0.801
					L6.94,29.309l-0.423-1.211L5.688,25.73l-0.061-0.174L2.051,15.384l-0.024,0.009l-0.379-1.155l-0.051-0.146
					c0,0,0.002-0.002,0.003-0.002l-0.521-1.584c-0.084-0.172-0.146-0.358-0.146-0.567c0-0.667,0.494-1.209,1.102-1.209
					c0.058,0,0.106,0.025,0.162,0.035h1.535c-0.002-0.009,0.004-0.028,0-0.035h27.034c-0.002,0.005-0.004,0.011-0.007,0.016h1.633
					c0.025-0.002,0.047-0.016,0.071-0.016c0.512,0,0.925,0.395,1.046,0.915l0.754,2.184l3.688,10.406l0.002-0.001l0.311,0.883
					l0.577,1.629h-0.004l0.59,1.674l-0.002,0.001c0.06,0.149,0.097,0.313,0.097,0.485C39.519,29.036,39.489,29.158,39.452,29.276z
					 M40.161,26.075c0,0.522-0.025,0.978-0.073,1.382L34.46,11.572c-0.16-1.044-0.992-1.846-1.998-1.846H6.644
					c0.01-4.308,0.02-7.618,0.028-7.848C6.675,1.808,6.7,1.73,6.727,1.652c0.048-0.138,0.13-0.271,0.248-0.384
					C7.135,1.115,7.351,1,7.63,1h10.121c0.045-0.003,0.744,0.001,1.499,1.433c0.03,0.06,0.062,0.104,0.092,0.166
					c0.263,0.537,0.574,1.169,1.086,1.707c0.537,0.566,1.295,1.027,2.46,1.162L33.881,5.47c3.088,0,4.839,0.187,5.67,1.629
					c0.422,0.731,0.61,1.78,0.61,3.304V26.075z"/>
			</g>
		</g>
		<g i:knockout="Off">
			<g>
				<g>
					<path i:knockout="Off" fill="#685012" d="M13.796,16.1c-1.798,2.357-1.341,5.736,1.016,7.533
						c2.357,1.798,5.736,1.341,7.533-1.017c1.797-2.356,1.341-5.735-1.016-7.533C18.972,13.287,15.592,13.742,13.796,16.1z
						 M14.59,16.706c1.463-1.919,4.214-2.289,6.133-0.827c1.918,1.463,2.289,4.214,0.827,6.132
						c-1.463,1.918-4.214,2.289-6.133,0.827C13.5,21.375,13.128,18.625,14.59,16.706z"/>
					<path i:knockout="Off" fill="#685012" d="M22.25,21.916c-0.22-0.168-0.532-0.125-0.7,0.095s-0.126,0.533,0.094,0.701
						l5.866,4.471c0.219,0.167,0.532,0.125,0.7-0.095s0.125-0.533-0.094-0.7L22.25,21.916z"/>
				</g>
				<g>
					<path i:knockout="Off" fill="#685012" d="M13.796,16.1c-1.798,2.357-1.341,5.736,1.016,7.533
						c2.357,1.798,5.736,1.341,7.533-1.017c1.797-2.356,1.341-5.735-1.016-7.533C18.972,13.287,15.592,13.742,13.796,16.1z
						 M14.59,16.706c1.463-1.919,4.214-2.289,6.133-0.827c1.918,1.463,2.289,4.214,0.827,6.132
						c-1.463,1.918-4.214,2.289-6.133,0.827C13.5,21.375,13.128,18.625,14.59,16.706z"/>
					<path i:knockout="Off" fill="#685012" d="M22.25,21.916c-0.22-0.168-0.532-0.125-0.7,0.095s-0.126,0.533,0.094,0.701
						l5.866,4.471c0.219,0.167,0.532,0.125,0.7-0.095s0.125-0.533-0.094-0.7L22.25,21.916z"/>
				</g>
			</g>
			<g>
				<g>
					<path i:knockout="Off" fill="#685012" d="M13.796,16.1c-1.798,2.357-1.341,5.736,1.016,7.533
						c2.357,1.798,5.736,1.341,7.533-1.017c1.797-2.356,1.341-5.735-1.016-7.533C18.972,13.287,15.592,13.742,13.796,16.1z
						 M14.59,16.706c1.463-1.919,4.214-2.289,6.133-0.827c1.918,1.463,2.289,4.214,0.827,6.132
						c-1.463,1.918-4.214,2.289-6.133,0.827C13.5,21.375,13.128,18.625,14.59,16.706z"/>
					<path i:knockout="Off" fill="#685012" d="M22.25,21.916c-0.22-0.168-0.532-0.125-0.7,0.095s-0.126,0.533,0.094,0.701
						l5.866,4.471c0.219,0.167,0.532,0.125,0.7-0.095s0.125-0.533-0.094-0.7L22.25,21.916z"/>
				</g>
				<g>
					<path i:knockout="Off" fill="#685012" d="M13.796,16.1c-1.798,2.357-1.341,5.736,1.016,7.533
						c2.357,1.798,5.736,1.341,7.533-1.017c1.797-2.356,1.341-5.735-1.016-7.533C18.972,13.287,15.592,13.742,13.796,16.1z
						 M14.59,16.706c1.463-1.919,4.214-2.289,6.133-0.827c1.918,1.463,2.289,4.214,0.827,6.132
						c-1.463,1.918-4.214,2.289-6.133,0.827C13.5,21.375,13.128,18.625,14.59,16.706z"/>
					<path i:knockout="Off" fill="#685012" d="M22.25,21.916c-0.22-0.168-0.532-0.125-0.7,0.095s-0.126,0.533,0.094,0.701
						l5.866,4.471c0.219,0.167,0.532,0.125,0.7-0.095s0.125-0.533-0.094-0.7L22.25,21.916z"/>
				</g>
			</g>
		</g>
		<g>
			<path i:knockout="Off" fill="none" stroke="#FFC726" d="M20.925,22.29c-1.633,2.142-4.689,2.554-6.833,0.921
				c-2.142-1.633-2.554-4.689-0.921-6.832c1.633-2.142,4.69-2.555,6.833-0.922C22.146,17.09,22.558,20.147,20.925,22.29z"/>
			<path i:knockout="Off" fill="none" stroke="#FFC726" stroke-linecap="round" d="M20.925,22.29l5.866,4.471"/>
		</g>
	</g>
</svg>
