<?xml version="1.0" encoding="utf-8"?>
<!-- Generator: Adobe Illustrator 10.0, SVG Export Plug-In . SVG Version: 3.0.0 Build 76)  -->
<!DOCTYPE svg PUBLIC "-//W3C//DTD SVG 1.0//EN"    "http://www.w3.org/TR/2001/REC-SVG-20010904/DTD/svg10.dtd" [
	<!ENTITY ns_flows "http://ns.adobe.com/Flows/1.0/">
	<!ENTITY ns_extend "http://ns.adobe.com/Extensibility/1.0/">
	<!ENTITY ns_ai "http://ns.adobe.com/AdobeIllustrator/10.0/">
	<!ENTITY ns_graphs "http://ns.adobe.com/Graphs/1.0/">
	<!ENTITY ns_vars "http://ns.adobe.com/Variables/1.0/">
	<!ENTITY ns_imrep "http://ns.adobe.com/ImageReplacement/1.0/">
	<!ENTITY ns_sfw "http://ns.adobe.com/SaveForWeb/1.0/">
	<!ENTITY ns_custom "http://ns.adobe.com/GenericCustomNamespace/1.0/">
	<!ENTITY ns_adobe_xpath "http://ns.adobe.com/XPath/1.0/">
	<!ENTITY ns_svg "http://www.w3.org/2000/svg">
	<!ENTITY ns_xlink "http://www.w3.org/1999/xlink">
]>
<svg 
	 xmlns:x="&ns_extend;" xmlns:i="&ns_ai;" xmlns:graph="&ns_graphs;" i:viewOrigin="5.4419 40.7578" i:rulerOrigin="0 0" i:pageBounds="0 48 48 0"
	 xmlns="&ns_svg;" xmlns:xlink="&ns_xlink;" xmlns:a="http://ns.adobe.com/AdobeSVGViewerExtensions/3.0/"
	 width="36.955" height="34.507" viewBox="0 0 36.955 34.507" overflow="visible" enable-background="new 0 0 36.955 34.507"
	 xml:space="preserve">
	<metadata>
		<variableSets  xmlns="http://ns.adobe.com/Variables/1.0/">
			<variableSet  varSetName="binding1" locked="none">
				<variables></variables>
				<v:sampleDataSets  xmlns="http://ns.adobe.com/GenericCustomNamespace/1.0/" xmlns:v="http://ns.adobe.com/Variables/1.0/">
					</v:sampleDataSets>
			</variableSet>
		</variableSets>
		<sfw  xmlns="&ns_sfw;">
			<slices></slices>
			<sliceSourceBounds  x="5.442" y="6.251" width="36.955" height="34.507" bottomLeftOrigin="true"></sliceSourceBounds>
		</sfw>
	</metadata>
	<g id="Layer_2" i:layer="yes" i:dimmedPercent="50" i:rgbTrio="#FFFF4F004F00">
		<g i:knockout="Off">
			<path i:knockout="Off" fill="#223742" d="M32.395,12.106H17.114c-1.274,0-1.964,0.3-1.964,1.877v10.463
				c0,0.087,0.011,0.167,0.015,0.253c0.071,1.531,0.767,2.41,1.95,2.41h15.281c1.246,0,1.963-0.971,1.963-2.663V13.983
				C34.358,12.406,33.668,12.106,32.395,12.106z M33.745,24.446c0,1.358-0.454,2.05-1.351,2.05H20.67
				c-0.193-0.614-0.405-1.215-0.628-1.797c-0.559-1.458-1.188-2.787-1.768-3.898c-0.261-0.504-0.516-0.963-0.744-1.366
				c-0.062-0.104-0.121-0.208-0.178-0.305c-0.062-0.109-0.124-0.21-0.182-0.308c-0.479-0.804-0.801-1.276-0.813-1.298
				c-0.004-0.005-0.027-0.039-0.069-0.101c-0.044-0.066-0.113-0.174-0.196-0.307c-0.055-0.088-0.117-0.188-0.188-0.306
				c-0.044-0.078-0.094-0.154-0.144-0.238v-2.589c0-1.114,0.273-1.264,1.352-1.264h15.282c1.08,0,1.351,0.15,1.351,1.264V24.446z"/>
			<path i:knockout="Off" fill="#223742" d="M34.531,10.094h-9.65V2.726c0-1.958-0.816-2.316-2.426-2.316H2.899
				c-1.61,0-2.426,0.359-2.426,2.316v13.387c0,2.11,0.885,3.322,2.426,3.322h9.649v1.366H3.185c0.23,0.081,0.397,0.296,0.397,0.555
				c0,0.328-0.265,0.594-0.593,0.594c-0.319,0-0.575-0.252-0.588-0.57l-0.813,2.328C1.693,23.602,1.84,23.535,2,23.535
				c0.328,0,0.593,0.268,0.593,0.595c0,0.285-0.202,0.511-0.471,0.569h10.426v1.098c0,2.114,0.885,3.324,2.426,3.324h19.555
				c1.544,0,2.426-1.21,2.426-3.324V12.413C36.957,10.452,36.14,10.094,34.531,10.094z M12.548,18.822H2.899
				c-1.499,0-1.814-1.473-1.814-2.709V2.726c0-1.479,0.409-1.705,1.814-1.705h19.556c1.407,0,1.813,0.225,1.813,1.705v7.369h-1.984
				V4.298c0-1.579-0.693-1.877-1.965-1.877H5.034c-1.272,0-1.962,0.299-1.962,1.877v10.463c0,1.69,0.716,2.662,1.962,2.662h7.514
				V18.822z M11.525,3.035h8.793c1.079,0,1.35,0.148,1.35,1.264v5.796h-6.694c-0.889,0-1.536,0.112-1.937,0.541
				C12.28,8.426,11.658,5.827,11.525,3.035z M36.344,25.797c0,1.237-0.314,2.71-1.813,2.71H14.977c-1.5,0-1.814-1.476-1.814-2.71
				V12.413c0-0.464,0.04-0.802,0.137-1.053c0.216-0.547,0.711-0.653,1.678-0.653h19.554c1.408,0,1.815,0.226,1.815,1.706v13.384
				H36.344z"/>
			<path i:knockout="Off" fill="#223742" d="M2.002,24.726c0.044,0,0.081-0.016,0.123-0.026H1.879
				C1.92,24.71,1.958,24.726,2.002,24.726z"/>
			<path i:knockout="Off" fill="#223742" d="M2.596,24.13c0-0.327-0.266-0.595-0.594-0.595c-0.161,0-0.306,0.066-0.413,0.172
				l-0.169,0.48c0.028,0.259,0.211,0.458,0.459,0.512h0.246C2.392,24.641,2.596,24.415,2.596,24.13z"/>
			<path i:knockout="Off" fill="#223742" d="M2.991,21.95c0.326,0,0.592-0.265,0.592-0.594c0-0.259-0.167-0.473-0.396-0.554H2.794
				c-0.101,0.035-0.184,0.096-0.252,0.177l-0.141,0.402C2.416,21.697,2.672,21.95,2.991,21.95z"/>
		</g>
		<g i:knockout="Off">
			<path i:knockout="Off" fill="#223742" d="M35.046,33.928c0-0.321,0.253-0.58,0.566-0.58c0.228,0,0.421,0.137,0.511,0.335
				l-0.983-2.866c0.026,0.069,0.045,0.146,0.045,0.224c0,0.32-0.256,0.579-0.57,0.579s-0.567-0.259-0.567-0.579
				c0-0.271,0.186-0.488,0.432-0.552H15.122c0.294,0.02,0.53,0.266,0.53,0.571c0,0.321-0.253,0.58-0.568,0.58
				s-0.568-0.259-0.568-0.58c0-0.052,0.017-0.098,0.029-0.146l-0.954,2.779c0.087-0.202,0.286-0.343,0.517-0.343
				c0.314,0,0.568,0.259,0.568,0.579c0,0.29-0.211,0.519-0.482,0.563h21.333C35.256,34.444,35.046,34.216,35.046,33.928z"/>
			<path i:knockout="Off" fill="#223742" d="M14.107,34.507c0.031,0,0.058-0.013,0.086-0.017H14.02
				C14.049,34.494,14.077,34.507,14.107,34.507z"/>
			<path i:knockout="Off" fill="#223742" d="M13.579,33.726l0.012-0.033C13.586,33.701,13.583,33.713,13.579,33.726z"/>
			<path i:knockout="Off" fill="#223742" d="M14.545,30.912l0.04-0.115C14.566,30.833,14.555,30.873,14.545,30.912z"/>
			<path i:knockout="Off" fill="#223742" d="M15.085,30.478c-0.012,0-0.025,0.009-0.037,0.01h0.074
				C15.109,30.486,15.097,30.478,15.085,30.478z"/>
			<path i:knockout="Off" fill="#223742" d="M35.613,34.507c0.03,0,0.058-0.013,0.088-0.017h-0.174
				C35.555,34.494,35.582,34.507,35.613,34.507z"/>
			<path i:knockout="Off" fill="#223742" d="M36.124,33.683l0.021,0.064C36.138,33.725,36.132,33.701,36.124,33.683z"/>
			<path i:knockout="Off" fill="#223742" d="M35.138,30.811l0.002,0.005C35.138,30.813,35.138,30.812,35.138,30.811z"/>
			<path i:knockout="Off" fill="#223742" d="M34.615,30.459c-0.048,0-0.091,0.016-0.136,0.028h0.272
				C34.708,30.475,34.664,30.459,34.615,30.459z"/>
			<path i:knockout="Off" fill="#223742" d="M15.122,30.487h-0.076c-0.203,0.014-0.373,0.134-0.462,0.31l-0.04,0.115
				c-0.012,0.049-0.029,0.095-0.029,0.146c0,0.321,0.255,0.58,0.568,0.58c0.314,0,0.568-0.259,0.568-0.58
				C15.652,30.752,15.417,30.507,15.122,30.487z M14.107,33.348c-0.23,0-0.427,0.141-0.517,0.343l-0.012,0.034
				c-0.025,0.063-0.04,0.132-0.04,0.202c0,0.289,0.209,0.517,0.48,0.562h0.174c0.271-0.045,0.482-0.273,0.482-0.562
				C14.676,33.606,14.42,33.348,14.107,33.348z M36.145,33.744l-0.021-0.063c-0.091-0.197-0.283-0.335-0.511-0.335
				c-0.313,0-0.566,0.259-0.566,0.58c0,0.289,0.21,0.517,0.48,0.562h0.174c0.271-0.045,0.482-0.273,0.482-0.562
				C36.183,33.862,36.166,33.802,36.145,33.744z M35.14,30.815l-0.002-0.005c-0.068-0.163-0.213-0.28-0.387-0.323h-0.272
				c-0.245,0.063-0.432,0.28-0.432,0.551c0,0.32,0.254,0.58,0.567,0.58c0.314,0,0.57-0.26,0.57-0.58
				C35.185,30.961,35.167,30.885,35.14,30.815z"/>
		</g>
		<path i:knockout="Off" fill="#223742" d="M0.48,0.822l-0.04,1.46l1.5-1.973L0.48,0.822z"/>
		<path i:knockout="Off" fill="#223742" d="M12.836,10.341l-0.18,1.448l1.681-1.816L12.836,10.341z"/>
		<path i:knockout="Off" fill="#223742" d="M15.181,12.331l-0.229,1.443l1.746-1.762L15.181,12.331z"/>
		<path i:knockout="Off" fill="#223742" d="M33.849,26.27l0.103-2.092l-2.214,2.78L33.849,26.27z"/>
		<path i:knockout="Off" fill="#223742" d="M36.466,27.875l-0.146-2.22l-2.023,3.201L36.466,27.875z"/>
		<g i:knockout="Off">
			<g i:knockout="Off">
				<path i:knockout="Off" fill="none" d="M2.594,14.287V3.874c0-1.573,0.688-1.869,1.959-1.869h15.251
					c1.27,0,1.959,0.296,1.959,1.869v5.767h1.982V2.308c0-1.474-0.406-1.696-1.811-1.696H2.421c-1.403,0-1.81,0.222-1.81,1.696
					v13.325c0,1.231,0.313,2.697,1.81,2.697h9.629v-1.394H4.553C3.307,16.936,2.594,15.971,2.594,14.287z"/>
				<path i:knockout="Off" fill="none" d="M31.851,12.255H16.604c-1.079,0-1.349,0.148-1.349,1.258v2.576
					c0.05,0.083,0.098,0.163,0.144,0.237c0.07,0.12,0.13,0.218,0.187,0.306c0.083,0.133,0.15,0.24,0.196,0.305
					c0.04,0.062,0.065,0.097,0.068,0.101c0.012,0.021,0.335,0.49,0.813,1.291c0.058,0.097,0.119,0.197,0.181,0.306
					c0.058,0.097,0.117,0.2,0.176,0.304c0.232,0.402,0.483,0.858,0.746,1.36c0.576,1.104,1.205,2.429,1.764,3.881
					c0.222,0.577,0.434,1.176,0.626,1.787h11.698c0.895,0,1.349-0.688,1.349-2.041V13.511C33.2,12.403,32.928,12.255,31.851,12.255z
					"/>
				<path i:knockout="Off" fill="none" d="M21.149,9.642V3.875c0-1.113-0.271-1.26-1.348-1.26h-8.774
					c0.133,2.781,0.754,5.37,1.511,7.566c0.399-0.428,1.044-0.539,1.932-0.539H21.149z"/>
				<path i:knockout="Off" fill="none" d="M33.984,10.251H14.471c-0.964,0-1.457,0.106-1.671,0.651
					c-0.099,0.249-0.138,0.587-0.138,1.047v13.323c0,1.23,0.313,2.697,1.81,2.697h19.514c1.497,0,1.81-1.467,1.81-2.697V11.949
					C35.793,10.475,35.388,10.251,33.984,10.251z M33.813,23.926c0,1.687-0.714,2.653-1.962,2.653H16.604
					c-1.181,0-1.875-0.875-1.945-2.398c-0.005-0.086-0.015-0.165-0.015-0.254V13.514c0-1.57,0.688-1.869,1.959-1.869h15.248
					c1.273,0,1.962,0.298,1.962,1.869V23.926z"/>
				<path i:knockout="Off" fill="#5182A1" d="M31.851,11.644H16.604c-1.272,0-1.959,0.298-1.959,1.869v10.413
					c0,0.089,0.009,0.167,0.015,0.254c0.07,1.523,0.764,2.397,1.945,2.397h15.248c1.245,0,1.962-0.967,1.962-2.652V13.511
					C33.813,11.942,33.125,11.644,31.851,11.644z M33.2,23.926c0,1.354-0.453,2.041-1.349,2.041H20.154
					c-0.192-0.611-0.404-1.21-0.626-1.787c-0.56-1.452-1.187-2.775-1.762-3.88c-0.266-0.503-0.515-0.959-0.746-1.361
					c-0.062-0.104-0.121-0.207-0.177-0.303c-0.063-0.109-0.123-0.21-0.181-0.306c-0.477-0.803-0.8-1.272-0.813-1.291
					c-0.005-0.005-0.028-0.04-0.069-0.101c-0.046-0.067-0.114-0.172-0.197-0.305c-0.055-0.088-0.117-0.188-0.188-0.307
					c-0.044-0.073-0.093-0.151-0.142-0.237v-2.576c0-1.11,0.271-1.257,1.347-1.257h15.25c1.077,0,1.348,0.147,1.348,1.257
					L33.2,23.926z"/>
				<path i:knockout="Off" fill="#5182A1" d="M33.984,9.642h-9.63V2.308c0-1.95-0.815-2.308-2.42-2.308H2.421
					C0.816,0,0,0.357,0,2.308v13.325c0,2.101,0.883,3.306,2.421,3.306h9.629V20.3H2.707c0.231,0.08,0.397,0.294,0.397,0.552
					c0,0.328-0.265,0.593-0.591,0.593c-0.318,0-0.575-0.253-0.586-0.567L1.113,23.19c0.106-0.103,0.251-0.168,0.412-0.168
					c0.326,0,0.591,0.266,0.591,0.592c0,0.283-0.203,0.509-0.47,0.566H12.05v1.092c0,2.103,0.883,3.308,2.421,3.308h19.513
					c1.539,0,2.421-1.205,2.421-3.308V11.949C36.405,9.997,35.589,9.642,33.984,9.642z M12.05,18.328H2.421
					c-1.497,0-1.81-1.466-1.81-2.697V2.308c0-1.474,0.407-1.696,1.81-1.696h19.513c1.402,0,1.81,0.222,1.81,1.696v7.334h-1.982
					V3.875c0-1.573-0.69-1.869-1.96-1.869H4.551c-1.27,0-1.957,0.295-1.957,1.869v10.413c0,1.684,0.712,2.65,1.957,2.65h7.499
					L12.05,18.328z M11.027,2.613h8.774c1.078,0,1.348,0.147,1.348,1.26v5.767H14.47c-0.888,0-1.533,0.111-1.932,0.539
					C11.782,7.982,11.162,5.394,11.027,2.613z M35.793,25.271c0,1.231-0.313,2.698-1.81,2.698H14.471
					c-1.497,0-1.809-1.467-1.809-2.698V11.949c0-0.46,0.039-0.799,0.135-1.047c0.214-0.545,0.71-0.651,1.673-0.651h19.512
					c1.404,0,1.812,0.224,1.812,1.698V25.271z"/>
				<path i:knockout="Off" fill="#A5DAF2" d="M1.525,24.205c0.042,0,0.08-0.018,0.122-0.025H1.403
					C1.444,24.188,1.482,24.205,1.525,24.205z"/>
				<path i:knockout="Off" fill="#5182A1" d="M2.116,23.613c0-0.327-0.265-0.592-0.591-0.592c-0.161,0-0.306,0.065-0.412,0.168
					l-0.167,0.479c0.026,0.257,0.21,0.457,0.458,0.511h0.244C1.913,24.122,2.116,23.896,2.116,23.613z"/>
				<path i:knockout="Off" fill="#5182A1" d="M2.512,21.443c0.327,0,0.591-0.266,0.591-0.593c0-0.257-0.166-0.471-0.397-0.553H2.316
					c-0.101,0.036-0.184,0.097-0.251,0.177l-0.139,0.399C1.938,21.19,2.194,21.443,2.512,21.443z"/>
			</g>
			<g i:knockout="Off">
				<path i:knockout="Off" fill="#5182A1" d="M34.297,33.274c0-0.312,0.252-0.563,0.563-0.563c0.224,0,0.413,0.133,0.505,0.324
					l-0.973-2.778c0.026,0.068,0.043,0.14,0.043,0.216c0,0.311-0.252,0.562-0.563,0.562s-0.562-0.251-0.562-0.562
					c0-0.263,0.185-0.473,0.43-0.535H14.602c0.292,0.021,0.525,0.258,0.525,0.555c0,0.311-0.25,0.562-0.561,0.562
					s-0.562-0.251-0.562-0.562c0-0.05,0.016-0.096,0.03-0.143l-0.944,2.694c0.087-0.195,0.282-0.333,0.512-0.333
					c0.311,0,0.561,0.251,0.561,0.563c0,0.279-0.208,0.501-0.476,0.545h21.088C34.505,33.776,34.297,33.554,34.297,33.274z"/>
				<path i:knockout="Off" fill="#E1F1F9" d="M13.598,33.836c0.031,0,0.057-0.013,0.086-0.017h-0.171
					C13.542,33.823,13.569,33.836,13.598,33.836z"/>
				<path i:knockout="Off" fill="#E1F1F9" d="M13.076,33.078l0.013-0.033C13.083,33.055,13.081,33.067,13.076,33.078z"/>
				<path i:knockout="Off" fill="#E1F1F9" d="M14.032,30.351l0.04-0.111C14.052,30.274,14.042,30.313,14.032,30.351z"/>
				<path i:knockout="Off" fill="#E1F1F9" d="M14.566,29.932c-0.014,0-0.023,0.006-0.037,0.007h0.075
					C14.59,29.938,14.579,29.932,14.566,29.932z"/>
				<path i:knockout="Off" fill="#E1F1F9" d="M34.861,33.836c0.03,0,0.057-0.013,0.085-0.017h-0.172
					C34.802,33.823,34.83,33.836,34.861,33.836z"/>
				<path i:knockout="Off" fill="#E1F1F9" d="M35.365,33.036l0.022,0.062C35.379,33.077,35.375,33.055,35.365,33.036z"/>
				<path i:knockout="Off" fill="#E1F1F9" d="M34.391,30.253l0.001,0.005C34.392,30.257,34.392,30.255,34.391,30.253z"/>
				<path i:knockout="Off" fill="#E1F1F9" d="M33.873,29.911c-0.048,0-0.088,0.017-0.132,0.026h0.268
					C33.964,29.928,33.921,29.911,33.873,29.911z"/>
				<path i:knockout="Off" fill="#5182A1" d="M14.602,29.938h-0.074c-0.2,0.014-0.368,0.132-0.456,0.301l-0.04,0.111
					c-0.012,0.047-0.03,0.093-0.03,0.143c0,0.311,0.252,0.562,0.563,0.562s0.562-0.251,0.562-0.562
					C15.127,30.196,14.894,29.959,14.602,29.938z M13.598,32.712c-0.228,0-0.421,0.137-0.51,0.333l-0.013,0.033
					c-0.022,0.063-0.038,0.127-0.038,0.196c0,0.279,0.208,0.501,0.476,0.545h0.171c0.269-0.043,0.476-0.266,0.476-0.545
					C14.161,32.963,13.909,32.712,13.598,32.712z M35.387,33.098l-0.022-0.062c-0.09-0.19-0.28-0.324-0.504-0.324
					c-0.311,0-0.563,0.251-0.563,0.563c0,0.279,0.208,0.501,0.476,0.545h0.172c0.269-0.043,0.476-0.266,0.476-0.545
					C35.421,33.212,35.405,33.153,35.387,33.098z M34.393,30.258l-0.001-0.005c-0.067-0.158-0.211-0.271-0.384-0.314h-0.268
					c-0.245,0.063-0.43,0.272-0.43,0.535c0,0.311,0.251,0.562,0.562,0.562s0.563-0.251,0.563-0.562
					C34.435,30.397,34.42,30.325,34.393,30.258z"/>
			</g>
		</g>
	</g>
</svg>
