<?xml version="1.0" encoding="utf-8"?>
<!-- Generator: Adobe Illustrator 10.0, SVG Export Plug-In . SVG Version: 3.0.0 Build 76)  -->
<!DOCTYPE svg PUBLIC "-//W3C//DTD SVG 1.0//EN"    "http://www.w3.org/TR/2001/REC-SVG-20010904/DTD/svg10.dtd" [
	<!ENTITY ns_flows "http://ns.adobe.com/Flows/1.0/">
	<!ENTITY ns_extend "http://ns.adobe.com/Extensibility/1.0/">
	<!ENTITY ns_ai "http://ns.adobe.com/AdobeIllustrator/10.0/">
	<!ENTITY ns_graphs "http://ns.adobe.com/Graphs/1.0/">
	<!ENTITY ns_vars "http://ns.adobe.com/Variables/1.0/">
	<!ENTITY ns_imrep "http://ns.adobe.com/ImageReplacement/1.0/">
	<!ENTITY ns_sfw "http://ns.adobe.com/SaveForWeb/1.0/">
	<!ENTITY ns_custom "http://ns.adobe.com/GenericCustomNamespace/1.0/">
	<!ENTITY ns_adobe_xpath "http://ns.adobe.com/XPath/1.0/">
	<!ENTITY ns_svg "http://www.w3.org/2000/svg">
	<!ENTITY ns_xlink "http://www.w3.org/1999/xlink">
]>
<svg 
	 xmlns:x="&ns_extend;" xmlns:i="&ns_ai;" xmlns:graph="&ns_graphs;" i:viewOrigin="12.3643 42.9883" i:rulerOrigin="0 0" i:pageBounds="0 48 48 0"
	 xmlns="&ns_svg;" xmlns:xlink="&ns_xlink;" xmlns:a="http://ns.adobe.com/AdobeSVGViewerExtensions/3.0/"
	 width="23.626" height="38.575" viewBox="0 0 23.626 38.575" overflow="visible" enable-background="new 0 0 23.626 38.575"
	 xml:space="preserve">
	<metadata>
		<variableSets  xmlns="http://ns.adobe.com/Variables/1.0/">
			<variableSet  varSetName="binding1" locked="none">
				<variables></variables>
				<v:sampleDataSets  xmlns="http://ns.adobe.com/GenericCustomNamespace/1.0/" xmlns:v="http://ns.adobe.com/Variables/1.0/">
					</v:sampleDataSets>
			</variableSet>
		</variableSets>
		<sfw  xmlns="&ns_sfw;">
			<slices></slices>
			<sliceSourceBounds  x="12.364" y="4.413" width="23.626" height="38.575" bottomLeftOrigin="true"></sliceSourceBounds>
		</sfw>
	</metadata>
	<g id="Layer_1" i:layer="yes" i:dimmedPercent="50" i:rgbTrio="#4F008000FFFF">
		<path i:knockout="Off" fill="#323232" d="M0.768,4.076V1.242l2.959-0.45L0.768,4.076z"/>
		<path i:knockout="Off" fill="#323232" d="M18.839,38.014l2.604-1.372l1.301-2.814l-0.216,3.898L18.839,38.014z"/>
		<path i:knockout="Off" fill="none" stroke="#323232" d="M20.555,1.559H4.011c-1.906,0-2.589,0.698-2.589,2.651v31.234
			c0,1.953,0.683,2.651,2.589,2.651h16.544c1.906,0,2.59-0.698,2.59-2.651V4.21C23.145,2.257,22.461,1.559,20.555,1.559z"/>
		<path i:knockout="Off" fill="#323232" d="M18.763,6.091H5.298c-0.297,0-0.537,0.403-0.537,0.9s0.24,0.9,0.537,0.9h13.465
			c0.298,0,0.539-0.403,0.539-0.9S19.061,6.091,18.763,6.091z"/>
		<path i:knockout="Off" fill="#323232" d="M18.763,9.571H5.298c-0.297,0-0.537,0.44-0.537,0.984c0,0.545,0.24,0.986,0.537,0.986
			h13.465c0.298,0,0.539-0.441,0.539-0.986C19.302,10.011,19.061,9.571,18.763,9.571z"/>
		<path i:knockout="Off" fill="none" stroke="#323232" stroke-width="0.75" stroke-linecap="round" d="M4.73,24.732v9.192"/>
		<path i:knockout="Off" fill="none" stroke="#323232" stroke-width="0.75" stroke-linecap="round" d="M6.274,24.732v9.192"/>
		<path i:knockout="Off" fill="none" stroke="#323232" stroke-width="0.75" stroke-linecap="round" d="M7.817,24.732v9.192"/>
		<path i:knockout="Off" fill="none" stroke="#323232" stroke-width="0.75" stroke-linecap="round" d="M9.361,24.732v9.192"/>
		<path i:knockout="Off" fill="none" stroke="#323232" stroke-width="0.75" stroke-linecap="round" d="M10.905,24.732v9.192"/>
		<path i:knockout="Off" fill="none" stroke="#323232" stroke-width="0.75" stroke-linecap="round" d="M12.447,24.732v9.192"/>
		<path i:knockout="Off" fill="none" stroke="#323232" stroke-width="0.75" stroke-linecap="round" d="M13.992,24.732v9.192"/>
		<path i:knockout="Off" fill="none" stroke="#323232" stroke-width="0.75" stroke-linecap="round" d="M15.535,24.732v9.192"/>
		<path i:knockout="Off" fill="none" stroke="#323232" stroke-width="0.75" stroke-linecap="round" d="M17.079,24.732v9.192"/>
		<path i:knockout="Off" fill="none" stroke="#323232" stroke-width="0.75" stroke-linecap="round" d="M18.623,24.732v9.192"/>
		<path i:knockout="Off" fill="#484F01" d="M19.407,14.533c0,0.758-0.58,1.374-1.294,1.374c-0.713,0-1.292-0.615-1.292-1.374
			c0-0.759,0.579-1.374,1.292-1.374C18.827,13.159,19.407,13.774,19.407,14.533z"/>
		<path i:knockout="Off" fill="none" stroke="#5182A1" d="M19.634,0.5H3.09C1.183,0.5,0.5,1.198,0.5,3.151v31.235
			c0,1.952,0.683,2.651,2.59,2.651h16.544c1.907,0,2.59-0.699,2.59-2.651V3.151C22.224,1.198,21.541,0.5,19.634,0.5z"/>
		<path i:knockout="Off" fill="#5182A1" d="M18.093,5.676H4.629c-0.296,0-0.538,0.379-0.538,0.847c0,0.468,0.241,0.848,0.538,0.848
			h13.464c0.3,0,0.54-0.379,0.54-0.848C18.633,6.055,18.393,5.676,18.093,5.676z"/>
		<path i:knockout="Off" fill="#5182A1" d="M18.093,8.951H4.629c-0.296,0-0.538,0.414-0.538,0.926c0,0.513,0.241,0.928,0.538,0.928
			h13.464c0.3,0,0.54-0.415,0.54-0.928C18.633,9.365,18.393,8.951,18.093,8.951z"/>
		<path i:knockout="Off" fill="none" stroke="#5182A1" stroke-width="0.75" stroke-linecap="round" d="M4.437,24.447v9.192"/>
		<path i:knockout="Off" fill="none" stroke="#5182A1" stroke-width="0.75" stroke-linecap="round" d="M5.98,24.447v9.192"/>
		<path i:knockout="Off" fill="none" stroke="#5182A1" stroke-width="0.75" stroke-linecap="round" d="M7.524,24.447v9.192"/>
		<path i:knockout="Off" fill="none" stroke="#5182A1" stroke-width="0.75" stroke-linecap="round" d="M9.068,24.447v9.192"/>
		<path i:knockout="Off" fill="none" stroke="#5182A1" stroke-width="0.75" stroke-linecap="round" d="M10.612,24.447v9.192"/>
		<path i:knockout="Off" fill="none" stroke="#5182A1" stroke-width="0.75" stroke-linecap="round" d="M12.155,24.447v9.192"/>
		<path i:knockout="Off" fill="none" stroke="#5182A1" stroke-width="0.75" stroke-linecap="round" d="M13.699,24.447v9.192"/>
		<path i:knockout="Off" fill="none" stroke="#5182A1" stroke-width="0.75" stroke-linecap="round" d="M15.242,24.447v9.192"/>
		<path i:knockout="Off" fill="none" stroke="#5182A1" stroke-width="0.75" stroke-linecap="round" d="M16.786,24.447v9.192"/>
		<path i:knockout="Off" fill="none" stroke="#5182A1" stroke-width="0.75" stroke-linecap="round" d="M18.33,24.447v9.192"/>
		<path i:knockout="Off" fill="#97B101" d="M18.939,14.379c0,0.67-0.53,1.212-1.185,1.212c-0.655,0-1.186-0.542-1.186-1.212
			c0-0.67,0.53-1.212,1.186-1.212C18.409,13.167,18.939,13.709,18.939,14.379z"/>
	</g>
</svg>
