<?xml version="1.0" encoding="utf-8"?>
<!-- Generator: Adobe Illustrator 10.0, SVG Export Plug-In . SVG Version: 3.0.0 Build 76)  -->
<!DOCTYPE svg PUBLIC "-//W3C//DTD SVG 1.0//EN"    "http://www.w3.org/TR/2001/REC-SVG-20010904/DTD/svg10.dtd" [
	<!ENTITY ns_flows "http://ns.adobe.com/Flows/1.0/">
	<!ENTITY ns_extend "http://ns.adobe.com/Extensibility/1.0/">
	<!ENTITY ns_ai "http://ns.adobe.com/AdobeIllustrator/10.0/">
	<!ENTITY ns_graphs "http://ns.adobe.com/Graphs/1.0/">
	<!ENTITY ns_vars "http://ns.adobe.com/Variables/1.0/">
	<!ENTITY ns_imrep "http://ns.adobe.com/ImageReplacement/1.0/">
	<!ENTITY ns_sfw "http://ns.adobe.com/SaveForWeb/1.0/">
	<!ENTITY ns_custom "http://ns.adobe.com/GenericCustomNamespace/1.0/">
	<!ENTITY ns_adobe_xpath "http://ns.adobe.com/XPath/1.0/">
	<!ENTITY ns_svg "http://www.w3.org/2000/svg">
	<!ENTITY ns_xlink "http://www.w3.org/1999/xlink">
]>
<svg 
	 xmlns:x="&ns_extend;" xmlns:i="&ns_ai;" xmlns:graph="&ns_graphs;" i:viewOrigin="5.3643 43.708" i:rulerOrigin="0 0" i:pageBounds="0 48 48 0"
	 xmlns="&ns_svg;" xmlns:xlink="&ns_xlink;" xmlns:a="http://ns.adobe.com/AdobeSVGViewerExtensions/3.0/"
	 width="37.136" height="36.815" viewBox="0 0 37.136 36.815" overflow="visible" enable-background="new 0 0 37.136 36.815"
	 xml:space="preserve">
	<metadata>
		<variableSets  xmlns="http://ns.adobe.com/Variables/1.0/">
			<variableSet  varSetName="binding1" locked="none">
				<variables></variables>
				<v:sampleDataSets  xmlns="http://ns.adobe.com/GenericCustomNamespace/1.0/" xmlns:v="http://ns.adobe.com/Variables/1.0/">
					</v:sampleDataSets>
			</variableSet>
		</variableSets>
		<sfw  xmlns="&ns_sfw;">
			<slices></slices>
			<sliceSourceBounds  x="5.364" y="6.893" width="37.136" height="36.815" bottomLeftOrigin="true"></sliceSourceBounds>
		</sfw>
	</metadata>
	<g id="Layer_1" i:layer="yes" i:dimmedPercent="50" i:rgbTrio="#4F008000FFFF">
		<path i:knockout="Off" fill="#223742" d="M27.636,35.958l2.667-0.083l0.875-1.125l-0.042-3.542l-0.958,3.375L27.636,35.958z"/>
		<path i:knockout="Off" fill="none" stroke="#223742" stroke-linecap="round" stroke-linejoin="round" d="M31.385,18.624h5.251
			L19.067,0.667L1.5,18.624h5.252c-0.016,0.929,0.004,1.955,0.004,3.076v7.208c0,7.744-0.484,7.407,4.624,7.407h15.375
			c5.107,0,4.624,0.337,4.624-7.407V21.7C31.38,20.579,31.399,19.553,31.385,18.624z"/>
		<path i:knockout="Off" fill="none" stroke="#223742" stroke-linecap="round" stroke-linejoin="round" d="M22.121,36.271h-6.125
			v-11h6.125V36.271z"/>
		<g>
			<path i:knockout="Off" fill="none" stroke="#5383A0" stroke-linecap="round" stroke-linejoin="round" d="M30.368,18.059h5.249
				L18.059,0.5L0.5,18.059h5.249c-0.016,0.908,0.004,1.912,0.004,3.008v7.048c0,7.572-0.484,7.243,4.622,7.243h15.367
				c5.105,0,4.621,0.329,4.621-7.243v-7.048C30.363,19.971,30.384,18.967,30.368,18.059z"/>
			<path i:knockout="Off" fill="none" stroke="#5383A0" stroke-linecap="round" stroke-linejoin="round" d="M21.121,35.313h-6.125
				v-11h6.125V35.313z"/>
		</g>
	</g>
</svg>
