<?xml version="1.0" encoding="utf-8"?>
<!-- Generator: Adobe Illustrator 10.0, SVG Export Plug-In . SVG Version: 3.0.0 Build 76)  -->
<!DOCTYPE svg PUBLIC "-//W3C//DTD SVG 1.0//EN"    "http://www.w3.org/TR/2001/REC-SVG-20010904/DTD/svg10.dtd" [
	<!ENTITY ns_flows "http://ns.adobe.com/Flows/1.0/">
	<!ENTITY ns_extend "http://ns.adobe.com/Extensibility/1.0/">
	<!ENTITY ns_ai "http://ns.adobe.com/AdobeIllustrator/10.0/">
	<!ENTITY ns_graphs "http://ns.adobe.com/Graphs/1.0/">
	<!ENTITY ns_vars "http://ns.adobe.com/Variables/1.0/">
	<!ENTITY ns_imrep "http://ns.adobe.com/ImageReplacement/1.0/">
	<!ENTITY ns_sfw "http://ns.adobe.com/SaveForWeb/1.0/">
	<!ENTITY ns_custom "http://ns.adobe.com/GenericCustomNamespace/1.0/">
	<!ENTITY ns_adobe_xpath "http://ns.adobe.com/XPath/1.0/">
	<!ENTITY ns_svg "http://www.w3.org/2000/svg">
	<!ENTITY ns_xlink "http://www.w3.org/1999/xlink">
]>
<svg 
	 xmlns:x="&ns_extend;" xmlns:i="&ns_ai;" xmlns:graph="&ns_graphs;" i:viewOrigin="12.624 22.6465" i:rulerOrigin="0 0" i:pageBounds="0 48 48 0"
	 xmlns="&ns_svg;" xmlns:xlink="&ns_xlink;" xmlns:a="http://ns.adobe.com/AdobeSVGViewerExtensions/3.0/"
	 width="30.563" height="31.081" viewBox="0 0 30.563 31.081" overflow="visible" enable-background="new 0 0 30.563 31.081"
	 xml:space="preserve">
	<metadata>
		<variableSets  xmlns="http://ns.adobe.com/Variables/1.0/">
			<variableSet  varSetName="binding1" locked="none">
				<variables></variables>
				<v:sampleDataSets  xmlns="http://ns.adobe.com/GenericCustomNamespace/1.0/" xmlns:v="http://ns.adobe.com/Variables/1.0/">
					</v:sampleDataSets>
			</variableSet>
		</variableSets>
		<sfw  xmlns="&ns_sfw;">
			<slices></slices>
			<sliceSourceBounds  x="12.624" y="-8.435" width="30.563" height="31.081" bottomLeftOrigin="true"></sliceSourceBounds>
			<optimizationSettings>
				<targetSettings  fileFormat="PNG24Format" targetSettingsID="0">
					<PNG24Format  transparency="true" interlaced="false" noMatteColor="false" matteColor="#FFFFFF" filtered="false">
						</PNG24Format>
				</targetSettings>
			</optimizationSettings>
		</sfw>
	</metadata>
	<g id="Layer_2" i:layer="yes" i:dimmedPercent="50" i:rgbTrio="#FFFF4F004F00">
		<path i:knockout="Off" fill="#484F01" d="M30.563,3.953c0-1.857-1.5-3.37-3.34-3.37H4.108c-1.84,0-3.338,1.513-3.338,3.37
			c0,0.108,0.021,0.213,0.032,0.319H0.798l0.009,0.049C0.825,4.488,0.85,4.652,0.893,4.809l4.253,24.07
			c0.011,0.068,0.021,0.137,0.036,0.204l0.039,0.214l0.022-0.006c0.312,1.009,1.172,1.743,2.201,1.782v0.007h0.073
			c0.004,0,0.007,0.001,0.011,0.001c0.003,0,0.006-0.001,0.01-0.001H23.8c1.229,0,2.234-0.993,2.391-2.273l0.023,0.004l4.275-24.115
			L30.474,4.69C30.53,4.454,30.563,4.207,30.563,3.953z M28.737,8.929l-0.014-0.002l-3.519,19.719
			c-0.078,0.801-0.675,1.43-1.404,1.43c-0.006,0-0.01-0.002-0.015-0.002v0.014L9.429,30.074c0.002-0.002,0.002-0.003,0.004-0.005
			H7.687v-0.015c-0.049,0.006-0.098,0.02-0.147,0.02H7.525c-0.649-0.003-1.193-0.503-1.357-1.181l-0.039-0.213
			c-0.003-0.029-0.005-0.063-0.008-0.094L6.107,28.59l-0.519-2.97L2.354,7.325l-0.01,0.002L1.782,4.121L1.789,4.12L1.788,4.116
			C1.785,4.061,1.772,4.01,1.772,3.953c0-1.301,1.048-2.358,2.336-2.358h17.989v-0.01h5.116v0.011c0.004,0,0.006-0.001,0.011-0.001
			c1.289,0,2.338,1.06,2.338,2.358C29.562,4.047,28.737,8.929,28.737,8.929z"/>
		<path i:knockout="Off" fill="#484F01" d="M23.22,30.418h1.291l1-1.333l0.293-1.917L23.22,30.418z"/>
		<path i:knockout="Off" fill="#97B101" d="M29.751,3.335C29.751,1.496,28.255,0,26.417,0H3.333C1.495,0,0,1.496,0,3.335
			c0,0.105,0.021,0.21,0.032,0.314H0.028l0.009,0.05c0.018,0.165,0.044,0.325,0.086,0.481l4.248,23.809
			c0.011,0.066,0.021,0.135,0.036,0.2l0.038,0.212l0.022-0.005c0.312,0.996,1.171,1.726,2.198,1.764v0.008h0.073
			c0.004,0,0.007,0.001,0.011,0.001c0.003,0,0.006-0.001,0.01-0.001h16.239c1.228,0,2.229-0.983,2.387-2.249l0.023,0.004
			l4.271-23.854l-0.017-0.005C29.718,3.829,29.751,3.586,29.751,3.335z M27.927,8.254l-0.012-0.002l-3.514,19.503
			c-0.078,0.791-0.672,1.411-1.402,1.411c-0.006,0-0.01-0.002-0.016-0.002v0.014l-14.337-0.01c0.002-0.003,0.002-0.004,0.004-0.006
			H6.906v-0.014c-0.049,0.007-0.096,0.02-0.147,0.02H6.745c-0.648-0.004-1.191-0.497-1.355-1.165l-0.038-0.212
			c-0.003-0.03-0.005-0.063-0.008-0.094L5.329,27.7l-0.518-2.938L1.582,6.667l-0.01,0.002L1.01,3.499l0.007-0.001L1.016,3.494
			C1.013,3.44,1,3.389,1,3.335C1,2.048,2.047,1,3.333,1h17.963V0.99h5.109v0.013C26.409,1.003,26.413,1,26.417,1
			c1.287,0,2.334,1.048,2.334,2.335C28.751,3.426,27.927,8.254,27.927,8.254z"/>
		<g>
			<g i:knockout="Off">
				<path i:knockout="Off" fill="#484F01" d="M11.012,23.153l0.928-2.294c1.496,0.5,3.179,0.564,4.843,0.077
					c1.417-0.415,2.627-1.177,3.568-2.153c-2.545,0.535-5.074,0.184-7.23-0.837l1.075-2.657l-6.749,2.215L11.012,23.153z"/>
				<path i:knockout="Off" fill="#484F01" d="M19.236,8.717l-1.123,2.203c-1.446-0.626-3.116-0.839-4.815-0.497
					c-1.448,0.292-2.721,0.948-3.742,1.84c2.582-0.313,5.07,0.256,7.132,1.457l-1.302,2.557l6.916-1.623L19.236,8.717z"/>
			</g>
			<g i:knockout="Off">
				<path i:knockout="Off" fill="#97B101" d="M11.782,22.403l0.928-2.294c1.496,0.5,3.178,0.564,4.842,0.077
					c1.418-0.415,2.629-1.177,3.569-2.153c-2.546,0.535-5.073,0.184-7.229-0.837l1.074-2.657l-6.748,2.215L11.782,22.403z"/>
				<path i:knockout="Off" fill="#97B101" d="M20.009,7.965l-1.123,2.203c-1.447-0.625-3.117-0.839-4.816-0.496
					c-1.449,0.292-2.721,0.948-3.742,1.84c2.582-0.313,5.07,0.256,7.131,1.457l-1.301,2.558l6.915-1.623L20.009,7.965z"/>
			</g>
		</g>
	</g>
</svg>
