<?xml version="1.0" encoding="utf-8"?>
<!-- Generator: Adobe Illustrator 10.0, SVG Export Plug-In . SVG Version: 3.0.0 Build 76)  -->
<!DOCTYPE svg PUBLIC "-//W3C//DTD SVG 1.0//EN"    "http://www.w3.org/TR/2001/REC-SVG-20010904/DTD/svg10.dtd" [
	<!ENTITY ns_flows "http://ns.adobe.com/Flows/1.0/">
	<!ENTITY ns_extend "http://ns.adobe.com/Extensibility/1.0/">
	<!ENTITY ns_ai "http://ns.adobe.com/AdobeIllustrator/10.0/">
	<!ENTITY ns_graphs "http://ns.adobe.com/Graphs/1.0/">
	<!ENTITY ns_vars "http://ns.adobe.com/Variables/1.0/">
	<!ENTITY ns_imrep "http://ns.adobe.com/ImageReplacement/1.0/">
	<!ENTITY ns_sfw "http://ns.adobe.com/SaveForWeb/1.0/">
	<!ENTITY ns_custom "http://ns.adobe.com/GenericCustomNamespace/1.0/">
	<!ENTITY ns_adobe_xpath "http://ns.adobe.com/XPath/1.0/">
	<!ENTITY ns_svg "http://www.w3.org/2000/svg">
	<!ENTITY ns_xlink "http://www.w3.org/1999/xlink">
]>
<svg 
	 xmlns:x="&ns_extend;" xmlns:i="&ns_ai;" xmlns:graph="&ns_graphs;" i:viewOrigin="2.3452 43.3682" i:rulerOrigin="0 0" i:pageBounds="0 48 48 0"
	 xmlns="&ns_svg;" xmlns:xlink="&ns_xlink;" xmlns:a="http://ns.adobe.com/AdobeSVGViewerExtensions/3.0/"
	 width="42.917" height="37.323" viewBox="0 0 42.917 37.323" overflow="visible" enable-background="new 0 0 42.917 37.323"
	 xml:space="preserve">
	<metadata>
		<variableSets  xmlns="http://ns.adobe.com/Variables/1.0/">
			<variableSet  varSetName="binding1" locked="none">
				<variables></variables>
				<v:sampleDataSets  xmlns="http://ns.adobe.com/GenericCustomNamespace/1.0/" xmlns:v="http://ns.adobe.com/Variables/1.0/">
					</v:sampleDataSets>
			</variableSet>
		</variableSets>
		<sfw  xmlns="&ns_sfw;">
			<slices></slices>
			<sliceSourceBounds  y="6.045" x="2.345" width="42.917" height="37.323" bottomLeftOrigin="true"></sliceSourceBounds>
		</sfw>
	</metadata>
	<g id="Layer_2" i:layer="yes" i:dimmedPercent="50" i:rgbTrio="#FFFF4F004F00">
		<g i:knockout="Off">
			<g i:knockout="Off">
				<path i:knockout="Off" fill="#7F3A01" d="M3.582,36.301h0.163l-0.163-0.002C3.582,36.299,3.582,36.299,3.582,36.301z"/>
				<path i:knockout="Off" fill="#7F3A01" d="M41.409,34.816c-0.011,0-0.021,0.006-0.029,0.006l-0.828,1.48
					c0.174,0.299,0.484,0.512,0.857,0.512c0.551,0,1-0.447,1-1C42.409,35.264,41.958,34.816,41.409,34.816z"/>
				<path i:knockout="Off" fill="#7F3A01" d="M2.24,36.27c-0.025,0.004-0.048,0.016-0.075,0.016c-0.27,0-0.49-0.219-0.49-0.487
					c0-0.054,0.015-0.099,0.029-0.144l-0.007-0.008l0.014-0.025c0.01-0.024,0.027-0.049,0.042-0.073L2.176,34.8
					c-0.005,0-0.007-0.002-0.011-0.002c-0.551,0-0.999,0.446-0.999,1c0,0.551,0.448,0.998,0.999,0.998
					c0.369,0,0.677-0.209,0.851-0.507l-0.768-0.01L2.24,36.27z"/>
				<path i:knockout="Off" fill="#7F3A01" d="M3.901,36.303v-0.002H3.745L3.901,36.303z"/>
				<path i:knockout="Off" fill="#7F3A01" d="M1.704,35.654c0.003-0.01,0.002-0.022,0.007-0.033l-0.014,0.025L1.704,35.654z"/>
			</g>
			<g i:knockout="Off">
				<g i:knockout="Off">
					<g i:knockout="Off">
						<path i:knockout="Off" fill="#7F3A01" d="M42.592,34.895c-0.004-0.008-0.004-0.018-0.01-0.029L23.125,1.192
							c-0.002-0.003-0.006-0.004-0.008-0.007c-0.24-0.51-0.758-0.866-1.359-0.866c-0.634,0-1.175,0.395-1.398,0.95L0.915,34.922
							c-0.015,0.024-0.018,0.055-0.027,0.084c-0.144,0.229-0.23,0.498-0.23,0.791c0,0.83,0.676,1.508,1.508,1.508
							c0.031,0,0.06-0.008,0.09-0.01c0.038,0.01,0.074,0.022,0.114,0.022h38.917c0.006,0,0.012-0.004,0.02-0.004
							c0.033,0.002,0.068,0.01,0.102,0.01c0.832,0,1.508-0.678,1.508-1.51C42.917,35.469,42.793,35.15,42.592,34.895z
							 M41.409,36.814c-0.373,0-0.685-0.213-0.857-0.512H38.92l0.002-0.002H3.901v0.002l-0.156-0.002H3.582c0-0.002,0-0.002,0-0.002
							l-0.566-0.011c-0.174,0.298-0.482,0.507-0.851,0.507c-0.551,0-0.999-0.447-0.999-0.998c0-0.554,0.448-1,0.999-1
							c0.004,0,0.006,0.002,0.011,0.002l0.272-0.48c-0.002,0-0.004-0.002-0.007-0.002L20.908,2.318l0.387-0.685l0.014,0.001
							c0.076-0.175,0.25-0.298,0.451-0.298c0.225,0,0.408,0.154,0.465,0.36h0.004l0.371,0.64l18.504,32.001
							c-0.002,0-0.004,0.002-0.006,0.002l0.281,0.481c0.01,0,0.02-0.006,0.029-0.006c0.551,0,1,0.447,1,0.998
							C42.409,36.367,41.958,36.814,41.409,36.814z"/>
					</g>
				</g>
			</g>
			<path i:knockout="Off" fill="#7F3A01" d="M23.72,25.107c0,0.854-0.865,1.549-1.936,1.549c-1.067,0-1.933-0.694-1.933-1.549
				V14.751c0-0.854,0.866-1.548,1.933-1.548c1.07,0,1.936,0.693,1.936,1.548V25.107z"/>
			<path i:knockout="Off" fill="#7F3A01" d="M23.72,33.006c0,0.299-0.865,0.541-1.936,0.541c-1.067,0-1.933-0.242-1.933-0.541
				v-3.625c0-0.302,0.866-0.541,1.933-0.541c1.07,0,1.936,0.239,1.936,0.541V33.006z"/>
		</g>
		<g i:knockout="Off">
			<g i:knockout="Off">
				<path i:knockout="Off" fill="none" d="M2.873,35.372h0.16l-0.16-0.002C2.873,35.37,2.873,35.37,2.873,35.372z"/>
				<path i:knockout="Off" fill="#FFFFFF" d="M39.963,35.364c0.021,0.004,0.041,0.015,0.063,0.015c0.267,0,0.481-0.218,0.481-0.482
					c0-0.133-0.055-0.254-0.143-0.342l0.029,0.049L39.963,35.364z"/>
				<path i:knockout="Off" fill="#E76F00" d="M40.028,33.913c-0.01,0-0.02,0.007-0.029,0.007l0.369,0.635
					c0.088,0.088,0.144,0.209,0.144,0.342c0,0.266-0.218,0.482-0.482,0.482c-0.022,0-0.043-0.011-0.063-0.015l-0.004,0.011h-0.773
					c0.17,0.295,0.477,0.504,0.842,0.504c0.541,0,0.982-0.439,0.982-0.982S40.569,33.913,40.028,33.913z"/>
				<path i:knockout="Off" fill="#E76F00" d="M1.555,35.343c-0.025,0.004-0.047,0.016-0.073,0.016C1.216,35.358,1,35.142,1,34.876
					c0-0.052,0.014-0.097,0.028-0.142l-0.007-0.008l0.014-0.023c0.01-0.024,0.026-0.049,0.041-0.073l0.416-0.734
					c-0.004,0-0.007-0.002-0.011-0.002c-0.542,0-0.981,0.439-0.981,0.982s0.439,0.981,0.981,0.981c0.362,0,0.665-0.205,0.835-0.496
					l-0.754-0.01L1.555,35.343z"/>
				<path i:knockout="Off" fill="#E76F00" d="M3.188,35.375v-0.003H3.033L3.188,35.375z"/>
				<path i:knockout="Off" fill="#E76F00" d="M1.028,34.735c0.003-0.01,0.003-0.021,0.007-0.031l-0.014,0.023L1.028,34.735z"/>
			</g>
			<g i:knockout="Off">
				<g i:knockout="Off">
					<g i:knockout="Off">
						<path i:knockout="Off" fill="#E76F00" d="M41.194,33.989c-0.006-0.008-0.006-0.018-0.01-0.026L22.071,0.858
							c-0.002-0.003-0.004-0.004-0.006-0.007C21.827,0.35,21.32,0,20.729,0c-0.623,0-1.154,0.388-1.374,0.934L0.253,34.017
							c-0.015,0.025-0.018,0.055-0.027,0.082C0.085,34.325,0,34.589,0,34.876c0,0.815,0.664,1.481,1.481,1.481
							c0.03,0,0.058-0.008,0.088-0.01c0.037,0.01,0.072,0.022,0.112,0.022h38.228c0.008,0,0.014-0.004,0.021-0.004
							c0.03,0.002,0.063,0.011,0.098,0.011c0.815,0,1.481-0.666,1.481-1.482C41.51,34.554,41.389,34.241,41.194,33.989z
							 M40.028,35.878c-0.365,0-0.672-0.209-0.842-0.505h-1.602v-0.002H3.188v0.002l-0.154-0.002h-0.16c0-0.002,0-0.002,0-0.002
							l-0.557-0.008c-0.17,0.291-0.473,0.496-0.835,0.496c-0.542,0-0.981-0.438-0.981-0.981s0.439-0.982,0.981-0.982
							c0.004,0,0.007,0.002,0.011,0.002l0.268-0.473c-0.003,0-0.005-0.002-0.008-0.002l18.14-31.456l0.38-0.673l0.014,0.001
							C20.359,1.12,20.53,1,20.729,1c0.221,0,0.4,0.151,0.457,0.354h0.003l0.365,0.628L39.73,33.441
							c-0.002,0-0.004,0.002-0.006,0.002l0.274,0.476c0.01,0,0.021-0.007,0.029-0.007c0.541,0,0.982,0.439,0.982,0.982
							S40.569,35.878,40.028,35.878z"/>
					</g>
				</g>
			</g>
			<path i:knockout="Off" fill="#E76F00" d="M22.655,24.368c0,0.841-0.85,1.521-1.9,1.521c-1.05,0-1.9-0.682-1.9-1.521V14.188
				c0-0.84,0.851-1.521,1.9-1.521c1.05,0,1.9,0.682,1.9,1.521V24.368z"/>
			<path i:knockout="Off" fill="#E76F00" d="M22.655,32.134c0,0.293-0.85,0.53-1.9,0.53c-1.05,0-1.9-0.237-1.9-0.53v-3.564
				c0-0.295,0.851-0.531,1.9-0.531c1.05,0,1.9,0.236,1.9,0.531V32.134z"/>
		</g>
	</g>
</svg>
