<?xml version="1.0" encoding="utf-8"?>
<!-- Generator: Adobe Illustrator 10.0, SVG Export Plug-In . SVG Version: 3.0.0 Build 76)  -->
<!DOCTYPE svg PUBLIC "-//W3C//DTD SVG 1.0//EN"    "http://www.w3.org/TR/2001/REC-SVG-20010904/DTD/svg10.dtd" [
	<!ENTITY ns_flows "http://ns.adobe.com/Flows/1.0/">
	<!ENTITY ns_extend "http://ns.adobe.com/Extensibility/1.0/">
	<!ENTITY ns_ai "http://ns.adobe.com/AdobeIllustrator/10.0/">
	<!ENTITY ns_graphs "http://ns.adobe.com/Graphs/1.0/">
	<!ENTITY ns_vars "http://ns.adobe.com/Variables/1.0/">
	<!ENTITY ns_imrep "http://ns.adobe.com/ImageReplacement/1.0/">
	<!ENTITY ns_sfw "http://ns.adobe.com/SaveForWeb/1.0/">
	<!ENTITY ns_custom "http://ns.adobe.com/GenericCustomNamespace/1.0/">
	<!ENTITY ns_adobe_xpath "http://ns.adobe.com/XPath/1.0/">
	<!ENTITY ns_svg "http://www.w3.org/2000/svg">
	<!ENTITY ns_xlink "http://www.w3.org/1999/xlink">
]>
<svg 
	 xmlns:x="&ns_extend;" xmlns:i="&ns_ai;" xmlns:graph="&ns_graphs;" i:viewOrigin="36.6182 30.6006" i:rulerOrigin="0 0" i:pageBounds="0 48 48 0"
	 xmlns="&ns_svg;" xmlns:xlink="&ns_xlink;" xmlns:a="http://ns.adobe.com/AdobeSVGViewerExtensions/3.0/"
	 width="35.457" height="35.333" viewBox="0 0 35.457 35.333" overflow="visible" enable-background="new 0 0 35.457 35.333"
	 xml:space="preserve">
	<metadata>
		<variableSets  xmlns="http://ns.adobe.com/Variables/1.0/">
			<variableSet  varSetName="binding1" locked="none">
				<variables></variables>
				<v:sampleDataSets  xmlns="http://ns.adobe.com/GenericCustomNamespace/1.0/" xmlns:v="http://ns.adobe.com/Variables/1.0/">
					</v:sampleDataSets>
			</variableSet>
		</variableSets>
		<sfw  xmlns="&ns_sfw;">
			<slices></slices>
			<sliceSourceBounds  y="-4.732" x="36.618" width="35.457" height="35.333" bottomLeftOrigin="true"></sliceSourceBounds>
		</sfw>
	</metadata>
	<g id="Layer_1" i:layer="yes" i:dimmedPercent="50" i:rgbTrio="#4F008000FFFF">
		<g>
			<path i:knockout="Off" fill="#484F01" d="M18.229,0.875c-1.777,0-3.492,0.271-5.106,0.772C6.107,3.83,1,10.381,1,18.104
				c0,9.5,7.729,17.229,17.229,17.229c0.546,0,1.086-0.029,1.619-0.079c8.743-0.819,15.609-8.196,15.609-17.15
				C35.457,8.604,27.729,0.875,18.229,0.875z M20.269,33.756c-0.669,0.086-1.349,0.136-2.04,0.136
				c-8.705,0-15.787-7.082-15.787-15.788c0-6.784,4.303-12.583,10.322-14.812c1.703-0.63,3.545-0.976,5.465-0.976
				c8.706,0,15.788,7.082,15.788,15.787C34.017,26.118,28.013,32.751,20.269,33.756z"/>
			<path i:knockout="Off" fill="#484F01" d="M3.324,18.116h2.882"/>
			<path i:knockout="Off" fill="#484F01" d="M3.324,17.496c-0.198,0-0.359,0.264-0.359,0.59c0,0.327,0.161,0.591,0.359,0.591h2.882
				c0.198,0,0.36-0.264,0.36-0.591c0-0.326-0.162-0.59-0.36-0.59H3.324z"/>
			<path i:knockout="Off" fill="#484F01" d="M29.617,18.116h2.882"/>
			<path i:knockout="Off" fill="#484F01" d="M29.617,17.749c-0.199,0-0.359,0.245-0.359,0.547c0,0.304,0.16,0.548,0.359,0.548h2.882
				c0.198,0,0.36-0.244,0.36-0.548c0-0.302-0.162-0.547-0.36-0.547H29.617z"/>
			<path i:knockout="Off" fill="#484F01" d="M18.092,3.229v2.882"/>
			<path i:knockout="Off" fill="#484F01" d="M17.65,3.229v2.882c0,0.198,0.237,0.359,0.531,0.359s0.532-0.161,0.532-0.359V3.229
				c0-0.199-0.238-0.36-0.532-0.36S17.65,3.03,17.65,3.229z"/>
			<path i:knockout="Off" fill="#484F01" d="M18.092,30.003v2.881"/>
			<path i:knockout="Off" fill="#484F01" d="M17.776,30.003v2.881c0,0.199,0.222,0.36,0.496,0.36c0.273,0,0.495-0.161,0.495-0.36
				v-2.881c0-0.199-0.222-0.36-0.495-0.36C17.998,29.643,17.776,29.804,17.776,30.003z"/>
			<path i:knockout="Off" fill="#484F01" d="M17.896,19.13l-8.4,8.4"/>
			<path i:knockout="Off" fill="#484F01" d="M17.799,19.093l-8.4,8.4c-0.07,0.069-0.07,0.184,0,0.255c0.07,0.07,0.185,0.07,0.255,0
				l8.4-8.4c0.07-0.071,0.07-0.185,0-0.255S17.869,19.022,17.799,19.093z"/>
			<path i:knockout="Off" fill="#484F01" d="M9.53,8.69C9.297,8.877,9.26,9.217,9.446,9.449l7.954,9.936
				c0.186,0.232,0.526,0.271,0.759,0.084c0.233-0.187,0.271-0.527,0.084-0.76l-7.954-9.935C10.104,8.542,9.763,8.504,9.53,8.69z"/>
			<path i:knockout="Off" fill="#484F01" d="M26.896,14.642l-9.215,3.993c-0.273,0.118-0.399,0.436-0.281,0.71
				c0.119,0.273,0.437,0.399,0.711,0.28l9.215-3.991c0.273-0.119,0.399-0.438,0.28-0.711C27.488,14.649,27.17,14.523,26.896,14.642z
				"/>
		</g>
		<path i:knockout="Off" fill="#96B119" d="M17.229,0c-1.777,0-3.492,0.271-5.106,0.772C5.107,2.955,0,9.506,0,17.229
			c0,9.5,7.729,17.229,17.229,17.229c0.546,0,1.086-0.029,1.619-0.079c8.743-0.819,15.609-8.196,15.609-17.15
			C34.457,7.729,26.729,0,17.229,0z M19.269,32.881c-0.669,0.086-1.349,0.136-2.04,0.136c-8.705,0-15.787-7.082-15.787-15.788
			c0-6.784,4.303-12.583,10.322-14.812c1.703-0.63,3.545-0.976,5.465-0.976c8.706,0,15.788,7.082,15.788,15.787
			C33.017,25.243,27.013,31.876,19.269,32.881z"/>
		<path i:knockout="Off" fill="#FFFFFF" d="M2.324,17.241h2.882"/>
		<path i:knockout="Off" fill="#96B119" d="M2.699,16.871c-0.198,0-0.359,0.264-0.359,0.59c0,0.327,0.161,0.591,0.359,0.591h2.882
			c0.198,0,0.36-0.264,0.36-0.591c0-0.326-0.162-0.59-0.36-0.59H2.699z"/>
		<path i:knockout="Off" fill="#FFFFFF" d="M28.617,17.241h2.882"/>
		<path i:knockout="Off" fill="#96B119" d="M28.992,17.124c-0.199,0-0.359,0.245-0.359,0.547c0,0.304,0.16,0.548,0.359,0.548h2.882
			c0.198,0,0.36-0.244,0.36-0.548c0-0.302-0.162-0.547-0.36-0.547H28.992z"/>
		<path i:knockout="Off" fill="#FFFFFF" d="M17.092,2.354v2.882"/>
		<path i:knockout="Off" fill="#96B119" d="M17.025,2.604v2.882c0,0.198,0.237,0.359,0.531,0.359s0.532-0.161,0.532-0.359V2.604
			c0-0.199-0.238-0.36-0.532-0.36S17.025,2.405,17.025,2.604z"/>
		<path i:knockout="Off" fill="#FFFFFF" d="M17.092,29.128v2.881"/>
		<path i:knockout="Off" fill="#96B119" d="M17.151,29.378v2.881c0,0.199,0.222,0.36,0.496,0.36c0.273,0,0.495-0.161,0.495-0.36
			v-2.881c0-0.199-0.222-0.36-0.495-0.36C17.373,29.018,17.151,29.179,17.151,29.378z"/>
		<path i:knockout="Off" fill="#E66F11" d="M16.896,18.255l-8.4,8.4"/>
		<path i:knockout="Off" fill="#E66F11" d="M17.049,18.593l-8.4,8.4c-0.07,0.069-0.07,0.184,0,0.255c0.07,0.07,0.185,0.07,0.255,0
			l8.4-8.4c0.07-0.071,0.07-0.185,0-0.255S17.119,18.522,17.049,18.593z"/>
		<path i:knockout="Off" d="M8.78,8.19C8.547,8.377,8.51,8.717,8.696,8.949l7.954,9.936c0.186,0.232,0.526,0.271,0.759,0.084
			c0.233-0.187,0.271-0.527,0.084-0.76L9.539,8.274C9.354,8.042,9.013,8.004,8.78,8.19z"/>
		<path i:knockout="Off" d="M26.146,14.142l-9.215,3.993c-0.273,0.118-0.399,0.436-0.281,0.71c0.119,0.273,0.437,0.399,0.711,0.28
			l9.215-3.991c0.273-0.119,0.399-0.438,0.28-0.711C26.738,14.149,26.42,14.023,26.146,14.142z"/>
	</g>
</svg>
