<?xml version="1.0" encoding="utf-8"?>
<!-- Generator: Adobe Illustrator 10.0, SVG Export Plug-In . SVG Version: 3.0.0 Build 76)  -->
<!DOCTYPE svg PUBLIC "-//W3C//DTD SVG 1.0//EN"    "http://www.w3.org/TR/2001/REC-SVG-20010904/DTD/svg10.dtd" [
	<!ENTITY ns_flows "http://ns.adobe.com/Flows/1.0/">
	<!ENTITY ns_extend "http://ns.adobe.com/Extensibility/1.0/">
	<!ENTITY ns_ai "http://ns.adobe.com/AdobeIllustrator/10.0/">
	<!ENTITY ns_graphs "http://ns.adobe.com/Graphs/1.0/">
	<!ENTITY ns_vars "http://ns.adobe.com/Variables/1.0/">
	<!ENTITY ns_imrep "http://ns.adobe.com/ImageReplacement/1.0/">
	<!ENTITY ns_sfw "http://ns.adobe.com/SaveForWeb/1.0/">
	<!ENTITY ns_custom "http://ns.adobe.com/GenericCustomNamespace/1.0/">
	<!ENTITY ns_adobe_xpath "http://ns.adobe.com/XPath/1.0/">
	<!ENTITY ns_svg "http://www.w3.org/2000/svg">
	<!ENTITY ns_xlink "http://www.w3.org/1999/xlink">
]>
<svg 
	 xmlns:x="&ns_extend;" xmlns:i="&ns_ai;" xmlns:graph="&ns_graphs;" i:viewOrigin="-7.1792 43.5869" i:rulerOrigin="0 0" i:pageBounds="0 48 48 0"
	 xmlns="&ns_svg;" xmlns:xlink="&ns_xlink;" xmlns:a="http://ns.adobe.com/AdobeSVGViewerExtensions/3.0/"
	 width="37.843" height="31.587" viewBox="0 0 37.843 31.587" overflow="visible" enable-background="new 0 0 37.843 31.587"
	 xml:space="preserve">
	<metadata>
		<variableSets  xmlns="http://ns.adobe.com/Variables/1.0/">
			<variableSet  varSetName="binding1" locked="none">
				<variables></variables>
				<v:sampleDataSets  xmlns="http://ns.adobe.com/GenericCustomNamespace/1.0/" xmlns:v="http://ns.adobe.com/Variables/1.0/">
					</v:sampleDataSets>
			</variableSet>
		</variableSets>
		<sfw  xmlns="&ns_sfw;">
			<slices></slices>
			<sliceSourceBounds  y="12" x="-7.179" width="37.843" height="31.587" bottomLeftOrigin="true"></sliceSourceBounds>
		</sfw>
	</metadata>
	<g id="Layer_1" i:layer="yes" i:dimmedPercent="50" i:rgbTrio="#4F008000FFFF">
		<g>
			<g i:knockout="Off">
				<path i:knockout="Off" fill="#223742" d="M37.843,21.465l-0.008-2.946V12.12l0.008-2.291c0.02-4.52,0.031-6.582-1.012-7.71
					c-0.848-0.922-2.25-0.992-4.139-0.992H7.041c-5.574,0-5.903,1.242-5.903,10.993v6.397c0,12.457,0.275,13.069,5.903,13.069
					h25.653c2.052,0,3.289,0,4.111-0.894C37.873,29.538,37.865,27.34,37.843,21.465z M36.705,21.471
					c0.019,5.034,0.027,7.562-0.707,8.357c-0.465,0.507-1.4,0.531-3.304,0.531H7.041c-4.766,0-4.766,0-4.766-11.842V12.12
					c0-9.764,0.36-9.764,4.766-9.764h25.653c1.824,0,2.843,0.097,3.333,0.63c0.707,0.767,0.695,2.923,0.678,6.838l-0.006,2.296
					v6.397L36.705,21.471z"/>
				<path i:knockout="Off" fill="#223742" d="M34.574,16.985v-1.461l0.008-1.361c0.031-3.296,0.06-6.146-1.674-7.896
					c-1.09-1.099-2.773-1.634-5.146-1.634H11.424c-2.374,0-4.057,0.535-5.146,1.634c-1.733,1.75-1.706,4.6-1.675,7.896l0.008,1.361
					v1.461l-0.008,1.357c-0.031,3.3-0.059,6.146,1.675,7.897c1.09,1.099,2.772,1.634,5.146,1.634h16.337
					c2.373,0,4.056-0.535,5.146-1.634c1.732-1.752,1.705-4.599,1.674-7.897L34.574,16.985z M33.445,18.354
					c0.028,3.044,0.053,5.672-1.347,7.085c-0.864,0.872-2.283,1.298-4.337,1.298h-9.884c-0.045-0.583-0.1-1.161-0.18-1.717
					c-0.188-1.298-0.45-2.497-0.715-3.529c-0.368-1.431-0.735-2.515-0.913-3.012c-0.067-0.183-0.111-0.301-0.115-0.308
					c-0.007-0.021-0.273-0.708-0.589-1.848c0,0-0.384-1.459-0.385-1.593c-0.145-0.666-0.286-1.388-0.4-2.19
					c-0.134-0.955-0.226-2.001-0.258-3.094c-0.034-1.175,0.016-2.408,0.174-3.675h13.267c2.055,0,3.473,0.424,4.338,1.298
					c1.398,1.414,1.374,4.04,1.346,7.082l-0.009,1.372v1.461L33.445,18.354z"/>
			</g>
			<path i:knockout="Off" fill="#223742" d="M33.533,30.534l1.801-1.535l1.422-4.098l-0.094,4.711l-1.232,1.125L33.533,30.534z"/>
			<path i:knockout="Off" fill="#223742" d="M27.083,26.849l3.982-2.049l2.378-6.443L34.1,22.65l-1.138,2.56l-3.319,1.946
				L27.083,26.849z"/>
			<path i:knockout="Off" fill="#223742" d="M1.863,1.558l-1.138,2.97l0.379,3.891l1.517-5.222l3.282-1.968L1.958,1.25"/>
			<g i:knockout="Off">
				<path i:knockout="Off" fill="#5383A0" d="M36.707,20.338l-0.008-2.945v-6.398l0.008-2.291c0.021-4.52,0.03-6.583-1.012-7.71
					C34.847,0.071,33.445,0,31.556,0H5.903C0.329,0,0,1.242,0,10.993v6.398c0,12.456,0.275,13.066,5.903,13.066h25.653
					c2.051,0,3.289,0,4.111-0.891C36.734,28.411,36.728,26.214,36.707,20.338z M35.568,20.342c0.018,5.036,0.026,7.563-0.707,8.358
					c-0.467,0.508-1.402,0.529-3.305,0.529H5.903c-4.766,0-4.766,0-4.766-11.838v-6.398c0-9.766,0.36-9.766,4.766-9.766h25.653
					c1.824,0,2.843,0.099,3.334,0.631c0.707,0.767,0.695,2.923,0.678,6.838l-0.007,2.296v6.398L35.568,20.342z"/>
				<path i:knockout="Off" fill="#5383A0" d="M33.437,15.858v-1.463l0.008-1.359c0.031-3.296,0.059-6.146-1.675-7.896
					c-1.09-1.099-2.772-1.634-5.146-1.634H10.287c-2.374,0-4.057,0.535-5.146,1.634c-1.733,1.75-1.706,4.6-1.675,7.896l0.008,1.359
					v1.463l-0.008,1.357c-0.031,3.298-0.059,6.146,1.675,7.896c1.09,1.102,2.772,1.636,5.146,1.636h16.335
					c2.375,0,4.057-0.534,5.146-1.636c1.734-1.75,1.707-4.599,1.676-7.896L33.437,15.858z M32.307,17.228
					c0.028,3.042,0.054,5.672-1.347,7.083c-0.863,0.875-2.283,1.299-4.338,1.299H16.74c-0.045-0.581-0.1-1.16-0.18-1.717
					c-0.188-1.298-0.45-2.498-0.715-3.527c-0.368-1.432-0.735-2.517-0.913-3.012c-0.067-0.185-0.111-0.302-0.115-0.309
					c-0.007-0.021-0.273-0.707-0.589-1.845c0,0-0.384-1.461-0.385-1.597c-0.145-0.666-0.285-1.386-0.399-2.189
					c-0.134-0.956-0.226-2.001-0.258-3.094C13.15,7.145,13.2,5.911,13.357,4.644h13.266c2.056,0,3.475,0.426,4.338,1.299
					c1.399,1.414,1.375,4.041,1.347,7.083l-0.009,1.369v1.463L32.307,17.228z"/>
			</g>
			<path i:knockout="Off" fill="#FFFFFF" d="M5.444,8.079C5.331,8.178,5.273,8.316,5.273,8.455c0,0.117,0.041,0.234,0.124,0.329
				c0,0,1.787,2.043,2.242,2.563c-0.457,0.516-2.239,2.526-2.239,2.526c-0.084,0.095-0.126,0.213-0.126,0.332
				c0,0.138,0.057,0.275,0.168,0.374c0.207,0.183,0.522,0.164,0.706-0.042l2.531-2.855c0.167-0.188,0.168-0.471,0.002-0.661
				L6.149,8.126C5.968,7.918,5.651,7.897,5.444,8.079z"/>
			<path i:knockout="Off" fill="#FFFFFF" d="M8.804,14.337c-0.276,0-0.5,0.224-0.5,0.5s0.224,0.5,0.5,0.5h3.813
				c0.276,0,0.5-0.224,0.5-0.5s-0.224-0.5-0.5-0.5H8.804z"/>
		</g>
	</g>
</svg>
