<?xml version="1.0" encoding="utf-8"?>
<!-- Generator: Adobe Illustrator 10.0, SVG Export Plug-In . SVG Version: 3.0.0 Build 76)  -->
<!DOCTYPE svg PUBLIC "-//W3C//DTD SVG 1.0//EN"    "http://www.w3.org/TR/2001/REC-SVG-20010904/DTD/svg10.dtd" [
	<!ENTITY ns_flows "http://ns.adobe.com/Flows/1.0/">
	<!ENTITY ns_extend "http://ns.adobe.com/Extensibility/1.0/">
	<!ENTITY ns_ai "http://ns.adobe.com/AdobeIllustrator/10.0/">
	<!ENTITY ns_graphs "http://ns.adobe.com/Graphs/1.0/">
	<!ENTITY ns_vars "http://ns.adobe.com/Variables/1.0/">
	<!ENTITY ns_imrep "http://ns.adobe.com/ImageReplacement/1.0/">
	<!ENTITY ns_sfw "http://ns.adobe.com/SaveForWeb/1.0/">
	<!ENTITY ns_custom "http://ns.adobe.com/GenericCustomNamespace/1.0/">
	<!ENTITY ns_adobe_xpath "http://ns.adobe.com/XPath/1.0/">
	<!ENTITY ns_svg "http://www.w3.org/2000/svg">
	<!ENTITY ns_xlink "http://www.w3.org/1999/xlink">
]>
<svg 
	 xmlns:x="&ns_extend;" xmlns:i="&ns_ai;" xmlns:graph="&ns_graphs;" i:viewOrigin="4.7217 45.0015" i:rulerOrigin="0 0" i:pageBounds="0 48 48 0"
	 xmlns="&ns_svg;" xmlns:xlink="&ns_xlink;" xmlns:a="http://ns.adobe.com/AdobeSVGViewerExtensions/3.0/"
	 width="39.612" height="42.998" viewBox="0 0 39.612 42.998" overflow="visible" enable-background="new 0 0 39.612 42.998"
	 xml:space="preserve">
	<metadata>
		<variableSets  xmlns="http://ns.adobe.com/Variables/1.0/">
			<variableSet  varSetName="binding1" locked="none">
				<variables></variables>
				<v:sampleDataSets  xmlns="http://ns.adobe.com/GenericCustomNamespace/1.0/" xmlns:v="http://ns.adobe.com/Variables/1.0/">
					</v:sampleDataSets>
			</variableSet>
		</variableSets>
		<sfw  xmlns="&ns_sfw;">
			<slices></slices>
			<sliceSourceBounds  y="2.004" x="4.722" width="39.612" height="42.998" bottomLeftOrigin="true"></sliceSourceBounds>
		</sfw>
	</metadata>
	<g id="Layer_1" i:layer="yes" i:dimmedPercent="50" i:rgbTrio="#4F008000FFFF">
		<g>
			<g>
				<path i:knockout="Off" fill="#223742" d="M11.694,14.825c0,7.697,6.262,13.959,13.958,13.959c7.698,0,13.96-6.263,13.96-13.959
					c0-7.697-6.262-13.959-13.96-13.959C17.956,0.866,11.694,7.128,11.694,14.825z M12.343,14.825c0-7.339,5.971-13.31,13.31-13.31
					c7.34,0,13.31,5.971,13.31,13.31s-5.97,13.31-13.31,13.31C18.313,28.135,12.343,22.165,12.343,14.825z"/>
				<path i:knockout="Off" fill="#223742" d="M21,14.825c0,2.565,2.087,4.653,4.652,4.653s4.653-2.088,4.653-4.653
					s-2.088-4.653-4.653-4.653S21,12.26,21,14.825z M22.947,14.825c0-1.492,1.214-2.705,2.705-2.705
					c1.492,0,2.706,1.213,2.706,2.705c0,1.492-1.214,2.705-2.706,2.705C24.161,17.53,22.947,16.317,22.947,14.825z"/>
				<path i:knockout="Off" fill="#5383A0" d="M10.611,13.959c0,7.698,6.262,13.96,13.959,13.96s13.959-6.262,13.959-13.96
					C38.529,6.262,32.268,0,24.57,0S10.611,6.262,10.611,13.959z M11.26,13.959c0-7.339,5.971-13.311,13.31-13.311
					c7.339,0,13.309,5.971,13.309,13.311c0,7.339-5.97,13.31-13.309,13.31C17.231,27.269,11.26,21.298,11.26,13.959z"/>
				<path i:knockout="Off" fill="#5383A0" d="M19.917,13.959c0,2.565,2.087,4.652,4.653,4.652c2.566,0,4.652-2.087,4.652-4.652
					s-2.086-4.653-4.652-4.653C22.005,9.307,19.917,11.394,19.917,13.959z M21.865,13.959c0-1.491,1.213-2.705,2.705-2.705
					s2.705,1.214,2.705,2.705s-1.213,2.705-2.705,2.705S21.865,15.451,21.865,13.959z"/>
			</g>
			<path i:knockout="Off" fill="none" d="M21.986,39.042l-0.005-0.739V23.463l0.005-0.738c0.011-1.293,0.018-2.073-0.364-2.458
				c-0.308-0.311-0.954-0.443-2.16-0.443h-1.399v6.346c0,0.155-0.126,0.28-0.28,0.28H5.323c-0.154,0-0.279-0.125-0.279-0.28v-6.346
				h-1.4c-1.207,0-1.853,0.132-2.161,0.443c-0.381,0.383-0.374,1.164-0.363,2.457l0.004,0.739v14.839L1.12,39.042
				c-0.011,1.293-0.018,2.073,0.363,2.457c0.308,0.312,0.954,0.442,2.16,0.442h15.818c0.009,0,0.016,0,0.024,0l2.502-2.503
				C21.988,39.311,21.986,39.181,21.986,39.042z"/>
			<path i:knockout="Off" fill="none" d="M21.622,41.499c0.244-0.245,0.328-0.656,0.355-1.257l-1.671,1.67
				C20.986,41.858,21.396,41.727,21.622,41.499z"/>
			<path i:knockout="Off" fill="none" d="M15.261,26.591H4.934c-0.188,0-0.339-0.15-0.339-0.338v-6.147c-1.387,0-2.377,0-2.54,0
				c0,0.593,0,6.687,0,7.28c0.632,0,13.758,0,14.39,0c0-0.594,0-6.688,0-7.28c-0.083,0-0.387,0-0.846,0v6.147
				C15.599,26.441,15.446,26.591,15.261,26.591z"/>
			<path i:knockout="Off" fill="#E66F11" d="M4.934,20.049H4.595v0.057c0.11,0,0.224,0,0.339,0V20.049z"/>
			<path i:knockout="Off" fill="#E66F11" d="M15.261,20.106c0.12,0,0.232,0,0.339,0v-0.057h-0.339V20.106z"/>
			<path i:knockout="Off" fill="#FCFCFC" d="M12.271,25.544h1.862c0.187,0,0.339-0.151,0.339-0.338v-4.48
				c0-0.187-0.152-0.338-0.339-0.338h-1.862c-0.188,0-0.339,0.151-0.339,0.338v4.48C11.932,25.393,12.082,25.544,12.271,25.544z
				 M12.271,20.726h1.862v4.48h-1.862V20.726z"/>
			<path i:knockout="Off" fill="#FCFCFC" d="M14.132,20.726h-1.862v4.48h1.862V20.726z M13.794,24.868c-0.353,0-0.833,0-1.185,0
				c0-0.53,0-3.271,0-3.803c0.352,0,0.833,0,1.185,0C13.794,21.597,13.794,24.337,13.794,24.868z"/>
			<path i:knockout="Off" fill="#7F3A01" stroke="#7F3A01" stroke-linejoin="round" d="M22.545,38.883l-0.004-0.581V23.463
				l0.005-0.733c0.014-1.438,0.02-2.307-0.525-2.856c-0.436-0.438-1.15-0.608-2.559-0.608H3.644c-1.407,0-2.124,0.171-2.559,0.608
				c-0.544,0.55-0.537,1.418-0.525,2.856l0.004,0.733v14.839L0.56,39.037c-0.012,1.438-0.019,2.307,0.525,2.857
				c0.435,0.438,1.151,0.608,2.559,0.608h15.818c0.091,0,0.174-0.003,0.261-0.005l0.584-0.586l1.671-1.67l0.57-0.57
				c0-0.199,0-0.408-0.002-0.635L22.545,38.883z M13.77,20.384c0-0.154,0.125-0.28,0.28-0.28h1.54c0.154,0,0.28,0.125,0.28,0.28
				v3.705c0,0.154-0.126,0.279-0.28,0.279h-1.54c-0.156,0-0.28-0.125-0.28-0.279V20.384z M5.604,19.871h2.1v-0.047h0.28v0.047h-0.28
				v5.083c0,0.154,0.125,0.279,0.28,0.279h8.539c0.154,0,0.28-0.126,0.28-0.279v-5.083h-0.28v-0.047h0.28v0.047h0.699v6.018H5.604
				V19.871z M21.986,39.042c0,0.14,0.002,0.27,0.002,0.397l-2.502,2.502c-0.009,0-0.015,0-0.024,0H3.644
				c-1.207,0-1.853-0.131-2.16-0.441c-0.38-0.385-0.374-1.164-0.363-2.458l0.004-0.739V23.463L1.12,22.724
				c-0.011-1.292-0.017-2.073,0.363-2.457c0.307-0.31,0.954-0.443,2.16-0.443h1.4v6.346c0,0.154,0.125,0.279,0.279,0.279h12.458
				c0.155,0,0.28-0.125,0.28-0.279v-6.346h1.399c1.207,0,1.854,0.132,2.161,0.443c0.381,0.383,0.373,1.164,0.364,2.457l-0.005,0.739
				v14.839L21.986,39.042z M5.323,40.122h12.553v-8.726H5.323V40.122z"/>
			<g i:knockout="Off">
				<path i:knockout="Off" fill="#E66F11" stroke="#E66F11" stroke-linejoin="round" d="M17.315,39.609H4.764v-8.726h12.551V39.609z
					"/>
				<g i:knockout="Off">
					<path i:knockout="Off" fill="none" d="M21.426,38.528l-0.004-0.739V22.95l0.004-0.739c0.011-1.292,0.018-2.073-0.363-2.458
						c-0.309-0.31-0.955-0.442-2.161-0.442h-1.4v6.345c0,0.156-0.125,0.28-0.28,0.28H4.764c-0.155,0-0.28-0.124-0.28-0.28v-6.345
						h-1.4c-1.207,0-1.853,0.132-2.161,0.442c-0.38,0.384-0.374,1.164-0.363,2.458l0.004,0.739v14.839L0.56,38.528
						c-0.011,1.292-0.018,2.074,0.363,2.458c0.308,0.311,0.954,0.442,2.161,0.442h15.818c0.009,0,0.015-0.001,0.023-0.001
						l2.503-2.503C21.428,38.797,21.427,38.667,21.426,38.528z"/>
					<path i:knockout="Off" fill="none" d="M21.063,40.986c0.242-0.247,0.327-0.657,0.354-1.258l-1.67,1.671
						C20.426,41.344,20.836,41.213,21.063,40.986z"/>
					<path i:knockout="Off" fill="none" d="M15.961,24.72H7.423c-0.155,0-0.28-0.125-0.28-0.279v-5.083c-1.147,0-1.966,0-2.1,0
						c0,0.49,0,5.528,0,6.018c0.522,0,11.375,0,11.898,0c0-0.49,0-5.528,0-6.018c-0.069,0-0.321,0-0.701,0v5.083
						C16.242,24.595,16.117,24.72,15.961,24.72z"/>
					<path i:knockout="Off" fill="#E66F11" d="M7.423,19.311h-0.28v0.047c0.091,0,0.184,0,0.28,0V19.311z"/>
					<path i:knockout="Off" fill="#E66F11" d="M15.961,19.357c0.101,0,0.193,0,0.28,0v-0.047h-0.28V19.357z"/>
					<path i:knockout="Off" fill="#E66F11" d="M21.985,38.37l-0.004-0.581V22.95l0.005-0.734c0.013-1.438,0.019-2.307-0.527-2.855
						c-0.434-0.438-1.151-0.609-2.557-0.609H3.083c-1.407,0-2.125,0.171-2.559,0.609C-0.021,19.908-0.013,20.778,0,22.215
						l0.004,0.734v14.839L0,38.522c-0.013,1.44-0.021,2.308,0.525,2.856c0.434,0.439,1.151,0.609,2.559,0.609h15.818
						c0.091,0,0.173-0.002,0.26-0.004l0.586-0.585l1.669-1.671l0.571-0.57c0-0.2-0.002-0.408-0.002-0.636L21.985,38.37z
						 M13.209,19.871c0-0.155,0.125-0.28,0.28-0.28h1.54c0.155,0,0.28,0.125,0.28,0.28v3.704c0,0.154-0.125,0.28-0.28,0.28h-1.54
						c-0.155,0-0.28-0.126-0.28-0.28V19.871z M5.043,19.357h2.1v-0.047h0.279v0.047H7.143v5.083c0,0.155,0.125,0.279,0.279,0.279
						h8.539c0.155,0,0.28-0.125,0.28-0.279v-5.083h-0.28v-0.047h0.28v0.047h0.7v6.018H5.043V19.357z M18.925,41.427
						c-0.008,0-0.014,0.001-0.023,0.001H3.083c-1.207,0-1.853-0.132-2.161-0.442c-0.38-0.384-0.374-1.166-0.363-2.458l0.004-0.739
						V22.95L0.56,22.21c-0.011-1.292-0.018-2.073,0.363-2.458c0.308-0.31,0.954-0.442,2.161-0.442h1.399v6.345
						c0,0.156,0.125,0.28,0.28,0.28h12.458c0.155,0,0.28-0.124,0.28-0.28v-6.345h1.4c1.206,0,1.853,0.132,2.161,0.442
						c0.38,0.384,0.373,1.164,0.362,2.458l-0.004,0.739v14.839l0.004,0.739c0.001,0.139,0.002,0.27,0.003,0.396L18.925,41.427z"/>
				</g>
			</g>
		</g>
	</g>
</svg>
