<?xml version="1.0" encoding="utf-8"?>
<!-- Generator: Adobe Illustrator 10.0, SVG Export Plug-In . SVG Version: 3.0.0 Build 76)  -->
<!DOCTYPE svg PUBLIC "-//W3C//DTD SVG 1.0//EN"    "http://www.w3.org/TR/2001/REC-SVG-20010904/DTD/svg10.dtd" [
	<!ENTITY ns_flows "http://ns.adobe.com/Flows/1.0/">
	<!ENTITY ns_extend "http://ns.adobe.com/Extensibility/1.0/">
	<!ENTITY ns_ai "http://ns.adobe.com/AdobeIllustrator/10.0/">
	<!ENTITY ns_graphs "http://ns.adobe.com/Graphs/1.0/">
	<!ENTITY ns_vars "http://ns.adobe.com/Variables/1.0/">
	<!ENTITY ns_imrep "http://ns.adobe.com/ImageReplacement/1.0/">
	<!ENTITY ns_sfw "http://ns.adobe.com/SaveForWeb/1.0/">
	<!ENTITY ns_custom "http://ns.adobe.com/GenericCustomNamespace/1.0/">
	<!ENTITY ns_adobe_xpath "http://ns.adobe.com/XPath/1.0/">
	<!ENTITY ns_svg "http://www.w3.org/2000/svg">
	<!ENTITY ns_xlink "http://www.w3.org/1999/xlink">
]>
<svg 
	 xmlns:x="&ns_extend;" xmlns:i="&ns_ai;" xmlns:graph="&ns_graphs;" i:viewOrigin="6.1006 41.5845" i:rulerOrigin="0 0" i:pageBounds="0 48 48 0"
	 xmlns="&ns_svg;" xmlns:xlink="&ns_xlink;" xmlns:a="http://ns.adobe.com/AdobeSVGViewerExtensions/3.0/"
	 width="34.243" height="34.603" viewBox="0 0 34.243 34.603" overflow="visible" enable-background="new 0 0 34.243 34.603"
	 xml:space="preserve">
	<metadata>
		<variableSets  xmlns="http://ns.adobe.com/Variables/1.0/">
			<variableSet  varSetName="binding1" locked="none">
				<variables></variables>
				<v:sampleDataSets  xmlns="http://ns.adobe.com/GenericCustomNamespace/1.0/" xmlns:v="http://ns.adobe.com/Variables/1.0/">
					</v:sampleDataSets>
			</variableSet>
		</variableSets>
		<sfw  xmlns="&ns_sfw;">
			<slices></slices>
			<sliceSourceBounds  y="6.981" x="6.101" width="34.243" height="34.603" bottomLeftOrigin="true"></sliceSourceBounds>
		</sfw>
	</metadata>
	<g id="Layer_1" i:layer="yes" i:dimmedPercent="50" i:rgbTrio="#4F008000FFFF">
		<g>
			<path i:knockout="Off" fill="#484F01" stroke="#484F01" stroke-width="1.5" stroke-linejoin="round" d="M32.429,22.118
				c-2.188,6.018-8.396,11.736-15.159,11.736c-8.64,0-15.667-7.029-15.667-15.668c0-8.639,7.027-15.667,15.666-15.667
				c6.763,0,12.786,2.958,14.974,8.975h1.064c-2.231-6.58-8.715-9.975-16.039-9.975c-9.189,0-16.666,7.477-16.666,16.667
				c0,9.192,7.476,16.668,16.667,16.668c7.323,0,13.993-6.156,16.224-12.736H32.429z"/>
			<path i:knockout="Off" fill="#97B101" stroke="#97B101" stroke-width="1.5" stroke-linejoin="round" d="M31.127,21.75
				c-2.189,6.016-7.949,10.334-14.711,10.334c-8.64,0-15.667-7.029-15.667-15.668c0-8.639,7.027-15.667,15.666-15.667
				c6.763,0,12.523,4.317,14.712,10.334h1.064c-2.232-6.58-8.453-11.334-15.777-11.334c-9.189,0-16.666,7.477-16.666,16.667
				c0,9.192,7.476,16.668,16.667,16.668c7.323,0,13.545-4.756,15.776-11.334H31.127z"/>
		</g>
		<g>
			<g i:knockout="Off">
				<g>
					<path i:knockout="Off" fill="#484F01" d="M32.878,17.104l-5.175-3.136v6.271L32.878,17.104z"/>
				</g>
				<g>
					<path i:knockout="Off" fill="#5383A0" stroke="#5383A0" stroke-linejoin="round" d="M32.878,17.104l-5.175-3.136v6.271
						L32.878,17.104z"/>
				</g>
				<g>
					<path i:knockout="Off" fill="none" stroke="#484F01" stroke-width="1.5" stroke-linejoin="round" d="M32.878,17.104
						l-5.175-3.136v6.271L32.878,17.104z"/>
				</g>
			</g>
			<path i:knockout="Off" fill="#484F01" stroke="#484F01" d="M27.448,17.111c0,0.523,0.077,0.946-0.739,0.946H16.361
				c-0.815,0-0.738-0.423-0.738-0.946c0-0.523-0.077-0.947,0.738-0.947h10.348C27.525,16.164,27.448,16.588,27.448,17.111z"/>
			<path i:knockout="Off" fill="#97B101" stroke="#97B101" stroke-linejoin="round" d="M27.093,16.823v2.563l5.175-3.136
				l-5.175-3.136v2.563c-0.06-0.226-0.228-0.375-0.706-0.375H16.039c-0.815,0-0.738,0.425-0.738,0.947
				c0,0.524-0.077,0.948,0.738,0.948h10.348C26.865,17.197,27.033,17.049,27.093,16.823z"/>
		</g>
	</g>
</svg>
