<?xml version="1.0" encoding="utf-8"?>
<!-- Generator: Adobe Illustrator 10.0, SVG Export Plug-In . SVG Version: 3.0.0 Build 76)  -->
<!DOCTYPE svg PUBLIC "-//W3C//DTD SVG 1.0//EN"    "http://www.w3.org/TR/2001/REC-SVG-20010904/DTD/svg10.dtd" [
	<!ENTITY ns_flows "http://ns.adobe.com/Flows/1.0/">
	<!ENTITY ns_extend "http://ns.adobe.com/Extensibility/1.0/">
	<!ENTITY ns_ai "http://ns.adobe.com/AdobeIllustrator/10.0/">
	<!ENTITY ns_graphs "http://ns.adobe.com/Graphs/1.0/">
	<!ENTITY ns_vars "http://ns.adobe.com/Variables/1.0/">
	<!ENTITY ns_imrep "http://ns.adobe.com/ImageReplacement/1.0/">
	<!ENTITY ns_sfw "http://ns.adobe.com/SaveForWeb/1.0/">
	<!ENTITY ns_custom "http://ns.adobe.com/GenericCustomNamespace/1.0/">
	<!ENTITY ns_adobe_xpath "http://ns.adobe.com/XPath/1.0/">
	<!ENTITY ns_svg "http://www.w3.org/2000/svg">
	<!ENTITY ns_xlink "http://www.w3.org/1999/xlink">
]>
<svg 
	 xmlns:x="&ns_extend;" xmlns:i="&ns_ai;" xmlns:graph="&ns_graphs;" i:viewOrigin="-44.7759 31.8662" i:rulerOrigin="0 0" i:pageBounds="0 48 48 0"
	 xmlns="&ns_svg;" xmlns:xlink="&ns_xlink;" xmlns:a="http://ns.adobe.com/AdobeSVGViewerExtensions/3.0/"
	 width="40.076" height="40.801" viewBox="0 0 40.076 40.801" overflow="visible" enable-background="new 0 0 40.076 40.801"
	 xml:space="preserve">
	<metadata>
		<variableSets  xmlns="http://ns.adobe.com/Variables/1.0/">
			<variableSet  varSetName="binding1" locked="none">
				<variables></variables>
				<v:sampleDataSets  xmlns="http://ns.adobe.com/GenericCustomNamespace/1.0/" xmlns:v="http://ns.adobe.com/Variables/1.0/">
					</v:sampleDataSets>
			</variableSet>
		</variableSets>
		<sfw  xmlns="&ns_sfw;">
			<slices></slices>
			<sliceSourceBounds  y="-8.935" x="-44.776" width="40.076" height="40.801" bottomLeftOrigin="true"></sliceSourceBounds>
			<optimizationSettings>
				<targetSettings  fileFormat="PNG8Format" targetSettingsID="0">
					
						<PNG8Format  transparency="true" interlaced="false" noMatteColor="false" matteColor="#FFFFFF" autoReduce="false" rolloverMasterPalette="false" webShiftPercent="0" numColors="256" ditherAlgorithm="diffusion" ditherPercent="100" reductionAlgorithm="selective">
						<lockedColors></lockedColors>
						<colorShiftEntries></colorShiftEntries>
					</PNG8Format>
				</targetSettings>
			</optimizationSettings>
		</sfw>
	</metadata>
	<g id="Layer_1" i:layer="yes" i:dimmedPercent="50" i:rgbTrio="#4F008000FFFF">
		<g>
			<path i:knockout="Off" fill="#685012" d="M1.438,6.711C1.312,6.807,1.239,6.957,1.241,7.115l0.325,24.457
				c0.003,0.199,0.124,0.378,0.308,0.455l21.125,8.774c0.155,0.064,0.331,0.047,0.47-0.047c0.139-0.093,0.222-0.249,0.222-0.417
				L23.61,13.199c0-0.223-0.148-0.418-0.363-0.479L1.878,6.627C1.727,6.584,1.563,6.614,1.438,6.711z M2.25,7.773
				c1.194,0.34,19.683,5.613,20.361,5.806c0.002,0.711,0.074,24.609,0.078,26.01c-1.279-0.531-19.556-8.123-20.127-8.36
				C2.553,30.606,2.267,9.026,2.25,7.773z"/>
			<path i:knockout="Off" fill="#685012" d="M20.104,0.65l-5.095,1.5c-0.216,0.063-0.363,0.264-0.359,0.49
				c0.005,0.226,0.16,0.42,0.379,0.475l19.172,4.79c0.115,0.029,0.236,0.016,0.343-0.037l5.173-2.562
				c0.192-0.095,0.302-0.303,0.273-0.515s-0.19-0.383-0.4-0.424l-19.25-3.727C20.262,0.624,20.181,0.628,20.104,0.65z M20.27,1.644
				c0.218,0.042,15.207,2.944,17.676,3.422c-1.404,0.695-3.454,1.71-3.681,1.823C33.948,6.81,19.96,3.315,17.055,2.59
				C18.511,2.162,20.126,1.686,20.27,1.644z"/>
			<path i:knockout="Off" fill="#685012" d="M39.342,4.507l-15.785,8.387c-0.163,0.086-0.264,0.254-0.266,0.438L23.097,40.01
				c-0.001,0.184,0.098,0.354,0.259,0.442c0.161,0.088,0.357,0.081,0.512-0.018L39.847,30.15c0.143-0.093,0.229-0.251,0.229-0.421
				V4.948c0-0.175-0.092-0.338-0.242-0.429C39.683,4.429,39.497,4.424,39.342,4.507z M28.824,11.228c0,0,9.146-4.859,10.252-5.447
				c0,1.536,0,23.161,0,23.677c-0.424,0.272-13.586,8.744-14.972,9.636c0.012-1.703,0.181-24.894,0.185-25.456
				C24.759,13.387,28.824,11.228,28.824,11.228z"/>
			<path i:knockout="Off" fill="#685012" d="M8.213,4.151L1.541,6.113C1.327,6.176,1.18,6.373,1.182,6.597
				C1.184,6.82,1.334,7.015,1.549,7.074l22.101,6.102c0.111,0.03,0.23,0.021,0.335-0.025l4.825-2.14
				c0.192-0.085,0.31-0.281,0.296-0.49c-0.014-0.209-0.157-0.388-0.359-0.446L8.495,4.15C8.403,4.124,8.305,4.124,8.213,4.151z
				 M8.355,5.151C8.614,5.228,24.88,9.984,27.156,10.65c-1.309,0.58-3.189,1.414-3.413,1.514C23.43,12.077,6.366,7.367,3.506,6.577
				C5.335,6.04,8.155,5.21,8.355,5.151z"/>
			<path i:knockout="Off" fill="#484F01" d="M15.33,2.131L6.149,4.874l21.863,6.406l7.204-4.063L15.33,2.131z"/>
			<g>
				<path i:knockout="Off" fill="#807915" d="M29.051,18.846l-0.2,0.125C28.922,18.938,28.986,18.898,29.051,18.846z"/>
				<path i:knockout="Off" fill="#484F01" d="M29.63,17.427c0-0.904-0.491-1.638-1.097-1.638c-0.477,0-0.872,0.461-1.023,1.096
					l0.012,1.172c0.165,0.591,0.555,1.009,1.012,1.009c0.113,0,0.215-0.048,0.318-0.095l0.2-0.125
					C29.39,18.568,29.63,18.048,29.63,17.427z"/>
			</g>
			<g>
				<path i:knockout="Off" fill="#484F01" d="M34.576,12.877c0.119,0,0.22,0.313,0.267,0.758l-0.088-6.808l-7.304,4.061l0.06,5.997
					c0.151-0.635,0.547-1.096,1.023-1.096c0.605,0,1.097,0.733,1.097,1.638c0,0.621-0.24,1.142-0.579,1.419l5.496-3.416
					c-0.148-0.067-0.265-0.597-0.265-1.264C34.282,13.454,34.414,12.877,34.576,12.877z"/>
				<path i:knockout="Off" fill="#484F01" d="M34.843,13.635c-0.046-0.444-0.148-0.758-0.267-0.758
					c-0.163,0-0.294,0.577-0.294,1.289c0,0.667,0.117,1.196,0.265,1.264l0.15-0.093c0.078-0.155,0.133-0.454,0.157-0.817
					L34.843,13.635z"/>
			</g>
			<g>
				<path i:knockout="Off" fill="#FFC726" d="M0.194,5.551C0.07,5.647-0.002,5.795,0,5.953l0.298,24.132
					c0.002,0.202,0.126,0.382,0.313,0.458l21.884,8.849c0.154,0.062,0.329,0.044,0.467-0.049c0.138-0.094,0.22-0.249,0.22-0.415
					V11.99c0-0.226-0.151-0.423-0.369-0.482L0.631,5.464C0.48,5.423,0.319,5.454,0.194,5.551z M1.008,6.603
					c1.186,0.323,20.482,5.581,21.174,5.769c0,0.722,0,24.432,0,25.814c-1.271-0.515-20.308-8.212-20.888-8.446
					C1.287,29.111,1.023,7.839,1.008,6.603z"/>
				<path i:knockout="Off" fill="#FFC726" d="M18.945,0.011l-5.095,1.49c-0.217,0.063-0.364,0.265-0.36,0.49
					c0.005,0.226,0.16,0.42,0.379,0.475l19.172,4.759c0.115,0.028,0.235,0.015,0.341-0.037l5.172-2.546
					c0.193-0.095,0.304-0.302,0.275-0.515c-0.029-0.213-0.19-0.384-0.401-0.425L19.18,0C19.102-0.015,19.021-0.011,18.945,0.011z
					 M19.11,1.005c0.217,0.042,15.185,2.922,17.667,3.399c-1.408,0.693-3.446,1.696-3.671,1.807
					c-0.315-0.078-14.279-3.544-17.199-4.27C17.361,1.517,18.967,1.047,19.11,1.005z"/>
				<path i:knockout="Off" fill="#FFC726" d="M38.183,3.843l-15.786,8.334c-0.164,0.087-0.267,0.257-0.267,0.442l-0.003,26.376
					c0,0.183,0.1,0.351,0.26,0.438s0.355,0.081,0.509-0.018l15.789-10.084c0.144-0.093,0.231-0.251,0.231-0.422V4.286
					c0-0.175-0.092-0.338-0.242-0.428C38.524,3.767,38.337,3.762,38.183,3.843z M27.663,10.528c0,0,9.148-4.83,10.253-5.413
					c0,1.531,0,23.005,0,23.522c-0.426,0.271-13.418,8.57-14.789,9.445c0-1.681,0.003-24.593,0.003-25.161
					C23.606,12.671,27.663,10.528,27.663,10.528z"/>
				<path i:knockout="Off" fill="#FFC726" d="M7.054,3.49l-6.673,1.95C0.167,5.502,0.02,5.7,0.021,5.923
					c0.002,0.224,0.152,0.419,0.368,0.479l22.101,6.063c0.111,0.03,0.229,0.021,0.334-0.024l4.825-2.127
					c0.192-0.085,0.311-0.281,0.297-0.491c-0.014-0.21-0.158-0.389-0.359-0.447L7.334,3.49C7.243,3.463,7.146,3.463,7.054,3.49z
					 M7.195,4.491c0.258,0.075,16.504,4.796,18.793,5.461c-1.312,0.578-3.184,1.403-3.405,1.501
					c-0.311-0.085-17.351-4.76-20.227-5.549C4.189,5.369,6.996,4.548,7.195,4.491z"/>
				<path i:knockout="Off" fill="#9B7B15" d="M14.17,1.249L4.988,3.991l21.863,6.406l7.204-4.063L14.17,1.249z"/>
				<g>
					<path i:knockout="Off" fill="#807915" d="M28.378,18.37l-0.2,0.124C28.249,18.461,28.313,18.422,28.378,18.37z"/>
					<path i:knockout="Off" fill="#9B7B15" d="M28.957,16.95c0-0.903-0.491-1.638-1.097-1.638c-0.477,0-0.872,0.461-1.023,1.096
						l0.012,1.172c0.165,0.592,0.555,1.01,1.012,1.01c0.113,0,0.215-0.049,0.318-0.096l0.2-0.124
						C28.717,18.092,28.957,17.571,28.957,16.95z"/>
				</g>
				<g>
					<path i:knockout="Off" fill="#9B7B15" d="M33.903,12.4c0.119,0,0.22,0.313,0.267,0.758l-0.088-6.807l-7.304,4.06l0.06,5.997
						c0.151-0.635,0.547-1.096,1.023-1.096c0.605,0,1.097,0.734,1.097,1.638c0,0.621-0.24,1.142-0.579,1.42l5.496-3.417
						c-0.148-0.066-0.265-0.597-0.265-1.263C33.609,12.979,33.741,12.4,33.903,12.4z"/>
					<path i:knockout="Off" fill="#9B7B15" d="M34.17,13.158c-0.046-0.444-0.148-0.758-0.267-0.758c-0.163,0-0.294,0.578-0.294,1.29
						c0,0.666,0.117,1.196,0.265,1.263l0.15-0.092c0.078-0.155,0.133-0.455,0.157-0.818L34.17,13.158z"/>
				</g>
			</g>
		</g>
	</g>
</svg>
