<?xml version="1.0" encoding="utf-8"?>
<!-- Generator: Adobe Illustrator 10.0, SVG Export Plug-In . SVG Version: 3.0.0 Build 76)  -->
<!DOCTYPE svg PUBLIC "-//W3C//DTD SVG 1.0//EN"    "http://www.w3.org/TR/2001/REC-SVG-20010904/DTD/svg10.dtd" [
	<!ENTITY ns_flows "http://ns.adobe.com/Flows/1.0/">
	<!ENTITY ns_extend "http://ns.adobe.com/Extensibility/1.0/">
	<!ENTITY ns_ai "http://ns.adobe.com/AdobeIllustrator/10.0/">
	<!ENTITY ns_graphs "http://ns.adobe.com/Graphs/1.0/">
	<!ENTITY ns_vars "http://ns.adobe.com/Variables/1.0/">
	<!ENTITY ns_imrep "http://ns.adobe.com/ImageReplacement/1.0/">
	<!ENTITY ns_sfw "http://ns.adobe.com/SaveForWeb/1.0/">
	<!ENTITY ns_custom "http://ns.adobe.com/GenericCustomNamespace/1.0/">
	<!ENTITY ns_adobe_xpath "http://ns.adobe.com/XPath/1.0/">
	<!ENTITY ns_svg "http://www.w3.org/2000/svg">
	<!ENTITY ns_xlink "http://www.w3.org/1999/xlink">
]>
<svg 
	 xmlns:x="&ns_extend;" xmlns:i="&ns_ai;" xmlns:graph="&ns_graphs;" i:viewOrigin="-57.7461 69.3164" i:rulerOrigin="0 0" i:pageBounds="0 48 48 0"
	 xmlns="&ns_svg;" xmlns:xlink="&ns_xlink;" xmlns:a="http://ns.adobe.com/AdobeSVGViewerExtensions/3.0/"
	 width="23.136" height="38.608" viewBox="0 0 23.136 38.608" overflow="visible" enable-background="new 0 0 23.136 38.608"
	 xml:space="preserve">
	<metadata>
		<variableSets  xmlns="http://ns.adobe.com/Variables/1.0/">
			<variableSet  varSetName="binding1" locked="none">
				<variables></variables>
				<v:sampleDataSets  xmlns="http://ns.adobe.com/GenericCustomNamespace/1.0/" xmlns:v="http://ns.adobe.com/Variables/1.0/">
					</v:sampleDataSets>
			</variableSet>
		</variableSets>
		<sfw  xmlns="&ns_sfw;">
			<slices></slices>
			<sliceSourceBounds  y="30.708" x="-57.746" width="23.136" height="38.608" bottomLeftOrigin="true"></sliceSourceBounds>
		</sfw>
	</metadata>
	<g id="Layer_1" i:layer="yes" i:dimmedPercent="50" i:rgbTrio="#4F008000FFFF">
		<path i:knockout="Off" fill="#7F3A01" d="M0.996,2.816l-0.5,3.063l2-3.25l3.75-1.25l-1.5-0.688L1.871,1.629L0.996,2.816z"/>
		<path i:knockout="Off" fill="#7F3A01" d="M17.496,37.566l2.875,0.125l1.75-1.625l0.188-3.875l-1.625,3.563L17.496,37.566z"/>
		<path i:knockout="Off" fill="#7F3A01" d="M16.294,4.12H7.187c-1.088,0-1.843,0.172-2.347,0.554
			C4.146,5.044,3.855,5.72,3.855,6.829v6.726c0,1.165,0.31,1.86,1.081,2.219c0.503,0.335,1.227,0.49,2.25,0.49h9.108
			c2.3,0,3.155-0.732,3.155-2.709V6.829C19.45,4.854,18.594,4.12,16.294,4.12z M19.099,13.555c0,1.747-0.708,2.337-2.805,2.337
			H7.636c-0.923-2.489-1.832-5.805-1.832-9.238c0-0.734,0.043-1.409,0.108-2.049c0.353-0.076,0.771-0.112,1.273-0.112h9.108
			c2.097,0,2.805,0.59,2.805,2.338L19.099,13.555z"/>
		<g i:knockout="Off">
			<g i:knockout="Off">
				<g i:knockout="Off">
					<path i:knockout="Off" fill="#7F3A01" d="M18.01,1H6.125C3.012,1,1,2.76,1,5.482v28.645c0,2.723,2.012,4.481,5.125,4.481H18.01
						c3.113,0,5.126-1.76,5.126-4.481V5.482C23.136,2.76,21.123,1,18.01,1z M22.084,34.127c0,2.481-2.105,3.366-4.074,3.366H6.125
						c-1.969,0-4.074-0.885-4.074-3.366V5.482c0-2.482,2.105-3.367,4.074-3.367H18.01c1.969,0,4.074,0.885,4.074,3.367V34.127z"/>
				</g>
			</g>
		</g>
		<g i:knockout="Off">
			<g i:knockout="Off">
				<path i:knockout="Off" fill="#7F3A01" d="M5.264,27.273c0-3.985,3.046-7.218,6.804-7.218c3.758,0,6.804,3.231,6.804,7.218
					c0,3.985-3.046,7.219-6.804,7.219C8.31,34.492,5.264,31.26,5.264,27.273z"/>
				<path i:knockout="Off" fill="#7F3A01" d="M5.764,27.273c0-3.704,2.828-6.718,6.304-6.718s6.304,3.014,6.304,6.718
					s-2.828,6.719-6.304,6.719S5.764,30.979,5.764,27.273z M12.068,34.992c4.027,0,7.304-3.463,7.304-7.719
					s-3.277-7.718-7.304-7.718c-4.027,0-7.304,3.462-7.304,7.718S8.041,34.992,12.068,34.992z"/>
			</g>
			<g i:knockout="Off">
				<path i:knockout="Off" fill="#7F3A01" d="M5.264,27.273c0-3.985,3.046-7.218,6.804-7.218c3.758,0,6.804,3.231,6.804,7.218
					c0,3.985-3.046,7.219-6.804,7.219C8.31,34.492,5.264,31.26,5.264,27.273z"/>
				<path i:knockout="Off" fill="#7F3A01" d="M5.764,27.273c0-3.704,2.828-6.718,6.304-6.718s6.304,3.014,6.304,6.718
					s-2.828,6.719-6.304,6.719S5.764,30.979,5.764,27.273z M12.068,34.992c4.027,0,7.304-3.463,7.304-7.719
					s-3.277-7.718-7.304-7.718c-4.027,0-7.304,3.462-7.304,7.718S8.041,34.992,12.068,34.992z"/>
			</g>
		</g>
		<g i:knockout="Off">
			<path i:knockout="Off" fill="#FFFFFF" d="M9.006,28.273c0-1.793,1.371-3.247,3.062-3.247s3.062,1.454,3.062,3.247
				c0,1.795-1.37,3.249-3.062,3.249C10.377,31.522,9.006,30.068,9.006,28.273z"/>
		</g>
		<g i:knockout="Off">
			<g i:knockout="Off">
				<g i:knockout="Off">
					<path i:knockout="Off" fill="#E66F11" d="M17.01,0H5.125C2.012,0,0,1.76,0,4.482v28.645c0,2.723,2.012,4.481,5.125,4.481H17.01
						c3.113,0,5.126-1.76,5.126-4.481V4.482C22.136,1.76,20.123,0,17.01,0z M21.084,33.127c0,2.481-2.105,3.366-4.074,3.366H5.125
						c-1.969,0-4.074-0.885-4.074-3.366V4.482c0-2.482,2.105-3.367,4.074-3.367H17.01c1.969,0,4.074,0.885,4.074,3.367V33.127z"/>
				</g>
			</g>
			<path i:knockout="Off" fill="#E66F11" d="M15.855,3.615H6.748c-1.088,0-1.843,0.172-2.347,0.554
				c-0.693,0.37-0.984,1.046-0.984,2.155v6.726c0,1.165,0.31,1.86,1.081,2.218c0.503,0.335,1.227,0.491,2.25,0.491h9.108
				c2.3,0,3.155-0.732,3.155-2.709V6.324C19.011,4.349,18.155,3.615,15.855,3.615z M18.66,13.05c0,1.747-0.708,2.337-2.805,2.337
				H7.197c-0.923-2.489-1.832-5.805-1.832-9.238c0-0.734,0.043-1.409,0.108-2.05c0.353-0.075,0.771-0.111,1.273-0.111h9.108
				c2.097,0,2.805,0.59,2.805,2.338L18.66,13.05z"/>
		</g>
		<path i:knockout="Off" fill="#E66F11" stroke="#E66F11" d="M4.264,26.648c0-3.985,3.046-7.218,6.804-7.218
			c3.758,0,6.804,3.231,6.804,7.218c0,3.985-3.046,7.219-6.804,7.219C7.31,33.867,4.264,30.635,4.264,26.648z"/>
		<path i:knockout="Off" fill="#FFFFFF" d="M8.006,26.648c0-1.793,1.371-3.247,3.062-3.247s3.062,1.454,3.062,3.247
			c0,1.795-1.37,3.249-3.062,3.249C9.377,29.897,8.006,28.443,8.006,26.648z"/>
	</g>
</svg>
