<?xml version="1.0" encoding="utf-8"?>
<!-- Generator: Adobe Illustrator 10.0, SVG Export Plug-In . SVG Version: 3.0.0 Build 76)  -->
<!DOCTYPE svg PUBLIC "-//W3C//DTD SVG 1.0//EN"    "http://www.w3.org/TR/2001/REC-SVG-20010904/DTD/svg10.dtd" [
	<!ENTITY ns_flows "http://ns.adobe.com/Flows/1.0/">
	<!ENTITY ns_extend "http://ns.adobe.com/Extensibility/1.0/">
	<!ENTITY ns_ai "http://ns.adobe.com/AdobeIllustrator/10.0/">
	<!ENTITY ns_graphs "http://ns.adobe.com/Graphs/1.0/">
	<!ENTITY ns_vars "http://ns.adobe.com/Variables/1.0/">
	<!ENTITY ns_imrep "http://ns.adobe.com/ImageReplacement/1.0/">
	<!ENTITY ns_sfw "http://ns.adobe.com/SaveForWeb/1.0/">
	<!ENTITY ns_custom "http://ns.adobe.com/GenericCustomNamespace/1.0/">
	<!ENTITY ns_adobe_xpath "http://ns.adobe.com/XPath/1.0/">
	<!ENTITY ns_svg "http://www.w3.org/2000/svg">
	<!ENTITY ns_xlink "http://www.w3.org/1999/xlink">
]>
<svg 
	 xmlns:x="&ns_extend;" xmlns:i="&ns_ai;" xmlns:graph="&ns_graphs;" i:viewOrigin="3.7339 27.9639" i:rulerOrigin="0 0" i:pageBounds="0 48 48 0"
	 xmlns="&ns_svg;" xmlns:xlink="&ns_xlink;" xmlns:a="http://ns.adobe.com/AdobeSVGViewerExtensions/3.0/"
	 width="38.023" height="35.41" viewBox="0 0 38.023 35.41" overflow="visible" enable-background="new 0 0 38.023 35.41"
	 xml:space="preserve">
	<metadata>
		<variableSets  xmlns="http://ns.adobe.com/Variables/1.0/">
			<variableSet  varSetName="binding1" locked="none">
				<variables></variables>
				<v:sampleDataSets  xmlns="http://ns.adobe.com/GenericCustomNamespace/1.0/" xmlns:v="http://ns.adobe.com/Variables/1.0/">
					</v:sampleDataSets>
			</variableSet>
		</variableSets>
		<sfw  xmlns="&ns_sfw;">
			<slices></slices>
			<sliceSourceBounds  y="-7.446" x="3.734" width="38.023" height="35.41" bottomLeftOrigin="true"></sliceSourceBounds>
		</sfw>
	</metadata>
	<g id="Layer_1" i:layer="yes" i:dimmedPercent="50" i:rgbTrio="#4F008000FFFF">
		<path i:knockout="Off" fill="#223742" d="M19.441,0.572c-1.913,0-3.759,0.272-5.497,0.778c-7.57,2.2-13.085,8.823-13.085,16.632
			c0,9.599,8.332,17.407,18.574,17.41l0.003,0.018c0.006,0,0.033-0.007,0.072-0.018c0.796-0.003,1.579-0.06,2.347-0.152
			c9.108-1.114,16.168-8.425,16.168-17.258C38.023,8.383,29.686,0.572,19.441,0.572z M36.217,13.446
			c-0.684-0.12-1.861-0.299-3.604-0.481c-1.851-5.851-6.547-9.157-9.777-10.801C29.243,3.332,34.401,7.732,36.217,13.446z
			 M26.697,13.796c2.036,0.104,3.724,0.235,5.106,0.369c0.324,1.248,0.512,2.609,0.512,4.1c0,1.761-0.266,3.335-0.711,4.75
			c-1.391,0.154-3.077,0.3-5.082,0.409c0.314-1.597,0.508-3.355,0.508-5.299C27.03,16.577,26.907,15.137,26.697,13.796z
			 M31.393,12.847c-1.359-0.124-2.991-0.242-4.928-0.337c-0.853-4.113-2.518-7.142-3.926-9.11
			C25.47,4.911,29.581,7.829,31.393,12.847z M19.991,2.274c0.049,0.02,0.101,0.037,0.159,0.059c1.248,1.343,3.94,4.733,5.159,10.122
			c-1.588-0.064-3.355-0.116-5.318-0.143V2.274z M19.991,13.583c2.065,0.028,3.919,0.084,5.571,0.158
			c0.229,1.353,0.369,2.812,0.369,4.385c0,1.975-0.216,3.755-0.562,5.355c-1.608,0.069-3.398,0.117-5.379,0.123L19.991,13.583z
			 M18.891,2.611v9.689c-1.398-0.01-2.699-0.001-3.909,0.022c-0.341,0.007-0.678,0.016-1.005,0.024
			c0.154-0.657,0.33-1.283,0.522-1.88C15.767,6.515,17.756,3.881,18.891,2.611z M14.081,8.264c-0.495,1.225-0.932,2.599-1.258,4.123
			c-1.587,0.06-2.99,0.146-4.211,0.246c1.211-2.989,3.222-5.318,5.197-7.04c1.031-0.9,2.053-1.638,2.946-2.209
			C15.879,4.596,14.902,6.223,14.081,8.264z M12.723,23.439c-1.744-0.088-3.255-0.208-4.54-0.336
			c-0.444-1.383-0.708-2.908-0.708-4.597c0-1.647,0.248-3.163,0.671-4.556c1.265-0.111,2.739-0.211,4.438-0.28
			c-0.226,1.389-0.36,2.886-0.36,4.502C12.224,20.102,12.411,21.855,12.723,23.439z M13.829,2.708
			c0.882-0.275,1.79-0.497,2.728-0.641c-0.828,0.519-1.788,1.181-2.774,1.989c-2.421,1.979-5.029,4.842-6.411,8.686
			c-2.3,0.225-3.831,0.484-4.692,0.658C4.292,8.383,8.485,4.387,13.829,2.708z M1.957,17.982c0-1.098,0.125-2.17,0.352-3.207
			c0.537-0.124,2.037-0.433,4.647-0.707c-0.367,1.366-0.58,2.844-0.58,4.438c0,1.623,0.221,3.107,0.6,4.465
			c-2.459-0.286-3.887-0.591-4.389-0.707C2.178,20.897,1.957,19.464,1.957,17.982z M3.079,23.665
			c0.847,0.171,2.271,0.416,4.34,0.642c1.842,4.856,5.749,7.871,8.583,9.502C10.05,32.707,5.182,28.808,3.079,23.665z M8.684,24.433
			c1.246,0.116,2.687,0.22,4.326,0.298c0.952,3.774,2.592,6.479,3.939,8.203C14.383,31.535,10.601,28.843,8.684,24.433z
			 M18.891,33.363c-1.225-1.292-3.465-4.12-4.701-8.581c1.426,0.055,2.994,0.085,4.701,0.092V33.363z M18.891,23.603
			c-1.832-0.007-3.509-0.045-5.015-0.109c-0.344-1.589-0.556-3.36-0.556-5.319c0-1.636,0.147-3.149,0.394-4.543
			c0.534-0.017,1.094-0.028,1.667-0.039c1.099-0.02,2.262-0.027,3.51-0.02V23.603z M19.991,33.694v-8.818
			c0.152,0,0.295-0.002,0.447-0.005c1.672-0.011,3.214-0.045,4.611-0.103c-0.799,2.875-2.016,5.068-3.107,6.606
			C21.161,32.481,20.441,33.256,19.991,33.694z M26.236,24.715c1.896-0.095,3.515-0.225,4.886-0.365
			c-2.009,4.699-6.104,7.344-8.929,8.676C23.555,31.317,25.252,28.577,26.236,24.715z M23.75,33.62
			c3.024-1.638,6.836-4.561,8.633-9.408c1.537-0.187,2.664-0.373,3.408-0.518C33.786,28.567,29.292,32.318,23.75,33.62z
			 M32.819,22.871c0.378-1.392,0.596-2.922,0.596-4.605c0-1.436-0.164-2.754-0.44-3.979c2.054,0.228,3.215,0.438,3.608,0.519
			c0.227,1.027,0.342,2.091,0.342,3.179c0,1.495-0.225,2.939-0.639,4.315C35.747,22.417,34.602,22.641,32.819,22.871z"/>
		<path i:knockout="Off" fill="#5382A1" d="M18.582,0c-1.913,0-3.759,0.272-5.497,0.777C5.515,2.979,0,9.602,0,17.41
			c0,9.598,8.332,17.407,18.574,17.411l0.004,0.02c0.005-0.003,0.032-0.01,0.071-0.021c0.795-0.002,1.579-0.058,2.347-0.152
			c9.108-1.11,16.168-8.424,16.168-17.256C37.165,7.811,28.827,0,18.582,0z M35.358,12.875c-0.684-0.12-1.861-0.3-3.604-0.482
			c-1.85-5.851-6.547-9.157-9.776-10.801C28.383,2.761,33.542,7.16,35.358,12.875z M25.836,13.225
			c2.037,0.104,3.725,0.234,5.106,0.369c0.324,1.249,0.513,2.608,0.513,4.099c0,1.762-0.267,3.335-0.711,4.751
			c-1.391,0.154-3.078,0.3-5.082,0.41c0.314-1.596,0.508-3.357,0.508-5.3C26.17,16.006,26.047,14.564,25.836,13.225z M30.534,12.273
			c-1.359-0.123-2.99-0.242-4.927-0.335c-0.853-4.115-2.519-7.143-3.927-9.111C24.611,4.339,28.721,7.257,30.534,12.273z
			 M19.131,1.703c0.05,0.019,0.102,0.036,0.158,0.059c1.249,1.343,3.941,4.731,5.161,10.123c-1.589-0.065-3.355-0.117-5.319-0.145
			V1.703z M19.131,13.012c2.065,0.026,3.92,0.083,5.571,0.157c0.23,1.352,0.369,2.811,0.369,4.385c0,1.974-0.215,3.756-0.563,5.354
			c-1.607,0.071-3.397,0.116-5.378,0.123L19.131,13.012z M18.033,2.039v9.69c-1.399-0.009-2.7-0.002-3.909,0.021
			c-0.341,0.008-0.678,0.017-1.006,0.025c0.154-0.658,0.33-1.285,0.522-1.881C14.908,5.942,16.897,3.309,18.033,2.039z M13.222,7.69
			c-0.495,1.225-0.932,2.6-1.257,4.124c-1.588,0.06-2.991,0.145-4.211,0.246c1.212-2.991,3.222-5.319,5.197-7.042
			c1.032-0.9,2.053-1.636,2.946-2.208C15.02,4.023,14.043,5.65,13.222,7.69z M11.863,22.869c-1.744-0.09-3.255-0.211-4.54-0.338
			c-0.444-1.381-0.708-2.907-0.708-4.597c0-1.647,0.249-3.162,0.671-4.554c1.265-0.112,2.739-0.212,4.438-0.282
			c-0.226,1.39-0.36,2.886-0.36,4.501C11.364,19.529,11.551,21.282,11.863,22.869z M12.97,2.136c0.882-0.275,1.79-0.497,2.728-0.641
			c-0.828,0.518-1.788,1.183-2.774,1.989c-2.421,1.979-5.029,4.842-6.411,8.687c-2.299,0.224-3.831,0.482-4.692,0.657
			C3.434,7.811,7.625,3.813,12.97,2.136z M1.098,17.41c0-1.099,0.124-2.17,0.351-3.206c0.537-0.125,2.038-0.434,4.647-0.707
			c-0.367,1.365-0.58,2.845-0.58,4.438c0,1.624,0.222,3.107,0.6,4.467c-2.459-0.289-3.887-0.593-4.389-0.71
			C1.319,20.327,1.098,18.892,1.098,17.41z M2.22,23.093c0.847,0.172,2.271,0.416,4.34,0.642c1.841,4.855,5.748,7.87,8.583,9.501
			C9.191,32.135,4.323,28.234,2.22,23.093z M7.825,23.862c1.246,0.114,2.688,0.217,4.326,0.298c0.952,3.774,2.592,6.479,3.939,8.202
			C13.524,30.962,9.741,28.272,7.825,23.862z M18.033,32.792c-1.226-1.291-3.466-4.118-4.702-8.58
			c1.427,0.052,2.994,0.085,4.702,0.092V32.792z M18.033,23.032c-1.833-0.007-3.51-0.045-5.016-0.108
			c-0.345-1.593-0.556-3.361-0.556-5.322c0-1.635,0.147-3.148,0.394-4.542c0.534-0.019,1.094-0.029,1.667-0.04
			C15.62,13,16.784,12.991,18.033,13V23.032z M19.131,33.123v-8.816c0.151-0.003,0.296-0.005,0.447-0.005
			c1.672-0.012,3.213-0.047,4.612-0.104c-0.799,2.875-2.018,5.065-3.108,6.604C20.302,31.91,19.582,32.683,19.131,33.123z
			 M25.375,24.145c1.896-0.097,3.517-0.228,4.886-0.365c-2.007,4.699-6.103,7.344-8.929,8.675
			C22.696,30.745,24.394,28.004,25.375,24.145z M22.89,33.047c3.024-1.636,6.836-4.561,8.633-9.408
			c1.537-0.185,2.665-0.374,3.408-0.519C32.926,27.995,28.433,31.745,22.89,33.047z M31.959,22.298
			c0.377-1.391,0.595-2.92,0.595-4.605c0-1.434-0.163-2.754-0.44-3.978c2.055,0.226,3.217,0.438,3.609,0.517
			c0.227,1.029,0.342,2.092,0.342,3.179c0,1.495-0.227,2.941-0.641,4.315C34.886,21.846,33.743,22.067,31.959,22.298z"/>
	</g>
</svg>
