<?xml version="1.0" encoding="utf-8"?>
<!-- Generator: Adobe Illustrator 10.0, SVG Export Plug-In . SVG Version: 3.0.0 Build 76)  -->
<!DOCTYPE svg PUBLIC "-//W3C//DTD SVG 1.0//EN"    "http://www.w3.org/TR/2001/REC-SVG-20010904/DTD/svg10.dtd" [
	<!ENTITY ns_flows "http://ns.adobe.com/Flows/1.0/">
	<!ENTITY ns_extend "http://ns.adobe.com/Extensibility/1.0/">
	<!ENTITY ns_ai "http://ns.adobe.com/AdobeIllustrator/10.0/">
	<!ENTITY ns_graphs "http://ns.adobe.com/Graphs/1.0/">
	<!ENTITY ns_vars "http://ns.adobe.com/Variables/1.0/">
	<!ENTITY ns_imrep "http://ns.adobe.com/ImageReplacement/1.0/">
	<!ENTITY ns_sfw "http://ns.adobe.com/SaveForWeb/1.0/">
	<!ENTITY ns_custom "http://ns.adobe.com/GenericCustomNamespace/1.0/">
	<!ENTITY ns_adobe_xpath "http://ns.adobe.com/XPath/1.0/">
	<!ENTITY ns_svg "http://www.w3.org/2000/svg">
	<!ENTITY ns_xlink "http://www.w3.org/1999/xlink">
]>
<svg 
	 xmlns:x="&ns_extend;" xmlns:i="&ns_ai;" xmlns:graph="&ns_graphs;" i:viewOrigin="2.1665 41.5693" i:rulerOrigin="0 0" i:pageBounds="0 48 48 0"
	 xmlns="&ns_svg;" xmlns:xlink="&ns_xlink;" xmlns:a="http://ns.adobe.com/AdobeSVGViewerExtensions/3.0/"
	 width="43.841" height="37.011" viewBox="0 0 43.841 37.011" overflow="visible" enable-background="new 0 0 43.841 37.011"
	 xml:space="preserve">
	<metadata>
		<variableSets  xmlns="http://ns.adobe.com/Variables/1.0/">
			<variableSet  varSetName="binding1" locked="none">
				<variables></variables>
				<v:sampleDataSets  xmlns="http://ns.adobe.com/GenericCustomNamespace/1.0/" xmlns:v="http://ns.adobe.com/Variables/1.0/">
					</v:sampleDataSets>
			</variableSet>
		</variableSets>
		<sfw  xmlns="&ns_sfw;">
			<slices></slices>
			<sliceSourceBounds  y="4.559" x="2.167" width="43.841" height="37.011" bottomLeftOrigin="true"></sliceSourceBounds>
		</sfw>
	</metadata>
	<g id="Layer_1" i:layer="yes" i:dimmedPercent="50" i:rgbTrio="#4F008000FFFF">
		<path i:knockout="Off" fill="#223742" d="M0.833,10.095c0,3.464,2.503,6.59,6.506,8.296c-0.163,0.607-0.587,1.812-1.488,2.168
			c-0.379,0.15-0.57,0.366-0.57,0.643c0,0.021,0.001,0.044,0.003,0.065c0.022,0.212,0.159,0.483,0.685,0.573
			c1.142,0.196,4.436-0.271,5.717-2.286c0.423,0.028,1.987,0.136,1.987,0.136c7.079,0,12.838-4.304,12.838-9.595
			S20.752,0.5,13.673,0.5C6.593,0.5,0.833,4.804,0.833,10.095z M8.407,18.231c0.006-0.032,0.009-0.064,0.009-0.096
			c0-0.203-0.124-0.39-0.318-0.465c-3.864-1.505-6.265-4.408-6.265-7.574c0-4.74,5.312-8.596,11.84-8.596
			c6.528,0,11.838,3.856,11.838,8.596c0,4.739-5.311,8.595-11.838,8.595l-2.128-0.146c-0.205-0.014-0.43,0.095-0.518,0.281
			c-0.646,1.356-2.604,1.884-3.879,2.011C8.001,19.958,8.317,18.69,8.407,18.231z"/>
		<path i:knockout="Off" fill="#223742" d="M18.584,25.311c0,5.269,5.665,9.556,12.628,9.556c0,0,1.525-0.104,1.948-0.133
			c1.255,1.987,4.487,2.465,5.611,2.277c0.531-0.089,0.671-0.36,0.693-0.572c0.003-0.021,0.004-0.043,0.004-0.064
			c0-0.205-0.108-0.463-0.563-0.646c-0.884-0.354-1.295-1.535-1.459-2.157c3.934-1.702,6.395-4.813,6.395-8.261
			c0-5.271-5.665-9.56-12.629-9.56C24.25,15.75,18.584,20.039,18.584,25.311z M19.584,25.311c0-4.72,5.216-8.56,11.628-8.56
			s11.629,3.84,11.629,8.56c0,3.152-2.358,6.042-6.155,7.542c-0.193,0.076-0.316,0.263-0.316,0.465c0,0.032,0.003,0.064,0.01,0.098
			c0.091,0.459,0.411,1.729,1.222,2.584c-1.252-0.133-3.152-0.659-3.779-1.993c-0.087-0.187-0.313-0.297-0.52-0.282l-2.09,0.143
			C24.8,33.866,19.584,30.028,19.584,25.311z"/>
		<path i:knockout="Off" fill="#5383A0" d="M0,9.596c0,3.464,2.503,6.59,6.506,8.296c-0.163,0.606-0.587,1.812-1.488,2.169
			c-0.379,0.149-0.57,0.366-0.57,0.643c0,0.021,0.001,0.043,0.003,0.065c0.022,0.211,0.158,0.482,0.684,0.573
			c1.142,0.196,4.437-0.271,5.717-2.286c0.423,0.028,1.987,0.135,1.987,0.135c7.08,0,12.839-4.304,12.839-9.595
			C25.679,4.305,19.919,0,12.84,0C5.76,0,0,4.305,0,9.596z M7.574,17.731c0.006-0.032,0.009-0.064,0.009-0.096
			c0-0.203-0.124-0.39-0.318-0.466C3.4,15.665,1,12.762,1,9.596C1,4.856,6.312,1,12.84,1s11.839,3.856,11.839,8.596
			c0,4.739-5.311,8.595-11.839,8.595l-2.129-0.145c-0.205-0.014-0.429,0.095-0.518,0.281c-0.646,1.356-2.604,1.883-3.879,2.01
			C7.168,19.458,7.484,18.191,7.574,17.731z"/>
		<path i:knockout="Off" fill="#5383A0" d="M17.751,24.811c0,5.269,5.628,9.556,12.545,9.556c0,0,1.509-0.104,1.933-0.133
			c1.244,1.979,4.452,2.462,5.568,2.278c0.534-0.088,0.675-0.359,0.698-0.572c0.003-0.021,0.004-0.043,0.004-0.066
			c0-0.204-0.108-0.461-0.561-0.645c-0.879-0.354-1.287-1.536-1.448-2.158c3.906-1.702,6.351-4.813,6.351-8.26
			c0-5.271-5.628-9.561-12.545-9.561S17.751,19.539,17.751,24.811z M18.751,24.811c0-4.721,5.179-8.561,11.545-8.561
			s11.545,3.84,11.545,8.561c0,3.152-2.342,6.043-6.111,7.542c-0.193,0.077-0.315,0.264-0.315,0.465c0,0.031,0.003,0.063,0.01,0.097
			c0.09,0.459,0.407,1.728,1.212,2.584c-1.242-0.135-3.125-0.662-3.745-1.99c-0.088-0.188-0.314-0.299-0.521-0.284l-2.074,0.143
			C23.93,33.366,18.751,29.528,18.751,24.811z"/>
	</g>
</svg>
