<?xml version="1.0" encoding="utf-8"?>
<!-- Generator: Adobe Illustrator 10.0, SVG Export Plug-In . SVG Version: 3.0.0 Build 76)  -->
<!DOCTYPE svg PUBLIC "-//W3C//DTD SVG 1.0//EN"    "http://www.w3.org/TR/2001/REC-SVG-20010904/DTD/svg10.dtd" [
	<!ENTITY ns_flows "http://ns.adobe.com/Flows/1.0/">
	<!ENTITY ns_extend "http://ns.adobe.com/Extensibility/1.0/">
	<!ENTITY ns_ai "http://ns.adobe.com/AdobeIllustrator/10.0/">
	<!ENTITY ns_graphs "http://ns.adobe.com/Graphs/1.0/">
	<!ENTITY ns_vars "http://ns.adobe.com/Variables/1.0/">
	<!ENTITY ns_imrep "http://ns.adobe.com/ImageReplacement/1.0/">
	<!ENTITY ns_sfw "http://ns.adobe.com/SaveForWeb/1.0/">
	<!ENTITY ns_custom "http://ns.adobe.com/GenericCustomNamespace/1.0/">
	<!ENTITY ns_adobe_xpath "http://ns.adobe.com/XPath/1.0/">
	<!ENTITY ns_svg "http://www.w3.org/2000/svg">
	<!ENTITY ns_xlink "http://www.w3.org/1999/xlink">
]>
<svg 
	 xmlns:x="&ns_extend;" xmlns:i="&ns_ai;" xmlns:graph="&ns_graphs;" i:viewOrigin="3.833 44.8359" i:rulerOrigin="0 0" i:pageBounds="0 48 48 0"
	 xmlns="&ns_svg;" xmlns:xlink="&ns_xlink;" xmlns:a="http://ns.adobe.com/AdobeSVGViewerExtensions/3.0/"
	 width="40.334" height="40.034" viewBox="0 0 40.334 40.034" overflow="visible" enable-background="new 0 0 40.334 40.034"
	 xml:space="preserve">
	<metadata>
		<variableSets  xmlns="http://ns.adobe.com/Variables/1.0/">
			<variableSet  varSetName="binding1" locked="none">
				<variables></variables>
				<v:sampleDataSets  xmlns="http://ns.adobe.com/GenericCustomNamespace/1.0/" xmlns:v="http://ns.adobe.com/Variables/1.0/">
					</v:sampleDataSets>
			</variableSet>
		</variableSets>
		<sfw  xmlns="&ns_sfw;">
			<slices></slices>
			<sliceSourceBounds  y="4.802" x="3.833" width="40.334" height="40.034" bottomLeftOrigin="true"></sliceSourceBounds>
		</sfw>
	</metadata>
	<g id="Layer_1" i:layer="yes" i:dimmedPercent="50" i:rgbTrio="#4F008000FFFF">
		<g>
			<path i:knockout="Off" fill="#7F3A01" d="M4.971,20.646c-0.101-0.07-0.409-0.359-0.409-1.318c0-0.399,0.056-0.913,0.208-1.571
				c0.525-2.278,1.351-2.514,1.532-2.541c0.183,0.105,4.182,2.415,7.08,4.088c0.047-0.352,0.117-0.696,0.219-1.027l-6.942-4.009
				c-0.06-0.035-0.125-0.057-0.193-0.064c-0.19-0.021-1.877-0.111-2.67,3.329c-0.164,0.711-0.23,1.3-0.23,1.788
				c0,1.884,0.985,2.26,1.125,2.304c0.049,0.015,0.099,0.022,0.149,0.022h8.656c-0.076-0.325-0.128-0.658-0.153-1
				C9.962,20.646,5.142,20.646,4.971,20.646z"/>
			<path i:knockout="Off" fill="#7F3A01" d="M7.67,12.561c-0.015-0.024-0.063-0.093-0.063-0.287c0-0.387,0.206-1.129,1.32-2.323
				c0,0,0,0,0.001,0c1.653-1.774,2.478-1.481,2.601-1.426c0.108,0.187,2.288,3.964,3.944,6.832c0.251-0.225,0.516-0.432,0.799-0.616
				l-3.965-6.867c-0.034-0.06-0.08-0.111-0.136-0.152c-0.153-0.113-1.568-1.034-3.975,1.548c-1.271,1.362-1.593,2.358-1.593,3.016
				c0,0.593,0.262,0.911,0.32,0.976c0.034,0.037,0.074,0.068,0.118,0.094l6.927,3.999c0.146-0.302,0.312-0.592,0.501-0.865
				C11.592,14.825,7.826,12.651,7.67,12.561z"/>
			<path i:knockout="Off" fill="#7F3A01" d="M13.881,6.8c0.012-0.159,0.176-0.945,2.399-1.624c2.105-0.645,2.797-0.135,2.966,0.048
				c0,0.206,0,5.129,0,8.498c0.18-0.015,0.359-0.027,0.543-0.027c0.154,0,0.306,0.013,0.457,0.023V5.066
				c0-0.068-0.014-0.137-0.042-0.199c-0.076-0.176-0.842-1.681-4.217-0.648c-2.809,0.858-3.116,2.107-3.116,2.613
				c0,0.104,0.013,0.177,0.02,0.208c0.012,0.049,0.03,0.097,0.056,0.141l4.114,7.125c0.305-0.143,0.621-0.263,0.948-0.356
				C16.324,11.032,13.97,6.955,13.881,6.8z"/>
			<path i:knockout="Off" fill="#7F3A01" d="M22.127,5.34c0.101-0.143,0.653-0.718,2.891-0.201c2.277,0.526,2.513,1.351,2.54,1.532
				c-0.116,0.2-2.883,4.993-4.554,7.887c0.291,0.167,0.568,0.354,0.829,0.564l4.673-8.095c0.035-0.06,0.057-0.125,0.064-0.193
				c0.021-0.189,0.111-1.876-3.328-2.67c-3.455-0.798-4.039,0.72-4.093,0.895c-0.015,0.048-0.022,0.099-0.022,0.149l0.001,8.627
				c0.345,0.073,0.678,0.178,1,0.304C22.128,10.754,22.127,5.519,22.127,5.34z"/>
			<path i:knockout="Off" fill="#7F3A01" d="M25.22,16.237c1.707-2.857,4.661-7.804,4.768-7.982
				c0.078-0.044,0.821-0.404,2.592,1.297c1.222,1.174,1.438,1.952,1.438,2.356c0,0.176-0.035,0.23-0.053,0.267
				c-0.22,0.122-5.287,2.949-8.168,4.557c0.244,0.237,0.467,0.496,0.672,0.769l8.137-4.538c0.061-0.033,0.113-0.079,0.154-0.134
				c0.116-0.151,1.057-1.553-1.487-3.997C30.715,6.374,29.438,7.377,29.3,7.5c-0.038,0.034-0.07,0.073-0.097,0.116l-4.794,8.027
				c0.04,0.041,0.077,0.086,0.116,0.128C24.768,15.912,24.999,16.067,25.22,16.237z"/>
			<g>
				<path i:knockout="Off" fill="none" d="M19.414,38.83c-0.957,0-1.892-0.093-2.812-0.228c1.387,0.333,2.827,0.529,4.315,0.529
					c10.209,0,18.512-8.305,18.512-18.513c0-2.901-0.689-5.638-1.884-8.085c0.815,2.143,1.282,4.456,1.282,6.881
					C38.828,30.121,30.119,38.83,19.414,38.83z"/>
				<path i:knockout="Off" fill="none" d="M20.918,1.204c0.955,0,1.887,0.093,2.806,0.227c-1.386-0.332-2.823-0.527-4.31-0.527
					c-10.207,0-18.512,8.304-18.512,18.512c0,2.9,0.689,5.636,1.883,8.082c-0.814-2.142-1.281-4.454-1.281-6.878
					C1.504,9.914,10.213,1.204,20.918,1.204z"/>
				<path i:knockout="Off" fill="none" d="M37.924,19.415c0-5.508-2.431-10.447-6.26-13.841c-3.033-2.173-6.737-3.467-10.746-3.467
					c-10.207,0-18.51,8.304-18.51,18.512c0,5.507,2.43,10.444,6.258,13.839c3.034,2.175,6.739,3.47,10.748,3.47
					C29.621,37.928,37.924,29.622,37.924,19.415z M13.12,20.896H4.464c-0.051,0-0.101-0.008-0.149-0.022
					c-0.14-0.044-1.125-0.42-1.125-2.304c0-0.488,0.066-1.077,0.23-1.788c0.793-3.44,2.479-3.351,2.67-3.329
					c0.068,0.008,0.134,0.029,0.193,0.064l6.942,4.009c0.098-0.32,0.225-0.627,0.369-0.924l-6.927-3.999
					c-0.044-0.025-0.084-0.057-0.118-0.094c-0.059-0.064-0.32-0.383-0.32-0.976c0-0.657,0.321-1.653,1.593-3.016H7.821h0.001
					c2.406-2.582,3.821-1.661,3.975-1.548c0.056,0.041,0.102,0.093,0.136,0.152l3.965,6.867c0.251-0.163,0.515-0.307,0.788-0.435
					l-4.114-7.125c-0.025-0.044-0.044-0.092-0.056-0.141c-0.007-0.031-0.02-0.104-0.02-0.208c0-0.506,0.308-1.755,3.116-2.613
					c3.375-1.032,4.141,0.473,4.217,0.648c0.028,0.063,0.042,0.131,0.042,0.199v8.651c0.3,0.021,0.595,0.057,0.882,0.117
					l-0.001-8.627c0-0.051,0.008-0.102,0.022-0.149c0.054-0.175,0.638-1.692,4.093-0.895c3.439,0.794,3.35,2.48,3.328,2.67
					c-0.008,0.068-0.029,0.134-0.064,0.193l-4.673,8.095c0.202,0.162,0.395,0.336,0.576,0.521l4.794-8.027
					c0.026-0.043,0.059-0.082,0.097-0.116c0.138-0.123,1.415-1.126,3.973,1.331c2.544,2.444,1.604,3.846,1.487,3.997
					c-0.041,0.055-0.094,0.101-0.154,0.134l-8.137,4.538c0.811,1.081,1.297,2.418,1.297,3.869c0,3.568-2.905,6.472-6.473,6.472
					c-1.871,0-3.555-0.804-4.737-2.078C14.661,24.131,13.533,22.652,13.12,20.896z"/>
				<path i:knockout="Off" fill="none" d="M13.007,18.554c-2.898-1.673-6.897-3.982-7.08-4.088
					c-0.182,0.027-1.007,0.263-1.532,2.541c-0.152,0.658-0.208,1.172-0.208,1.571c0,0.959,0.309,1.248,0.409,1.318
					c0.171,0,4.991,0,8.371,0c-0.012-0.159-0.024-0.319-0.024-0.481C12.942,19.122,12.969,18.836,13.007,18.554z"/>
				<path i:knockout="Off" fill="none" d="M15.099,14.606c-1.656-2.868-3.836-6.646-3.944-6.832
					C11.031,7.719,10.207,7.426,8.554,9.2c-0.001,0-0.001,0-0.001,0c-1.114,1.194-1.32,1.937-1.32,2.323
					c0,0.194,0.048,0.263,0.063,0.287c0.156,0.091,3.922,2.265,6.801,3.927C14.385,15.321,14.724,14.944,15.099,14.606z"/>
				<path i:knockout="Off" fill="none" d="M23.176,19.415c0-0.333-0.058-0.651-0.14-0.959l-0.066,0.037
					c-0.197,0.108-0.443,0.071-0.601-0.092c-0.156-0.162-0.185-0.409-0.069-0.604l0.26-0.435c-0.045-0.068-0.098-0.129-0.146-0.193
					c-0.153-0.067-0.316-0.11-0.479-0.157l-0.247,0.428c-0.113,0.196-0.344,0.292-0.563,0.234c-0.219-0.059-0.371-0.257-0.371-0.483
					v-0.318c-0.306,0.014-0.599,0.067-0.882,0.15v0.184c0,0.227-0.152,0.425-0.37,0.483c-0.219,0.059-0.45-0.037-0.563-0.233
					l-0.01-0.018c-0.26,0.163-0.499,0.352-0.71,0.57l0.16,0.278c0.112,0.196,0.08,0.443-0.08,0.603
					c-0.16,0.16-0.407,0.192-0.604,0.079l-0.107-0.063c-0.152,0.295-0.279,0.604-0.35,0.937l0.211,0.121
					c0.194,0.114,0.289,0.345,0.229,0.563c-0.059,0.218-0.257,0.369-0.482,0.369h-0.012c0.055,0.735,0.313,1.408,0.731,1.966
					c0.46,0.201,0.965,0.315,1.498,0.315C21.487,23.178,23.176,21.489,23.176,19.415z"/>
				<path i:knockout="Off" fill="none" d="M18.871,4.474c-0.169-0.183-0.86-0.692-2.966-0.048c-2.224,0.679-2.388,1.465-2.399,1.624
					c0.089,0.155,2.443,4.232,4.128,7.149c0.398-0.114,0.812-0.191,1.237-0.228C18.871,9.603,18.871,4.68,18.871,4.474z"/>
				<path i:knockout="Off" fill="none" d="M27.183,5.921c-0.027-0.182-0.263-1.006-2.54-1.532c-2.237-0.517-2.79,0.059-2.891,0.201
					c0,0.179,0.001,5.414,0.001,8.799c0.304,0.118,0.597,0.258,0.876,0.419C24.3,10.914,27.066,6.121,27.183,5.921z"/>
				<path i:knockout="Off" fill="none" d="M33.59,11.425c0.018-0.036,0.053-0.091,0.053-0.267c0-0.404-0.217-1.183-1.438-2.356
					c-1.771-1.701-2.514-1.341-2.592-1.297c-0.106,0.179-3.061,5.125-4.768,7.982c0.202,0.154,0.396,0.317,0.577,0.494
					C28.303,14.374,33.37,11.547,33.59,11.425z"/>
				<path i:knockout="Off" fill="#E76F00" d="M4.596,19.896c-0.101-0.07-0.409-0.359-0.409-1.318c0-0.399,0.056-0.913,0.208-1.571
					c0.525-2.278,1.351-2.514,1.532-2.541c0.183,0.105,4.182,2.415,7.08,4.088c0.047-0.352,0.117-0.696,0.219-1.027l-6.942-4.009
					c-0.06-0.035-0.125-0.057-0.193-0.064c-0.19-0.021-1.877-0.111-2.67,3.329c-0.164,0.711-0.23,1.3-0.23,1.788
					c0,1.884,0.985,2.26,1.125,2.304c0.049,0.015,0.099,0.022,0.149,0.022h8.656c-0.076-0.325-0.128-0.658-0.153-1
					C9.587,19.896,4.767,19.896,4.596,19.896z"/>
				<path i:knockout="Off" fill="#E76F00" d="M7.295,11.811c-0.015-0.024-0.063-0.093-0.063-0.287c0-0.387,0.206-1.129,1.32-2.323
					c0,0,0,0,0.001,0c1.653-1.774,2.478-1.481,2.601-1.426c0.108,0.187,2.288,3.964,3.944,6.832
					c0.251-0.225,0.516-0.432,0.799-0.616l-3.965-6.867c-0.034-0.06-0.08-0.111-0.136-0.152c-0.153-0.113-1.568-1.034-3.975,1.548
					c-1.271,1.362-1.593,2.358-1.593,3.016c0,0.593,0.262,0.911,0.32,0.976c0.034,0.037,0.074,0.068,0.118,0.094l6.927,3.999
					c0.146-0.302,0.312-0.592,0.501-0.865C11.217,14.075,7.451,11.901,7.295,11.811z"/>
				<path i:knockout="Off" fill="#E76F00" d="M13.506,6.05c0.012-0.159,0.176-0.945,2.399-1.624
					c2.105-0.645,2.797-0.135,2.966,0.048c0,0.206,0,5.129,0,8.498c0.18-0.015,0.359-0.027,0.543-0.027
					c0.154,0,0.306,0.013,0.457,0.023V4.316c0-0.068-0.014-0.137-0.042-0.199c-0.076-0.176-0.842-1.681-4.217-0.648
					c-2.809,0.858-3.116,2.107-3.116,2.613c0,0.104,0.013,0.177,0.02,0.208c0.012,0.049,0.03,0.097,0.056,0.141l4.114,7.125
					c0.305-0.143,0.621-0.263,0.948-0.356C15.949,10.282,13.595,6.205,13.506,6.05z"/>
				<path i:knockout="Off" fill="#E76F00" d="M21.752,4.59c0.101-0.143,0.653-0.718,2.891-0.201c2.277,0.526,2.513,1.351,2.54,1.532
					c-0.116,0.2-2.883,4.993-4.554,7.887c0.291,0.167,0.568,0.354,0.829,0.564l4.673-8.095c0.035-0.06,0.057-0.125,0.064-0.193
					c0.021-0.189,0.111-1.876-3.328-2.67c-3.455-0.798-4.039,0.72-4.093,0.895c-0.015,0.048-0.022,0.099-0.022,0.149l0.001,8.627
					c0.345,0.073,0.678,0.178,1,0.304C21.753,10.004,21.752,4.769,21.752,4.59z"/>
				<path i:knockout="Off" fill="#E76F00" d="M24.845,15.487c1.707-2.857,4.661-7.804,4.768-7.982
					c0.078-0.044,0.821-0.404,2.592,1.297c1.222,1.174,1.438,1.952,1.438,2.356c0,0.176-0.035,0.23-0.053,0.267
					c-0.22,0.122-5.287,2.949-8.168,4.557c0.244,0.237,0.467,0.496,0.672,0.769l8.137-4.538c0.061-0.033,0.113-0.079,0.154-0.134
					c0.116-0.151,1.057-1.553-1.487-3.997c-2.558-2.457-3.835-1.454-3.973-1.331c-0.038,0.034-0.07,0.073-0.097,0.116l-4.794,8.027
					c0.04,0.041,0.077,0.086,0.116,0.128C24.393,15.162,24.624,15.317,24.845,15.487z"/>
				<path i:knockout="Off" fill="#223742" d="M2.408,20.619c0-10.208,8.303-18.512,18.51-18.512c4.009,0,7.713,1.294,10.746,3.467
					c-2.234-1.98-4.944-3.425-7.94-4.144c-0.919-0.134-1.851-0.227-2.806-0.227c-10.705,0-19.414,8.71-19.414,19.415
					c0,2.424,0.467,4.736,1.281,6.878c1.358,2.781,3.385,5.172,5.881,6.961C4.838,31.063,2.408,26.126,2.408,20.619z"/>
				<path i:knockout="Off" fill="#223742" d="M32.241,4.88c2.34,2.067,4.174,4.686,5.305,7.654c1.194,2.447,1.884,5.184,1.884,8.085
					c0,10.208-8.303,18.513-18.512,18.513c-1.488,0-2.929-0.196-4.315-0.529c-3.146-0.46-6.045-1.668-8.515-3.45
					c3.426,3.027,7.91,4.882,12.83,4.882c10.707,0,19.416-8.71,19.416-19.415C40.334,14.141,37.133,8.408,32.241,4.88z"/>
				<path i:knockout="Off" fill="#223742" d="M15.958,20.896c0.378,0.879,1.082,1.583,1.958,1.966
					c-0.418-0.558-0.677-1.23-0.731-1.966H15.958z"/>
				<path i:knockout="Off" fill="#223742" d="M15.698,18.954l1.54,0.89c0.07-0.333,0.197-0.642,0.35-0.937l-1.643-0.947
					C15.814,18.271,15.741,18.607,15.698,18.954z"/>
				<path i:knockout="Off" fill="#223742" d="M20.918,27.091c3.567,0,6.473-2.903,6.473-6.472c0-1.451-0.486-2.788-1.297-3.869
					l-0.642,0.358c0.275,0.718,0.433,1.493,0.433,2.307c0,3.569-2.902,6.472-6.471,6.472c-1.179,0-2.28-0.321-3.233-0.874
					C17.363,26.287,19.047,27.091,20.918,27.091z"/>
				<path i:knockout="Off" fill="#223742" d="M16.511,17.052c-0.015,0.019-0.03,0.036-0.044,0.055
					c0.035,0.021,0.079,0.046,0.113,0.065C16.56,17.137,16.533,17.09,16.511,17.052z"/>
				<path i:knockout="Off" fill="#223742" d="M25.023,16.203c0.127-0.07,0.261-0.146,0.398-0.222
					c-0.182-0.177-0.375-0.34-0.577-0.494c-0.044,0.075-0.09,0.151-0.133,0.224C24.823,15.87,24.927,16.034,25.023,16.203z"/>
				<path i:knockout="Off" fill="#223742" d="M17.256,16.343l0.963,1.667c0.211-0.219,0.45-0.407,0.71-0.57l-0.879-1.521
					C17.768,16.029,17.501,16.171,17.256,16.343z"/>
				<path i:knockout="Off" fill="#223742" d="M19.871,15.699v1.324c0.283-0.083,0.576-0.137,0.882-0.15v-0.962
					C20.474,15.804,20.178,15.737,19.871,15.699z"/>
				<path i:knockout="Off" fill="#223742" d="M21.934,17.013c0.163,0.047,0.326,0.09,0.479,0.157
					c-0.105-0.141-0.211-0.282-0.336-0.407L21.934,17.013z"/>
				<path i:knockout="Off" fill="#223742" d="M17.156,20.619c0-0.266,0.029-0.525,0.082-0.775l-1.54-0.89
					c-0.02,0.152-0.047,0.303-0.047,0.461c0,0.526,0.11,1.026,0.307,1.481h1.227C17.178,20.804,17.156,20.714,17.156,20.619z"/>
				<path i:knockout="Off" fill="#223742" d="M16.511,17.052c0.022,0.038,0.049,0.085,0.069,0.12
					c-0.034-0.02-0.078-0.045-0.113-0.065c-0.206,0.262-0.39,0.542-0.521,0.854l1.643,0.947c0.169-0.328,0.376-0.634,0.631-0.897
					l-0.963-1.667C16.974,16.542,16.729,16.785,16.511,17.052z"/>
				<path i:knockout="Off" fill="#223742" d="M19.414,15.653c-0.482,0-0.939,0.1-1.364,0.266l0.879,1.521
					c0.289-0.183,0.607-0.318,0.942-0.416v-1.324C19.72,15.681,19.57,15.653,19.414,15.653z"/>
				<path i:knockout="Off" fill="#223742" d="M20.753,15.911v0.962c0.056-0.002,0.108-0.017,0.165-0.017
					c0.354,0,0.69,0.064,1.016,0.156l0.144-0.25C21.706,16.39,21.253,16.104,20.753,15.911z"/>
				<path i:knockout="Off" fill="#223742" d="M25.422,15.981c-0.138,0.076-0.271,0.151-0.398,0.222
					c0.166,0.289,0.309,0.591,0.429,0.905l0.642-0.358C25.889,16.478,25.666,16.219,25.422,15.981z"/>
				<path i:knockout="Off" fill="#223742" d="M24.845,15.487c-0.221-0.17-0.452-0.325-0.694-0.466
					c0.202,0.217,0.391,0.446,0.562,0.689C24.755,15.639,24.801,15.563,24.845,15.487z"/>
				<path i:knockout="Off" fill="#5383A0" d="M31.664,5.574c3.829,3.394,6.26,8.333,6.26,13.841c0,10.207-8.303,18.513-18.51,18.513
					c-4.009,0-7.714-1.295-10.748-3.47c2.232,1.98,4.941,3.425,7.937,4.145c0.92,0.135,1.854,0.228,2.812,0.228
					c10.705,0,19.414-8.709,19.414-19.415c0-2.425-0.467-4.738-1.282-6.881C36.188,9.753,34.16,7.362,31.664,5.574z"/>
				<path i:knockout="Off" fill="#5383A0" d="M2.785,27.497c-1.193-2.446-1.883-5.182-1.883-8.082
					c0-10.208,8.305-18.512,18.512-18.512c1.486,0,2.924,0.195,4.31,0.527c3.146,0.458,6.047,1.667,8.518,3.449
					C28.816,1.854,24.333,0,19.414,0C8.709,0,0,8.709,0,19.415c0,6.478,3.199,12.208,8.088,15.737
					C5.749,33.084,3.916,30.466,2.785,27.497z"/>
				<path i:knockout="Off" fill="#5383A0" d="M8.666,34.458c-2.496-1.789-4.522-4.18-5.881-6.961
					c1.131,2.969,2.964,5.587,5.303,7.655c2.47,1.782,5.368,2.99,8.515,3.45C13.607,37.883,10.898,36.438,8.666,34.458z"/>
				<path i:knockout="Off" fill="#5383A0" d="M31.664,5.574c2.496,1.788,4.523,4.179,5.882,6.96
					c-1.131-2.969-2.965-5.587-5.305-7.654c-2.471-1.782-5.371-2.991-8.518-3.449C26.72,2.149,29.43,3.594,31.664,5.574z"/>
				<path i:knockout="Off" fill="#5383A0" d="M15.099,14.606c-0.375,0.338-0.714,0.715-1.003,1.131
					c0.619,0.357,1.188,0.687,1.68,0.97c0.101-0.131,0.206-0.259,0.315-0.382C15.804,15.828,15.466,15.242,15.099,14.606z"/>
				<path i:knockout="Off" fill="#5383A0" d="M17.572,15.091l-0.887-1.535c-0.273,0.128-0.537,0.271-0.788,0.435l0.934,1.617
					C17.064,15.417,17.313,15.248,17.572,15.091z"/>
				<path i:knockout="Off" fill="#5383A0" d="M20.753,14.156v-1.071c-0.287-0.061-0.582-0.097-0.882-0.117v1.272
					C20.159,14.193,20.453,14.163,20.753,14.156z"/>
				<path i:knockout="Off" fill="#5383A0" d="M15.227,17.544l-1.632-0.941c-0.145,0.297-0.271,0.604-0.369,0.924l1.604,0.926
					C14.94,18.139,15.069,17.833,15.227,17.544z"/>
				<path i:knockout="Off" fill="#5383A0" d="M13.12,20.896c0.413,1.756,1.541,3.234,3.061,4.116
					c-1.013-1.092-1.651-2.529-1.72-4.116H13.12z"/>
				<path i:knockout="Off" fill="#5383A0" d="M22.56,17.363l0.052-0.086c-0.067-0.034-0.129-0.077-0.198-0.107
					C22.462,17.234,22.515,17.295,22.56,17.363z"/>
				<path i:knockout="Off" fill="#5383A0" d="M18.871,12.972c-0.426,0.036-0.839,0.113-1.237,0.228
					c0.306,0.528,0.586,1.014,0.829,1.436c0.134-0.056,0.271-0.104,0.408-0.15C18.871,14.041,18.871,13.53,18.871,12.972z"/>
				<path i:knockout="Off" fill="#5383A0" d="M22.629,13.808c-0.279-0.161-0.572-0.301-0.876-0.419c0,0.289,0,0.561,0,0.819
					c0.198,0.025,0.394,0.059,0.586,0.102C22.43,14.152,22.529,13.98,22.629,13.808z"/>
				<path i:knockout="Off" fill="#5383A0" d="M13.007,18.554c-0.038,0.282-0.064,0.568-0.064,0.861c0,0.162,0.013,0.322,0.024,0.481
					c0.558,0,1.072,0,1.523,0c0.017-0.15,0.041-0.299,0.068-0.446C14.107,19.189,13.584,18.888,13.007,18.554z"/>
				<path i:knockout="Off" fill="#5383A0" d="M23.176,19.415c0,2.074-1.688,3.763-3.762,3.763c-0.533,0-1.038-0.114-1.498-0.315
					c0.687,0.917,1.771,1.52,3.002,1.52c2.076,0,3.764-1.688,3.764-3.763c0-0.976-0.383-1.857-0.994-2.526l-0.651,0.363
					C23.118,18.764,23.176,19.082,23.176,19.415z"/>
				<path i:knockout="Off" fill="#5383A0" d="M24.01,14.936l0.024-0.042c-0.182-0.186-0.374-0.359-0.576-0.521l-0.14,0.242
					C23.555,14.709,23.787,14.814,24.01,14.936z"/>
				<path i:knockout="Off" fill="#5383A0" d="M14.559,19.45c0.063-0.344,0.155-0.676,0.271-0.998l-1.604-0.926
					c-0.102,0.331-0.172,0.676-0.219,1.027C13.584,18.888,14.107,19.189,14.559,19.45z"/>
				<path i:knockout="Off" fill="#5383A0" d="M14.447,20.619c0-0.244,0.017-0.485,0.043-0.723c-0.451,0-0.966,0-1.523,0
					c0.025,0.342,0.077,0.675,0.153,1h1.341C14.457,20.804,14.447,20.713,14.447,20.619z"/>
				<path i:knockout="Off" fill="#5383A0" d="M15.775,16.707c-0.491-0.283-1.061-0.612-1.68-0.97
					c-0.189,0.273-0.354,0.563-0.501,0.865l1.632,0.941C15.386,17.249,15.573,16.973,15.775,16.707z"/>
				<path i:knockout="Off" fill="#5383A0" d="M16.091,16.325c0.229-0.258,0.474-0.5,0.74-0.718l-0.934-1.617
					c-0.283,0.185-0.548,0.392-0.799,0.616C15.466,15.242,15.804,15.828,16.091,16.325z"/>
				<path i:knockout="Off" fill="#5383A0" d="M18.871,12.972c0,0.559,0,1.069,0,1.513c0.322-0.107,0.657-0.188,1-0.244v-1.272
					c-0.151-0.011-0.303-0.023-0.457-0.023C19.23,12.944,19.051,12.957,18.871,12.972z"/>
				<path i:knockout="Off" fill="#5383A0" d="M18.463,14.635c-0.243-0.422-0.523-0.907-0.829-1.436
					c-0.327,0.094-0.644,0.214-0.948,0.356l0.887,1.535C17.856,14.918,18.152,14.763,18.463,14.635z"/>
				<path i:knockout="Off" fill="#5383A0" d="M20.918,14.147c0.283,0,0.561,0.024,0.835,0.061c0-0.259,0-0.53,0-0.819
					c-0.322-0.126-0.655-0.23-1-0.304v1.071C20.809,14.154,20.862,14.147,20.918,14.147z"/>
				<path i:knockout="Off" fill="#5383A0" d="M22.339,14.31c0.337,0.076,0.664,0.179,0.979,0.305l0.14-0.242
					c-0.261-0.21-0.538-0.397-0.829-0.564C22.529,13.98,22.43,14.152,22.339,14.31z"/>
				<path i:knockout="Off" fill="#5383A0" d="M22.611,17.277l-0.052,0.086c0.216,0.331,0.372,0.701,0.477,1.093l0.651-0.363
					C23.383,17.758,23.019,17.484,22.611,17.277z"/>
				<path i:knockout="Off" fill="#5383A0" d="M24.15,15.021c-0.039-0.042-0.076-0.087-0.116-0.128l-0.024,0.042
					C24.058,14.962,24.103,14.993,24.15,15.021z"/>
				<path i:knockout="Off" fill="#5383A0" d="M24.114,16.711c0.246-0.138,0.56-0.313,0.909-0.508
					c-0.097-0.169-0.2-0.333-0.312-0.492C24.482,16.094,24.279,16.436,24.114,16.711z"/>
				<path i:knockout="Off" fill="#5383A0" d="M15.945,17.96l-0.719-0.416c-0.157,0.289-0.286,0.595-0.397,0.908l0.869,0.502
					C15.741,18.607,15.814,18.271,15.945,17.96z"/>
				<path i:knockout="Off" fill="#5383A0" d="M16.511,17.052c-0.12-0.208-0.262-0.453-0.42-0.727
					c-0.109,0.123-0.215,0.251-0.315,0.382c0.255,0.147,0.488,0.282,0.691,0.399C16.48,17.088,16.496,17.07,16.511,17.052z"/>
				<path i:knockout="Off" fill="#5383A0" d="M18.05,15.919l-0.478-0.828c-0.259,0.157-0.508,0.326-0.741,0.517l0.425,0.735
					C17.501,16.171,17.768,16.029,18.05,15.919z"/>
				<path i:knockout="Off" fill="#5383A0" d="M18.871,14.484c-0.138,0.047-0.274,0.095-0.408,0.15
					c0.151,0.261,0.292,0.505,0.408,0.706C18.871,15.104,18.871,14.808,18.871,14.484z"/>
				<path i:knockout="Off" fill="#5383A0" d="M14.559,19.45c-0.027,0.147-0.052,0.296-0.068,0.446c0.312,0,0.603,0,0.842,0
					C15.12,19.773,14.852,19.619,14.559,19.45z"/>
				<path i:knockout="Off" fill="#5383A0" d="M22.339,14.31c-0.192-0.043-0.388-0.076-0.586-0.102c0,0.425,0,0.809,0,1.117
					C21.91,15.054,22.109,14.707,22.339,14.31z"/>
				<path i:knockout="Off" fill="#5383A0" d="M22.413,17.17c0.069,0.03,0.131,0.073,0.198,0.107l1.398-2.342
					c-0.223-0.121-0.455-0.227-0.691-0.321l-1.241,2.148C22.202,16.888,22.308,17.029,22.413,17.17z"/>
				<path i:knockout="Off" fill="#5383A0" d="M25.885,19.415c0-0.813-0.157-1.589-0.433-2.307l-1.765,0.984
					c0.611,0.669,0.994,1.551,0.994,2.526c0,2.075-1.688,3.763-3.764,3.763c-1.23,0-2.315-0.603-3.002-1.52
					c-0.876-0.383-1.58-1.087-1.958-1.966h-1.497c0.068,1.587,0.707,3.024,1.72,4.116c0.953,0.553,2.055,0.874,3.233,0.874
					C22.982,25.887,25.885,22.984,25.885,19.415z"/>
				<path i:knockout="Off" fill="#5383A0" d="M20.753,15.911v-1.755c-0.3,0.007-0.594,0.037-0.882,0.084v1.459
					C20.178,15.737,20.474,15.804,20.753,15.911z"/>
				<path i:knockout="Off" fill="#5383A0" d="M15.698,18.954l-0.869-0.502c-0.115,0.322-0.207,0.654-0.271,0.998
					c0.293,0.169,0.562,0.323,0.773,0.446c-0.239,0-0.53,0-0.842,0c-0.026,0.237-0.043,0.479-0.043,0.723
					c0,0.094,0.01,0.185,0.014,0.277h1.497c-0.196-0.455-0.307-0.955-0.307-1.481C15.651,19.257,15.679,19.106,15.698,18.954z"/>
				<path i:knockout="Off" fill="#5383A0" d="M17.256,16.343l-0.425-0.735c-0.267,0.218-0.511,0.46-0.74,0.718
					c0.158,0.273,0.3,0.519,0.42,0.727C16.729,16.785,16.974,16.542,17.256,16.343z"/>
				<path i:knockout="Off" fill="#5383A0" d="M16.467,17.106c-0.203-0.117-0.437-0.252-0.691-0.399
					c-0.202,0.266-0.39,0.542-0.549,0.837l0.719,0.416C16.077,17.648,16.261,17.368,16.467,17.106z"/>
				<path i:knockout="Off" fill="#5383A0" d="M19.414,15.653c0.156,0,0.306,0.027,0.457,0.046V14.24
					c-0.343,0.056-0.678,0.137-1,0.244c0,0.323,0,0.62,0,0.856c-0.116-0.201-0.257-0.445-0.408-0.706
					c-0.311,0.128-0.606,0.283-0.891,0.456l0.478,0.828C18.475,15.753,18.932,15.653,19.414,15.653z"/>
				<path i:knockout="Off" fill="#5383A0" d="M22.077,16.763l1.241-2.148c-0.315-0.126-0.643-0.229-0.979-0.305
					c-0.229,0.397-0.429,0.744-0.586,1.016c0-0.309,0-0.692,0-1.117c-0.274-0.036-0.552-0.061-0.835-0.061
					c-0.056,0-0.109,0.007-0.165,0.009v1.755C21.253,16.104,21.706,16.39,22.077,16.763z"/>
				<path i:knockout="Off" fill="#5383A0" d="M24.114,16.711c0.165-0.275,0.368-0.617,0.598-1c-0.171-0.243-0.359-0.473-0.562-0.689
					c-0.048-0.028-0.093-0.06-0.141-0.086l-1.398,2.342c0.407,0.207,0.771,0.48,1.076,0.815l1.765-0.984
					c-0.12-0.314-0.263-0.616-0.429-0.905C24.674,16.398,24.36,16.573,24.114,16.711z"/>
			</g>
			<path i:knockout="Off" fill="#040404" d="M34.477,23.697c0-3.438-4.26-5.721-4.444-5.816c-0.136-0.072-0.302-0.067-0.434,0.013
				c-0.135,0.081-0.215,0.225-0.215,0.38V30c-0.695-0.168-1.6-0.038-2.456,0.428c-1.417,0.771-2.158,2.152-1.65,3.085
				c0.506,0.932,2.066,1.062,3.485,0.29c1.42-0.77,2.158-2.152,1.652-3.084c-0.038-0.07-0.095-0.129-0.144-0.189v-8.118
				c1.141,0.006,1.715,0.235,2.093,0.453c0.586,0.34,0.826,1.322,0.826,2.288c0,1.299-0.211,3.878-0.322,4.044
				C32.974,29.038,34.477,26.773,34.477,23.697z M27.065,32.117c-0.372,0.365-0.856,0.475-1.082,0.245
				c-0.224-0.229-0.104-0.711,0.27-1.076c0.371-0.364,0.855-0.477,1.081-0.245C27.56,31.269,27.439,31.75,27.065,32.117z"/>
		</g>
	</g>
</svg>
