<?xml version="1.0" encoding="utf-8"?>
<!-- Generator: Adobe Illustrator 10.0, SVG Export Plug-In . SVG Version: 3.0.0 Build 76)  -->
<!DOCTYPE svg PUBLIC "-//W3C//DTD SVG 1.0//EN"    "http://www.w3.org/TR/2001/REC-SVG-20010904/DTD/svg10.dtd" [
	<!ENTITY ns_flows "http://ns.adobe.com/Flows/1.0/">
	<!ENTITY ns_extend "http://ns.adobe.com/Extensibility/1.0/">
	<!ENTITY ns_ai "http://ns.adobe.com/AdobeIllustrator/10.0/">
	<!ENTITY ns_graphs "http://ns.adobe.com/Graphs/1.0/">
	<!ENTITY ns_vars "http://ns.adobe.com/Variables/1.0/">
	<!ENTITY ns_imrep "http://ns.adobe.com/ImageReplacement/1.0/">
	<!ENTITY ns_sfw "http://ns.adobe.com/SaveForWeb/1.0/">
	<!ENTITY ns_custom "http://ns.adobe.com/GenericCustomNamespace/1.0/">
	<!ENTITY ns_adobe_xpath "http://ns.adobe.com/XPath/1.0/">
	<!ENTITY ns_svg "http://www.w3.org/2000/svg">
	<!ENTITY ns_xlink "http://www.w3.org/1999/xlink">
]>
<svg 
	 xmlns:x="&ns_extend;" xmlns:i="&ns_ai;" xmlns:graph="&ns_graphs;" i:viewOrigin="-0.8062 -60.7129" i:rulerOrigin="0 0" i:pageBounds="0 48 48 0"
	 xmlns="&ns_svg;" xmlns:xlink="&ns_xlink;" xmlns:a="http://ns.adobe.com/AdobeSVGViewerExtensions/3.0/"
	 width="33.53" height="40.124" viewBox="0 0 33.53 40.124" overflow="visible" enable-background="new 0 0 33.53 40.124"
	 xml:space="preserve">
	<metadata>
		<variableSets  xmlns="http://ns.adobe.com/Variables/1.0/">
			<variableSet  varSetName="binding1" locked="none">
				<variables></variables>
				<v:sampleDataSets  xmlns="http://ns.adobe.com/GenericCustomNamespace/1.0/" xmlns:v="http://ns.adobe.com/Variables/1.0/">
					</v:sampleDataSets>
			</variableSet>
		</variableSets>
		<sfw  xmlns="&ns_sfw;">
			<slices></slices>
			<sliceSourceBounds  y="-100.837" x="-0.806" width="33.53" height="40.124" bottomLeftOrigin="true"></sliceSourceBounds>
		</sfw>
	</metadata>
	<g id="Layer_1" i:layer="yes" i:dimmedPercent="50" i:rgbTrio="#4F008000FFFF">
		<path i:knockout="Off" fill="#223742" d="M14.202,5.86c0,2.246-1.882,4.066-4.203,4.066c-2.32,0-4.202-1.82-4.202-4.066
			s1.882-4.068,4.202-4.068C12.32,1.792,14.202,3.614,14.202,5.86z"/>
		<path i:knockout="Off" fill="#223742" d="M10.723,16.133c-0.64,0-1.159,0.493-1.159,1.104c0,0.609,0.52,1.103,1.159,1.103h9.564
			c0.641,0,1.159-0.493,1.159-1.103c0-0.61-0.519-1.104-1.159-1.104H10.723z"/>
		<path i:knockout="Off" fill="#223742" d="M9.642,7.722C8.939,7.739,8.386,8.238,8.405,8.836l0.477,15.208
			c0.018,0.59,0.581,1.058,1.27,1.058c0,0,11.034,0,12.409,0c0.625,1.038,5.362,8.916,5.362,8.916
			c0.304,0.504,1.007,0.725,1.617,0.508l3.301-1.354c0.648-0.229,0.959-0.864,0.688-1.419c-0.269-0.554-1.011-0.817-1.659-0.589
			c0,0-0.955,0.524-2.222,0.971c-0.878-1.46-5.305-9.106-5.305-9.106c-0.218-0.363-0.654-0.592-1.13-0.592
			c0,0-9.795,0.493-11.827,0.493c-0.057-1.831-0.443-14.149-0.443-14.149C10.927,8.178,10.344,7.706,9.642,7.722z"/>
		<path i:knockout="Off" fill="#223742" d="M23.263,33.979c-2.006,2.396-5.093,3.938-8.555,3.938c-6.033,0-10.941-4.67-10.941-10.41
			c0-2.873,1.229-5.479,3.214-7.363l-0.026-2.771c-3.153,2.309-5.506,6.065-5.506,10.135c0,6.956,5.948,12.616,13.259,12.616
			c3.896,0,7.395-1.617,9.821-4.172L23.263,33.979z"/>
		<path i:knockout="Off" fill="#5383A0" d="M12.752,4.068c0,2.246-1.882,4.066-4.203,4.066c-2.321,0-4.202-1.821-4.202-4.066
			C4.347,1.822,6.229,0,8.55,0C10.871,0,12.752,1.822,12.752,4.068z"/>
		<path i:knockout="Off" fill="#5383A0" d="M9.274,14.34c-0.64,0-1.159,0.493-1.159,1.104c0,0.609,0.519,1.103,1.159,1.103h9.564
			c0.641,0,1.159-0.493,1.159-1.103c0-0.61-0.519-1.104-1.159-1.104H9.274z"/>
		<path i:knockout="Off" fill="#5383A0" d="M8.663,6.343C8.023,6.36,7.518,6.866,7.536,7.475L7.97,22.918
			c0.017,0.599,0.531,1.074,1.159,1.074c0,0,10.067,0,11.32,0c0.569,1.054,4.894,9.053,4.894,9.053
			c0.274,0.511,0.917,0.735,1.475,0.516l4.201-1.654c0.592-0.232,0.873-0.878,0.627-1.441c-0.244-0.562-0.922-0.829-1.514-0.597
			c0,0-2.062,0.812-3.215,1.266c-1.043-1.923-1.041-1.919-4.73-8.748c-0.198-0.368-0.595-0.599-1.03-0.599c0,0-9.045,0-10.899,0
			c-0.053-1.86-0.404-14.37-0.404-14.37C9.836,6.807,9.304,6.327,8.663,6.343z"/>
		<path i:knockout="Off" fill="#5383A0" d="M21.815,32.187c-2.007,2.397-5.094,3.939-8.556,3.939c-6.033,0-10.941-4.67-10.941-10.41
			c0-2.873,1.229-5.478,3.213-7.363l-0.025-2.771C2.353,17.89,0,21.646,0,25.716c0,6.957,5.948,12.616,13.259,12.616
			c3.896,0,7.395-1.616,9.821-4.172L21.815,32.187z"/>
	</g>
</svg>
