<?xml version="1.0" encoding="utf-8"?>
<!-- Generator: Adobe Illustrator 10.0, SVG Export Plug-In . SVG Version: 3.0.0 Build 76)  -->
<!DOCTYPE svg PUBLIC "-//W3C//DTD SVG 1.0//EN"    "http://www.w3.org/TR/2001/REC-SVG-20010904/DTD/svg10.dtd" [
	<!ENTITY ns_flows "http://ns.adobe.com/Flows/1.0/">
	<!ENTITY ns_extend "http://ns.adobe.com/Extensibility/1.0/">
	<!ENTITY ns_ai "http://ns.adobe.com/AdobeIllustrator/10.0/">
	<!ENTITY ns_graphs "http://ns.adobe.com/Graphs/1.0/">
	<!ENTITY ns_vars "http://ns.adobe.com/Variables/1.0/">
	<!ENTITY ns_imrep "http://ns.adobe.com/ImageReplacement/1.0/">
	<!ENTITY ns_sfw "http://ns.adobe.com/SaveForWeb/1.0/">
	<!ENTITY ns_custom "http://ns.adobe.com/GenericCustomNamespace/1.0/">
	<!ENTITY ns_adobe_xpath "http://ns.adobe.com/XPath/1.0/">
	<!ENTITY ns_svg "http://www.w3.org/2000/svg">
	<!ENTITY ns_xlink "http://www.w3.org/1999/xlink">
]>
<svg 
	 xmlns:x="&ns_extend;" xmlns:i="&ns_ai;" xmlns:graph="&ns_graphs;" i:viewOrigin="3.667 42.8198" i:rulerOrigin="0 0" i:pageBounds="0 48 48 0"
	 xmlns="&ns_svg;" xmlns:xlink="&ns_xlink;" xmlns:a="http://ns.adobe.com/AdobeSVGViewerExtensions/3.0/"
	 width="40.292" height="36.041" viewBox="0 0 40.292 36.041" overflow="visible" enable-background="new 0 0 40.292 36.041"
	 xml:space="preserve">
	<metadata>
		<variableSets  xmlns="http://ns.adobe.com/Variables/1.0/">
			<variableSet  varSetName="binding1" locked="none">
				<variables></variables>
				<v:sampleDataSets  xmlns="http://ns.adobe.com/GenericCustomNamespace/1.0/" xmlns:v="http://ns.adobe.com/Variables/1.0/">
					</v:sampleDataSets>
			</variableSet>
		</variableSets>
		<sfw  xmlns="&ns_sfw;">
			<slices></slices>
			<sliceSourceBounds  y="6.779" x="3.667" width="40.292" height="36.041" bottomLeftOrigin="true"></sliceSourceBounds>
		</sfw>
	</metadata>
	<g id="Layer_1" i:layer="yes" i:dimmedPercent="50" i:rgbTrio="#4F008000FFFF">
		<path i:knockout="Off" fill="#223742" d="M5.024,0.897c-2.878,0-3.999-0.012-3.999,4.837v15.604c0,2.744,1.121,3.813,3.999,3.813
			h19.344c3.026,0,4.498-1.247,4.498-3.813V5.734c0-4.763-1.472-4.837-4.498-4.837H5.024z M2.05,21.338V4.942
			c0,0,0.429,0.054,2.974,0.054h19.344c2.467,0,3.473,0.031,3.473,0.031v16.311c0,1.98-1.006,2.789-3.473,2.789H5.024
			C2.479,24.127,2.05,23.266,2.05,21.338z"/>
		<path i:knockout="Off" fill="#223742" d="M16.45,11.786c-2.877,0-3.999-0.012-3.999,4.837v15.604c0,2.744,1.122,3.813,3.999,3.813
			h19.344c3.027,0,4.498-1.247,4.498-3.813V16.623c0-4.763-1.471-4.837-4.498-4.837H16.45z M13.476,32.227V15.831
			c0,0,0.429,0.054,2.974,0.054h19.344c2.468,0,3.474,0.031,3.474,0.031v16.311c0,1.98-1.006,2.789-3.474,2.789H16.45
			C13.905,35.016,13.476,34.155,13.476,32.227z"/>
		<path i:knockout="Off" fill="#223742" d="M24.297,24.285l2.689-0.319l1.089-1.281l0.192-3.715l-1.474,3.651L24.297,24.285z"/>
		<path i:knockout="Off" fill="#223742" d="M34.77,35.144l2.746,0.03l2.114-1.729l-0.192-3.651l-1.281,3.651L34.77,35.144z"/>
		<path i:knockout="Off" fill="#5383A0" d="M3.999,0C1.122,0,0-0.011,0,4.837v15.605c0,2.744,1.122,3.813,3.999,3.813h19.345
			c3.026,0,4.497-1.247,4.497-3.813V4.837C27.841,0.074,26.37,0,23.344,0H3.999z M1.025,20.442V4.045c0,0,0.429,0.055,2.974,0.055
			h19.345c2.467,0,3.473,0.031,3.473,0.031v16.312c0,1.979-1.006,2.788-3.473,2.788H3.999C1.454,23.23,1.025,22.37,1.025,20.442z"/>
		<path i:knockout="Off" fill="#5383A0" d="M15.425,10.889c-2.878,0-4-0.012-4,4.836v15.605c0,2.744,1.122,3.813,4,3.813H34.77
			c3.026,0,4.498-1.247,4.498-3.813V15.726c0-4.763-1.472-4.836-4.498-4.836H15.425z M12.451,31.331V14.934
			c0,0,0.429,0.055,2.975,0.055H34.77c2.467,0,3.473,0.031,3.473,0.031v16.312c0,1.979-1.006,2.788-3.473,2.788H15.425
			C12.88,34.119,12.451,33.258,12.451,31.331z"/>
	</g>
</svg>
