<?xml version="1.0" encoding="utf-8"?>
<!-- Generator: Adobe Illustrator 10.0, SVG Export Plug-In . SVG Version: 3.0.0 Build 76)  -->
<!DOCTYPE svg PUBLIC "-//W3C//DTD SVG 1.0//EN"    "http://www.w3.org/TR/2001/REC-SVG-20010904/DTD/svg10.dtd" [
	<!ENTITY ns_flows "http://ns.adobe.com/Flows/1.0/">
	<!ENTITY ns_extend "http://ns.adobe.com/Extensibility/1.0/">
	<!ENTITY ns_ai "http://ns.adobe.com/AdobeIllustrator/10.0/">
	<!ENTITY ns_graphs "http://ns.adobe.com/Graphs/1.0/">
	<!ENTITY ns_vars "http://ns.adobe.com/Variables/1.0/">
	<!ENTITY ns_imrep "http://ns.adobe.com/ImageReplacement/1.0/">
	<!ENTITY ns_sfw "http://ns.adobe.com/SaveForWeb/1.0/">
	<!ENTITY ns_custom "http://ns.adobe.com/GenericCustomNamespace/1.0/">
	<!ENTITY ns_adobe_xpath "http://ns.adobe.com/XPath/1.0/">
	<!ENTITY ns_svg "http://www.w3.org/2000/svg">
	<!ENTITY ns_xlink "http://www.w3.org/1999/xlink">
]>
<svg 
	 xmlns:x="&ns_extend;" xmlns:i="&ns_ai;" xmlns:graph="&ns_graphs;" i:viewOrigin="5.5 44.561" i:rulerOrigin="0 0" i:pageBounds="0 48 48 0"
	 xmlns="&ns_svg;" xmlns:xlink="&ns_xlink;" xmlns:a="http://ns.adobe.com/AdobeSVGViewerExtensions/3.0/"
	 width="38.749" height="40.561" viewBox="0 0 38.749 40.561" overflow="visible" enable-background="new 0 0 38.749 40.561"
	 xml:space="preserve">
	<metadata>
		<variableSets  xmlns="http://ns.adobe.com/Variables/1.0/">
			<variableSet  varSetName="binding1" locked="none">
				<variables></variables>
				<v:sampleDataSets  xmlns="http://ns.adobe.com/GenericCustomNamespace/1.0/" xmlns:v="http://ns.adobe.com/Variables/1.0/">
					</v:sampleDataSets>
			</variableSet>
		</variableSets>
		<sfw  xmlns="&ns_sfw;">
			<slices></slices>
			<sliceSourceBounds  y="4" x="5.5" width="38.749" height="40.561" bottomLeftOrigin="true"></sliceSourceBounds>
		</sfw>
	</metadata>
	<g id="Layer_1" i:layer="yes" i:dimmedPercent="50" i:rgbTrio="#4F008000FFFF">
		<path i:knockout="Off" fill="#223742" d="M13.6,0.599L2.792,0.595c-1.175,0-1.942,0.941-1.979,1.813
			c-0.028,0.66-0.057,23.555-0.058,24.53c0,1.996,0.341,3.229,1.103,3.994c1.084,1.088,2.803,1.072,5.404,1.053h24.897
			c2.601,0.02,4.319,0.035,5.401-1.053c0.764-0.766,1.104-1.998,1.104-3.994V11.075c0-5.668-2.925-5.956-7.694-5.956H19.223
			c-1.886-0.206-2.459-1.316-3.015-2.388C15.045,0.485,13.744,0.581,13.6,0.599z M2.496,30.284c-0.57-0.574-0.835-1.635-0.835-3.346
			c0.01-8.245,0.034-23.437,0.056-23.951c0.018-0.394,0.4-0.937,1.076-0.937h10.863c0.049-0.002,0.886-0.023,1.75,1.645
			c0.603,1.166,1.354,2.614,3.769,2.878l11.796,0.002c5.029,0,6.791-0.127,6.791,4.499v15.862c0,1.711-0.267,2.771-0.837,3.346
			c-0.815,0.818-2.384,0.805-4.757,0.785l-1.197-0.008H8.451l-1.197,0.008C4.88,31.088,3.313,31.102,2.496,30.284z"/>
		<path i:knockout="Off" fill="#223742" d="M33.991,31.354l2.653-0.379l1.528-2.799L33.991,31.354z"/>
		<path i:knockout="Off" fill="none" stroke="#5383A0" d="M30.264,4.97H18.516c-2.115-0.227-2.795-1.415-3.418-2.603
			C14.048,0.362,12.948,0.5,12.948,0.5s-9.958,0-10.864,0s-1.5,0.708-1.527,1.358C0.527,2.509,0.5,26.075,0.5,26.075
			c0,5,2.243,4.527,7.243,4.527h22.521c5,0,7.241,0.473,7.241-4.527V10.402C37.505,5.402,35.264,4.97,30.264,4.97z"/>
		<path i:knockout="Off" fill="#484F01" d="M13.6,3.432L2.792,3.428c-1.175,0-1.942,0.941-1.979,1.813
			c-0.028,0.66-0.057,23.556-0.058,24.529c0,1.996,0.341,3.229,1.103,3.995c1.084,1.088,2.803,1.072,5.404,1.053h24.897
			c2.601,0.02,4.319,0.035,5.401-1.053c0.764-0.767,1.104-1.999,1.104-3.995V13.909c0-5.668-2.925-5.956-7.694-5.956H19.223
			c-1.886-0.206-2.459-1.316-3.015-2.388C15.045,3.319,13.744,3.415,13.6,3.432z M2.496,33.117c-0.57-0.573-0.835-1.635-0.835-3.346
			c0.01-8.244,0.034-23.437,0.056-23.95c0.018-0.394,0.4-0.937,1.076-0.937h10.863c0.049-0.002,0.886-0.023,1.75,1.645
			c0.603,1.166,1.354,2.614,3.769,2.878l11.796,0.002c5.029,0,6.791-0.127,6.791,4.499V29.77c0,1.711-0.267,2.771-0.837,3.346
			c-0.815,0.818-2.384,0.805-4.757,0.785l-1.197-0.008H8.451l-1.197,0.008C4.88,33.922,3.313,33.936,2.496,33.117z"/>
		<path i:knockout="Off" fill="#484F01" d="M33.991,34.188l2.653-0.379l1.528-2.799L33.991,34.188z"/>
		<path i:knockout="Off" fill="none" stroke="#97B101" d="M30.264,7.636H18.516C16.4,7.41,15.721,6.221,15.098,5.034
			c-1.05-2.005-2.149-1.867-2.149-1.867s-9.958,0-10.864,0s-1.5,0.708-1.527,1.358C0.527,5.175,0.5,28.743,0.5,28.743
			c0,4.999,2.243,4.525,7.243,4.525h22.521c5,0,7.241,0.474,7.241-4.525V13.068C37.505,8.069,35.264,7.636,30.264,7.636z"/>
		<path i:knockout="Off" fill="#7F3A01" d="M13.643,6.307L2.834,6.303c-1.174,0-1.941,0.941-1.979,1.813
			c-0.029,0.66-0.057,23.556-0.059,24.529c0,1.996,0.342,3.229,1.104,3.995c1.084,1.088,2.803,1.072,5.404,1.052h24.896
			c2.602,0.021,4.32,0.036,5.402-1.052c0.764-0.767,1.104-1.999,1.104-3.995V16.784c0-5.668-2.924-5.956-7.693-5.956H19.266
			c-1.887-0.206-2.459-1.316-3.016-2.388C15.088,6.194,13.787,6.29,13.643,6.307z M2.539,35.992
			c-0.57-0.573-0.836-1.635-0.836-3.346c0.01-8.244,0.035-23.437,0.057-23.95c0.018-0.394,0.4-0.937,1.076-0.937h10.863
			c0.049-0.002,0.885-0.023,1.75,1.645c0.602,1.166,1.354,2.614,3.768,2.878l11.797,0.002c5.029,0,6.791-0.127,6.791,4.499v15.862
			c0,1.711-0.268,2.771-0.838,3.346c-0.814,0.817-2.383,0.805-4.756,0.784l-1.197-0.008H8.494l-1.197,0.008
			C4.922,36.796,3.355,36.81,2.539,35.992z"/>
		<path i:knockout="Off" fill="#7F3A01" d="M34.033,37.062l2.654-0.379l1.527-2.798L34.033,37.062z"/>
		<path i:knockout="Off" fill="#7F3A01" d="M0.912,6.832l-0.227,1.64l2.604-1.924L1.816,6.378L0.912,6.832z"/>
		<path i:knockout="Off" fill="none" stroke="#E76F00" d="M30.307,10.678H18.559c-2.115-0.227-2.795-1.415-3.418-2.603
			c-1.051-2.005-2.15-1.867-2.15-1.867s-9.957,0-10.863,0S0.627,6.917,0.6,7.567C0.57,8.217,0.543,31.784,0.543,31.784
			c0,5,2.242,4.526,7.242,4.526h22.521c5,0,7.24,0.474,7.24-4.526V16.111C37.547,11.111,35.307,10.678,30.307,10.678z"/>
		<path i:knockout="Off" fill="#FFFFFF" d="M37,38.061H1.75V18.249H37V38.061z"/>
		<g>
			<path i:knockout="Off" fill="#685012" d="M34.075,39.93l2.653-0.379l1.528-2.798L34.075,39.93z"/>
			<path i:knockout="Off" fill="#685012" d="M0.953,9.7l-0.227,1.64L3.33,9.416L1.857,9.247L0.953,9.7z"/>
			<path i:knockout="Off" fill="#685012" d="M13.684,9.175L2.876,9.171c-1.175,0-1.942,0.941-1.979,1.813
				c-0.028,0.66-0.057,23.556-0.058,24.529c0,1.996,0.341,3.229,1.103,3.995c1.084,1.088,2.803,1.072,5.404,1.052h24.897
				c2.601,0.021,4.319,0.036,5.401-1.052c0.764-0.767,1.104-1.999,1.104-3.995V19.652c0-5.668-2.925-5.956-7.694-5.956H19.307
				c-1.886-0.206-2.459-1.316-3.015-2.388C15.129,9.062,13.828,9.158,13.684,9.175z M2.58,38.86
				c-0.57-0.573-0.835-1.635-0.835-3.346c0.01-8.244,0.034-23.437,0.056-23.95c0.018-0.394,0.4-0.937,1.076-0.937H13.74
				c0.049-0.002,0.886-0.023,1.75,1.645c0.603,1.166,1.354,2.614,3.769,2.878l11.796,0.002c5.029,0,6.791-0.127,6.791,4.499v15.862
				c0,1.711-0.267,2.771-0.837,3.346c-0.815,0.817-2.384,0.805-4.757,0.784l-1.197-0.008H8.535l-1.197,0.008
				C4.964,39.665,3.396,39.678,2.58,38.86z"/>
			<path i:knockout="Off" fill="none" stroke="#FFC726" d="M30.264,13.546H18.516c-2.115-0.227-2.795-1.415-3.418-2.603
				c-1.05-2.005-2.149-1.867-2.149-1.867s-9.958,0-10.864,0s-1.5,0.708-1.527,1.358C0.527,11.085,0.5,34.652,0.5,34.652
				c0,5,2.243,4.526,7.243,4.526h22.521c5,0,7.241,0.474,7.241-4.526V18.979C37.505,13.979,35.264,13.546,30.264,13.546z"/>
		</g>
	</g>
</svg>
