<?xml version="1.0" encoding="utf-8"?>
<!-- Generator: Adobe Illustrator 10.0, SVG Export Plug-In . SVG Version: 3.0.0 Build 76)  -->
<!DOCTYPE svg PUBLIC "-//W3C//DTD SVG 1.0//EN"    "http://www.w3.org/TR/2001/REC-SVG-20010904/DTD/svg10.dtd" [
	<!ENTITY ns_flows "http://ns.adobe.com/Flows/1.0/">
	<!ENTITY ns_extend "http://ns.adobe.com/Extensibility/1.0/">
	<!ENTITY ns_ai "http://ns.adobe.com/AdobeIllustrator/10.0/">
	<!ENTITY ns_graphs "http://ns.adobe.com/Graphs/1.0/">
	<!ENTITY ns_vars "http://ns.adobe.com/Variables/1.0/">
	<!ENTITY ns_imrep "http://ns.adobe.com/ImageReplacement/1.0/">
	<!ENTITY ns_sfw "http://ns.adobe.com/SaveForWeb/1.0/">
	<!ENTITY ns_custom "http://ns.adobe.com/GenericCustomNamespace/1.0/">
	<!ENTITY ns_adobe_xpath "http://ns.adobe.com/XPath/1.0/">
	<!ENTITY ns_svg "http://www.w3.org/2000/svg">
	<!ENTITY ns_xlink "http://www.w3.org/1999/xlink">
]>
<svg 
	 xmlns:x="&ns_extend;" xmlns:i="&ns_ai;" xmlns:graph="&ns_graphs;" i:viewOrigin="15.7402 45.7607" i:rulerOrigin="0 0" i:pageBounds="0 48 48 0"
	 xmlns="&ns_svg;" xmlns:xlink="&ns_xlink;" xmlns:a="http://ns.adobe.com/AdobeSVGViewerExtensions/3.0/"
	 width="17.105" height="42.434" viewBox="0 0 17.105 42.434" overflow="visible" enable-background="new 0 0 17.105 42.434"
	 xml:space="preserve">
	<metadata>
		<variableSets  xmlns="http://ns.adobe.com/Variables/1.0/">
			<variableSet  varSetName="binding1" locked="none">
				<variables></variables>
				<v:sampleDataSets  xmlns="http://ns.adobe.com/GenericCustomNamespace/1.0/" xmlns:v="http://ns.adobe.com/Variables/1.0/">
					</v:sampleDataSets>
			</variableSet>
		</variableSets>
		<sfw  xmlns="&ns_sfw;">
			<slices></slices>
			<sliceSourceBounds  y="3.327" x="15.74" width="17.105" height="42.434" bottomLeftOrigin="true"></sliceSourceBounds>
		</sfw>
	</metadata>
	<g id="Layer_1" i:layer="yes" i:dimmedPercent="50" i:rgbTrio="#4F008000FFFF">
		<path i:knockout="Off" fill="none" stroke="#223742" d="M12.473,4.587c0,1.93-1.563,3.493-3.492,3.493
			c-1.93,0-3.494-1.563-3.494-3.493c0-1.929,1.563-3.493,3.494-3.493C10.91,1.094,12.473,2.658,12.473,4.587z"/>
		<g>
			<g>
				<path i:knockout="Off" fill="none" stroke="#223742" stroke-linecap="round" stroke-linejoin="round" d="M3.171,25.255
					c0.786-0.014,1.399-0.539,1.546-1.226l0.28,16.167c0.017,0.978,0.929,1.756,1.996,1.737c1.066-0.019,2.344-0.835,2.327-1.813
					L9.104,27.689c0.125,0.02-0.129,0.04,0,0.038c0.173-0.003-0.16-0.019-0.001-0.056l0.215,12.34
					c0.018,0.979,1.347,1.75,2.414,1.731c1.066-0.019,1.971-0.828,1.953-1.807l-0.278-16.044c0.015,0.849,0.708,1.525,1.613,1.509
					c0.903-0.016,1.6-0.717,1.585-1.565l-0.158-9.111v0c-0.225-1.625-0.961-3.078-2.04-4.204c-1.39-0.413-3.384-0.654-5.6-0.616
					c-2.209,0.038-4.188,0.347-5.56,0.807c-1.038,1.162-1.725,2.64-1.894,4.271l0.152,8.781C1.52,24.604,2.266,25.271,3.171,25.255z
					"/>
			</g>
			<path i:knockout="Off" fill="none" stroke="#223742" stroke-linecap="round" stroke-linejoin="round" d="M4.724,24.408
				l-0.116-6.731"/>
			<path i:knockout="Off" fill="none" stroke="#223742" stroke-linecap="round" stroke-linejoin="round" d="M13.415,24.316
				l-0.117-6.79"/>
		</g>
		<path i:knockout="Off" fill="none" stroke="#5383A0" d="M11.744,3.983c0,1.93-1.563,3.493-3.493,3.493S4.758,5.913,4.758,3.983
			c0-1.929,1.563-3.493,3.494-3.493S11.744,2.054,11.744,3.983z"/>
		<g>
			<g>
				<path i:knockout="Off" fill="none" stroke="#5383A0" stroke-linecap="round" stroke-linejoin="round" d="M2.317,24.589
					c0.786-0.014,1.399-0.539,1.546-1.227l0.28,16.168c0.017,0.977,0.929,1.756,1.996,1.736c1.066-0.018,2.344-0.834,2.327-1.813
					L8.25,27.022c0.125,0.02-0.129,0.041,0,0.039c0.173-0.004-0.16-0.02-0.001-0.057l0.215,12.34
					c0.018,0.979,1.346,1.75,2.415,1.732c1.066-0.02,1.971-0.828,1.953-1.807l-0.279-16.045c0.016,0.85,0.709,1.525,1.613,1.51
					s1.6-0.717,1.586-1.566l-0.158-9.11v0c-0.225-1.625-0.961-3.078-2.041-4.204c-1.389-0.413-3.383-0.654-5.599-0.616
					c-2.209,0.038-4.188,0.347-5.56,0.807c-1.038,1.162-1.725,2.64-1.894,4.271l0.152,8.78C0.666,23.937,1.412,24.604,2.317,24.589z
					"/>
			</g>
			<path i:knockout="Off" fill="none" stroke="#5383A0" stroke-linecap="round" stroke-linejoin="round" d="M3.87,23.741
				L3.753,17.01"/>
			<path i:knockout="Off" fill="none" stroke="#5383A0" stroke-linecap="round" stroke-linejoin="round" d="M12.561,23.649
				l-0.117-6.79"/>
		</g>
	</g>
</svg>
