<?xml version="1.0" encoding="utf-8"?>
<!-- Generator: Adobe Illustrator 10.0, SVG Export Plug-In . SVG Version: 3.0.0 Build 76)  -->
<!DOCTYPE svg PUBLIC "-//W3C//DTD SVG 1.0//EN"    "http://www.w3.org/TR/2001/REC-SVG-20010904/DTD/svg10.dtd" [
	<!ENTITY ns_flows "http://ns.adobe.com/Flows/1.0/">
	<!ENTITY ns_extend "http://ns.adobe.com/Extensibility/1.0/">
	<!ENTITY ns_ai "http://ns.adobe.com/AdobeIllustrator/10.0/">
	<!ENTITY ns_graphs "http://ns.adobe.com/Graphs/1.0/">
	<!ENTITY ns_vars "http://ns.adobe.com/Variables/1.0/">
	<!ENTITY ns_imrep "http://ns.adobe.com/ImageReplacement/1.0/">
	<!ENTITY ns_sfw "http://ns.adobe.com/SaveForWeb/1.0/">
	<!ENTITY ns_custom "http://ns.adobe.com/GenericCustomNamespace/1.0/">
	<!ENTITY ns_adobe_xpath "http://ns.adobe.com/XPath/1.0/">
	<!ENTITY ns_svg "http://www.w3.org/2000/svg">
	<!ENTITY ns_xlink "http://www.w3.org/1999/xlink">
]>
<svg 
	 xmlns:x="&ns_extend;" xmlns:i="&ns_ai;" xmlns:graph="&ns_graphs;" i:viewOrigin="6.2378 41.4277" i:rulerOrigin="0 0" i:pageBounds="0 48 48 0"
	 xmlns="&ns_svg;" xmlns:xlink="&ns_xlink;" xmlns:a="http://ns.adobe.com/AdobeSVGViewerExtensions/3.0/"
	 width="37.843" height="31.586" viewBox="0 0 37.843 31.586" overflow="visible" enable-background="new 0 0 37.843 31.586"
	 xml:space="preserve">
	<metadata>
		<variableSets  xmlns="http://ns.adobe.com/Variables/1.0/">
			<variableSet  varSetName="binding1" locked="none">
				<variables></variables>
				<v:sampleDataSets  xmlns="http://ns.adobe.com/GenericCustomNamespace/1.0/" xmlns:v="http://ns.adobe.com/Variables/1.0/">
					</v:sampleDataSets>
			</variableSet>
		</variableSets>
		<sfw  xmlns="&ns_sfw;">
			<slices></slices>
			<sliceSourceBounds  y="9.842" x="6.238" width="37.843" height="31.586" bottomLeftOrigin="true"></sliceSourceBounds>
		</sfw>
	</metadata>
	<g id="Layer_1" i:layer="yes" i:dimmedPercent="50" i:rgbTrio="#4F008000FFFF">
		<g>
			<path i:knockout="Off" fill="#223742" d="M37.843,21.465l-0.008-2.946V12.12l0.008-2.291c0.02-4.521,0.031-6.582-1.012-7.71
				c-0.849-0.922-2.25-0.992-4.14-0.992H7.041c-5.574,0-5.903,1.242-5.903,10.993v6.396c0,12.457,0.275,13.069,5.903,13.069h25.653
				c2.052,0,3.289,0,4.111-0.894C37.873,29.538,37.865,27.34,37.843,21.465z M36.705,21.471c0.02,5.034,0.027,7.563-0.707,8.357
				c-0.465,0.507-1.399,0.531-3.304,0.531H7.041c-4.766,0-4.766,0-4.766-11.843V12.12c0-9.764,0.36-9.764,4.766-9.764h25.653
				c1.824,0,2.843,0.097,3.333,0.63c0.707,0.767,0.695,2.923,0.678,6.838l-0.006,2.296v6.396L36.705,21.471z"/>
			<path i:knockout="Off" fill="#223742" d="M33.533,30.534l1.801-1.535l1.422-4.098l-0.094,4.711l-1.231,1.125L33.533,30.534z"/>
			<path i:knockout="Off" fill="#223742" d="M27.083,26.849l3.981-2.049l2.378-6.442L34.1,22.65l-1.138,2.56l-3.319,1.946
				L27.083,26.849z"/>
			<path i:knockout="Off" fill="#223742" d="M1.863,1.558L0.725,4.528l0.379,3.891l1.517-5.222l3.282-1.968L1.958,1.25"/>
			<path i:knockout="Off" fill="#5383A0" d="M36.707,20.338l-0.008-2.945v-6.397l0.008-2.291c0.021-4.521,0.03-6.583-1.012-7.71
				C34.847,0.071,33.445,0,31.556,0H5.903C0.329,0,0,1.242,0,10.993v6.397c0,12.456,0.275,13.066,5.903,13.066h25.653
				c2.051,0,3.289,0,4.111-0.891C36.734,28.411,36.728,26.214,36.707,20.338z M35.568,20.342c0.018,5.036,0.026,7.563-0.707,8.358
				c-0.467,0.508-1.402,0.529-3.305,0.529H5.903c-4.766,0-4.766,0-4.766-11.839v-6.397c0-9.767,0.36-9.767,4.766-9.767h25.653
				c1.824,0,2.843,0.1,3.334,0.632c0.707,0.767,0.695,2.923,0.678,6.838l-0.007,2.296v6.397L35.568,20.342z"/>
			<g>
				<path i:knockout="Off" fill="none" d="M26.957,26.737h0.805c2.054,0,3.473-0.427,4.337-1.298
					c1.331-1.344,1.373-3.791,1.35-6.646c-0.015,2.618-0.23,4.854-1.68,6.317C30.732,26.159,29.152,26.688,26.957,26.737z"/>
				<path i:knockout="Off" fill="none" d="M14.496,5.771c-0.158,1.267-0.207,2.5-0.174,3.675c0.004,0.152,0.019,0.295,0.025,0.445
					c0.32-0.575,0.54-0.97,0.54-0.97l0.584-1.049c0,0,2.975,9.762,3.672,12.052c0.724-2.071,3.156-9.042,3.156-9.042
					s2.348,5.588,2.868,6.828c0.69-0.919,2.305-3.063,2.305-3.063h4.826v-0.252l0.01-1.368c0.023-2.647,0.043-4.979-0.874-6.472
					c-0.867-0.524-2.074-0.783-3.671-0.783H14.496z"/>
				<path i:knockout="Off" fill="none" d="M33.437,15.858l0.001,0.194v-0.503h-0.001V15.858z"/>
				<path i:knockout="Off" fill="none" d="M30.96,24.311c1.4-1.41,1.375-4.041,1.347-7.083l-0.009-1.369v-0.31
					c-1.841,0-4.019,0-4.297,0c-0.266,0.353-3.088,4.104-3.088,4.104s-1.855-4.417-2.526-6.016c-0.65,1.862-3.309,9.479-3.309,9.479
					s-3.313-10.872-3.882-12.741c-0.183,0.329-0.437,0.784-0.715,1.286c0.032,0.295,0.059,0.599,0.098,0.88
					c0.114,0.802,0.256,1.524,0.4,2.19c0.001,0.134,0.385,1.593,0.385,1.593c0.316,1.14,0.582,1.827,0.59,1.848
					c0.004,0.007,0.047,0.125,0.114,0.309c0.179,0.496,0.545,1.58,0.913,3.012c0.266,1.032,0.527,2.23,0.715,3.528
					c0.027,0.191,0.04,0.395,0.062,0.591h8.864C28.677,25.61,30.097,25.186,30.96,24.311z"/>
				<path i:knockout="Off" fill="none" d="M33.437,14.395v0.252h0.007l0.003-0.496c0.006-0.602,0.008-1.181,0.002-1.744
					c-0.001,0.209-0.002,0.415-0.004,0.628L33.437,14.395z"/>
				<path i:knockout="Off" fill="#223742" d="M33.449,12.408c0.006,0.563,0.004,1.142-0.002,1.744l-0.003,0.496h1.135l0.003-0.484
					c0.031-3.296,0.061-6.146-1.674-7.896c-0.198-0.2-0.423-0.375-0.661-0.537C33.398,7.369,33.468,9.719,33.449,12.408z"/>
				<path i:knockout="Off" fill="#223742" d="M16.982,21.491c-0.368-1.432-0.734-2.516-0.913-3.012
					c-0.067-0.184-0.11-0.302-0.114-0.309c-0.008-0.021-0.273-0.708-0.59-1.848c0,0-0.384-1.459-0.385-1.593
					c-0.145-0.666-0.286-1.389-0.4-2.19c-0.04-0.281-0.066-0.584-0.098-0.88c-0.241,0.433-0.501,0.9-0.756,1.358
					c0.039,0.196,0.077,0.398,0.118,0.584c0.001,0.137,0.385,1.598,0.385,1.598c0.316,1.138,0.582,1.824,0.589,1.845
					c0.004,0.007,0.048,0.124,0.115,0.31c0.178,0.494,0.545,1.579,0.913,3.012c0.265,1.028,0.527,2.229,0.715,3.526
					c0.08,0.558,0.135,1.137,0.18,1.718h1.019c-0.022-0.196-0.035-0.399-0.062-0.591C17.509,23.722,17.248,22.523,16.982,21.491z"/>
				<path i:knockout="Off" fill="#223742" d="M14.322,9.446c-0.033-1.175,0.016-2.408,0.174-3.675h13.268
					c1.597,0,2.804,0.259,3.671,0.783c-0.137-0.222-0.292-0.428-0.474-0.611c-0.862-0.873-2.281-1.3-4.338-1.3H13.357
					c-0.156,1.268-0.207,2.501-0.171,3.677c0.032,1.093,0.124,2.138,0.258,3.094c0.004,0.027,0.009,0.05,0.013,0.077
					c0.326-0.585,0.639-1.147,0.891-1.6C14.34,9.741,14.326,9.599,14.322,9.446z"/>
				<path i:knockout="Off" fill="#223742" d="M33.438,15.549v0.503l0.006,1.163c0.005,0.542,0.007,1.065,0.004,1.579
					c0.023,2.854-0.019,5.302-1.35,6.646c-0.864,0.871-2.283,1.298-4.337,1.298h-0.805c-0.112,0.003-0.219,0.01-0.334,0.01H10.287
					c-1.943,0-3.416-0.364-4.487-1.099c0.145,0.206,0.296,0.408,0.478,0.591c1.09,1.099,2.772,1.634,5.146,1.634h16.337
					c2.373,0,4.056-0.535,5.146-1.634c1.731-1.752,1.704-4.6,1.674-7.897l-0.008-1.356v-1.437
					C34.308,15.549,33.915,15.549,33.438,15.549z"/>
				<path i:knockout="Off" fill="#5383A0" d="M32.308,13.026l-0.01,1.368v0.252h1.139v-0.252l0.008-1.358
					c0.002-0.213,0.003-0.419,0.004-0.628c-0.022-2.283-0.226-4.204-1.348-5.338c-0.193-0.195-0.418-0.364-0.667-0.515
					C32.351,8.048,32.332,10.379,32.308,13.026z"/>
				<path i:knockout="Off" fill="#5383A0" d="M33.437,15.549c-0.348,0-0.735,0-1.139,0v0.31l0.009,1.369
					c0.028,3.042,0.054,5.673-1.347,7.083c-0.863,0.875-2.283,1.3-4.338,1.3h-8.864c0.042,0.374,0.088,0.744,0.118,1.127h9.08
					c2.195-0.05,3.775-0.578,4.812-1.626c1.449-1.463,1.665-3.699,1.68-6.317c-0.001-0.146-0.002-0.29-0.003-0.439l-0.007-1.37
					v-0.932l-0.001-0.194V15.549z"/>
				<path i:knockout="Off" fill="#5383A0" d="M4.603,14.163c-0.031-3.296-0.058-6.146,1.675-7.896
					c1.089-1.099,2.772-1.634,5.146-1.634h16.338c1.94,0,3.414,0.365,4.484,1.097c-0.145-0.206-0.296-0.407-0.477-0.59
					c-1.09-1.099-2.772-1.634-5.146-1.634H10.287c-2.374,0-4.057,0.535-5.146,1.634C3.408,6.89,3.435,9.74,3.466,13.036l0.008,1.358
					v0.252c0.289,0,0.674,0,1.132,0L4.603,14.163z"/>
				<path i:knockout="Off" fill="#5383A0" d="M4.603,18.342l0.008-1.356v-1.437H3.474v0.31l-0.008,1.356
					c-0.031,3.298-0.059,6.146,1.675,7.896c0.198,0.2,0.422,0.375,0.659,0.537C4.56,23.882,4.575,21.297,4.603,18.342z"/>
				<path i:knockout="Off" fill="#5383A0" d="M26.623,26.747c0.115,0,0.222-0.007,0.334-0.01h-9.08
					c-0.029-0.383-0.076-0.753-0.118-1.127H16.74c-0.045-0.581-0.1-1.16-0.18-1.718c-0.188-1.298-0.45-2.498-0.715-3.526
					c-0.368-1.433-0.735-2.518-0.913-3.012c-0.067-0.186-0.111-0.303-0.115-0.31c-0.007-0.021-0.272-0.707-0.589-1.845
					c0,0-0.384-1.461-0.385-1.598c-0.041-0.186-0.079-0.388-0.118-0.584c-0.73,1.312-1.409,2.53-1.409,2.53H4.611v1.437
					l-0.008,1.356c-0.028,2.955-0.043,5.54,1.197,7.307c1.071,0.734,2.543,1.099,4.487,1.099H26.623z"/>
				<path i:knockout="Off" fill="#5383A0" d="M11.424,4.633c-2.374,0-4.057,0.535-5.146,1.634c-1.733,1.75-1.706,4.601-1.675,7.896
					l0.003,0.484c2.427,0,6.684,0,7.093,0c0.131-0.235,0.972-1.745,1.757-3.156c-0.004-0.027-0.009-0.05-0.013-0.077
					c-0.134-0.956-0.226-2.001-0.258-3.094c-0.036-1.176,0.015-2.409,0.171-3.677h13.266c2.057,0,3.476,0.427,4.338,1.3
					c0.182,0.184,0.337,0.389,0.474,0.611c0.249,0.151,0.474,0.32,0.667,0.515c1.122,1.134,1.325,3.055,1.348,5.338
					c0.02-2.688-0.051-5.039-1.202-6.678c-1.07-0.732-2.544-1.097-4.484-1.097H11.424z"/>
				<path i:knockout="Off" fill="#5383A0" d="M33.445,18.354c0.001,0.149,0.002,0.293,0.003,0.439
					c0.003-0.514,0.001-1.038-0.004-1.579l-0.006-1.163v0.932L33.445,18.354z"/>
				<path i:knockout="Off" fill="#FFFFFF" d="M33.444,14.647h-0.007v0.902h0.001v-0.025L33.444,14.647z"/>
				<path i:knockout="Off" fill="#5383A0" d="M27.472,14.647c0,0-1.614,2.145-2.305,3.063c-0.521-1.24-2.868-6.828-2.868-6.828
					s-2.433,6.971-3.156,9.042c-0.697-2.29-3.672-12.052-3.672-12.052l-0.584,1.049c0,0-0.22,0.395-0.54,0.97
					c0.027,0.611,0.073,1.2,0.134,1.769c0.279-0.502,0.532-0.957,0.715-1.286c0.569,1.869,3.882,12.741,3.882,12.741
					s2.658-7.617,3.309-9.479c0.671,1.599,2.526,6.016,2.526,6.016s2.822-3.75,3.088-4.104c0.278,0,2.456,0,4.297,0v-0.902H27.472z"
					/>
				<path i:knockout="Off" fill="#FFFFFF" d="M34.574,15.549c0.219,0,0.355,0,0.355,0v-0.902h-0.351l-0.005,0.877V15.549z"/>
				<path i:knockout="Off" fill="#FFFFFF" d="M2.929,14.647v0.902h0.545v-0.902C3.142,14.647,2.929,14.647,2.929,14.647z"/>
				<path i:knockout="Off" fill="#223742" d="M33.438,15.523v0.025c0.477,0,0.87,0,1.136,0v-0.024l0.005-0.877h-1.135L33.438,15.523
					z"/>
				<path i:knockout="Off" fill="#FFFFFF" d="M14.347,9.891c-0.252,0.453-0.565,1.015-0.891,1.6c0.08,0.547,0.172,1.048,0.269,1.527
					c0.255-0.458,0.515-0.925,0.756-1.358C14.42,11.091,14.375,10.502,14.347,9.891z"/>
				<path i:knockout="Off" fill="#5383A0" d="M32.298,15.549c0.403,0,0.791,0,1.139,0v-0.902h-1.139V15.549z"/>
				<path i:knockout="Off" fill="#FFFFFF" d="M4.611,15.524l-0.005-0.877c-0.458,0-0.843,0-1.132,0v0.902h1.137V15.524z"/>
				<path i:knockout="Off" fill="#FFFFFF" d="M11.699,14.647c-0.41,0-4.666,0-7.093,0l0.005,0.877v0.024h7.706
					c0,0,0.678-1.219,1.409-2.53c-0.097-0.479-0.189-0.98-0.269-1.527C12.671,12.902,11.83,14.412,11.699,14.647z"/>
			</g>
		</g>
	</g>
</svg>
