<?xml version="1.0" encoding="utf-8"?>
<!-- Generator: Adobe Illustrator 10.0, SVG Export Plug-In . SVG Version: 3.0.0 Build 76)  -->
<!DOCTYPE svg PUBLIC "-//W3C//DTD SVG 1.0//EN"    "http://www.w3.org/TR/2001/REC-SVG-20010904/DTD/svg10.dtd" [
	<!ENTITY ns_flows "http://ns.adobe.com/Flows/1.0/">
	<!ENTITY ns_extend "http://ns.adobe.com/Extensibility/1.0/">
	<!ENTITY ns_ai "http://ns.adobe.com/AdobeIllustrator/10.0/">
	<!ENTITY ns_graphs "http://ns.adobe.com/Graphs/1.0/">
	<!ENTITY ns_vars "http://ns.adobe.com/Variables/1.0/">
	<!ENTITY ns_imrep "http://ns.adobe.com/ImageReplacement/1.0/">
	<!ENTITY ns_sfw "http://ns.adobe.com/SaveForWeb/1.0/">
	<!ENTITY ns_custom "http://ns.adobe.com/GenericCustomNamespace/1.0/">
	<!ENTITY ns_adobe_xpath "http://ns.adobe.com/XPath/1.0/">
	<!ENTITY ns_svg "http://www.w3.org/2000/svg">
	<!ENTITY ns_xlink "http://www.w3.org/1999/xlink">
]>
<svg 
	 xmlns:x="&ns_extend;" xmlns:i="&ns_ai;" xmlns:graph="&ns_graphs;" i:viewOrigin="-37.0249 2.6396" i:rulerOrigin="0 0" i:pageBounds="0 48 48 0"
	 xmlns="&ns_svg;" xmlns:xlink="&ns_xlink;" xmlns:a="http://ns.adobe.com/AdobeSVGViewerExtensions/3.0/"
	 width="44.169" height="43.623" viewBox="0 0 44.169 43.623" overflow="visible" enable-background="new 0 0 44.169 43.623"
	 xml:space="preserve">
	<metadata>
		<variableSets  xmlns="http://ns.adobe.com/Variables/1.0/">
			<variableSet  varSetName="binding1" locked="none">
				<variables></variables>
				<v:sampleDataSets  xmlns="http://ns.adobe.com/GenericCustomNamespace/1.0/" xmlns:v="http://ns.adobe.com/Variables/1.0/">
					</v:sampleDataSets>
			</variableSet>
		</variableSets>
		<sfw  xmlns="&ns_sfw;">
			<slices></slices>
			<sliceSourceBounds  y="-40.983" x="-37.025" width="44.169" height="43.623" bottomLeftOrigin="true"></sliceSourceBounds>
		</sfw>
	</metadata>
	<g id="Layer_1" i:layer="yes" i:dimmedPercent="50" i:rgbTrio="#4F008000FFFF">
		<g i:knockout="Off">
			<path i:knockout="Off" fill="none" stroke="#223742" stroke-width="2" d="M43.17,21.874c0,11.46-9.077,20.75-20.273,20.75
				c-11.197,0-20.273-9.29-20.273-20.75S11.7,1.124,22.897,1.124C34.093,1.124,43.17,10.414,43.17,21.874z"/>
			<path i:knockout="Off" fill="none" stroke="#5383A0" stroke-width="2" d="M41.499,21.249c0,11.184-9.066,20.25-20.25,20.25
				s-20.25-9.066-20.25-20.25c0-11.188,9.066-20.25,20.25-20.25S41.499,10.067,41.499,21.249z"/>
		</g>
		<g i:knockout="Off">
			<g i:knockout="Off">
				<path i:knockout="Off" fill="#223742" d="M28.549,10.429c1.055,1.268,1.582,2.742,1.582,4.432c0,1.404-0.398,2.646-1.195,3.727
					s-1.664,2.039-2.602,2.883c-0.609,0.609-1.078,1.406-1.406,2.393c-0.328,0.983-0.422,2.107-0.281,3.375
					c0.094,0.844-0.563,1.266-1.969,1.266c-1.406,0-2.109-0.422-2.109-1.266c0.094-1.406,0.328-2.789,0.703-4.148
					s0.984-2.461,1.828-3.305c0.656-0.563,1.289-1.302,1.898-2.215c0.609-0.914,0.914-1.816,0.914-2.707
					c0-0.703-0.258-1.277-0.773-1.725c-0.515-0.444-1.195-0.668-2.039-0.668c-0.984,0-1.723,0.293-2.215,0.879
					c-0.492,0.586-0.738,1.371-0.738,2.355c0,0.891-0.727,1.336-2.18,1.336s-2.18-0.445-2.18-1.336
					c0.094-1.969,0.703-3.656,1.828-5.063c1.125-1.405,2.906-2.107,5.344-2.107C25.631,8.53,27.495,9.163,28.549,10.429z
					 M24.471,30.858c0.492,0.467,0.738,1.076,0.738,1.834c0,0.668-0.246,1.233-0.738,1.7c-0.492,0.469-1.09,0.7-1.793,0.7
					c-0.75,0-1.383-0.231-1.898-0.7c-0.515-0.467-0.773-1.032-0.773-1.7c0-0.758,0.258-1.367,0.773-1.834
					c0.515-0.469,1.148-0.701,1.898-0.701C23.381,30.155,23.979,30.39,24.471,30.858z"/>
			</g>
			<g i:knockout="Off">
				<path i:knockout="Off" fill="#5383A0" d="M26.799,10.429c1.055,1.268,1.582,2.742,1.582,4.432c0,1.404-0.398,2.646-1.195,3.727
					s-1.664,2.039-2.602,2.883c-0.609,0.609-1.078,1.406-1.406,2.393c-0.328,0.983-0.422,2.107-0.281,3.375
					c0.094,0.844-0.563,1.266-1.969,1.266c-1.406,0-2.109-0.422-2.109-1.266c0.094-1.406,0.328-2.789,0.703-4.148
					s0.984-2.461,1.828-3.305c0.656-0.563,1.289-1.302,1.898-2.215c0.609-0.914,0.914-1.816,0.914-2.707
					c0-0.703-0.258-1.277-0.773-1.725c-0.515-0.444-1.195-0.668-2.039-0.668c-0.984,0-1.723,0.293-2.215,0.879
					c-0.492,0.586-0.738,1.371-0.738,2.355c0,0.891-0.727,1.336-2.18,1.336s-2.18-0.445-2.18-1.336
					c0.094-1.969,0.703-3.656,1.828-5.063c1.125-1.405,2.906-2.107,5.344-2.107C23.881,8.53,25.745,9.163,26.799,10.429z
					 M22.721,30.858c0.492,0.467,0.738,1.076,0.738,1.834c0,0.668-0.246,1.233-0.738,1.7c-0.492,0.469-1.09,0.7-1.793,0.7
					c-0.75,0-1.383-0.231-1.898-0.7c-0.515-0.467-0.773-1.032-0.773-1.7c0-0.758,0.258-1.367,0.773-1.834
					c0.515-0.469,1.148-0.701,1.898-0.701C21.631,30.155,22.229,30.39,22.721,30.858z"/>
			</g>
		</g>
	</g>
</svg>
