<?xml version="1.0" encoding="utf-8"?>
<!-- Generator: Adobe Illustrator 10.0, SVG Export Plug-In . SVG Version: 3.0.0 Build 76)  -->
<!DOCTYPE svg PUBLIC "-//W3C//DTD SVG 1.0//EN"    "http://www.w3.org/TR/2001/REC-SVG-20010904/DTD/svg10.dtd" [
	<!ENTITY ns_flows "http://ns.adobe.com/Flows/1.0/">
	<!ENTITY ns_extend "http://ns.adobe.com/Extensibility/1.0/">
	<!ENTITY ns_ai "http://ns.adobe.com/AdobeIllustrator/10.0/">
	<!ENTITY ns_graphs "http://ns.adobe.com/Graphs/1.0/">
	<!ENTITY ns_vars "http://ns.adobe.com/Variables/1.0/">
	<!ENTITY ns_imrep "http://ns.adobe.com/ImageReplacement/1.0/">
	<!ENTITY ns_sfw "http://ns.adobe.com/SaveForWeb/1.0/">
	<!ENTITY ns_custom "http://ns.adobe.com/GenericCustomNamespace/1.0/">
	<!ENTITY ns_adobe_xpath "http://ns.adobe.com/XPath/1.0/">
	<!ENTITY ns_svg "http://www.w3.org/2000/svg">
	<!ENTITY ns_xlink "http://www.w3.org/1999/xlink">
]>
<svg 
	 xmlns:x="&ns_extend;" xmlns:i="&ns_ai;" xmlns:graph="&ns_graphs;" i:viewOrigin="1.5259 44.6143" i:rulerOrigin="0 0" i:pageBounds="0 48 48 0"
	 xmlns="&ns_svg;" xmlns:xlink="&ns_xlink;" xmlns:a="http://ns.adobe.com/AdobeSVGViewerExtensions/3.0/"
	 width="33.164" height="40.422" viewBox="0 0 33.164 40.422" overflow="visible" enable-background="new 0 0 33.164 40.422"
	 xml:space="preserve">
	<metadata>
		<variableSets  xmlns="http://ns.adobe.com/Variables/1.0/">
			<variableSet  varSetName="binding1" locked="none">
				<variables></variables>
				<v:sampleDataSets  xmlns="http://ns.adobe.com/GenericCustomNamespace/1.0/" xmlns:v="http://ns.adobe.com/Variables/1.0/">
					</v:sampleDataSets>
			</variableSet>
		</variableSets>
		<sfw  xmlns="&ns_sfw;">
			<slices></slices>
			<sliceSourceBounds  x="1.526" y="4.192" width="33.164" height="40.422" bottomLeftOrigin="true"></sliceSourceBounds>
		</sfw>
	</metadata>
	<g id="Layer_1" i:layer="yes" i:dimmedPercent="50" i:rgbTrio="#4F008000FFFF">
		<path i:knockout="Off" fill="none" stroke="#223742" d="M25.774,0.909c0,0-14.883,10.333-15.146,10.837h-7.56
			c-1.342,0-1.758,0.772-1.758,1.726v13.887c0,0.953,0.416,1.728,1.758,1.728h7.56c0.263,0.502,15.146,10.836,15.146,10.836
			c1.391,0,1.443-0.896,1.443-2V2.908C27.217,1.806,27.165,0.909,25.774,0.909z"/>
		<path i:knockout="Off" fill="#223742" d="M28.53,11.516c1.483,2.354,2.344,5.155,2.344,8.16c0,3.006-0.86,5.806-2.344,8.16
			c2.769-1.623,4.634-4.669,4.634-8.16C33.164,16.186,31.298,13.139,28.53,11.516z"/>
		<path i:knockout="Off" fill="#5383A0" d="M27.99,11.611c1.484,2.308,2.344,5.055,2.344,8.001s-0.859,5.695-2.344,8
			c2.77-1.59,4.635-4.577,4.635-8C32.625,16.191,30.759,13.203,27.99,11.611z"/>
		<path i:knockout="Off" fill="#223742" d="M24.724,38.92l1.915,0.777l0.669-2.333L24.724,38.92z"/>
		<path i:knockout="Off" fill="none" stroke="#5383A0" d="M24.806,0.5c0,0-14.786,10.125-15.047,10.619H2.247
			c-1.333,0-1.747,0.757-1.747,1.69v13.607c0,0.934,0.414,1.691,1.747,1.691h7.512c0.261,0.494,15.047,10.619,15.047,10.619
			c1.383,0,1.436-0.879,1.436-1.961V2.46C26.242,1.378,26.189,0.5,24.806,0.5z"/>
	</g>
</svg>
