<?xml version="1.0" encoding="utf-8"?>
<!-- Generator: Adobe Illustrator 10.0, SVG Export Plug-In . SVG Version: 3.0.0 Build 76)  -->
<!DOCTYPE svg PUBLIC "-//W3C//DTD SVG 1.0//EN"    "http://www.w3.org/TR/2001/REC-SVG-20010904/DTD/svg10.dtd" [
	<!ENTITY ns_flows "http://ns.adobe.com/Flows/1.0/">
	<!ENTITY ns_extend "http://ns.adobe.com/Extensibility/1.0/">
	<!ENTITY ns_ai "http://ns.adobe.com/AdobeIllustrator/10.0/">
	<!ENTITY ns_graphs "http://ns.adobe.com/Graphs/1.0/">
	<!ENTITY ns_vars "http://ns.adobe.com/Variables/1.0/">
	<!ENTITY ns_imrep "http://ns.adobe.com/ImageReplacement/1.0/">
	<!ENTITY ns_sfw "http://ns.adobe.com/SaveForWeb/1.0/">
	<!ENTITY ns_custom "http://ns.adobe.com/GenericCustomNamespace/1.0/">
	<!ENTITY ns_adobe_xpath "http://ns.adobe.com/XPath/1.0/">
	<!ENTITY ns_svg "http://www.w3.org/2000/svg">
	<!ENTITY ns_xlink "http://www.w3.org/1999/xlink">
]>
<svg 
	 xmlns:x="&ns_extend;" xmlns:i="&ns_ai;" xmlns:graph="&ns_graphs;" i:viewOrigin="11.6128 43.0708" i:rulerOrigin="0 0" i:pageBounds="0 48 48 0"
	 xmlns="&ns_svg;" xmlns:xlink="&ns_xlink;" xmlns:a="http://ns.adobe.com/AdobeSVGViewerExtensions/3.0/"
	 width="29.559" height="41.634" viewBox="0 0 29.559 41.634" overflow="visible" enable-background="new 0 0 29.559 41.634"
	 xml:space="preserve">
	<metadata>
		<variableSets  xmlns="http://ns.adobe.com/Variables/1.0/">
			<variableSet  varSetName="binding1" locked="none">
				<variables></variables>
				<v:sampleDataSets  xmlns="http://ns.adobe.com/GenericCustomNamespace/1.0/" xmlns:v="http://ns.adobe.com/Variables/1.0/">
					</v:sampleDataSets>
			</variableSet>
		</variableSets>
		<sfw  xmlns="&ns_sfw;">
			<slices></slices>
			<sliceSourceBounds  x="11.613" y="1.437" width="29.559" height="41.634" bottomLeftOrigin="true"></sliceSourceBounds>
		</sfw>
	</metadata>
	<g id="Layer_1" i:layer="yes" i:dimmedPercent="50" i:rgbTrio="#4F008000FFFF">
		<g>
			<g>
				<path i:knockout="Off" fill="#203842" d="M28.247,37.064l-0.598,2.392l-2.791,1.264l3.521-0.266l0.532-4.719L28.247,37.064z"/>
				<g>
					<path i:knockout="Off" fill="#203842" d="M0.701,1.214L0.635,4.538l3.058-4.253L0.769,0.949"/>
					<path i:knockout="Off" fill="#203842" d="M24.086,0.953H6.256C3.843,0.951,2.632,0.95,1.868,1.714
						C1.076,2.504,1.041,3.87,1.041,6.637V36.29c0,2.661,0.033,3.973,0.769,4.701c0.679,0.673,1.749,0.662,3.689,0.644l1.175-0.007
						H23.67l1.172,0.007c2.031,0.02,3.15,0.03,3.877-0.689c0.723-0.717,0.84-1.959,0.84-4.655V6.637c0-2.803-0.125-4.1-0.9-4.874
						C27.845,0.95,26.51,0.951,24.086,0.953z M23.668,1.954l0.419,0c2.156-0.002,3.344-0.003,3.864,0.517
						c0.517,0.516,0.607,1.755,0.607,4.167V36.29c0,2.308-0.081,3.486-0.544,3.945c-0.43,0.426-1.459,0.416-3.163,0.399
						l-1.182-0.007H6.674l-1.185,0.007c-1.617,0.016-2.593,0.025-2.976-0.354c-0.449-0.445-0.472-1.807-0.472-3.991V6.637
						c0-2.284,0.026-3.709,0.533-4.216c0.471-0.471,1.611-0.47,3.681-0.468l0.419,0H23.668z"/>
					<path i:knockout="Off" fill="#51839F" d="M23.047,0H5.213C2.801-0.002,1.591-0.003,0.826,0.76C0.035,1.551,0,2.917,0,5.684
						v29.652c0,2.661,0.033,3.974,0.769,4.702c0.679,0.673,1.749,0.662,3.689,0.644l1.175-0.007H22.63l1.171,0.007
						c2.031,0.02,3.15,0.03,3.877-0.689c0.723-0.717,0.84-1.96,0.84-4.656L28.516,5.684c0-2.804-0.125-4.101-0.899-4.875
						C26.803-0.003,25.469-0.002,23.047,0z M22.627,1l0.421,0c2.154-0.002,3.341-0.003,3.861,0.517
						c0.516,0.515,0.606,1.754,0.606,4.167l0.002,29.652c0,2.309-0.081,3.487-0.544,3.946c-0.43,0.426-1.459,0.416-3.163,0.399
						l-1.181-0.007H5.633l-1.184,0.007c-1.617,0.016-2.594,0.025-2.977-0.354C1.023,38.883,1,37.521,1,35.336V5.684
						C1,3.4,1.026,1.975,1.533,1.468C2.004,0.997,3.144,0.998,5.212,1l0.421,0H22.627z"/>
				</g>
			</g>
			<g>
				<path i:knockout="Off" fill="#223742" d="M4.723,24.028c0,5.705,4.642,10.348,10.349,10.348c5.706,0,10.348-4.643,10.348-10.348
					c0-5.707-4.642-10.349-10.348-10.349C9.365,13.679,4.723,18.321,4.723,24.028z M5.205,24.028c0-5.442,4.426-9.868,9.867-9.868
					c5.44,0,9.865,4.426,9.865,9.868c0,5.439-4.425,9.866-9.865,9.866C9.631,33.893,5.205,29.467,5.205,24.028z"/>
				<path i:knockout="Off" fill="#223742" d="M11.622,24.028c0,1.9,1.547,3.447,3.45,3.447c1.9,0,3.448-1.547,3.448-3.447
					c0-1.902-1.547-3.45-3.448-3.45C13.169,20.578,11.622,22.125,11.622,24.028z M13.065,24.028c0-1.106,0.901-2.007,2.007-2.007
					c1.106,0,2.005,0.9,2.005,2.007c0,1.105-0.898,2.004-2.005,2.004C13.966,26.032,13.065,25.133,13.065,24.028z"/>
				<path i:knockout="Off" fill="#5383A0" d="M4.14,23.658c0,5.708,4.642,10.349,10.348,10.349s10.348-4.641,10.348-10.349
					c0-5.706-4.642-10.347-10.348-10.347S4.14,17.952,4.14,23.658z M4.621,23.658c0-5.44,4.426-9.866,9.867-9.866
					s9.865,4.426,9.865,9.866c0,5.441-4.425,9.867-9.865,9.867S4.621,29.099,4.621,23.658z"/>
				<path i:knockout="Off" fill="#5383A0" d="M10.82,23.384c0,1.902,1.547,3.45,3.449,3.45s3.449-1.548,3.449-3.45
					c0-1.9-1.547-3.448-3.449-3.448S10.82,21.484,10.82,23.384z M12.264,23.384c0-1.104,0.899-2.004,2.005-2.004
					c1.105,0,2.005,0.899,2.005,2.004c0,1.105-0.899,2.007-2.005,2.007C13.163,25.391,12.264,24.49,12.264,23.384z"/>
			</g>
		</g>
	</g>
</svg>
