<?xml version="1.0" encoding="utf-8"?>
<!-- Generator: Adobe Illustrator 10.0, SVG Export Plug-In . SVG Version: 3.0.0 Build 76)  -->
<!DOCTYPE svg PUBLIC "-//W3C//DTD SVG 1.0//EN"    "http://www.w3.org/TR/2001/REC-SVG-20010904/DTD/svg10.dtd" [
	<!ENTITY ns_flows "http://ns.adobe.com/Flows/1.0/">
	<!ENTITY ns_extend "http://ns.adobe.com/Extensibility/1.0/">
	<!ENTITY ns_ai "http://ns.adobe.com/AdobeIllustrator/10.0/">
	<!ENTITY ns_graphs "http://ns.adobe.com/Graphs/1.0/">
	<!ENTITY ns_vars "http://ns.adobe.com/Variables/1.0/">
	<!ENTITY ns_imrep "http://ns.adobe.com/ImageReplacement/1.0/">
	<!ENTITY ns_sfw "http://ns.adobe.com/SaveForWeb/1.0/">
	<!ENTITY ns_custom "http://ns.adobe.com/GenericCustomNamespace/1.0/">
	<!ENTITY ns_adobe_xpath "http://ns.adobe.com/XPath/1.0/">
	<!ENTITY ns_svg "http://www.w3.org/2000/svg">
	<!ENTITY ns_xlink "http://www.w3.org/1999/xlink">
]>
<svg 
	 xmlns:x="&ns_extend;" xmlns:i="&ns_ai;" xmlns:graph="&ns_graphs;" i:viewOrigin="1.2031 46.5" i:rulerOrigin="0 0" i:pageBounds="0 48 48 0"
	 xmlns="&ns_svg;" xmlns:xlink="&ns_xlink;" xmlns:a="http://ns.adobe.com/AdobeSVGViewerExtensions/3.0/"
	 width="44.172" height="43.625" viewBox="0 0 44.172 43.625" overflow="visible" enable-background="new 0 0 44.172 43.625"
	 xml:space="preserve">
	<metadata>
		<variableSets  xmlns="http://ns.adobe.com/Variables/1.0/">
			<variableSet  varSetName="binding1" locked="none">
				<variables></variables>
				<v:sampleDataSets  xmlns="http://ns.adobe.com/GenericCustomNamespace/1.0/" xmlns:v="http://ns.adobe.com/Variables/1.0/">
					</v:sampleDataSets>
			</variableSet>
		</variableSets>
		<sfw  xmlns="&ns_sfw;">
			<slices></slices>
			<sliceSourceBounds  x="1.203" y="2.875" width="44.172" height="43.625" bottomLeftOrigin="true"></sliceSourceBounds>
		</sfw>
	</metadata>
	<g id="Layer_1" i:layer="yes" i:dimmedPercent="50" i:rgbTrio="#4F008000FFFF">
		<g>
			<path i:knockout="Off" fill="#7F3A01" d="M1.625,21.875c0,11.993,9.543,21.75,21.273,21.75s21.273-9.757,21.273-21.75
				s-9.543-21.75-21.273-21.75S1.625,9.882,1.625,21.875z M3.625,21.875c0-10.89,8.646-19.75,19.273-19.75
				c10.627,0,19.273,8.86,19.273,19.75c0,10.891-8.646,19.75-19.273,19.75C12.271,41.625,3.625,32.766,3.625,21.875z"/>
			<path i:knockout="Off" fill="#7F3A01" d="M33.422,22.125c0,1.782-0.149,3.163-1.072,3.228H11.869
				c-1.072,0.033-1.072-1.284-1.072-3.066c0-1.783,0-3.421,1.072-3.389H32.35C33.511,18.897,33.422,20.342,33.422,22.125z"/>
			<g>
				<path i:knockout="Off" fill="#E76F00" d="M0,21.25C0,32.968,9.533,42.5,21.25,42.5c11.717,0,21.25-9.532,21.25-21.25
					C42.5,9.533,32.967,0,21.25,0C9.533,0,0,9.533,0,21.25z M2,21.25C2,10.636,10.636,2,21.25,2S40.5,10.636,40.5,21.25
					S31.864,40.5,21.25,40.5S2,31.864,2,21.25z"/>
				<path i:knockout="Off" fill="#E76F00" d="M32.566,21.25c0,1.645-0.149,2.918-1.072,2.978H11.006
					c-1.072,0.03-1.072-1.185-1.072-2.829c0-1.645,0-3.156,1.072-3.127h20.488C32.655,18.271,32.566,19.605,32.566,21.25z"/>
			</g>
		</g>
	</g>
</svg>
