<?xml version="1.0" encoding="utf-8"?>
<!-- Generator: Adobe Illustrator 10.0, SVG Export Plug-In . SVG Version: 3.0.0 Build 76)  -->
<!DOCTYPE svg PUBLIC "-//W3C//DTD SVG 1.0//EN"    "http://www.w3.org/TR/2001/REC-SVG-20010904/DTD/svg10.dtd" [
	<!ENTITY ns_flows "http://ns.adobe.com/Flows/1.0/">
	<!ENTITY ns_extend "http://ns.adobe.com/Extensibility/1.0/">
	<!ENTITY ns_ai "http://ns.adobe.com/AdobeIllustrator/10.0/">
	<!ENTITY ns_graphs "http://ns.adobe.com/Graphs/1.0/">
	<!ENTITY ns_vars "http://ns.adobe.com/Variables/1.0/">
	<!ENTITY ns_imrep "http://ns.adobe.com/ImageReplacement/1.0/">
	<!ENTITY ns_sfw "http://ns.adobe.com/SaveForWeb/1.0/">
	<!ENTITY ns_custom "http://ns.adobe.com/GenericCustomNamespace/1.0/">
	<!ENTITY ns_adobe_xpath "http://ns.adobe.com/XPath/1.0/">
	<!ENTITY ns_svg "http://www.w3.org/2000/svg">
	<!ENTITY ns_xlink "http://www.w3.org/1999/xlink">
]>
<svg 
	 xmlns:x="&ns_extend;" xmlns:i="&ns_ai;" xmlns:graph="&ns_graphs;" i:viewOrigin="5.9556 44.2451" i:rulerOrigin="0 0" i:pageBounds="0 48 48 0"
	 xmlns="&ns_svg;" xmlns:xlink="&ns_xlink;" xmlns:a="http://ns.adobe.com/AdobeSVGViewerExtensions/3.0/"
	 width="35.202" height="38.323" viewBox="0 0 35.202 38.323" overflow="visible" enable-background="new 0 0 35.202 38.323"
	 xml:space="preserve">
	<metadata>
		<variableSets  xmlns="http://ns.adobe.com/Variables/1.0/">
			<variableSet  varSetName="binding1" locked="none">
				<variables></variables>
				<v:sampleDataSets  xmlns="http://ns.adobe.com/GenericCustomNamespace/1.0/" xmlns:v="http://ns.adobe.com/Variables/1.0/">
					</v:sampleDataSets>
			</variableSet>
		</variableSets>
		<sfw  xmlns="&ns_sfw;">
			<slices></slices>
			<sliceSourceBounds  x="5.956" y="5.922" width="35.202" height="38.323" bottomLeftOrigin="true"></sliceSourceBounds>
		</sfw>
	</metadata>
	<g id="Layer_1" i:layer="yes" i:dimmedPercent="50" i:rgbTrio="#4F008000FFFF">
		<g>
			<path i:knockout="Off" fill="#FFFFFF" d="M30.517,33.266c0,5.026-0.402,4.551-5.069,4.551H9.462
				c-4.667,0-4.828,0.476-4.828-4.551V5.376c0-5.027,0.162-4.876,4.828-4.876h15.985c4.667,0,5.069-0.151,5.069,4.876V33.266z"/>
			<path i:knockout="Off" fill="#5383A0" d="M25.843,0H9.067C6.791-0.002,5.648-0.003,4.92,0.723
				C4.167,1.475,4.134,2.764,4.134,5.376v27.889c0,2.511,0.031,3.749,0.732,4.443c0.648,0.642,1.658,0.632,3.492,0.614l1.104-0.007
				h15.985l1.104,0.007c1.918,0.018,2.975,0.028,3.666-0.657c0.688-0.682,0.799-1.855,0.799-4.4V5.376
				c0-2.646-0.119-3.871-0.855-4.607C29.387-0.004,28.128-0.002,25.843,0z M25.448,1h0.396c1.952-0.002,3.13-0.003,3.61,0.477
				c0.479,0.478,0.563,1.638,0.563,3.899v27.889c0,2.117-0.078,3.27-0.503,3.69c-0.396,0.392-1.357,0.382-2.952,0.367l-1.114-0.007
				H9.462l-1.114,0.007c-1.514,0.015-2.427,0.023-2.779-0.325c-0.415-0.41-0.436-1.686-0.436-3.732V5.376
				c0-2.141,0.024-3.477,0.493-3.946C6.062,0.997,7.192,0.998,9.066,1h0.396H25.448z"/>
			<path i:knockout="Off" fill="#5383A0" d="M7.609,6.43c-0.276,0-0.5,0.224-0.5,0.5s0.224,0.5,0.5,0.5h19.932
				c0.276,0,0.5-0.224,0.5-0.5s-0.224-0.5-0.5-0.5H7.609z"/>
			<path i:knockout="Off" fill="#5383A0" d="M7.609,11.195c-0.276,0-0.5,0.224-0.5,0.5s0.224,0.5,0.5,0.5h19.932
				c0.276,0,0.5-0.224,0.5-0.5s-0.224-0.5-0.5-0.5H7.609z"/>
			<g>
				<path i:knockout="Off" d="M0.125,26.262v3.983l2.471-2.029L0.125,26.262z"/>
				<path i:knockout="Off" d="M0.07,26.149C0.027,26.17,0,26.214,0,26.262v3.983c0,0.049,0.028,0.093,0.072,0.113
					c0.043,0.021,0.095,0.015,0.132-0.017l2.471-2.029c0.029-0.024,0.046-0.06,0.046-0.098s-0.018-0.073-0.047-0.097l-2.471-1.954
					C0.165,26.134,0.114,26.128,0.07,26.149z M0.25,26.52c0.323,0.256,1.946,1.539,2.147,1.698
					c-0.198,0.163-1.821,1.495-2.147,1.763C0.25,29.552,0.25,26.939,0.25,26.52z"/>
				<path i:knockout="Off" d="M3.078,26.262v3.983l2.471-2.029L3.078,26.262z"/>
				<path i:knockout="Off" d="M3.023,26.149c-0.043,0.021-0.07,0.064-0.07,0.112v3.983c0,0.049,0.028,0.093,0.072,0.113
					c0.043,0.021,0.095,0.015,0.132-0.017l2.471-2.029c0.029-0.024,0.046-0.06,0.046-0.098s-0.018-0.073-0.047-0.097l-2.471-1.954
					C3.118,26.134,3.066,26.128,3.023,26.149z M3.203,26.52c0.323,0.256,1.945,1.539,2.146,1.698
					c-0.198,0.163-1.821,1.495-2.146,1.763C3.203,29.552,3.203,26.939,3.203,26.52z"/>
				<path i:knockout="Off" d="M6.031,26.262v3.983l2.471-2.029L6.031,26.262z"/>
				<path i:knockout="Off" d="M5.976,26.149c-0.043,0.021-0.07,0.064-0.07,0.112v3.983c0,0.049,0.028,0.093,0.072,0.113
					c0.043,0.021,0.095,0.015,0.132-0.017l2.471-2.029c0.029-0.024,0.046-0.06,0.046-0.098s-0.018-0.073-0.047-0.097l-2.471-1.954
					C6.071,26.134,6.02,26.128,5.976,26.149z M6.156,26.52c0.323,0.256,1.945,1.539,2.146,1.698
					c-0.198,0.163-1.821,1.495-2.146,1.763C6.156,29.552,6.156,26.939,6.156,26.52z"/>
				<path i:knockout="Off" d="M8.983,26.262v3.983l2.471-2.029L8.983,26.262z"/>
				<path i:knockout="Off" d="M8.929,26.149c-0.043,0.021-0.07,0.064-0.07,0.112v3.983c0,0.049,0.028,0.093,0.072,0.113
					c0.043,0.021,0.096,0.015,0.132-0.017l2.471-2.029c0.029-0.024,0.046-0.06,0.046-0.098s-0.018-0.073-0.047-0.097l-2.471-1.954
					C9.023,26.134,8.972,26.128,8.929,26.149z M9.108,26.52c0.323,0.256,1.946,1.539,2.146,1.698
					c-0.198,0.163-1.821,1.495-2.146,1.763C9.108,29.552,9.108,26.939,9.108,26.52z"/>
				<path i:knockout="Off" d="M11.936,26.262v3.983l2.471-2.029L11.936,26.262z"/>
				<path i:knockout="Off" d="M11.881,26.149c-0.043,0.021-0.07,0.064-0.07,0.112v3.983c0,0.049,0.028,0.093,0.072,0.113
					c0.043,0.021,0.095,0.015,0.132-0.017l2.471-2.029c0.029-0.024,0.046-0.06,0.046-0.098s-0.018-0.073-0.047-0.097l-2.471-1.954
					C11.976,26.134,11.925,26.128,11.881,26.149z M12.061,26.52c0.323,0.256,1.945,1.539,2.146,1.698
					c-0.198,0.163-1.821,1.495-2.146,1.763C12.061,29.552,12.061,26.939,12.061,26.52z"/>
				<path i:knockout="Off" d="M14.889,26.262v3.983l2.471-2.029L14.889,26.262z"/>
				<path i:knockout="Off" d="M14.834,26.149c-0.043,0.021-0.07,0.064-0.07,0.112v3.983c0,0.049,0.028,0.093,0.072,0.113
					c0.043,0.021,0.095,0.015,0.132-0.017l2.471-2.029c0.029-0.024,0.046-0.06,0.046-0.098s-0.018-0.073-0.047-0.097l-2.471-1.954
					C14.929,26.134,14.877,26.128,14.834,26.149z M15.014,26.52c0.323,0.256,1.946,1.539,2.147,1.698
					c-0.198,0.163-1.821,1.495-2.147,1.763C15.014,29.552,15.014,26.939,15.014,26.52z"/>
				<path i:knockout="Off" fill="#FAFBFC" d="M17.842,26.262v3.983l2.471-2.029L17.842,26.262z"/>
				<path i:knockout="Off" d="M17.788,26.149c-0.043,0.021-0.07,0.064-0.07,0.112v3.983c0,0.049,0.028,0.093,0.072,0.113
					c0.043,0.021,0.095,0.015,0.132-0.017l2.471-2.029c0.029-0.024,0.046-0.06,0.046-0.098s-0.018-0.073-0.048-0.097l-2.47-1.954
					C17.882,26.134,17.831,26.128,17.788,26.149z M17.967,26.52c0.323,0.256,1.945,1.539,2.146,1.698
					c-0.198,0.163-1.821,1.495-2.146,1.763C17.967,29.552,17.967,26.939,17.967,26.52z"/>
				<path i:knockout="Off" fill="#FAFBFC" d="M20.794,26.262v3.983l2.471-2.029L20.794,26.262z"/>
				<path i:knockout="Off" d="M20.74,26.149c-0.043,0.021-0.07,0.064-0.07,0.112v3.983c0,0.049,0.028,0.093,0.071,0.113
					c0.044,0.021,0.096,0.015,0.133-0.017l2.471-2.029c0.029-0.024,0.046-0.06,0.046-0.098s-0.018-0.073-0.048-0.097l-2.471-1.954
					C20.834,26.134,20.783,26.128,20.74,26.149z M20.919,26.52c0.323,0.256,1.945,1.539,2.146,1.698
					c-0.198,0.163-1.82,1.495-2.146,1.763C20.919,29.552,20.919,26.939,20.919,26.52z"/>
				<path i:knockout="Off" fill="#FAFBFC" d="M23.747,26.262v3.983l2.472-2.029L23.747,26.262z"/>
				<path i:knockout="Off" d="M23.692,26.149c-0.043,0.021-0.07,0.064-0.07,0.112v3.983c0,0.049,0.028,0.093,0.071,0.113
					c0.044,0.021,0.096,0.014,0.133-0.017l2.472-2.029c0.029-0.024,0.046-0.06,0.046-0.098s-0.018-0.073-0.048-0.097l-2.472-1.954
					C23.787,26.134,23.735,26.128,23.692,26.149z M23.872,26.52c0.323,0.256,1.946,1.539,2.147,1.698
					c-0.198,0.163-1.821,1.495-2.147,1.763C23.872,29.552,23.872,26.939,23.872,26.52z"/>
				<path i:knockout="Off" fill="#FAFBFC" d="M26.7,26.262v3.983l2.472-2.029L26.7,26.262z"/>
				<path i:knockout="Off" d="M26.645,26.149c-0.043,0.021-0.07,0.064-0.07,0.112v3.983c0,0.049,0.028,0.093,0.071,0.113
					c0.044,0.021,0.096,0.014,0.133-0.017l2.472-2.029c0.029-0.024,0.046-0.06,0.046-0.098s-0.018-0.073-0.048-0.097l-2.472-1.954
					C26.74,26.134,26.688,26.128,26.645,26.149z M26.825,26.52c0.323,0.256,1.946,1.539,2.147,1.698
					c-0.198,0.163-1.821,1.495-2.147,1.763C26.825,29.552,26.825,26.939,26.825,26.52z"/>
				<path i:knockout="Off" fill="#FCFCFC" d="M29.654,26.262v3.983l2.471-2.029L29.654,26.262z"/>
				<path i:knockout="Off" d="M29.599,26.149c-0.043,0.021-0.07,0.064-0.07,0.112v3.983c0,0.049,0.028,0.093,0.071,0.113
					c0.044,0.021,0.096,0.015,0.133-0.017l2.471-2.029c0.029-0.024,0.046-0.06,0.046-0.098s-0.018-0.073-0.048-0.097l-2.471-1.954
					C29.694,26.134,29.642,26.128,29.599,26.149z M29.779,26.52c0.323,0.256,1.945,1.539,2.146,1.698
					c-0.198,0.163-1.82,1.495-2.146,1.763C29.779,29.552,29.779,26.939,29.779,26.52z"/>
				<path i:knockout="Off" fill="#FAFBFC" d="M32.606,26.262v3.983l2.471-2.029L32.606,26.262z"/>
				<path i:knockout="Off" d="M32.551,26.149c-0.043,0.021-0.07,0.064-0.07,0.112v3.983c0,0.049,0.028,0.093,0.071,0.113
					c0.044,0.021,0.096,0.015,0.133-0.017l2.471-2.029c0.029-0.024,0.046-0.06,0.046-0.098s-0.018-0.073-0.048-0.097l-2.471-1.954
					C32.646,26.134,32.594,26.128,32.551,26.149z M32.731,26.52c0.323,0.256,1.945,1.539,2.146,1.698
					c-0.198,0.163-1.82,1.495-2.146,1.763C32.731,29.552,32.731,26.939,32.731,26.52z"/>
			</g>
			<path i:knockout="Off" fill="#5383A0" d="M7.609,15.96c-0.276,0-0.5,0.224-0.5,0.5s0.224,0.5,0.5,0.5h19.932
				c0.276,0,0.5-0.224,0.5-0.5s-0.224-0.5-0.5-0.5H7.609z"/>
		</g>
	</g>
</svg>
