<?xml version="1.0" encoding="utf-8"?>
<!-- Generator: Adobe Illustrator 10.0, SVG Export Plug-In . SVG Version: 3.0.0 Build 76)  -->
<!DOCTYPE svg PUBLIC "-//W3C//DTD SVG 1.0//EN"    "http://www.w3.org/TR/2001/REC-SVG-20010904/DTD/svg10.dtd" [
	<!ENTITY ns_flows "http://ns.adobe.com/Flows/1.0/">
	<!ENTITY ns_extend "http://ns.adobe.com/Extensibility/1.0/">
	<!ENTITY ns_ai "http://ns.adobe.com/AdobeIllustrator/10.0/">
	<!ENTITY ns_graphs "http://ns.adobe.com/Graphs/1.0/">
	<!ENTITY ns_vars "http://ns.adobe.com/Variables/1.0/">
	<!ENTITY ns_imrep "http://ns.adobe.com/ImageReplacement/1.0/">
	<!ENTITY ns_sfw "http://ns.adobe.com/SaveForWeb/1.0/">
	<!ENTITY ns_custom "http://ns.adobe.com/GenericCustomNamespace/1.0/">
	<!ENTITY ns_adobe_xpath "http://ns.adobe.com/XPath/1.0/">
	<!ENTITY ns_svg "http://www.w3.org/2000/svg">
	<!ENTITY ns_xlink "http://www.w3.org/1999/xlink">
]>
<svg 
	 xmlns:x="&ns_extend;" xmlns:i="&ns_ai;" xmlns:graph="&ns_graphs;" i:viewOrigin="1.4253 46.061" i:rulerOrigin="0 0" i:pageBounds="0 48 48 0"
	 xmlns="&ns_svg;" xmlns:xlink="&ns_xlink;" xmlns:a="http://ns.adobe.com/AdobeSVGViewerExtensions/3.0/"
	 width="44.169" height="43.623" viewBox="0 0 44.169 43.623" overflow="visible" enable-background="new 0 0 44.169 43.623"
	 xml:space="preserve">
	<metadata>
		<variableSets  xmlns="http://ns.adobe.com/Variables/1.0/">
			<variableSet  varSetName="binding1" locked="none">
				<variables></variables>
				<v:sampleDataSets  xmlns="http://ns.adobe.com/GenericCustomNamespace/1.0/" xmlns:v="http://ns.adobe.com/Variables/1.0/">
					</v:sampleDataSets>
			</variableSet>
		</variableSets>
		<sfw  xmlns="&ns_sfw;">
			<slices></slices>
			<sliceSourceBounds  x="1.425" y="2.438" width="44.169" height="43.623" bottomLeftOrigin="true"></sliceSourceBounds>
		</sfw>
	</metadata>
	<g id="Layer_1" i:layer="yes" i:dimmedPercent="50" i:rgbTrio="#4F008000FFFF">
		<g>
			<path i:knockout="Off" fill="none" stroke="#223742" stroke-width="2" d="M43.17,21.874c0,11.46-9.077,20.75-20.273,20.75
				c-11.197,0-20.273-9.29-20.273-20.75S11.7,1.124,22.897,1.124C34.093,1.124,43.17,10.414,43.17,21.874z"/>
			<path i:knockout="Off" fill="none" stroke="#5383A0" stroke-width="2" d="M41.499,21.249c0,11.184-9.066,20.25-20.25,20.25
				c-11.184,0-20.25-9.066-20.25-20.25c0-11.185,9.066-20.25,20.25-20.25C32.432,0.999,41.499,10.066,41.499,21.249z"/>
		</g>
		<g>
			<g>
				<path i:knockout="Off" fill="#223742" d="M25.862,12.561c0,1.691-1.372,3.063-3.063,3.063c-1.691,0-3.063-1.371-3.063-3.063
					s1.371-3.063,3.063-3.063C24.49,9.499,25.862,10.87,25.862,12.561z"/>
				<path i:knockout="Off" fill="#223742" d="M25.299,32.436c0,1.07-1.119,1.938-2.5,1.938c-1.38,0-2.5-0.867-2.5-1.938V19.061
					c0-1.07,1.12-1.938,2.5-1.938c1.381,0,2.5,0.868,2.5,1.938V32.436z"/>
			</g>
			<g>
				<path i:knockout="Off" fill="#5383A0" d="M24.432,12.311c0,1.691-1.372,3.063-3.063,3.063c-1.691,0-3.063-1.371-3.063-3.063
					s1.371-3.063,3.063-3.063C23.06,9.249,24.432,10.62,24.432,12.311z"/>
				<path i:knockout="Off" fill="#5383A0" d="M23.87,32.186c0,1.07-1.119,1.938-2.5,1.938c-1.381,0-2.5-0.867-2.5-1.938V18.811
					c0-1.07,1.119-1.938,2.5-1.938c1.381,0,2.5,0.867,2.5,1.938V32.186z"/>
			</g>
		</g>
	</g>
</svg>
