<?xml version="1.0" encoding="utf-8"?>
<!-- Generator: Adobe Illustrator 10.0, SVG Export Plug-In . SVG Version: 3.0.0 Build 76)  -->
<!DOCTYPE svg PUBLIC "-//W3C//DTD SVG 1.0//EN"    "http://www.w3.org/TR/2001/REC-SVG-20010904/DTD/svg10.dtd" [
	<!ENTITY ns_flows "http://ns.adobe.com/Flows/1.0/">
	<!ENTITY ns_extend "http://ns.adobe.com/Extensibility/1.0/">
	<!ENTITY ns_ai "http://ns.adobe.com/AdobeIllustrator/10.0/">
	<!ENTITY ns_graphs "http://ns.adobe.com/Graphs/1.0/">
	<!ENTITY ns_vars "http://ns.adobe.com/Variables/1.0/">
	<!ENTITY ns_imrep "http://ns.adobe.com/ImageReplacement/1.0/">
	<!ENTITY ns_sfw "http://ns.adobe.com/SaveForWeb/1.0/">
	<!ENTITY ns_custom "http://ns.adobe.com/GenericCustomNamespace/1.0/">
	<!ENTITY ns_adobe_xpath "http://ns.adobe.com/XPath/1.0/">
	<!ENTITY ns_svg "http://www.w3.org/2000/svg">
	<!ENTITY ns_xlink "http://www.w3.org/1999/xlink">
]>
<svg 
	 xmlns:x="&ns_extend;" xmlns:i="&ns_ai;" xmlns:graph="&ns_graphs;" i:viewOrigin="5.9556 44.2451" i:rulerOrigin="0 0" i:pageBounds="0 48 48 0"
	 xmlns="&ns_svg;" xmlns:xlink="&ns_xlink;" xmlns:a="http://ns.adobe.com/AdobeSVGViewerExtensions/3.0/"
	 width="35.202" height="38.316" viewBox="0 0 35.202 38.316" overflow="visible" enable-background="new 0 0 35.202 38.316"
	 xml:space="preserve">
	<metadata>
		<variableSets  xmlns="http://ns.adobe.com/Variables/1.0/">
			<variableSet  varSetName="binding1" locked="none">
				<variables></variables>
				<v:sampleDataSets  xmlns="http://ns.adobe.com/GenericCustomNamespace/1.0/" xmlns:v="http://ns.adobe.com/Variables/1.0/">
					</v:sampleDataSets>
			</variableSet>
		</variableSets>
		<sfw  xmlns="&ns_sfw;">
			<slices></slices>
			<sliceSourceBounds  x="5.956" y="5.929" width="35.202" height="38.316" bottomLeftOrigin="true"></sliceSourceBounds>
		</sfw>
	</metadata>
	<g id="Layer_1" i:layer="yes" i:dimmedPercent="50" i:rgbTrio="#4F008000FFFF">
		<path i:knockout="Off" fill="#FFFFFF" stroke="#5383A0" d="M30.517,33.266c0,5.026-0.402,4.551-5.069,4.551H9.462
			c-4.667,0-4.828,0.476-4.828-4.551V5.376c0-5.027,0.162-4.876,4.828-4.876h15.985c4.667,0,5.069-0.151,5.069,4.876V33.266z"/>
		<path i:knockout="Off" fill="none" stroke="#5383A0" stroke-linecap="round" d="M7.609,6.93h19.932"/>
		<path i:knockout="Off" fill="none" stroke="#5383A0" stroke-linecap="round" d="M7.609,11.695h19.932"/>
		<g>
			<path i:knockout="Off" stroke="#000000" stroke-width="0.25" stroke-linecap="round" stroke-linejoin="round" d="M0.125,26.262
				v3.983l2.471-2.029L0.125,26.262z"/>
			<path i:knockout="Off" stroke="#000000" stroke-width="0.25" stroke-linecap="round" stroke-linejoin="round" d="M3.078,26.262
				v3.983l2.471-2.029L3.078,26.262z"/>
			<path i:knockout="Off" stroke="#000000" stroke-width="0.25" stroke-linecap="round" stroke-linejoin="round" d="M6.031,26.262
				v3.983l2.471-2.029L6.031,26.262z"/>
			<path i:knockout="Off" stroke="#000000" stroke-width="0.25" stroke-linecap="round" stroke-linejoin="round" d="M8.983,26.262
				v3.983l2.471-2.029L8.983,26.262z"/>
			<path i:knockout="Off" stroke="#000000" stroke-width="0.25" stroke-linecap="round" stroke-linejoin="round" d="M11.936,26.262
				v3.983l2.471-2.029L11.936,26.262z"/>
			<path i:knockout="Off" stroke="#000000" stroke-width="0.25" stroke-linecap="round" stroke-linejoin="round" d="M14.889,26.262
				v3.983l2.471-2.029L14.889,26.262z"/>
			<path i:knockout="Off" fill="#FAFBFC" stroke="#000000" stroke-width="0.25" stroke-linecap="round" stroke-linejoin="round" d="
				M17.842,26.262v3.983l2.471-2.029L17.842,26.262z"/>
			<path i:knockout="Off" fill="#FAFBFC" stroke="#000000" stroke-width="0.25" stroke-linecap="round" stroke-linejoin="round" d="
				M20.794,26.262v3.983l2.471-2.029L20.794,26.262z"/>
			<path i:knockout="Off" fill="#FAFBFC" stroke="#000000" stroke-width="0.25" stroke-linecap="round" stroke-linejoin="round" d="
				M23.747,26.262v3.983l2.472-2.029L23.747,26.262z"/>
			<path i:knockout="Off" fill="#FAFBFC" stroke="#000000" stroke-width="0.25" stroke-linecap="round" stroke-linejoin="round" d="
				M26.7,26.262v3.983l2.472-2.029L26.7,26.262z"/>
			<path i:knockout="Off" fill="#FCFCFC" stroke="#000000" stroke-width="0.25" stroke-linecap="round" stroke-linejoin="round" d="
				M29.654,26.262v3.983l2.471-2.029L29.654,26.262z"/>
			<path i:knockout="Off" fill="#FAFBFC" stroke="#000000" stroke-width="0.25" stroke-linecap="round" stroke-linejoin="round" d="
				M32.606,26.262v3.983l2.471-2.029L32.606,26.262z"/>
		</g>
		<path i:knockout="Off" fill="none" stroke="#5383A0" stroke-linecap="round" d="M7.609,16.46h19.932"/>
	</g>
</svg>
