<?xml version="1.0" encoding="utf-8"?>
<!-- Generator: Adobe Illustrator 10.0, SVG Export Plug-In . SVG Version: 3.0.0 Build 76)  -->
<!DOCTYPE svg PUBLIC "-//W3C//DTD SVG 1.0//EN"    "http://www.w3.org/TR/2001/REC-SVG-20010904/DTD/svg10.dtd" [
	<!ENTITY ns_flows "http://ns.adobe.com/Flows/1.0/">
	<!ENTITY ns_extend "http://ns.adobe.com/Extensibility/1.0/">
	<!ENTITY ns_ai "http://ns.adobe.com/AdobeIllustrator/10.0/">
	<!ENTITY ns_graphs "http://ns.adobe.com/Graphs/1.0/">
	<!ENTITY ns_vars "http://ns.adobe.com/Variables/1.0/">
	<!ENTITY ns_imrep "http://ns.adobe.com/ImageReplacement/1.0/">
	<!ENTITY ns_sfw "http://ns.adobe.com/SaveForWeb/1.0/">
	<!ENTITY ns_custom "http://ns.adobe.com/GenericCustomNamespace/1.0/">
	<!ENTITY ns_adobe_xpath "http://ns.adobe.com/XPath/1.0/">
	<!ENTITY ns_svg "http://www.w3.org/2000/svg">
	<!ENTITY ns_xlink "http://www.w3.org/1999/xlink">
]>
<svg 
	 xmlns:x="&ns_extend;" xmlns:i="&ns_ai;" xmlns:graph="&ns_graphs;" i:viewOrigin="1.4238 46.0625" i:rulerOrigin="0 0" i:pageBounds="0 48 48 0"
	 xmlns="&ns_svg;" xmlns:xlink="&ns_xlink;" xmlns:a="http://ns.adobe.com/AdobeSVGViewerExtensions/3.0/"
	 width="44.172" height="43.625" viewBox="0 0 44.172 43.625" overflow="visible" enable-background="new 0 0 44.172 43.625"
	 xml:space="preserve">
	<metadata>
		<variableSets  xmlns="http://ns.adobe.com/Variables/1.0/">
			<variableSet  varSetName="binding1" locked="none">
				<variables></variables>
				<v:sampleDataSets  xmlns="http://ns.adobe.com/GenericCustomNamespace/1.0/" xmlns:v="http://ns.adobe.com/Variables/1.0/">
					</v:sampleDataSets>
			</variableSet>
		</variableSets>
		<sfw  xmlns="&ns_sfw;">
			<slices></slices>
			<sliceSourceBounds  x="1.424" y="2.438" width="44.172" height="43.625" bottomLeftOrigin="true"></sliceSourceBounds>
		</sfw>
	</metadata>
	<g id="Layer_1" i:layer="yes" i:dimmedPercent="50" i:rgbTrio="#4F008000FFFF">
		<g>
			<path i:knockout="Off" fill="#223742" d="M1.626,21.875c0,11.993,9.543,21.75,21.273,21.75s21.273-9.757,21.273-21.75
				s-9.543-21.75-21.273-21.75S1.626,9.882,1.626,21.875z M3.626,21.875c0-10.89,8.646-19.75,19.273-19.75
				c10.627,0,19.273,8.86,19.273,19.75c0,10.891-8.646,19.75-19.273,19.75C12.272,41.625,3.626,32.766,3.626,21.875z"/>
			<path i:knockout="Off" fill="#5383A0" d="M0,21.25C0,32.968,9.533,42.5,21.25,42.5c11.717,0,21.25-9.532,21.25-21.25
				C42.5,9.533,32.967,0,21.25,0C9.533,0,0,9.533,0,21.25z M2,21.25C2,10.636,10.636,2,21.25,2S40.5,10.636,40.5,21.25
				S31.864,40.5,21.25,40.5S2,31.864,2,21.25z"/>
		</g>
		<g>
			<g>
				<path i:knockout="Off" fill="#223742" d="M25.863,12.563c0,1.691-1.372,3.063-3.063,3.063c-1.691,0-3.063-1.371-3.063-3.063
					S21.109,9.5,22.801,9.5C24.491,9.5,25.863,10.871,25.863,12.563z"/>
				<path i:knockout="Off" fill="#223742" d="M25.301,32.438c0,1.07-1.119,1.938-2.5,1.938c-1.38,0-2.5-0.867-2.5-1.938V19.063
					c0-1.07,1.12-1.938,2.5-1.938c1.381,0,2.5,0.868,2.5,1.938V32.438z"/>
			</g>
			<g>
				<path i:knockout="Off" fill="#5383A0" d="M24.434,12.313c0,1.691-1.372,3.063-3.063,3.063c-1.691,0-3.063-1.371-3.063-3.063
					S19.68,9.25,21.371,9.25C23.062,9.25,24.434,10.621,24.434,12.313z"/>
				<path i:knockout="Off" fill="#5383A0" d="M23.871,32.188c0,1.07-1.119,1.938-2.5,1.938c-1.381,0-2.5-0.867-2.5-1.938V18.813
					c0-1.07,1.119-1.938,2.5-1.938c1.381,0,2.5,0.867,2.5,1.938V32.188z"/>
			</g>
		</g>
	</g>
</svg>
