<?xml version="1.0" encoding="utf-8"?>
<!-- Generator: Adobe Illustrator 10.0, SVG Export Plug-In . SVG Version: 3.0.0 Build 76)  -->
<!DOCTYPE svg PUBLIC "-//W3C//DTD SVG 1.0//EN"    "http://www.w3.org/TR/2001/REC-SVG-20010904/DTD/svg10.dtd" [
	<!ENTITY ns_flows "http://ns.adobe.com/Flows/1.0/">
	<!ENTITY ns_extend "http://ns.adobe.com/Extensibility/1.0/">
	<!ENTITY ns_ai "http://ns.adobe.com/AdobeIllustrator/10.0/">
	<!ENTITY ns_graphs "http://ns.adobe.com/Graphs/1.0/">
	<!ENTITY ns_vars "http://ns.adobe.com/Variables/1.0/">
	<!ENTITY ns_imrep "http://ns.adobe.com/ImageReplacement/1.0/">
	<!ENTITY ns_sfw "http://ns.adobe.com/SaveForWeb/1.0/">
	<!ENTITY ns_custom "http://ns.adobe.com/GenericCustomNamespace/1.0/">
	<!ENTITY ns_adobe_xpath "http://ns.adobe.com/XPath/1.0/">
	<!ENTITY ns_svg "http://www.w3.org/2000/svg">
	<!ENTITY ns_xlink "http://www.w3.org/1999/xlink">
]>
<svg 
	 xmlns:x="&ns_extend;" xmlns:i="&ns_ai;" xmlns:graph="&ns_graphs;" i:viewOrigin="-41.7954 -10.501" i:rulerOrigin="0 0" i:pageBounds="0 48 48 0"
	 xmlns="&ns_svg;" xmlns:xlink="&ns_xlink;" xmlns:a="http://ns.adobe.com/AdobeSVGViewerExtensions/3.0/"
	 width="44.169" height="43.623" viewBox="0 0 44.169 43.623" overflow="visible" enable-background="new 0 0 44.169 43.623"
	 xml:space="preserve">
	<metadata>
		<variableSets  xmlns="http://ns.adobe.com/Variables/1.0/">
			<variableSet  varSetName="binding1" locked="none">
				<variables></variables>
				<v:sampleDataSets  xmlns="http://ns.adobe.com/GenericCustomNamespace/1.0/" xmlns:v="http://ns.adobe.com/Variables/1.0/">
					</v:sampleDataSets>
			</variableSet>
		</variableSets>
		<sfw  xmlns="&ns_sfw;">
			<slices></slices>
			<sliceSourceBounds  x="-41.795" y="-54.124" width="44.169" height="43.623" bottomLeftOrigin="true"></sliceSourceBounds>
		</sfw>
	</metadata>
	<g id="Layer_2" i:layer="yes" i:dimmedPercent="50" i:rgbTrio="#FFFF4F004F00">
		<path i:knockout="Off" fill="none" stroke="#7F3A01" stroke-width="2" d="M43.17,21.874c0,11.46-9.077,20.75-20.273,20.75
			c-11.197,0-20.273-9.29-20.273-20.75S11.7,1.124,22.897,1.124C34.093,1.124,43.17,10.414,43.17,21.874z"/>
		<path i:knockout="Off" fill="#7F3A01" d="M33.42,22.124c0,1.782-0.149,3.163-1.072,3.228H11.867
			c-1.072,0.033-1.072-1.283-1.072-3.065c0-1.783,0-3.421,1.072-3.39h20.481C33.509,18.896,33.42,20.341,33.42,22.124z"/>
		<g i:knockout="Off">
			<path i:knockout="Off" fill="none" stroke="#E76F00" stroke-width="2" d="M41.499,21.249c0,11.184-9.066,20.25-20.25,20.25
				s-20.25-9.066-20.25-20.25c0-11.185,9.066-20.25,20.25-20.25S41.499,10.066,41.499,21.249z"/>
			<path i:knockout="Off" fill="#E76F00" d="M32.565,21.249c0,1.645-0.149,2.918-1.072,2.978H11.004
				c-1.072,0.03-1.072-1.185-1.072-2.829s0-3.155,1.072-3.127h20.488C32.653,18.271,32.565,19.604,32.565,21.249z"/>
		</g>
	</g>
</svg>
