<?xml version="1.0" encoding="utf-8"?>
<!-- Generator: Adobe Illustrator 10.0, SVG Export Plug-In . SVG Version: 3.0.0 Build 76)  -->
<!DOCTYPE svg PUBLIC "-//W3C//DTD SVG 1.0//EN"    "http://www.w3.org/TR/2001/REC-SVG-20010904/DTD/svg10.dtd" [
	<!ENTITY ns_flows "http://ns.adobe.com/Flows/1.0/">
	<!ENTITY ns_extend "http://ns.adobe.com/Extensibility/1.0/">
	<!ENTITY ns_ai "http://ns.adobe.com/AdobeIllustrator/10.0/">
	<!ENTITY ns_graphs "http://ns.adobe.com/Graphs/1.0/">
	<!ENTITY ns_vars "http://ns.adobe.com/Variables/1.0/">
	<!ENTITY ns_imrep "http://ns.adobe.com/ImageReplacement/1.0/">
	<!ENTITY ns_sfw "http://ns.adobe.com/SaveForWeb/1.0/">
	<!ENTITY ns_custom "http://ns.adobe.com/GenericCustomNamespace/1.0/">
	<!ENTITY ns_adobe_xpath "http://ns.adobe.com/XPath/1.0/">
	<!ENTITY ns_svg "http://www.w3.org/2000/svg">
	<!ENTITY ns_xlink "http://www.w3.org/1999/xlink">
]>
<svg 
	 xmlns:x="&ns_extend;" xmlns:i="&ns_ai;" xmlns:graph="&ns_graphs;" i:viewOrigin="6.2061 46.7261" i:rulerOrigin="0 0" i:pageBounds="0 48 48 0"
	 xmlns="&ns_svg;" xmlns:xlink="&ns_xlink;" xmlns:a="http://ns.adobe.com/AdobeSVGViewerExtensions/3.0/"
	 width="37.789" height="45.328" viewBox="0 0 37.789 45.328" overflow="visible" enable-background="new 0 0 37.789 45.328"
	 xml:space="preserve">
	<metadata>
		<variableSets  xmlns="http://ns.adobe.com/Variables/1.0/">
			<variableSet  varSetName="binding1" locked="none">
				<variables></variables>
				<v:sampleDataSets  xmlns="http://ns.adobe.com/GenericCustomNamespace/1.0/" xmlns:v="http://ns.adobe.com/Variables/1.0/">
					</v:sampleDataSets>
			</variableSet>
		</variableSets>
		<sfw  xmlns="&ns_sfw;">
			<slices></slices>
			<sliceSourceBounds  x="6.206" y="1.398" width="37.789" height="45.328" bottomLeftOrigin="true"></sliceSourceBounds>
			<optimizationSettings>
				<targetSettings  fileFormat="PNG24Format" targetSettingsID="0">
					<PNG24Format  transparency="true" interlaced="false" noMatteColor="false" matteColor="#FFFFFF" filtered="false">
						</PNG24Format>
				</targetSettings>
			</optimizationSettings>
		</sfw>
	</metadata>
	<g id="Layer_1" i:layer="yes" i:dimmedPercent="50" i:rgbTrio="#4F008000FFFF">
		<g i:knockout="Off">
			<path i:knockout="Off" fill="#223742" d="M15.823,0.556c0,0-2.509,3.732-3.032,4.509c-0.797-0.45-4.866-2.751-4.866-2.751
				L6.004,7.725l1.165,0.414c0,0,1.07-3.015,1.429-4.024c0.958,0.542,4.58,2.59,4.58,2.59s2.707-4.024,3.297-4.903
				c0.841,0.67,4.798,3.82,4.798,3.82s4.694-2.076,5.498-2.432c0.435,0.666,2.134,3.263,2.134,3.263s1.486-0.174,2.119-0.249
				c0.148,0.617,0.405,1.693,0.405,1.693l1.203-0.289l-0.661-2.76c0,0-1.923,0.225-2.452,0.287c-0.343-0.525-2.288-3.5-2.288-3.5
				s-5.17,2.286-5.774,2.554C20.938,3.775,16.198,0,16.198,0L15.823,0.556z"/>
			<path i:knockout="Off" fill="#5382A1" d="M14.605,0.83c0,0-2.525,3.269-3.034,3.928c-0.741-0.365-4.851-2.388-4.851-2.388
				L4.798,7.08l1.145,0.467c0,0,1.059-2.595,1.421-3.482c0.908,0.446,4.568,2.248,4.568,2.248s2.72-3.521,3.292-4.262
				c0.788,0.547,4.799,3.33,4.799,3.33s4.749-1.828,5.492-2.113c0.426,0.57,2.13,2.842,2.13,2.842s1.487-0.152,2.107-0.215
				c0.151,0.55,0.393,1.43,0.393,1.43l1.193-0.329l-0.674-2.437c0,0-1.951,0.2-2.45,0.25c-0.343-0.457-2.272-3.03-2.272-3.03
				s-5.205,2.004-5.751,2.214c-0.483-0.334-5.228-3.627-5.228-3.627L14.605,0.83z"/>
		</g>
		<path i:knockout="Off" fill="#484F01" d="M37.789,11.787c0-2.296-1.855-4.167-4.13-4.167H5.079c-2.274,0-4.127,1.87-4.127,4.167
			c0,0.134,0.026,0.264,0.039,0.395H0.986l0.012,0.061c0.022,0.207,0.053,0.409,0.106,0.602l5.258,29.761
			c0.013,0.084,0.026,0.169,0.045,0.253l0.048,0.265l0.027-0.008c0.386,1.247,1.449,2.154,2.721,2.203v0.009h0.091
			c0.005,0,0.008,0.001,0.013,0.001c0.003,0,0.007-0.001,0.013-0.001h20.106c1.519,0,2.762-1.228,2.954-2.811l0.03,0.004
			l5.286-29.815l-0.02-0.006C37.748,12.406,37.789,12.101,37.789,11.787z M35.53,17.938l-0.017-0.002l-4.351,24.381
			c-0.097,0.989-0.834,1.768-1.735,1.768c-0.008,0-0.013-0.002-0.019-0.002v0.017l-17.751-0.016
			c0.002-0.004,0.002-0.005,0.005-0.007H9.504v-0.018c-0.06,0.007-0.122,0.024-0.182,0.024H9.304
			c-0.802-0.005-1.475-0.623-1.678-1.461L7.578,42.36c-0.003-0.037-0.006-0.077-0.009-0.116l-0.018,0.003l-0.642-3.671L2.91,15.956
			l-0.013,0.002l-0.695-3.964l0.009-0.001l-0.001-0.005c-0.004-0.069-0.02-0.132-0.02-0.202c0-1.608,1.295-2.916,2.888-2.916H27.32
			V8.859h6.325v0.013c0.006,0,0.008-0.001,0.014-0.001c1.595,0,2.891,1.31,2.891,2.916C36.55,11.903,35.53,17.938,35.53,17.938z"/>
		<path i:knockout="Off" fill="#484F01" d="M28.709,44.507h1.596l1.236-1.647l0.363-2.371L28.709,44.507z"/>
		<path i:knockout="Off" fill="#97B101" d="M36.784,11.022c0-2.273-1.851-4.123-4.122-4.123H4.121C1.849,6.899,0,8.749,0,11.022
			c0,0.13,0.026,0.26,0.039,0.389H0.035l0.011,0.061c0.022,0.205,0.054,0.402,0.106,0.595l5.252,29.438
			c0.013,0.081,0.026,0.166,0.044,0.247l0.047,0.262l0.027-0.005c0.386,1.23,1.449,2.133,2.718,2.18v0.01h0.09
			c0.005,0,0.009,0.001,0.014,0.001c0.003,0,0.007-0.001,0.012-0.001h20.078c1.518,0,2.757-1.216,2.951-2.78l0.029,0.004
			l5.279-29.492l-0.021-0.006C36.743,11.634,36.784,11.333,36.784,11.022z M34.528,17.104l-0.015-0.003L30.17,41.215
			c-0.097,0.978-0.831,1.745-1.734,1.745c-0.007,0-0.011-0.003-0.019-0.003v0.017L10.69,42.962c0.002-0.003,0.002-0.005,0.005-0.008
			H8.538v-0.017c-0.06,0.009-0.118,0.024-0.181,0.024H8.34c-0.801-0.005-1.473-0.615-1.675-1.44l-0.047-0.263
			c-0.004-0.037-0.006-0.078-0.011-0.115l-0.018,0.003l-0.64-3.632L1.956,15.143l-0.013,0.002l-0.695-3.919l0.009-0.001
			l-0.001-0.005c-0.004-0.066-0.02-0.13-0.02-0.197c0-1.591,1.294-2.887,2.884-2.887H26.33V8.124h6.316v0.016
			c0.006,0,0.011-0.003,0.016-0.003c1.591,0,2.886,1.295,2.886,2.887C35.548,11.135,34.528,17.104,34.528,17.104z"/>
		<g>
			<g i:knockout="Off">
				<path i:knockout="Off" fill="#484F01" d="M13.615,35.526l1.147-2.836c1.85,0.618,3.929,0.697,5.988,0.095
					c1.751-0.513,3.248-1.455,4.412-2.662c-3.146,0.662-6.273,0.228-8.94-1.034l1.329-3.286l-8.344,2.739L13.615,35.526z"/>
				<path i:knockout="Off" fill="#484F01" d="M23.784,17.676L22.396,20.4c-1.789-0.773-3.854-1.037-5.955-0.614
					c-1.79,0.361-3.363,1.172-4.626,2.275c3.192-0.388,6.27,0.316,8.817,1.801l-1.609,3.162l8.551-2.007L23.784,17.676z"/>
			</g>
			<g i:knockout="Off">
				<path i:knockout="Off" fill="#97B101" d="M14.568,34.599l1.146-2.837c1.849,0.618,3.929,0.698,5.987,0.096
					c1.753-0.514,3.25-1.455,4.413-2.663c-3.147,0.662-6.272,0.228-8.939-1.034l1.328-3.285l-8.342,2.737L14.568,34.599z"/>
				<path i:knockout="Off" fill="#97B101" d="M24.738,16.747l-1.389,2.724c-1.788-0.772-3.853-1.037-5.955-0.613
					c-1.792,0.361-3.364,1.172-4.626,2.275c3.192-0.387,6.269,0.316,8.816,1.801l-1.607,3.162l8.55-2.006L24.738,16.747z"/>
			</g>
		</g>
	</g>
</svg>
